<svg version="1.1" xmlns="http://www.w3.org/2000/svg" xmlns:xlink="http://www.w3.org/1999/xlink" width="473.00031" height="359.16748" viewBox="0,0,473.00031,359.16748"><g transform="translate(-8.59196,-0.11884)"><g data-paper-data="{&quot;isPaintingLayer&quot;:true}" fill="#9966ff" fill-rule="nonzero" stroke="none" stroke-width="0.5" stroke-linecap="butt" stroke-linejoin="miter" stroke-miterlimit="10" stroke-dasharray="" stroke-dashoffset="0" style="mix-blend-mode: normal"><path d=""/><path d=""/><path d=""/><path d=""/><path d=""/><path d=""/><path d=""/><path d=""/><path d="M184.97393,62.77992c-0.09938,0.22953 -0.2369,0.46191 -0.41427,0.69937c0.14398,-0.22928 0.28216,-0.46256 0.41427,-0.69937z"/><path d="M79.12282,65.11231c-1.9799,-0.28284 -1.69706,-2.26274 -1.69706,-2.26274l0.51467,-3.06578c0.62372,-0.7655 1.40248,-1.42741 1.87117,-2.29652c0.50288,-0.93252 0.68144,-1.91032 0.94501,-2.78057c-1.56946,0.99885 -3.04779,2.08167 -4.80425,2.96835c0,0 -1.78885,0.89442 -2.68328,-0.89443c-0.89442,-1.78885 0.89442,-2.68328 0.89442,-2.68328c2.68118,-1.32578 4.74796,-3.08343 7.4156,-4.42283l0.1904,-0.00731l-0.0148,-0.05179l2.49176,-0.71193c0.18762,-0.05826 0.38707,-0.08965 0.59386,-0.08965c1.10457,0 2,0.89543 2,2c0,0.29551 -0.06409,0.57605 -0.17912,0.82848l-1.06952,2.49554l-0.24143,-0.10347c-0.76514,2.67838 -1.89738,5.19967 -3.75473,7.3743l-0.20996,2.00657c0,0 -0.28284,1.9799 -2.26274,1.69706z"/><path d="M96.81906,65.15882c-1.6641,1.1094 -2.7735,-0.5547 -2.7735,-0.5547l-0.77551,-1.16734c-0.50932,-0.86451 -1.08012,-1.62756 -1.66463,-2.35578c-1.64258,1.17854 -3.38496,2.2258 -5.14604,3.11564c0,0 -1.78886,0.89443 -2.68328,-0.89443c-0.89442,-1.78885 0.89443,-2.68328 0.89443,-2.68328c1.51384,-0.74746 3.03459,-1.64855 4.46769,-2.66527c-0.58568,-0.85456 -1.10286,-1.78514 -1.48521,-2.88426c0,0 -0.63245,-1.89737 1.26491,-2.52982c1.89736,-0.63246 2.52983,1.26491 2.52983,1.26491c0.18937,0.60428 0.44102,1.15649 0.73583,1.67432c0.22629,-0.21205 0.44735,-0.42697 0.66263,-0.64452l0.36231,-0.36231c0,0 1.41421,-1.41421 2.82843,0c1.41421,1.41421 0,2.82843 0,2.82843l-0.36231,0.36231c-0.34221,0.33926 -0.69463,0.67207 -1.05609,0.99807c0.73544,0.84811 1.47118,1.71534 2.08148,2.71801l0.67374,1.00653c0,0 1.1094,1.6641 -0.5547,2.7735z"/><path d="M48.60924,60.03468c-0.75554,0 -1.0544,-0.45667 -1.17263,-0.81796c-0.56212,-0.31217 -1.07845,-0.64545 -1.54938,-1.00867c-0.85488,0.80606 -1.86118,1.4373 -3.13411,1.78931c0,0 -1.21267,0.30317 -1.51584,-0.90951c-0.30317,-1.21268 0.9095,-1.51585 0.9095,-1.51585c0.78984,-0.16497 1.45172,-0.56311 2.02656,-1.09215c-0.65841,-0.88784 -1.15309,-1.93028 -1.48683,-3.18897c0,0 -0.30317,-1.21267 0.90951,-1.51584c1.21268,-0.30317 1.51585,0.9095 1.51585,0.9095c0.15346,0.67005 0.37834,1.2478 0.66893,1.75525c0.36624,-0.58335 0.70207,-1.18135 1.03195,-1.73288l-0.17813,0.28081c0,0 0,-1.25 1.25,-1.25c1.25,0 1.25,1.25 1.25,1.25l-0.17814,1.00543c-0.4806,0.79867 -0.95425,1.58352 -1.466,2.31375c0.49807,0.36563 1.05956,0.68955 1.67777,0.99745l0.69098,1.48034c0,0 0,1.25 -1.25,1.25z"/><path d="M146.69552,49.79057c-1.57981,1.82037 -3.84086,4.69072 -2.07024,7.03513c1.15793,1.53318 5.91004,4.06774 7.67967,2.77365c1.32448,-0.96856 0.83586,-1.76306 0.91438,-3.50028c0.14973,-3.31292 -0.82657,-5.8909 -4.21893,-5.92668l-0.75563,0.01835c0,0 -0.78319,0.00001 -1.54924,-0.40016zM146.59214,44.64747c0.79725,-0.45673 1.65261,-0.45673 1.65261,-0.45673l1.41822,0.01835c1.45009,0.23391 3.05225,0.01424 4.35026,0.70172c6.15268,3.25871 7.68903,15.53977 1.76528,19.58081c-6.05487,4.13048 -16.43913,-1.2408 -17.38868,-8.18931c-0.66126,-4.83891 1.37519,-7.59019 4.31634,-11.06395c0,0 1.75917,-2.05236 3.88596,-0.59089z"/><path d="M176.81477,63.80449c-2.12132,2.12132 -4.24264,0 -4.24264,0l-0.36231,-0.36231c-0.55532,-0.55532 -1.1144,-1.10122 -1.67158,-1.64438c-0.43771,0.61924 -0.88002,1.25099 -1.31947,1.91178c0,0 -1.66411,2.49615 -4.16026,0.83205c-2.49615,-1.6641 -0.83205,-4.16025 -0.83205,-4.16025c0.67641,-1.01232 1.39151,-1.95858 2.0805,-2.90754c-1.21206,-1.36874 -2.32954,-2.82096 -3.27601,-4.44696c0,0 -1.48842,-2.60473 1.11631,-4.09314c2.60473,-1.48842 4.09315,1.11631 4.09315,1.11631c0.37602,0.67442 0.79657,1.31458 1.25088,1.92874l0.34501,-0.69503c0,0 1.34164,-2.68328 4.02492,-1.34164c2.68328,1.34164 1.34164,4.02492 1.34164,4.02492l-0.65047,1.28936c-0.21963,0.49883 -0.45346,0.97696 -0.69909,1.43978c0.87109,0.83125 1.75109,1.65528 2.59916,2.50336l0.36231,0.36231c0,0 2.12132,2.12132 0,4.24264z"/><path d="M182.08923,122.09996c-8.7421,1.75163 -17.61095,3.04208 -26.38453,5.13559c-3.13677,0.74848 -6.40909,0.97108 -9.46578,1.9988c-1.43195,0.48145 -2.73592,1.27868 -4.09419,1.94548c0.26687,0.59141 0.26687,1.15399 0.26687,1.15399v2.53618c-0.02525,8.71206 -2.83684,17.16702 -5.51728,25.32656c-1.00966,7.10205 -0.36667,14.20521 -0.96004,21.34648c-0.19028,2.29012 -0.44158,4.57445 -0.72132,6.85575c8.10228,-1.72609 15.61146,-4.91581 23.49533,-7.3582c4.04309,-1.25253 8.23174,-1.74114 12.19822,-3.21852c1.56735,-0.58379 2.93145,-1.61146 4.40773,-2.39757c2.00875,-1.06965 4.30522,-1.48033 6.42843,-2.29959c2.5864,-0.99799 2.76082,-1.64519 5.26926,-2.82587c3.89603,-1.8338 7.38577,-2.85084 11.60966,-3.70654c1.87993,-0.4504 3.74697,-1.00711 5.52118,-1.77469l1.38231,-0.46608c-0.03346,-16.41026 -0.91594,-32.69062 -1.06479,-49.07159c-7.64464,0.95804 -14.75177,5.29317 -22.37107,6.81983zM144.45361,124.56394c0.49319,-0.16587 9.35373,-2.01593 10.09027,-2.19178c8.82212,-2.10633 17.72895,-3.41103 26.52161,-5.16627c7.88718,-1.57449 15.08164,-5.86371 23.02737,-6.91756l0.41496,-0.17333c-0.60429,-2.10865 1.52519,-2.93678 1.52519,-2.93678c9.82588,-3.82112 19.52659,-8.13327 29.65046,-11.10003c8.80764,-2.58104 18.76867,-3.41702 27.17091,-7.10828c6.9586,-3.05705 13.08318,-6.73216 20.42444,-8.9923c3.0193,-1.20919 6.13284,-2.19575 9.08112,-3.56907c4.18516,-1.94947 7.63625,-5.12943 11.69202,-7.20077c3.0147,-1.53965 6.37303,-2.08234 9.40818,-3.82243c1.10624,-0.63422 1.9937,-1.60641 3.09749,-2.24488c3.29688,-1.90704 6.99558,-2.86904 10.52477,-4.16384c2.35415,-0.86369 4.47227,-2.28327 6.7958,-3.22624c9.35319,-3.79586 18.97355,-7.01263 28.38264,-10.55398c4.46328,-1.47788 9.24279,-3.0555 13.88628,-3.74131l1.73685,-0.62146c0,0 2.37171,-0.79057 3.16228,1.58114c0.79057,2.37171 -1.58114,3.16228 -1.58114,3.16228l-2.61088,0.82779c-4.28207,0.5864 -8.81419,2.12447 -12.92473,3.5049c-9.33481,3.48849 -18.86333,6.70234 -28.13788,10.46005c-2.38241,0.96527 -4.56112,2.40362 -6.97201,3.29536c-3.25139,1.20261 -6.72845,2.03461 -9.76465,3.807c-2.59613,1.5155 -5.09864,3.2216 -7.83606,4.46384c-1.6175,0.73402 -3.43984,0.97622 -5.02004,1.78742c-2.53346,1.30057 -4.68147,3.25408 -7.13924,4.69258c-4.52523,2.64856 -9.26463,4.33809 -14.1157,6.27624c-7.22735,2.22252 -13.22369,5.87526 -20.08764,8.85945c-8.64236,3.75738 -18.72857,4.67616 -27.7667,7.32475c-9.43705,2.76548 -18.5021,6.72887 -27.65049,10.33741c0.00142,18.07139 1.08699,36.00044 1.08699,54.09085c0,4.90317 0,9.80633 0,14.7095c0,4.11287 0.38613,8.11318 -0.74879,12.08541c0.01677,1.7169 -0.0039,3.42958 -0.05382,5.13902c-0.01137,0.03937 -0.02085,0.07954 -0.02835,0.12041l-0.35762,1.75241l0.26263,0.0536c-0.29217,0.73541 -0.51824,1.49268 -0.64593,2.26711l0.0421,0.1031h-0.04636v1.44924c0,0.38379 0.17296,0.72719 0.44519,0.95649c-0.59595,9.01808 -1.71185,17.98159 -2.13169,27.0372c-0.35784,7.71823 0.32222,15.58875 -0.36776,23.28279c-0.48711,5.43187 -0.71734,10.6456 -0.71734,16.11336c-0.06254,3.37854 -0.22577,3.72873 2.5762,5.5742l-0.36616,-0.46567c0,0 2.5,0 2.5,2.5c0,2.5 -2.5,2.5 -2.5,2.5l-2.54003,-0.46567c-3.95338,-2.97208 -4.60332,-4.72646 -4.67002,-9.64287c0,-5.59013 0.21974,-10.93984 0.7319,-16.49462c0.70298,-7.62445 0.00515,-15.44073 0.35687,-23.09301c0.40293,-8.76621 1.35493,-17.44161 1.97847,-26.16123c-0.30775,0.10372 -0.61371,0.21218 -0.91763,0.32606c-0.043,1.38706 -1.43006,2.08059 -1.43006,2.08059l-0.72462,0.36231c-1.91055,0.94515 -4.00174,1.47111 -5.98292,2.25754c-5.50443,2.18499 -10.77655,5.46614 -16.19568,7.92433c-5.51835,2.5032 -11.38075,4.06094 -16.67746,7.09777c-5.12783,2.94001 -9.17378,7.32442 -13.83078,10.85738c-3.97799,3.01784 -8.22457,4.32295 -12.08543,7.44788c0,0 -1.95217,1.56173 -3.51391,-0.39044c-0.38325,-0.47906 -0.55489,-0.93461 -0.5957,-1.34934c-0.3205,0.60813 -0.94507,1.20067 -2.16217,1.20067c-0.20576,0 -0.39459,-0.01694 -0.56787,-0.04802c-0.12384,0.2514 -0.30604,0.50821 -0.56285,0.76503c-1.76776,1.76776 -3.53553,0 -3.53553,0l-0.72462,-0.72462c-3.41937,-3.46789 -8.11794,-5.56204 -11.57328,-9.03735c-2.45654,-2.47073 -4.3418,-5.83469 -6.65595,-8.47509c0,0 -1.64626,-1.88144 0.23518,-3.5277c1.88144,-1.64626 3.5277,0.23518 3.5277,0.23518c0.36186,0.41419 0.71342,0.8499 1.05873,1.29926c0.04546,-22.94002 0.3568,-45.90284 0.3568,-68.8544c0,-15.6858 0.93482,-31.68515 0.0031,-47.3382c-0.49238,-8.27207 -0.81035,-16.74508 0.0093,-25.01044c0.19812,-1.96366 0.35245,-3.9369 0.34991,-5.91053l0.41086,-2.30185c0,0 0.49029,-2.45145 2.94174,-1.96116c0.56255,0.11251 0.97019,0.32829 1.26439,0.59403c0.02828,-1.07148 0.09306,-2.14509 0.09306,-3.21493c0,-12.31237 2.54208,-24.92122 5.50931,-36.83743c0,0 0.60634,-2.42536 3.03169,-1.81902c1.00547,0.25136 1.48989,0.81536 1.71249,1.38957c0.13492,-0.01497 0.21735,-0.01497 0.21735,-0.01497l0.48059,0.07465c0.97682,-0.24413 1.95363,-0.48826 2.93045,-0.73239c1.36647,-0.29788 2.73714,-0.4819 4.11097,-0.59816c-0.37978,-1.56369 -0.73068,-3.11896 -0.93774,-4.57652c-0.77902,-5.48397 -0.38881,-11.48268 -0.38881,-17.02933v-1.08693c0,0 0,-2.5 2.5,-2.5c2.5,0 2.5,2.5 2.5,2.5v1.08693c0,5.29917 -0.41639,11.07085 0.33581,16.30327c0.23462,1.63207 0.64766,3.36563 1.07687,5.09538c2.7154,-0.03784 5.43795,-0.03291 8.15955,-0.33627c11.54333,-1.28665 23.17123,-2.29915 34.721,-3.61633c0.25905,-0.02954 0.51758,-0.06255 0.77566,-0.09857c-1.37121,-6.24198 -3.32636,-12.41417 -3.3066,-18.81228l-0.65259,-2.19613c0,0 -0.6868,-2.4038 1.71701,-3.09061c2.40381,-0.68681 3.09061,1.71701 3.09061,1.71701l0.79665,2.87623c0.01857,6.32599 1.91494,12.38624 3.26475,18.55477c0.93859,-0.21126 1.87633,-0.42665 2.81633,-0.62486c1.79451,-0.37841 3.53984,-1.34064 5.36869,-1.20356c2.42339,0.18165 5.49881,0.19657 6.97292,2.12864c1.33301,1.74714 -0.09532,4.39918 -0.32488,6.58474c-0.05184,0.49359 -0.10128,0.98346 -0.14805,1.47069c6.78298,-1.08646 13.56325,-2.255 20.29289,-3.5521c3.28465,-0.6331 6.44348,-1.84285 9.73663,-2.43015c8.76757,-1.56363 17.79131,-1.50562 26.59154,-2.89648c5.65184,-0.89326 11.41725,-2.42414 16.95136,-3.81622c11.4717,-2.45832 22.7204,-7.35945 34.41478,-8.38924l0.50398,-0.24265c0,0 2.37171,-0.79057 3.16228,1.58114c0.79057,2.37171 -1.58114,3.16228 -1.58114,3.16228l-1.66989,0.48196c-4.48871,0.34939 -8.02616,1.97711 -12.42945,2.86462c-7.22685,1.45661 -14.04983,3.86529 -21.27023,5.41246c-5.65773,1.4063 -11.52846,2.96983 -17.30021,3.88421c-8.76753,1.38897 -17.76202,1.32625 -26.49607,2.88042c-3.26969,0.58182 -6.40495,1.78618 -9.66555,2.41696c-7.1694,1.38696 -14.39987,2.62014 -21.62736,3.76763c-0.0895,1.72783 -0.13392,3.46999 -0.12217,5.27549c0.52566,3.25723 0.81314,6.54845 1.21299,9.8235c0.6286,5.14873 2.18421,10.03908 1.65636,15.29223c-0.17837,1.77519 0.10996,3.90596 -1.06976,5.24438c-1.02864,1.16702 -2.9952,0.87407 -4.53259,1.11167c-3.6053,0.5572 -7.38836,-0.1761 -11.0466,0.34386c-15.45398,2.19651 -31.36971,0.85174 -46.9269,2.41184c-0.08526,0.0085 -0.17054,0.01698 -0.25585,0.02541c-0.01567,0.07703 -0.02811,0.12056 -0.02811,0.12056l-0.6526,2.19612c0.03947,4.75978 -0.55137,9.37927 -0.67747,14.06171c0.01471,0.00711 0.02948,0.01438 0.04429,0.02178c2.23607,1.11804 1.11803,3.3541 1.11803,3.3541l-0.53533,0.93755c-1.25721,4.88364 -0.64998,10.29873 -0.64998,15.33535c0,4.09614 0.06869,8.19232 0.14626,12.28652c1.35117,-0.66234 2.64548,-1.46188 4.06962,-1.94084zM199.7007,171.47465c-6.08267,1.19947 -10.47125,4.08792 -16.1148,6.29809c-2.80734,1.09943 -3.52938,0.76071 -5.89014,2.04814c-1.66263,0.90671 -3.24036,2.00656 -5.01235,2.67478c-4.05175,1.52793 -8.31046,2.02347 -12.43893,3.30308c-8.35111,2.58839 -16.29039,5.94648 -24.91495,7.6809c0,0 -0.33273,0.06654 -0.77754,0.02802c-0.83643,6.26765 -1.70392,12.52806 -1.92432,18.83888c-0.31922,9.14039 -0.00062,18.35355 0.00151,27.50163c0.28733,-0.48444 0.64831,-0.77323 0.64831,-0.77323c3.93698,-3.11807 8.2219,-4.48503 12.17676,-7.51922c4.81542,-3.69441 9.0528,-8.15763 14.37288,-11.21755c4.04787,-2.32818 8.58307,-3.99774 12.9383,-5.57785c7.04617,-2.55641 13.41234,-6.82721 20.30843,-9.64551c0.4162,-0.73708 1.15327,-1.10562 1.15327,-1.10562c2.12149,-1.0601 4.09647,-2.42439 6.29158,-3.32219c1.32145,-0.54047 2.67929,-0.96681 4.05643,-1.33588c0.13763,-2.64059 0.22916,-5.2877 0.25045,-7.94504c1.0766,-3.76809 0.70046,-7.47897 0.70046,-11.39191c0,-3.45282 0,-6.90565 0,-10.35847c-1.88765,0.75742 -3.85006,1.33592 -5.82536,1.81897zM138.95264,37.68592c-2.45145,0.49029 -2.94174,-1.96116 -2.94174,-1.96116c-0.03086,-0.15447 -0.06287,-0.31001 -0.09591,-0.4665c-1.38525,0.10695 -2.76194,0.28805 -4.12447,0.59777c-0.95551,0.23895 -1.91102,0.47791 -2.86653,0.71686l-1.69327,0.07464c0,0 -0.39747,0.00001 -0.87545,-0.15848c-1.78874,7.79655 -3.00435,15.7021 -3.88294,23.62891c-0.45807,4.13281 -0.71245,7.87192 -0.71245,12.07223c0,0.96617 0.2264,1.95922 0,2.89848c-0.08409,0.34884 -1.2005,0.75312 -0.85599,0.65277c1.03435,-0.30129 1.93419,-0.98137 2.97236,-1.26923c5.40209,-1.49788 11.91619,-0.7219 17.50099,-1.28172c15.49478,-1.54525 31.3546,-0.22176 46.74366,-2.3901c3.04388,-0.42888 5.97494,-0.38839 9.03584,-0.38559c0.79361,0.00073 1.59177,-0.08 2.38083,0.00483c0.43824,0.04712 1.04632,0.77009 1.26438,0.38705c0.33499,-0.58845 -0.31073,-1.32559 -0.34513,-2.00183c-0.07892,-1.55129 0.14269,-3.11259 0.00621,-4.65988c-0.57603,-6.53033 -1.83239,-13.30528 -2.86431,-19.78935c-0.04362,-4.41582 -0.54546,-8.90287 0.72303,-13.20009c0.28785,-0.97511 1.64736,-1.96345 1.12437,-2.83534c-0.48101,-0.8019 -1.88129,-0.11155 -2.8051,0.03335c-4.45463,0.6987 -8.80101,2.31945 -13.30721,2.84039c-11.58617,1.33942 -23.25903,2.34655 -34.8427,3.62989c-2.49738,0.27668 -5.02176,0.26229 -7.54032,0.27551c0.03008,0.69785 -0.12839,2.21265 -1.99813,2.58659zM116.65924,229.81882c3.28203,3.25953 7.55991,5.3535 10.96673,8.46318c-0.03284,-8.69103 -0.29828,-17.43264 0.00476,-26.10997c0.3633,-10.40276 2.45306,-20.66223 3.32082,-31.04422c0.61832,-7.39765 0.01636,-14.69909 1.07297,-22.06487c1.58703,-4.89118 3.31896,-9.91545 4.37931,-15.03441c-0.80379,-0.73901 -0.80379,-1.91231 -0.80379,-1.91231c0.00824,-9.2807 -0.36231,-18.59297 -0.36231,-27.89795c0,-5.31682 -0.47451,-10.78178 0.66732,-15.97862c-0.66732,-0.7382 -0.66732,-1.77462 -0.66732,-1.77462c0.01954,-5.57412 0.71108,-11.02228 0.74878,-16.65075l0.31723,-1.14531c-3.91948,0.3187 -7.85702,0.56732 -11.75194,0.7574c-2.30939,0.1127 -4.91574,1.20652 -6.93595,0.0819c-0.32378,-0.18024 -0.52921,-0.45011 -0.65763,-0.77677c-0.06776,1.16522 -0.168,2.32901 -0.28311,3.48985c-0.8088,8.0165 -0.45726,16.24073 0.0093,24.26385c0.91546,15.74264 0.00311,31.81358 0.00311,47.58727c0,24.75902 -0.36232,49.53133 -0.36232,74.27375c0,0 0.00001,0.43284 -0.1801,0.93831c0.16871,0.18297 0.33995,0.36131 0.51413,0.53429z"/><path d="M429.95821,52.24147c0.79057,2.37171 -1.58114,3.16228 -1.58114,3.16228l-2.75682,0.84427c-2.9837,0.24274 -4.05854,0.10317 -6.65571,0.96475c-1.39471,0.46268 -2.58376,1.11521 -3.79259,1.7499c0.00691,0.0328 0.01344,0.06614 0.01959,0.10003c0.4466,2.45979 -2.01318,2.90639 -2.01318,2.90639l-0.37443,0.06798c-3.23334,0.58615 -6.44892,1.28008 -9.63665,2.07783c-8.33445,1.89459 -17.00306,3.17565 -25.16354,5.74095c-10.03312,3.15398 -19.39751,8.52521 -29.34981,11.95712c-11.86921,4.09293 -24.85042,6.17711 -37.09186,8.90631c-17.83125,3.96245 -34.22254,12.39054 -51.14692,18.95584c-10.0686,3.90581 -20.71566,6.38764 -30.13471,11.7861c0,0 -1.50584,0.86048 -2.72576,-0.1062c0,19.04872 0,38.09745 0,57.14619c4.16796,-1.99244 8.55193,-3.34608 12.92805,-4.98728c4.37063,-1.63914 8.74059,-3.7817 13.20714,-5.1273c2.59848,-0.78282 5.34053,-1.02108 7.93956,-1.80204c6.43619,-1.93394 12.4471,-5.22185 18.56302,-7.86615c3.32188,-1.43626 6.7311,-1.7251 10.03584,-3.20894c1.78323,-1.00376 3.77899,-1.57384 5.69658,-2.28817c2.10255,-0.78323 3.71475,-2.23479 5.87377,-2.92549c2.58909,-0.82828 5.33106,-1.16627 7.86988,-2.13779c7.80222,-2.98564 15.32579,-7.17876 23.49198,-9.15214c1.51462,-0.36602 3.12074,-0.28304 4.62171,-0.70155c4.57324,-1.27514 8.77429,-3.75088 12.99156,-5.79754c7.49545,-3.63757 15.59699,-5.89206 23.30424,-9.01503c5.37757,-3.08468 11.00159,-5.6103 16.46006,-8.5349c5.14349,-2.75584 10.03335,-5.62889 15.40166,-7.90775c0.41755,-0.5464 0.96395,-0.8196 0.96395,-0.8196c6.11422,-3.05711 12.37563,-4.99617 18.61109,-7.67033l1.23462,-1.10355c0,0 1.95217,-1.56173 3.51391,0.39044c1.56174,1.95217 -0.39044,3.51391 -0.39044,3.51391l-2.38849,1.79493c-5.16691,2.21295 -10.3333,3.90276 -15.42532,6.17096c-0.45569,0.7387 -1.24098,1.07526 -1.24098,1.07526l-2.5478,1.09187c-5.37913,2.23744 -10.24241,5.1244 -15.37291,7.87223c-5.5156,2.95409 -11.19238,5.51614 -16.63134,8.62237c-7.69761,3.13703 -15.82035,5.37692 -23.30773,9.01673c-4.48937,2.1824 -8.96001,4.74647 -13.8245,6.11385c-1.55836,0.43805 -3.2237,0.37248 -4.79837,0.74769c-7.95141,1.89464 -15.28348,6.08008 -22.88382,8.9634c-6.33819,2.4045 -13.0562,3.70572 -18.96472,7.141c-3.39043,1.49456 -6.91104,1.83074 -10.25357,3.31266c-6.26379,2.77708 -12.50072,6.09348 -19.11732,8.07552c-2.62052,0.785 -5.38243,1.0333 -8.00212,1.82107c-6.90106,2.07522 -13.39279,5.67007 -20.21868,7.94868c-2.32487,0.77608 -4.68702,1.53266 -6.83182,2.71892c0,0 -0.19851,0.10828 -0.50868,0.20001c0,2.35101 0,4.70203 0,7.05304c-0.26123,0.17523 -0.4892,0.48109 -0.4892,1.0149c0,0.53843 0.23193,0.84494 0.49598,1.01942l-0.1094,0.54699l0.25287,0.05058c-0.09617,0.30149 -0.15903,0.59466 -0.20009,0.91529c-0.17998,0.75439 -0.29564,1.41179 -0.07703,1.97131c-0.00018,0.17843 -0.00003,0.3675 -0.00003,0.56876v1.81155c0,0.19706 0.0456,0.38346 0.12682,0.54924c-0.0063,13.84576 -0.40396,27.77707 -0.31402,41.66022c0.30752,-0.20956 0.55939,-0.30401 0.55939,-0.30401c10.73801,-4.01256 21.29555,-9.39031 32.34772,-12.5736c5.89727,-1.69855 12.2994,-2.14274 18.1163,-4.12872c4.75178,-1.62233 8.36478,-4.58145 12.74187,-6.7635c3.54334,-1.76641 7.57501,-2.88172 11.18995,-4.68967c6.97352,-3.48165 12.69281,-8.80586 19.44228,-12.61531c2.06481,-1.16539 4.41645,-1.82181 6.36933,-3.16637c2.47118,-1.7014 4.10941,-3.77728 6.93674,-4.93488c1.41875,-0.58088 3.01048,-0.62587 4.45803,-1.13074c4.21072,-1.46859 7.79879,-4.48292 11.89154,-6.13432c7.30554,-2.94773 14.66937,-4.96425 21.55866,-8.97433c8.41766,-3.26228 16.9234,-5.5608 24.9452,-9.75734c6.74493,-3.52856 11.90227,-9.19026 19.46252,-11.35032l3.41138,-1.71769c0,0 2.23607,-1.11804 3.35411,1.11803c1.11804,2.23607 -1.11804,3.3541 -1.11804,3.3541l-3.83483,1.90543c-7.34003,2.09715 -12.38214,7.64114 -18.94244,11.11296c-8.06664,4.26899 -16.63004,6.58442 -25.11139,9.84109c-6.97042,4.07513 -14.44378,6.17086 -21.86098,9.10757c-4.1338,1.63671 -7.7686,4.69084 -12.02098,6.18426c-1.37246,0.482 -2.88171,0.51585 -4.23744,1.04313c-1.64649,0.64037 -5.11589,3.81132 -6.10645,4.48521c-2.0587,1.40055 -4.50172,2.13804 -6.67387,3.35522c-6.84213,3.83408 -12.62514,9.2105 -19.6873,12.74645c-3.63596,1.81751 -7.71972,2.95014 -11.27333,4.73041c-4.55592,2.28241 -8.3825,5.31053 -13.34452,7.00431c-5.87786,2.0064 -12.32707,2.47 -18.28448,4.1803c-10.92011,3.13503 -21.37404,8.46214 -31.97395,12.44999c0,0 -1.25544,0.47079 -2.27227,-0.1966c0.04925,3.4723 0.13458,6.94073 0.26977,10.40321c0.09864,2.52623 0.39863,4.91907 0.65875,7.32534c0.42978,0.68631 0.42977,1.45924 0.42977,1.45924c0,11.18433 0.35413,21.66616 3.56928,32.45427l0.09685,0.75763c6.15512,-2.10201 12.626,-2.35219 18.90144,-4.10311c7.44899,-2.07835 15.05985,-5.12387 22.13895,-8.22044c2.37155,-1.03737 4.56152,-2.51222 7.02238,-3.31506c7.45898,-2.43346 13.39439,-4.24654 19.74823,-9.05657c3.21546,-2.12453 5.17063,-3.54172 8.58266,-5.31005c2.1563,-1.11753 4.6304,-1.57592 6.72285,-2.80888c3.2624,-1.92235 6.18306,-5.03918 9.32239,-7.18391c9.97488,-6.81464 21.35265,-11.75046 31.69419,-17.98368c8.47217,-5.10649 16.43891,-10.77423 25.15263,-15.53396c10.53453,-4.22457 22.56702,-5.49027 32.47602,-11.16455c4.30201,-2.4635 7.96406,-5.76762 12.24975,-8.29413l-0.13816,0.0249c0,0 1.76777,-1.76776 3.53554,0c1.76776,1.76776 0,3.53554 0,3.53554l-0.86277,0.74953c-4.33965,2.54538 -8.0276,5.87648 -12.3874,8.37217c-10.04512,5.75015 -22.07616,7.04478 -32.73996,11.29874c-8.55138,4.69434 -16.37989,10.27297 -24.70387,15.29364c-10.26787,6.19314 -21.59638,11.07351 -31.49033,17.85394c-3.20445,2.19604 -6.17813,5.34686 -9.51778,7.30853c-2.19946,1.29194 -4.78042,1.814 -7.04497,2.98809c-3.10039,1.60744 -5.03699,3.0028 -7.96474,4.93707c-6.70707,5.05191 -13.07964,7.16183 -20.9495,9.68119c-2.37106,0.75905 -4.46407,2.20979 -6.74543,3.20654c-7.2926,3.18622 -15.11678,6.30879 -22.78761,8.44586c-6.41585,1.78744 -13.10107,1.92563 -19.34351,4.2763c0,0 -0.7312,0.2742 -1.52952,0.10743c-0.26609,0.27558 -0.64135,0.51351 -1.1661,0.67094c-2.39456,0.71837 -3.11293,-1.6762 -3.11293,-1.6762c-1.44952,-4.90528 -4.27867,-9.23834 -7.48382,-13.23256c-0.94993,-1.18379 -2.6048,-1.56466 -3.84176,-2.44425c-3.07896,-2.18943 -3.80873,-5.10936 -4.3341,-8.60053l-0.25914,-0.64991c0,0 -0.79057,-2.37171 1.58114,-3.16228c2.37171,-0.79057 3.16227,1.58114 3.16227,1.58114l0.46548,1.52395c0.21163,1.59105 0.15767,2.641 1.04453,4.02434c1.3442,2.09668 4.24762,2.45284 5.99667,4.49568c0.39,0.45551 0.77263,0.92015 1.14708,1.39327c-0.78892,-5.416 -1.07146,-10.8511 -1.16481,-16.39748c-0.04208,-0.24425 -0.04209,-0.40846 -0.04209,-0.40846v-0.36231c0,-4.76348 -0.87823,-8.91529 -1.08534,-13.67871c-0.81915,-18.83954 -0.00159,-37.89559 -0.00159,-56.75433c0,-0.04237 0,-0.08476 0,-0.12713c-0.01344,0.00618 -0.02689,0.01236 -0.04033,0.01854l0.07623,-0.67843l-0.18035,-0.02027c0.25692,-0.81096 0.4684,-1.63414 0.61306,-2.46989l-0.03218,-0.10383l0.03719,0.00026l0.01553,-2.26147c0.00002,-0.00334 0.00004,-0.00669 0.00004,-0.01004c0,-0.40409 -0.19174,-0.76338 -0.4892,-0.99188c0,-24.18574 0,-48.37149 0,-72.55724c0,0 0,-2.5 2.5,-2.5c0.81524,0 1.36463,0.26584 1.73487,0.62416c0.38779,-0.66372 1.0102,-1.01938 1.0102,-1.01938c9.6701,-5.51034 20.48814,-8.1035 30.80709,-12.10643c17.17154,-6.66118 33.78187,-15.12987 51.8672,-19.17448c12.07806,-2.69278 24.9237,-4.72456 36.62821,-8.77926c9.94705,-3.44588 19.31222,-8.79102 29.34457,-11.9554c8.29114,-2.61518 17.08981,-3.92836 25.56,-5.853c2.11979,-0.52942 4.2515,-1.01413 6.3922,-1.45399c0.11507,-1.60563 1.83437,-2.09686 1.83437,-2.09686c2.67732,-0.72663 4.47929,-2.3378 7.13491,-3.22617c3.14851,-1.05325 4.33898,-0.91132 7.83672,-1.20911l1.59091,-0.60497c0,0 2.37171,-0.79057 3.16228,1.58114z"/><path d="M228.39012,190.76884l-0.05776,0.09627h-0.01689c0,0 -0.06352,0 -0.16193,0.01432c0.07881,-0.03692 0.15767,-0.07379 0.23658,-0.1106z"/><path d=""/><path d="M449.65734,191.19119c1.28624,2.14373 -0.85749,3.42997 -0.85749,3.42997l-1.45153,0.82465c-2.34395,2.04943 -4.54146,4.20466 -6.92971,6.1984c0,0 -1.92056,1.60046 -3.52102,-0.32009c-1.60046,-1.92056 0.32009,-3.52101 0.32009,-3.52101c2.35938,-1.96238 4.52646,-4.09605 6.83811,-6.12018l2.17158,-1.34922c0,0 2.14373,-1.28624 3.42997,0.8575z"/><path d="M465.37934,181.10517c1.95217,1.56174 0.39043,3.51391 0.39043,3.51391l-1.77443,2.14796c-1.68951,1.44609 -3.43757,2.82764 -5.24624,4.12161c0,0 -2.03433,1.4531 -3.48743,-0.58124c-1.4531,-2.03433 0.58124,-3.48743 0.58124,-3.48743c1.69081,-1.20565 3.3228,-2.49659 4.89847,-3.84923l1.12405,-1.47515c0,0 1.56174,-1.95218 3.51391,-0.39044z"/><path d="M450.30282,144.41457c0.60012,2.4269 -1.82677,3.02703 -1.82677,3.02703l-0.08488,-0.06005c-2.81331,1.51026 -5.71948,2.87238 -8.71866,3.96805c0,0 -2.34948,0.85436 -3.20384,-1.49513c-0.85436,-2.34948 1.49512,-3.20384 1.49512,-3.20384c2.77526,-1.0041 5.46025,-2.26867 8.05689,-3.67144l1.25512,-0.3914c0,0 2.4269,-0.60012 3.02703,1.82677z"/><path d="M464.40269,134.50382c1.4531,2.03433 -0.58124,3.48743 -0.58124,3.48743l-2.51263,1.79452c-0.95838,0.71885 -1.91676,1.43771 -2.87513,2.15657c0,0 -2,1.5 -3.5,-0.5c-1.5,-2 0.5,-3.5 0.5,-3.5c0.97395,-0.73039 1.94789,-1.46078 2.92184,-2.19117l2.55973,-1.82859c0,0 2.03433,-1.4531 3.48743,0.58123z"/><path d="M449.8348,90.46419c0.92847,2.32119 -1.39272,3.24967 -1.39272,3.24967l-2.24974,0.85489c-3.75057,0.74479 -6.78832,1.82618 -10.635,1.8601c0,0 -2.5,0 -2.5,-2.5c0,-2.5 2.5,-2.5 2.5,-2.5c3.4405,0.03883 6.26823,-1.08134 9.65442,-1.763l1.37337,-0.59436c0,0 2.32119,-0.92848 3.24966,1.39271z"/><path d="M472.21296,83.75304c1.11804,2.23607 -1.11804,3.3541 -1.11804,3.3541l-2.25739,1.12678c-2.28348,1.03767 -4.55713,2.09895 -6.80038,3.22095c0,0 -2.23606,1.11803 -3.3541,-1.11804c-1.11804,-2.23607 1.11803,-3.3541 1.11803,-3.3541c2.29874,-1.14899 4.62799,-2.23699 6.96743,-3.30065l2.09034,-1.04708c0,0 2.23607,-1.11804 3.35411,1.11803z"/><path d="M466.45522,42.68276c1.60949,1.913 -0.30351,3.52249 -0.30351,3.52249l-1.99363,1.29542c-6.16893,1.30799 -11.6796,3.89713 -17.48589,6.34189c0,0 -2.30408,0.97015 -3.27423,-1.33394c-0.97015,-2.30409 1.33394,-3.27423 1.33394,-3.27423c6.10863,-2.57204 11.89098,-5.21916 18.37853,-6.62273l-0.1777,-0.2324c0,0 1.913,-1.60949 3.52248,0.30351z"/><path d="M481.06899,35.59293c1.4531,2.03433 -0.58123,3.48743 -0.58123,3.48743l-2.54588,1.81845c-1.21095,0.84768 -2.42189,1.69535 -3.63284,2.54303c0,0 -2.04808,1.43366 -3.48174,-0.61442c-1.43365,-2.04808 0.61442,-3.48174 0.61442,-3.48174c1.20446,-0.84311 2.40892,-1.68621 3.61338,-2.52932l2.52648,-1.80466c0,0 2.03433,-1.45309 3.48742,0.58124z"/><path d="M330.34056,8.68035c0.48534,-0.38587 1.92448,-1.28993 3.36362,0.1492c1.76776,1.76777 0,3.53554 0,3.53554l-1.58776,1.03501c-1.82641,0.3992 -3.63931,0.92515 -5.3545,1.66895c0,0 -2.29786,0.9848 -3.28266,-1.31306c-0.9848,-2.29786 1.31306,-3.28266 1.31306,-3.28266c1.78864,-0.75891 3.65734,-1.33693 5.54823,-1.79298z"/><path d="M371.5523,1.64169c0.9848,2.29786 -1.31306,3.28266 -1.31306,3.28266l-2.60104,1.11366c-1.35033,0.49138 -2.70067,0.98276 -4.051,1.47414c0,0 -2.34948,0.85436 -3.20384,-1.49513c-0.85436,-2.34948 1.49513,-3.20384 1.49513,-3.20384c1.30662,-0.47478 2.61322,-0.94957 3.91984,-1.42435l2.47132,-1.0602c0,0 2.29786,-0.9848 3.28266,1.31307z"/><path d="M37.62163,153.28384c-1.18657,0.33495 -2.55548,0.15653 -3.61358,0.78945c-3.69439,2.20983 -7.64062,5.82913 -11.90666,7.00884c0,0 -0.2195,0.05487 -0.49507,0.02454c-0.02207,0.12674 -0.06644,0.26299 -0.13931,0.40873c-0.55901,1.11803 -1.67705,0.55902 -1.67705,0.55902c-2.96021,-1.5608 -3.86132,-5.80952 -7.01632,-6.59828l-1.3955,-1.7406c0,0 -0.75,-1 0.25,-1.75c1,-0.75 1.75,0.25 1.75,0.25l0.77837,1.15788c3.23063,0.80766 3.73158,4.72365 6.3896,6.25762c0.00813,-0.06469 0.02142,-0.12548 0.03895,-0.18258c-0.06505,-0.30632 -0.01256,-0.56878 -0.01256,-0.56878c0.87656,-4.30378 0.33804,-9.12658 0.33804,-13.52267c0,-8.73643 -0.02139,-17.47318 0.00608,-26.20956c1.61837,-8.09185 2.6121,-16.34861 3.95578,-24.57111c0.34056,-2.08402 0.93349,-2.44599 1.11726,-4.42049c0.248,-2.66469 0.07438,-5.38232 0.72722,-7.99367l-0.00937,-1.65882c0,0 0,-1.22152 1.20753,-1.24951c-0.07144,-0.78779 -0.11571,-1.5777 -0.12059,-2.36776l-0.00001,-0.73046c0,0 0,-1.25 1.25,-1.25c1.25,0 1.25,1.25 1.25,1.25l-0.00002,0.71877c0.00066,0.2174 0.00476,0.43479 0.01196,0.65213c0.20586,-0.45886 0.4617,-0.91762 0.80249,-1.37082l-0.0133,-0.26955c-0.25757,-0.09578 -0.51055,-0.30302 -0.67555,-0.71553c-0.46424,-1.1606 0.69636,-1.62484 0.69636,-1.62484c1.00594,-0.39808 1.87684,-1.10864 2.90306,-1.45106c2.17388,-0.72536 4.72384,-0.37205 6.87058,-1.09602c0.71265,-0.24034 1.2354,-0.9119 1.95757,-1.12191c2.81995,-0.82004 6.13324,0.07814 8.99746,-0.64239c2.4047,-0.60493 4.91191,-1.45162 7.3174,-2.25997c0.02193,-0.76786 0.11265,-1.55112 0.14052,-2.27677c0.14037,-3.6538 1.7331,-7.99222 2.53504,-11.58371c-0.00859,-3.07668 -0.18896,-9.46562 3.17676,-11.30672c1.99039,-1.08877 7.845,-0.2596 10.04318,-0.2596c0.42426,0 0.84851,0 1.27277,0c-0.01197,-0.10793 -0.01197,-0.17386 -0.01197,-0.17386c0.00384,-3.36152 0.10009,-5.80803 1.45367,-8.78841c0.02951,-0.39411 0.25607,-1.90705 1.99558,-1.90705c2,0 2,2 2,2l-0.21115,1.25673c-1.33289,2.57678 -1.24168,4.53202 -1.2381,7.43872c0,0 0,0.06593 -0.01197,0.17386c5.1343,0 10.2686,0 15.4029,0c0.59971,0 1.27529,-0.04465 1.98619,-0.09884c0.01901,-4.49155 0.36154,-8.97228 0.36154,-13.48053v-0.36231c0,0 0,-2 2,-2c2,0 2,2 2,2v0.36231c0,4.44646 -0.34333,8.87367 -0.36162,13.30241c0.80477,0.03219 1.55892,0.13566 2.20198,0.36278c4.98445,1.76043 5.09986,6.80928 6.81426,10.93213c0.04649,3.75735 0.04084,7.51386 0.04084,11.27146v1.81155c0,0 0,2 -2,2c-2,0 -2,-2 -2,-2v-1.81155c0,-3.4894 -0.01624,-6.97822 0.04085,-10.4672c-1.01431,-2.28638 -1.09884,-7.03789 -4.05508,-7.90803c-1.95413,-0.57518 -4.93564,0.08581 -7.02896,0.08581c-6.88391,0 -13.76781,0 -20.65172,0c-2.17387,0 -4.35143,0.12662 -6.5216,0c-0.52323,-0.03053 -1.05739,-0.43642 -1.55078,-0.2596c-0.29563,0.10595 -0.16096,0.60733 -0.25531,0.90687c-0.7961,2.52745 -0.90869,4.69067 -0.91567,7.35121c-0.83907,3.86759 -1.56499,7.76685 -2.53731,11.60418c-0.1305,0.51506 -0.55135,1.0353 -0.6202,1.54045c0.07017,0.10262 0.13185,0.22605 0.18121,0.37413c0.01744,0.05232 0.03181,0.10312 0.04333,0.1524c0.23904,-0.09045 0.62964,-0.62427 0.94468,-0.67018c0.95607,-0.1393 1.93232,0 2.89848,0c1.57001,0 3.14003,0 4.71005,0c7.99152,0 16.49477,0.89972 24.41891,0.01194c2.89456,-0.32429 5.76987,-1.12353 8.69284,-1.44895c0,0 1.98776,-0.22086 2.20863,1.7669c0.22087,1.98776 -1.76691,2.20863 -1.76691,2.20863c-2.9235,0.32415 -5.80109,1.13003 -8.69809,1.44954c-8.0813,0.89128 -16.71074,0.01194 -24.85538,0.01194c-2.48412,0 -5.13723,0.21137 -7.60853,0c-1.32635,-0.11344 -3.13606,0.46728 -3.95039,-0.58579c-0.11912,-0.15404 -0.21976,-0.3167 -0.30445,-0.48658c-2.34652,0.79123 -4.7934,1.61877 -7.12645,2.18662c-2.83328,0.6896 -6.2032,-0.20785 -8.94345,0.6284c-0.66428,0.20272 -1.12855,0.85202 -1.78815,1.06947c-2.13222,0.70292 -4.64214,0.35041 -6.77462,1.06033c-0.48565,0.16168 -0.93686,0.40493 -1.38384,0.65909l-0.05334,1.80152c-1.75705,2.82843 -1.62145,5.31154 -3.93559,7.76787c0,0 -0.32599,0.326 -0.77999,0.38405c-0.16183,1.78615 -0.13288,3.59552 -0.3099,5.38357c-0.15444,1.56002 -0.88398,3.01638 -1.1364,4.56358c-0.20744,1.27151 -0.40675,2.54417 -0.60147,3.81712c1.82975,-0.10076 2.33734,-0.54921 4.39162,-1.34335c2.88082,-1.11367 6.36666,-0.49837 9.35579,-0.79935c2.19899,-0.22142 3.90374,-1.43295 6.26404,-1.45826l-0.4736,0.00346c0,0 0.88388,-0.88389 1.76777,0c0.88388,0.88389 0,1.76776 0,1.76776l-1.2462,0.72843c-2.29847,-0.01054 -3.8103,1.17834 -6.00656,1.43988c-2.39228,0.28489 -4.87455,0.13286 -7.27577,0.36559c-1.18426,0.11478 -2.18577,0.94221 -3.29554,1.37123c-1.34205,0.51881 -2.51733,0.46754 -3.86289,0.4501c-0.90608,6.0629 -1.76184,12.11881 -2.95246,18.07197c0.00733,2.03414 0.01155,4.06831 0.01371,6.10249c1.0254,-0.63156 2.20465,-1.02137 3.28675,-1.56171c5.92184,-2.957 11.44989,-6.05137 17.97804,-7.68819l0.14391,-0.39583c0,0 0.8363,-0.8363 1.69542,-0.06847c0.03026,-2.58419 0.15978,-5.13816 0.46425,-7.62517c1.15286,-9.4169 3.11549,-18.98068 3.23962,-28.52136c-0.03873,-0.23694 -0.03238,-0.45135 0.00556,-0.64434c0.00042,-0.09982 0.00063,-0.19962 0.00063,-0.29943c0,0 0,-2 2,-2c0.39835,0 0.71736,0.07934 0.97283,0.20642c6.32959,-2.34943 12.79813,-3.77254 19.47885,-4.83577l2.31069,-1.00591c0,0 1.83829,-0.78784 2.62613,1.05045c0.78784,1.83829 -1.05045,2.62613 -1.05045,2.62613l-2.76167,1.16795c-6.72925,1.16145 -13.22446,2.49042 -19.60507,4.8952c-0.2497,9.31515 -2.07306,18.66306 -3.24709,27.8494c-1.07798,8.43473 0.01888,17.75649 0.01325,26.28745c-0.4286,5.14777 0.37921,10.6912 -0.37991,15.77366c-1.08285,7.24982 -1.5204,14.46807 -1.69045,21.75043c0.8995,-0.38602 1.82572,0.1697 1.82572,0.1697l1.81155,1.08693c3.17941,1.93524 5.97238,4.63281 8.4483,7.46018c0.09303,-11.11408 0.50494,-22.07748 1.43832,-33.14303c0.77614,-9.2015 -0.01011,-18.80537 -0.01011,-28.03574c0.00803,-4.38889 0.98696,-8.2652 1.84833,-12.25791c-0.76139,-0.74055 -0.76139,-1.87221 -0.76139,-1.87221c0.05367,-7.20749 1.81156,-14.3981 1.81156,-21.73866l0.90343,-2.74003c0,0 0.92848,-2.32119 3.24967,-1.39271c1.21566,0.48627 1.53999,1.35453 1.57316,2.07129c0.25091,-0.26217 0.49151,-0.39966 0.49151,-0.39966c1.52625,-0.86772 2.81306,-2.13541 4.38424,-2.91884c3.52811,-1.75921 7.61846,-2.26834 11.42008,-2.99015c6.83302,-1.29738 14.42319,-2.42252 20.85027,-4.99389l1.99556,-1.3433c0,0 1.6641,-1.1094 2.7735,0.5547c1.1094,1.6641 -0.5547,2.7735 -0.5547,2.7735l-2.35217,1.55519c-6.82349,2.72893 -14.71482,4.00669 -21.9663,5.3836c-3.35632,0.63729 -7.13598,1.00942 -10.25471,2.57404c-1.54443,0.77482 -2.81269,2.01791 -4.31122,2.87813c0,0 -1.73649,0.99228 -2.72877,-0.74421c-0.12539,-0.21943 -0.2072,-0.42697 -0.25445,-0.62214l-0.2191,0.35448c0,4.73553 -0.25818,9.32288 -0.73955,14.04061c-0.00155,0.01525 -0.00313,0.03048 -0.00472,0.0457c0.74427,0.74074 0.74427,1.85537 0.74427,1.85537l-0.01529,2.08763c-0.38537,3.46837 -1.23215,6.61494 -1.90888,9.81315c8.42105,-4.80014 17.92951,-6.83506 27.08456,-9.81858c2.43431,-0.79332 5.24931,-1.84514 7.67244,-2.55981c1.40509,-0.41442 2.98036,-0.45206 4.217,-1.23738l1.39131,-0.28501c0,0 2,0 2,2c0,1.63694 -1.33979,1.9341 -1.82621,1.98804c-3.73834,1.98837 -8.29171,2.60959 -12.33508,3.93432c-9.13232,2.99202 -18.70869,4.92404 -27.02623,9.92275c0,0 -0.97339,0.58402 -1.8935,0.13878c-0.16309,1.27622 -0.26139,2.58348 -0.25861,3.94321c0,7.89894 0.53883,16.04811 0.2501,24.01038c1.79709,-0.68571 3.436,-0.56981 5.71134,-1.28226c2.57948,-0.80767 5.0578,-2.30499 7.73974,-2.93463c7.6556,-1.7973 16.36681,-1.69307 23.49349,-5.28346l1.95293,-0.78762c0,0 1.85696,-0.74278 2.59974,1.11417c0.74278,1.85695 -1.11418,2.59974 -1.11418,2.59974l-1.67018,0.66162c-7.53787,3.64971 -16.30876,3.69341 -24.33155,5.58587c-2.58865,0.61062 -4.97652,2.10403 -7.47732,2.86236c-2.65197,0.80417 -4.45427,-0.03835 -6.59316,1.82657c0,0 -0.2319,0.18552 -0.58846,0.32422c-0.95319,11.65097 -1.36221,23.17842 -1.41562,34.9054c6.47153,-3.69536 13.00948,-7.34764 20.09077,-9.71715c4.10578,-1.37386 8.42618,-2.11841 12.57802,-3.58821c3.17195,-1.12291 5.87917,-3.34016 8.96383,-4.67256l0.76537,-0.55043c0,0 1.6641,-1.1094 2.7735,0.5547c1.1094,1.6641 -0.5547,2.7735 -0.5547,2.7735l-1.4085,0.89881c-3.16543,1.34445 -5.89831,3.57638 -9.15172,4.74752c-4.21669,1.5179 -8.60723,2.26858 -12.78375,3.65802c-7.41436,2.4666 -14.2095,6.46678 -20.9751,10.33283c0,0 -0.56137,0.32078 -1.22814,0.27838c-0.36352,0.28593 -0.87001,0.48513 -1.57568,0.48513c-2.5,0 -2.5,-2.5 -2.5,-2.5c0,-0.17838 0.00007,-0.35672 0.00022,-0.53501c-1.11509,0.26328 -1.93516,-0.7208 -1.93516,-0.7208c-2.42982,-2.92023 -5.26839,-5.96501 -8.55032,-7.89853l-1.64443,-0.98666c-0.02826,2.28457 -0.03662,4.577 -0.03662,6.8802v0.36231c0,0 0,2 -2,2c-2,0 -2,-2 -2,-2v-0.36231c0,-10.88557 0.09421,-21.61036 1.74216,-32.31839c-2.84336,1.16275 -5.98968,1.7182 -8.91821,2.54488zM32.7763,151.89779c4.23804,-2.33444 9.79953,-1.72654 14.10768,-4.03363c0.29313,-4.28241 -0.26266,-8.85762 0.08929,-13.07729c-0.0039,-5.53619 -0.42629,-11.36254 -0.4565,-17.08571l-1.22747,0.99058c-6.36848,1.58776 -11.74914,4.63562 -17.52844,7.52888c-1.11909,0.56024 -2.4068,0.85583 -3.37022,1.65462c0,0 -0.44292,0.35434 -0.97073,0.28727c0.00165,5.73818 -0.00938,11.47644 -0.00938,17.21451c0,4.14837 0.40783,8.58279 -0.17014,12.71957c3.32963,-1.41102 6.59416,-4.57838 9.53591,-6.19879z"/><path d="M25.50977,67.19681c-1.33911,0.54619 -2.62545,1.21775 -3.91147,1.90233c-0.02156,2.72679 -0.504,5.29449 -0.72958,7.99202c-0.44948,5.37524 0.10121,10.70916 -0.76932,16.06009c-1.0204,6.27211 -3.13886,12.51463 -4.00603,18.8122c-1.02902,8.20752 -2.47272,16.28817 -3.56225,24.51424c-0.39883,3.01118 -0.11163,5.99931 -0.35648,9.00243c-0.17274,2.11861 -1.11256,3.60659 -1.08267,5.69387c0,0 0,1.25 -1.25,1.25c-1.25,0 -1.25,-1.25 -1.25,-1.25c0.02418,-2.19554 0.93382,-3.74074 1.09119,-5.90008c0.82783,-11.35899 2.52553,-22.42068 3.93195,-33.63937c0.89924,-6.32251 2.98349,-12.57428 4.0145,-18.87068c0.86815,-5.30178 0.31466,-10.57788 0.75039,-15.90982c0.17755,-2.17264 0.54962,-4.26543 0.67599,-6.42607c-0.20523,0.08677 -1.14079,0.41438 -1.63659,-0.57723c-0.55901,-1.11804 0.55901,-1.67705 0.55901,-1.67705c0.37518,-0.18731 0.74838,-0.38055 1.12058,-0.57667v-0.11685c0,0 0,-1.25 1.25,-1.25c0.37149,0 0.63257,0.11041 0.81606,0.26559c1.1307,-0.59718 2.26917,-1.16915 3.44323,-1.63074c0.85428,-0.33586 1.73253,-0.50653 2.6145,-0.64458c-0.14454,-0.14612 -0.26848,-0.31129 -0.36736,-0.49818c-0.37504,-0.70889 -0.12372,-1.59976 -0.14791,-2.40137c-0.08351,-2.76734 -0.02829,-5.56624 0.05363,-8.33307c0.0258,-0.03871 0.05052,-0.0784 0.07421,-0.11903c-0.07875,-0.15928 -0.12785,-0.35792 -0.12785,-0.60567c0,-0.63011 0.31762,-0.94258 0.63265,-1.09754c0.22357,-1.52081 0.20111,-3.28199 1.20398,-4.15485c0.28688,-0.24968 3.77048,-0.99859 4.36254,-1.06388c1.59186,-0.17553 3.1403,-0.06988 4.66686,0.16293c0.00173,-2.26799 0.10112,-4.0491 1.22219,-6.36194l0.59646,-0.68717c0,0 0.88388,-0.88388 1.76777,0c0.88388,0.88388 0,1.76776 0,1.76776l-0.12816,0.03744c-1.04869,2.01805 -0.99563,3.63309 -0.96397,5.71601c2.04345,0.44134 4.06842,0.96101 6.1284,1.17652c0.3957,0.0414 0.98374,0.06568 1.65361,0.09551c0.69244,-1.2998 0.24909,-2.24554 0.62185,-3.81297c0.3554,-1.49439 1.11909,-2.87363 1.45462,-4.37261l0.69752,-0.96997c0,0 0.88388,-0.88388 1.76777,0c0.88388,0.88388 0,1.76776 0,1.76776l-0.02709,-0.24535c-0.33917,1.48086 -1.08693,2.84617 -1.44387,4.32284c-0.31735,1.31288 -0.24629,2.36618 -0.53165,3.4772c1.07472,0.11338 2.03672,0.30129 2.50052,0.64283c2.38712,1.75785 1.25918,6.6398 0.95214,8.98382c-0.60099,1.18433 -1.00247,2.32535 -1.31665,3.48861c0.28614,-0.02755 0.61984,0.05418 0.95354,0.38789c0.88388,0.88388 0,1.76776 0,1.76776c-0.55557,0.53208 -1.12161,0.9352 -1.70174,1.2404c-0.0427,0.21644 -0.08594,0.43534 -0.13028,0.65704l0.02427,0.47947c0,0 0,1.25 -1.25,1.25c-1.25,0 -1.25,-1.25 -1.25,-1.25l0.0084,-0.33543c-1.29342,0.18117 -2.66854,0.13617 -4.15688,0.13619c-4.08021,0.00007 -8.36721,0.35732 -12.43531,-0.00229c-2.30769,1.02435 -4.7907,0.79713 -7.07722,1.72974zM32.99689,62.67118c0,0 0.79095,-0.26365 1.29624,0.28566c0.18257,0.00832 0.36532,0.01282 0.54828,0.0125c3.3936,-0.0059 6.78728,-0.00006 10.18089,0c1.54801,0.00003 3.14097,0.18559 4.55254,-0.188c0.41194,-2.0292 0.87564,-3.92261 1.87727,-5.86885c0.06276,-0.53446 0.89256,-5.77152 0.12307,-6.12228c-1.19087,-0.54283 -4.14865,-0.37148 -5.6253,-0.54401c-3.86941,-0.45211 -7.4517,-1.80306 -11.47078,-1.80548c-0.90378,-0.00055 -3.51486,-0.13281 -4.20974,0.37928c-0.30383,0.22391 -0.42786,1.05743 -0.53412,1.99056c1.36656,-0.32589 2.52835,-0.80474 4.28434,0.37138c0.67954,0.45514 1.80682,0.61765 2.00769,1.41047c0.566,2.23389 -5.27041,5.1591 -0.82355,4.94226c0.48251,-0.02353 0.96617,0 1.44925,0h0.36231c0,0 1.25,0 1.25,1.25c0,1.25 -1.25,1.25 -1.25,1.25h-0.36231c-2.24012,0 -4.62392,0.79068 -5.5441,-1.9747c-0.50632,-1.52163 0.05319,-2.70062 1.03711,-3.78229c0.39359,-0.4327 2.00229,-0.57946 1.50958,-0.8947c-1.49992,-0.95965 -2.82454,-0.39701 -4.32019,-0.06202c-0.05215,0.15429 -0.11194,0.28694 -0.1815,0.39128c0.13932,2.82372 -0.50163,6.08997 -0.09427,8.83034c0.09415,0.63333 1.28204,0.01123 1.91957,0.07053c0.54607,0.05079 1.0912,0.123 1.6366,0.18914z"/><path d="M94.98504,359.28632c-3,0 -3,-3 -3,-3v-1.81155c0.01675,-6.78781 -0.32801,-13.52749 -2.70311,-19.94912c-0.92049,-2.48875 -3.12899,-4.51351 -4.95654,-6.56285c0.36497,2.86253 0.25597,5.90145 -1.49966,7.83106c0,0 -0.00126,0.00125 -0.00371,0.00362c-0.10358,1.08712 -1.24248,1.08712 -1.24248,1.08712l-0.39356,-0.20994c-2.79451,1.81468 -5.41621,1.04819 -8.56277,1.29275c-3.58362,0.27853 -6.97595,0.75932 -10.49282,1.55322c-3.87947,0.38543 -7.62695,0.28525 -11.47046,-0.10594c-2.38475,-0.24273 -5.05309,0.47124 -7.40428,-0.02596c-2.37893,-0.50306 -4.68986,-1.01766 -7.27614,-0.6683c-3.39194,0.45819 -5.23967,3.49618 -9.03135,3.59719c-0.02531,0.0011 -0.05116,0.00165 -0.07757,0.00165c-0.43412,0 -0.71747,-0.15076 -0.90241,-0.34758c-0.19682,-0.18495 -0.34759,-0.4683 -0.34759,-0.90242v-1.08693c0,-2.97608 0.09428,-6.47667 -1.30133,-9.19258c-0.25196,-0.49032 -0.95573,-0.67874 -1.13969,-1.1984c-1.35365,-3.82394 0.71496,-9.43953 1.35835,-13.26234c0.0231,-1.33249 0.81187,-2.54167 1.11518,-3.83938c0.92133,-3.942 1.0425,-8.54032 1.79519,-12.56174c0.59998,-3.20549 0.09242,-7.40365 -0.68713,-10.30687c-0.39147,-1.45792 -0.08027,-3.29816 -0.39167,-4.82713c0,0 -0.24515,-1.22573 0.98058,-1.47087c1.22573,-0.24514 1.47087,0.98058 1.47087,0.98058c0.96414,4.89931 1.99962,10.91364 1.09507,16.02475c-0.72106,4.07434 -0.91352,8.71778 -1.82792,12.72767c-0.26951,1.18189 -1.08566,2.26726 -1.05869,3.47919c-0.50524,3.05759 -1.46105,6.27112 -1.44499,9.31698c0.0049,0.92801 -0.4448,1.92281 -0.09515,2.78244c0.17854,0.43896 0.82637,0.54958 1.03418,0.97546c1.50346,3.08114 1.59334,6.74001 1.59701,10.10175c2.76349,-0.54431 4.5218,-2.96469 7.49203,-3.46435c2.80115,-0.47121 5.61659,0.11072 8.20565,0.70531c2.18315,0.50137 4.85003,-0.24605 7.08816,-0.02596c3.62506,0.35647 7.16068,0.48732 10.82379,0.12603c3.57212,-0.81363 7.04938,-1.29996 10.69025,-1.57724c2.51994,-0.19191 5.19562,0.62793 7.37892,-0.88112l0.9641,-0.11369c0.11636,-0.27648 0.29463,-0.45476 0.29463,-0.45476c2.05903,-1.71947 0.51673,-7.41846 0.02963,-9.69825c-0.33303,-1.55873 0.15203,-3.29405 -0.02736,-4.87407c-0.40265,-3.5465 -1.3688,-7.59814 -0.71457,-11.19272c0.42797,-2.35138 1.75928,-4.67788 2.65103,-6.87842c2.86217,-4.64484 2.1799,-10.46565 2.97679,-15.69581c-1.99574,-0.02204 -4.0898,-0.25038 -5.87938,-0.25038c-5.56394,0 -11.04183,0.36231 -16.63012,0.36231c-5.08464,0 -9.92881,-0.22294 -14.95786,-0.72888c-0.56332,-0.05667 -2.65437,0.09388 -3.08257,-0.02918c-2.05744,-0.59125 -4.03495,-1.95536 -6.12343,-2.52827c-1.89642,-0.52022 -4.96167,0.30205 -5.95482,2.00508c0,0 -0.69338,1.04007 -1.73344,0.34669c-1.04006,-0.69338 -0.34669,-1.73344 -0.34669,-1.73344c3.99835,-5.58254 9.72648,-2.10611 14.73276,-0.52319c0.86275,0.27279 1.81399,-0.11874 2.7144,-0.02918c4.96195,0.49354 9.73245,0.72036 14.75165,0.72036c5.58935,0 11.06347,-0.36231 16.63013,-0.36231c1.91537,0 4.30522,0.33035 6.443,0.28593c0.18449,-0.16579 0.45187,-0.28593 0.83939,-0.28593c0.29282,0 0.51704,0.0686 0.68874,0.17365c0.2655,-0.03679 0.52315,-0.08355 0.77116,-0.14204c1.65995,-0.39144 3.22279,-1.2045 4.91393,-1.42521l2.29235,-0.05529c0,0 1.24966,-0.02927 1.27893,1.22039c0.02927,1.24966 -1.22038,1.27893 -1.22038,1.27893l-2.16635,0.04915c-1.56967,0.1855 -2.99725,1.02458 -4.5399,1.36883c-0.2819,0.06291 -0.57286,0.11336 -0.87117,0.15324c-1.05551,5.65278 -0.25943,11.77083 -3.28912,16.93865c-0.78961,1.96784 -2.04041,4.06705 -2.42133,6.16478c-0.61239,3.3725 0.37251,7.2191 0.73468,10.54593c0.11606,1.06605 -0.1379,2.31485 -0.13659,3.45466c0.10617,-0.10038 0.22368,-0.19948 0.35348,-0.29682c2.4,-1.8 4.2,0.6 4.2,0.6c2.40327,3.21918 5.38291,5.59938 6.92623,9.43054c2.80454,6.96205 3.07809,14.67565 3.09385,22.07896v1.81155c0,0 0,3 -3,3z"/><path d="M35.20373,319.85597c-1.25,0 -1.25,-1.25 -1.25,-1.25l0.00011,-0.37813c0.05948,-4.50745 0.7348,-9.38225 2.09924,-13.8559c-0.55612,0.85872 -1.08825,1.71482 -1.58904,2.55858c0,0 -0.64312,1.07187 -1.71498,0.42874c-1.07186,-0.64312 -0.42875,-1.71499 -0.42875,-1.71499c2.22837,-3.67939 4.94912,-7.6299 7.7456,-10.96708l0.87147,-1.92311c0.1906,-0.44675 0.63386,-0.75988 1.15026,-0.75988c0.69035,0 1.25,0.55964 1.25,1.25c0,0.17413 -0.03561,0.33994 -0.09993,0.49056l-0.91795,2.29487c-0.47254,3.125 -3.25929,6.05355 -4.10101,9.14641c-1.0882,3.99854 -1.71523,8.95846 -1.76512,13.08344l0.0001,0.34648c0,0 0,1.25 -1.25,1.25z"/><path d="M52.69358,313.5666c-0.39529,1.18586 -1.58114,0.79057 -1.58114,0.79057l-1.81759,-1.00526c-0.16727,-0.3508 -0.34018,-0.71216 -0.51529,-1.08218c-1.24594,0.72 -2.5609,1.2867 -3.73719,2.23998c0,0 -0.97608,0.78087 -1.75695,-0.19522c-0.78087,-0.97609 0.19522,-1.75696 0.19522,-1.75696c1.28901,-1.01986 2.90752,-1.6322 4.28094,-2.52283c-0.98788,-2.29332 -1.82675,-4.75253 -1.85158,-7.0081c0,0 0,-1.25 1.25,-1.25c1.25,0 1.25,1.25 1.25,1.25c-0.03248,2.2684 0.83984,2.95632 1.67103,4.83737c0.66042,-0.77378 1.30871,-1.55916 2.09858,-2.19313l0.25579,-0.26732c0,0 0.88388,-0.88389 1.76777,0c0.88388,0.88389 0,1.76777 0,1.76777l-0.46882,0.4573c-1.0725,0.84107 -1.82041,2.02942 -2.77361,3.00451c0.15584,0.56015 0.33154,1.11211 0.58601,1.63299l0.35628,-0.28063c0,0 1.18586,0.39529 0.79057,1.58114z"/><path d="M59.47856,311.92131c1.25,0 1.25,1.25 1.25,1.25v0.72462c-0.06109,3.28522 2.13052,2.40888 3.45122,0.12311c0.42582,-0.80036 0.58045,-1.75275 0.57038,-2.65929c-0.01476,-1.32839 -0.00328,-2.65696 0,-3.98543c0.00151,-0.61431 0.58854,-1.31764 0.24457,-1.82662c-0.31251,-0.46243 -0.78165,0.81827 -1.26565,1.0962c-1.50144,0.8622 -3.95109,3.23897 -5.85903,1.6143c-0.59936,-0.51038 -0.30457,-1.54831 -0.36612,-2.33312c-0.27309,-3.48236 1.46007,-7.21836 1.44924,-10.86933c0,0 0,-1.25 1.25,-1.25c0.43659,0 0.7207,0.15249 0.90557,0.35095c0.37002,-0.35095 0.90599,-0.35095 0.90599,-0.35095c1.57001,0 3.14002,0 4.71004,0h0.72463c0,0 1.25,0 1.25,1.25c0,1.25 -1.25,1.25 -1.25,1.25c-1.57001,0 -3.86465,0 -5.43466,0c0,0 -0.29167,0 -0.59323,-0.14089c-0.1561,2.8782 -0.8582,5.34681 -1.44012,8.18505c-0.14514,0.70792 0.08791,1.56083 -0.34356,2.14053c-0.36947,0.4964 0.83627,-0.93275 1.35744,-1.26637c1.09081,-0.69827 3.94834,-2.60096 5.2857,-1.82011c1.14143,0.66645 0.96673,2.89373 0.96919,3.97035c0.00636,2.78486 0.33862,5.30806 -0.87886,7.84774c-1.09637,1.77805 -4.26205,5.13503 -6.8689,2.96975c-1.46881,-1.22001 -1.25316,-2.75019 -1.27384,-4.29588v-0.72462c0,0 0,-1.25 1.25,-1.25z"/><path d="M78.84411,316.4321c0,1.25 -1.25,1.25 -1.25,1.25h-1.44925c-2.72144,-0.05241 -3.73992,-1.06499 -5.92272,-2.75838c1.16402,-2.63446 2.22023,-5.90784 3.84736,-8.29818c1.47019,-2.15978 4.6582,-5.02219 5.18415,-7.75027c0.53414,-2.77051 -1.63747,-3.12422 -3.83349,-2.62314c-1.61184,0.36779 -1.65705,2.67987 -1.64841,3.87599c0,0 0,1.25 -1.25,1.25c-1.25,0 -1.25,-1.25 -1.25,-1.25c0.02587,-4.42602 2.31506,-6.60642 6.68466,-6.32235c0.72942,0.04742 1.64154,-0.25823 2.18014,0.23594c4.70888,4.32047 -1.66946,10.5901 -4.00262,13.99385c-1.39301,2.03219 -1.67123,4.54172 -3.48643,6.28183c1.32576,0.32509 2.12229,0.90429 3.49737,0.86472h1.44925c0,0 1.25,0 1.25,1.25z"/></g></g></svg>