<svg version="1.1" xmlns="http://www.w3.org/2000/svg" xmlns:xlink="http://www.w3.org/1999/xlink" width="190.55676" height="294.56859" viewBox="0,0,190.55676,294.56859"><g transform="translate(-131.2522,-33.09819)"><g data-paper-data="{&quot;isPaintingLayer&quot;:true}" fill="#9966ff" fill-rule="nonzero" stroke="none" stroke-width="0.5" stroke-linecap="butt" stroke-linejoin="miter" stroke-miterlimit="10" stroke-dasharray="" stroke-dashoffset="0" style="mix-blend-mode: normal"><path d="M234.20141,301.58459c-0.42888,1.00614 -0.95493,1.97823 -1.25717,3.02873c-0.06847,0.23798 -0.35297,2.51562 0.50061,2.73898c0.80444,0.2105 1.64779,-0.26076 2.47916,-0.27708c0.65024,-0.01277 1.30023,0.29702 1.94178,0.1903c0.663,-0.11029 1.14366,-4.13936 0.9759,-4.39333c-0.63276,-0.95788 -2.88148,-1.22078 -4.64028,-1.2876zM228.7192,301.61768c-0.2101,-0.22406 -0.3992,-0.51676 -0.55105,-0.89638c-0.92847,-2.32119 1.39271,-3.24967 1.39271,-3.24967l2.74003,-0.90343c2.54215,0.01893 4.01089,-0.25708 6.39137,0.91492c1.58308,0.77941 3.51104,1.365 4.45876,2.85343c0.84079,1.32049 0.39026,3.11932 0.3405,4.68397c-0.0976,3.06804 -0.50824,5.3843 -3.71232,6.8644c-1.16803,0.53956 -2.56864,0.20326 -3.8552,0.19031c-1.59162,-0.01602 -3.37049,0.48652 -4.76706,-0.27708c-3.08586,-1.68726 -3.67514,-5.12207 -3.12249,-8.13035c0.13062,-0.71101 0.39104,-1.38527 0.68475,-2.05011z"/><path d="M231.57627,247.58387c-2.5,0 -2.5,-2.5 -2.5,-2.5v-2.17387c0,-1.79008 -0.28907,-4.3095 -0.13653,-6.50041c-1.08431,0.85595 -2.32058,1.67294 -2.79429,2.01314c0,0 -2.03433,1.4531 -3.48743,-0.58123c-1.45309,-2.03433 0.58123,-3.48743 0.58123,-3.48743c1.7628,-1.25136 7.30551,-6.89042 9.25445,-6.08822c1.82333,0.7505 1.60366,3.64437 1.94487,5.58638c0.40625,2.3122 -0.36231,6.61554 -0.36231,9.05777v2.17387c0,0 0,2.5 -2.5,2.5z"/><path d="M243.43683,172.44166c0.54233,2.44047 -1.89814,2.98279 -1.89814,2.98279l-3.53033,0.76923c-0.69331,0.00368 -5.79132,0.07698 -6.19621,-0.1344c-8.22841,-4.29573 -0.64651,-10.31205 3.44554,-13.55184c0.44071,-0.34893 -1.12273,-0.08268 -1.68476,-0.07294c-0.90696,0.01571 -1.81417,0.00419 -2.72126,0.00629c0,0 -2.5,0 -2.5,-2.5c0,-2.5 2.5,-2.5 2.5,-2.5c1.02524,0.00209 2.05732,-0.11199 3.07571,0.00629c1.27328,0.1479 2.81612,-0.07489 3.7639,0.78814c7.47546,6.80706 -3.18344,7.99361 -4.77097,13.07831c-0.22665,0.72594 1.51903,-0.07905 2.27909,-0.10492c0.75404,-0.02567 1.50893,0.00995 2.26338,0.01493l2.99126,-0.68002c0,0 2.44047,-0.54233 2.9828,1.89814z"/><path d="M288.85758,293.27122c0.03942,-3.5715 -1.58471,-6.74867 -1.80527,-10.3298c-0.2743,-4.45384 -0.09405,-9.00571 -0.02781,-13.49592c-1.15507,0.05558 -2.30467,0.1314 -3.44713,0.23205c-13.54637,1.19342 -27.39964,1.4598 -41.03582,1.45468c-15.52879,1.19454 -31.19958,1.04179 -46.77161,1.45031c-7.5943,0.19923 -15.44582,-0.72618 -23.004,-0.01139c-3.34769,0.3166 -6.83663,1.48184 -10.03499,2.44291c0,0 -0.32641,0.09793 -0.77437,0.10095c-0.06348,5.45288 -0.26151,10.97537 -0.32767,16.48054c5.6869,-0.50775 11.40179,-0.12696 17.06553,-0.80017c10.30925,-1.22539 20.98783,-0.94311 31.52991,-0.80303c-1.04218,-1.08679 -2.06867,-2.19544 -3.00108,-3.41755c-0.91802,-1.20326 -2.58747,-2.33635 -2.42164,-3.84071c0.21201,-1.92329 1.99715,-3.36181 3.36632,-4.72907c3.287,-3.28244 9.32031,-5.84267 12.26681,-0.28663c0.67553,1.2738 -0.02019,2.89704 0.20952,4.32047c0.18469,1.14446 0.68269,2.21573 1.02405,3.3236l0.17493,0.69904c1.93519,0.02581 2.34222,1.56958 2.42784,2.21786c0.25132,-0.04432 0.42129,-0.04432 0.42129,-0.04432c6.03851,0 12.07703,0 18.11555,0c0.74279,0 5.26837,-0.11408 7.05308,0.27364c0.05271,-0.8672 0.09678,-1.73723 0.48353,-2.49513c0.61405,-1.20331 1.98174,-1.8579 2.78609,-2.94329c1.52739,-2.06106 3.80869,-7.3715 6.95777,-7.83331c1.49728,-0.21958 2.9633,0.73041 4.31527,1.41028c3.25839,1.63853 9.9781,6.92693 7.89558,11.40112c-1.13848,2.44598 -3.67585,3.9868 -6.47371,5.13794c6.80488,-0.11078 13.63549,-0.16965 20.34614,0.49583l1.42854,-0.00921c0.42365,-0.06517 0.82592,-0.00088 1.13644,0.08733c0.08554,0.02115 0.17613,0.04723 0.26947,0.07941zM289.54602,264.32252c0.16754,0 0.32385,0.01123 0.46968,0.03218c6.38759,-0.11858 12.88259,0.22165 19.23569,0.30984c-3.12111,-3.74881 -6.22637,-7.62437 -9.04945,-11.59295c-0.60478,-0.85018 -0.91647,-1.91018 -1.62779,-2.67346c-2.16514,-2.32332 -4.87195,-4.50645 -7.1728,-6.8073c-2.24311,-2.24311 -4.16719,-4.59431 -6.59703,-6.54362c-0.20069,0.02964 -0.33066,0.02964 -0.33066,0.02964h-0.36231c-4.55552,0 -9.15906,0.49979 -13.64433,1.40159c-2.41303,0.48516 -4.77368,1.361 -7.23146,1.49307c-3.39793,0.18258 -6.8022,0.34102 -10.20891,0.49731c-0.0102,1.10558 -0.04114,2.21231 -0.11506,3.32115c-0.0425,0.63741 -0.71256,5.93314 -0.98372,6.39736c-2.39156,4.09414 -5.5639,3.19352 -9.48228,3.19352c-8.86261,0 -17.72522,0 -26.58782,0c-0.19517,0.74003 -0.76035,1.81155 -2.39706,1.81155c-2.5,0 -2.5,-2.5 -2.5,-2.5c0,-3.42998 0,-6.85995 0,-10.28993c-4.4296,0.16839 -8.84989,0.43194 -13.23548,0.82515c-9.94438,0.89159 -20.13237,-0.91415 -30.07181,0c-1.9377,0.17821 -3.85523,0.53106 -5.7812,0.8123c-0.00465,8.66785 0.08996,17.33695 0.10274,25.98024c3.32127,-1.002 6.85983,-2.0952 10.29827,-2.42467c7.6838,-0.73626 15.65298,0.19247 23.37181,-0.01138c15.55014,-0.41067 31.19757,-0.25536 46.70461,-1.44819c13.58377,-0.00491 27.35145,-0.28505 40.84645,-1.4438c1.896,-0.1628 3.80995,-0.26051 5.73498,-0.31271c0.18602,-0.03671 0.39039,-0.05688 0.61494,-0.05688zM292.03973,282.58698c0.20587,3.70338 1.78644,6.93796 1.81784,10.68424l0.23402,0.29636c0,0 0.61605,1.84814 -0.87093,2.82535c8.16006,5.39279 14.91307,12.18612 21.37661,19.45307c-0.06052,-1.27041 -0.15834,-2.52503 -0.35228,-3.73974c-0.77544,-4.85676 -2.57743,-9.70087 -2.91784,-14.6724c-0.44656,-6.52157 -0.00629,-13.20459 -0.00629,-19.74202c0,-2.67028 0.0291,-5.33961 0.08268,-8.00815c-6.36427,-0.02346 -12.91733,-0.40402 -19.3764,-0.36592c-0.06042,4.41544 -0.2312,8.88361 0.0126,13.26919zM321.02329,326.56005c-0.67272,0.67272 -1.34545,0.83344 -1.92075,0.77441c-0.24344,0.12813 -0.53539,0.22781 -0.88526,0.28612c-2.46598,0.411 -2.87698,-2.05499 -2.87698,-2.05499l-0.25694,-1.55687c-8.27085,-9.62788 -16.57748,-18.8765 -27.66167,-25.34246l-1.74753,-0.00895c-9.82752,-0.99151 -19.94353,-0.3499 -29.82305,-0.3499c0,0 -2.23022,0 -2.47776,-2.10645c-0.21691,-0.22631 -0.41212,-0.52448 -0.56806,-0.91432c-0.92847,-2.32119 1.39271,-3.24967 1.39271,-3.24967l1.81156,-0.72462c3.63966,-1.44992 8.74058,-2.255 11.65367,-5.13682c0.58965,-0.58332 -0.92197,-1.4072 -1.55658,-1.94126c-1.38927,-1.16917 -2.96201,-2.11368 -4.31565,-3.32392c-0.2672,-0.2389 -0.41223,-0.86129 -0.75709,-0.7636c-0.39685,0.11243 -0.26178,0.80006 -0.51655,1.12443c-0.45612,0.58072 -1.15763,0.94597 -1.58345,1.54927c-0.717,1.01585 -1.05901,2.27098 -1.81155,3.2608c-0.63026,0.82898 -1.77101,1.2241 -2.28626,2.12906c-0.34867,0.61238 -0.08494,1.4068 -0.12741,2.1102c0,0 -0.29183,2.33464 -2.57414,2.19107c0.20533,1.03085 0.30276,2.09686 0.38029,3.11224c0.13352,1.74858 -0.82701,3.41494 -1.06068,5.15296c-0.52021,3.86937 0.14942,7.89069 -0.35185,11.8102c-0.19498,1.52461 0.46163,3.58175 -0.72967,4.55297c-1.49836,1.22155 -3.82633,0.57571 -5.75319,0.73224c-3.0866,0.25074 -6.32079,0 -9.42008,0c-2.43743,-0.00208 -4.87432,-0.17401 -7.30149,-0.39743l-3.08724,-0.76414c0,0 -2.18684,-0.54671 -1.88833,-2.6784c-0.30386,0.13464 -0.67503,0.21686 -1.12844,0.21686c-2.5,0 -2.5,-2.5 -2.5,-2.5c0,-4.73945 0,-10.90231 0,-16.4936c-0.16845,0.26643 -0.41281,0.52887 -0.75695,0.77469c-2.03433,1.4531 -3.48743,-0.58124 -3.48743,-0.58124c-0.09811,-0.1382 -0.19755,-0.27487 -0.29823,-0.41014c-11.76453,-0.07507 -23.81172,-0.63781 -35.36334,0.70826c-5.90642,0.68825 -11.85883,0.25541 -17.77531,0.86755c0.02324,3.2893 0.123,6.56287 0.3567,9.80198c0.22971,3.18394 1.19203,6.16119 1.68353,9.28411c0.41306,0.56961 1.10577,1.91021 -0.23483,3.25081c-1.76776,1.76776 -3.53554,0 -3.53554,0l-0.78513,-1.32895c-0.07796,0.42316 -0.29879,0.87605 -0.75169,1.32895c-1.76776,1.76776 -3.53553,0 -3.53553,0c-2.85602,-2.86917 -5.09802,-6.18739 -7.97084,-9.05777c-4.16717,-4.16363 -8.68597,-7.87573 -12.34569,-12.39597c-0.21876,0.05442 -0.46472,0.08501 -0.74129,0.08501c-2.5,0 -2.5,-2.5 -2.5,-2.5v-1.81155c0,-11.19721 -0.02587,-22.33319 0.72946,-33.48795c0.52218,-7.7116 -0.2036,-15.18429 1.09099,-22.88082c0.0145,-8.06608 0.33454,-16.13834 0.71884,-24.1888c0.10898,-2.28302 0.89401,-4.4916 1.10169,-6.76775c0.77739,-8.51996 -0.01787,-17.5884 -0.01787,-26.15036c0,-11.71989 0.72711,-23.4228 0.72462,-35.14416c0,-26.54535 0,-53.0907 0,-79.63606c0,0 0,-2.5 2.5,-2.5c0.53809,0 0.96036,0.11581 1.29174,0.29759c10.73976,-1.66542 21.47346,-0.40164 32.27864,-1.01911c12.8793,-0.736 25.41644,-1.28753 38.29172,0c4.03013,0.01374 8.23272,0.53033 12.26737,1.02911c0.05363,-0.34268 0.10814,-0.68957 0.16649,-1.03805c-0.55541,-0.34452 -0.8707,-0.81746 -0.8707,-0.81746c-2.08847,-3.16969 -4.64183,-5.7215 -7.52872,-8.19358c-1.20658,-1.03321 -4.82389,-3.19936 -5.38174,-4.91735c-2.3212,-7.14852 8.7677,-10.60707 13.80573,-12.37529c0.98161,-0.34452 8.00669,-3.2218 8.88782,-2.14185c1.47895,1.81267 0.37416,4.69038 0.13083,7.01715c-0.20872,1.99585 -1.70086,3.6703 -2.13121,5.63034c-0.55711,2.53735 -0.70373,5.09136 -1.21475,7.64266c2.50658,-0.5271 5.38575,0.26803 7.61981,0.50323c7.28258,0.7667 14.3381,1.8249 21.40037,3.5384c0.18435,-0.47084 0.44021,-0.77787 0.44021,-0.77787c3.83386,-4.52542 9.10142,-7.31297 14.26933,-10.08521c0.84285,-0.45213 5.92867,-3.66363 7.57545,-3.83071c1.43655,-0.14574 2.98593,-0.04956 4.29561,0.55842c1.46866,0.68178 2.37475,2.21617 3.69638,3.15161c1.37914,0.97614 3.14948,1.3971 4.37447,2.56084c1.22469,1.16345 3.40974,2.66884 2.78078,4.23661c-1.3274,3.30867 -8.08524,4.52087 -11.0034,5.48144c-2.53719,0.83517 -4.86232,2.2604 -7.42493,3.01396c-4.08914,1.20246 -8.69228,1.7481 -12.89205,2.58806l-1.57722,0.04855c0,0 -0.1283,0 -0.32677,-0.02906c0.0014,0.0433 0.00271,0.0866 0.00393,0.12991c0.19624,-0.02849 0.32284,-0.02849 0.32284,-0.02849c11.08981,0.00946 22.21875,0.36231 33.33261,0.36231h1.81155c0,0 2.5,0 2.5,2.5c0,0.16604 -0.01103,0.32106 -0.03162,0.46578c0.66629,0.22029 1.11094,0.66493 1.11094,0.66493l1.03698,1.10564c5.65328,8.48687 12.69561,16.34694 19.42998,24.03673c0.39902,0.28682 0.74921,0.73407 0.87113,1.43144c0.13142,0.4621 0.1578,1.02728 -0.13835,1.60655c-0.12685,0.31818 -0.30963,0.56651 -0.51768,0.76031c0.70191,0.74004 0.7019,1.81198 0.7019,1.81198c-0.00322,7.76972 -1.35984,15.35226 -1.66332,23.09325c-0.76164,19.42712 -0.14823,38.98688 -0.14823,58.42672c0,2.25734 0.0061,4.51967 0.01085,6.78497c0.68102,0.27814 1.43839,0.89679 1.43839,2.27281c0,1.37235 -0.75333,1.99137 -1.43293,2.27058c-0.00151,8.34145 -0.08894,16.70466 -0.63372,24.98863c-1.32383,20.12999 -3.0057,40.24694 -3.0057,60.42005c0,6.42363 -0.41988,12.97872 -0.00629,19.38757c0.31263,4.84431 2.14086,9.5751 2.87913,14.31247c0.52457,3.36608 0.35501,7.0044 0.65177,10.4641l1.17782,1.16852c0,0 1.76777,1.76777 0,3.53553zM292.04603,234.21454v1.81155c0,0 0,0.21583 -0.06341,0.52066c7.46674,6.85279 13.36877,15.38014 19.7239,23.22675c0.57412,-14.28682 1.68728,-28.55607 2.63088,-42.83065c0.5356,-8.10251 0.62349,-16.2827 0.62475,-24.4429c-5.40733,-0.02621 -10.85403,-0.03003 -16.18111,0.73098c-0.82602,0.00047 -1.65217,0.00139 -2.47841,0.00272c-2.96346,13.39213 -4.25659,27.23103 -4.25659,40.98088zM296.46611,151.24533c0,-10.86933 0,-22.82559 0,-33.69492c0,-6.03876 0.73095,-12.97738 -0.9617,-18.77935c-4.23371,0.18318 -8.46639,0.40285 -12.70405,0.62381c-2.25554,0.1176 -4.53005,-0.24883 -6.77582,-0.00834c-2.59147,0.27751 -5.13869,0.96367 -7.74158,1.09653c-7.4395,0.37974 -15.39969,-0.17787 -22.66608,1.43688c-15.51801,0.08246 -31.07311,-0.35321 -46.58616,0.01415c-10.34998,0.2451 -20.54751,1.05737 -30.89294,0.43735c0.02309,16.84356 0.21616,33.83514 -0.40167,50.72164c14.91825,0 29.83649,0 44.75474,0c-3.12136,-1.73333 -6.22176,-3.74031 -8.65548,-6.13282c-0.99957,-0.98264 -2.48446,-1.89065 -2.62477,-3.2853c-0.16721,-1.66205 1.01974,-3.20362 1.82471,-4.66732c2.35584,-4.28366 7.87138,-6.40188 11.67207,-9.10654l0.1961,-0.04507l-0.02462,-0.04923l2.85351,-1.42676c0.34741,-0.18291 0.74312,-0.28642 1.16302,-0.28642c1.38071,0 2.5,1.11929 2.5,2.5c0,0.16973 -0.01691,0.3355 -0.04915,0.49574l-0.7158,3.9369l-0.16293,-0.02963c-0.11409,4.86174 -0.63971,9.47946 -1.65685,14.56514l0.04855,0.59665c0,0 0,0.12798 -0.02896,0.32604c2.49635,-0.21516 5.82764,0.07245 7.31135,0.07245c7.85007,0 15.70015,0 23.55022,0h1.08693c0,0 0.27438,0.00001 0.64133,0.0909c1.85834,-2.96135 3.79654,-5.91658 5.51133,-8.9585c0.26591,-0.4717 2.9498,-5.99659 3.06426,-6.08782c1.15105,-0.91751 2.73306,-1.35444 4.20504,-1.34852c4.73096,0.01903 6.75276,3.22484 9.83419,5.94785c1.08849,0.96188 3.1492,1.28282 3.41142,2.71155c0.33731,1.83791 -0.83308,3.75733 -1.9491,5.25605c-1.03939,1.39581 -2.75616,2.13623 -4.23668,3.05095c-1.17063,0.72326 -2.3875,1.36435 -3.62223,1.97303c2.1293,-0.23212 4.24632,-0.50993 6.34391,-0.79977c6.41485,-0.88637 13.13196,-0.15066 19.558,-1.08597l2.52741,-0.02513c0,0 0.16105,0 0.40139,0.04087c-0.0029,-0.04943 -0.0029,-0.07706 -0.0029,-0.07706zM301.46611,117.55041c0,10.86933 0,21.73866 0,32.60799v1.08693c0,0 0,1.9849 -1.76864,2.41743l0.26183,0.54355c0.2476,0.3714 0.4952,0.7428 0.7428,1.11419c0.36608,0.25686 0.5785,0.52237 0.5785,0.52237l1.92243,2.76695c1.00041,4.14324 3.47027,7.63471 5.54966,11.33535c2.07452,3.69197 4.09296,7.28718 6.19128,10.86143c-0.00314,-19.45569 -0.62171,-39.03396 0.15214,-58.4759c0.3055,-7.67529 1.66276,-15.1947 1.65942,-22.89585c0,0 0,-0.54315 0.25317,-1.12311c-1.14756,0 -2.36418,0 -2.82552,0c-4.53566,0 -9.06005,0.1005 -13.58051,0.25867c1.37891,6.0764 0.86345,12.77862 0.86345,18.97998zM294.98069,70.0515c-11.11183,0 -22.24564,-0.37254 -33.33261,-0.36231c0,0 -0.21737,-0.00001 -0.52392,-0.0641c-0.39434,3.6873 -1.31059,7.34374 -2.56992,10.76048l0.15918,-0.15318c0,0 0,2.5 -2.5,2.5c-2.5,0 -2.5,-2.5 -2.5,-2.5l0.15918,-1.60243c1.34244,-3.50611 2.21042,-8.08667 2.76581,-11.8038c0.23545,-1.57582 -0.08537,-3.22991 0.32799,-4.76868c-2.5727,0.83787 -4.6484,-0.49391 -7.12433,-1.13063c-1.66786,-0.42892 -3.45312,-0.06229 -5.15689,-0.31309c-3.1746,-0.46731 -6.31783,-1.15797 -9.5073,-1.50975c-2.14284,-0.23635 -4.81269,-1.81616 -6.45398,-0.41837c-1.62563,1.38445 -1.58783,5.40965 -1.94434,7.19192c-0.60926,3.04578 -1.8291,5.80984 -2.55473,8.77906c-0.60809,2.48825 -0.41805,5.73602 -0.32834,8.51042c5.57919,0 11.15838,0 16.73757,0c2.77405,0 6.00917,-0.46012 8.73361,0.03229c2.25752,0.40802 4.44849,1.21155 6.73222,1.42937l0.11355,-0.01241c0,0 2.5,0 2.5,2.5c0,2.5 -2.5,2.5 -2.5,2.5l-0.61107,-0.01241c-2.38294,-0.24775 -4.68438,-1.00921 -7.03561,-1.46912c-2.4317,-0.47566 -5.44225,0.03228 -7.9327,0.03228c-6.40082,0 -12.80165,0 -19.20248,0c0,0 -2.5,0 -2.5,-2.5c0,-0.14927 0.00892,-0.28963 0.02568,-0.4216c-0.02568,-0.18489 -0.02568,-0.30302 -0.02568,-0.30302c0,-3.59494 -0.39138,-7.91612 0.43136,-11.45285c0.45706,-1.96476 1.17147,-3.8401 1.77113,-5.76752c-3.75733,-0.47558 -7.6895,-0.94846 -11.42099,-0.93445c-12.71784,-1.27178 -25.07363,-0.72093 -37.79358,0c-9.25136,0.52434 -18.48711,-0.39465 -27.68766,0.45992c2.5769,4.24489 6.21194,7.4331 8.97344,11.57137c4.24089,6.35522 7.49912,12.94544 13.11407,18.18737c0.28462,0.06396 0.52464,0.16751 0.72705,0.29668c0.13492,-0.00523 0.21664,0.0006 0.21664,0.0006c10.60497,0.76081 21.0452,-0.11657 31.64281,-0.36788c15.36121,-0.36428 30.79989,-0.08719 46.16545,0.01414c7.3488,-1.63307 15.46105,-1.09408 22.9851,-1.4616c2.51457,-0.12283 4.97131,-0.81785 7.47547,-1.07734c0.43845,-0.04543 6.5415,0.0156 6.992,-0.00834c10.40603,-0.55301 20.78466,-1.07605 31.21883,-1.09046c-5.81351,-6.65035 -11.64209,-13.47788 -16.4944,-20.7507l-0.41226,-0.34361c0,0 -0.95667,-0.95668 -0.75869,-2.16625zM222.93321,54.58126l0.05841,-1.0416c1.03246,-4.10954 1.13897,-8.24092 2.62473,-12.23838c0.10881,-0.29275 0.36998,-1.0082 0.72469,-1.75694c-0.75269,0.23206 -1.53799,0.40112 -2.27539,0.65847c-3.5399,1.23542 -8.00486,2.91896 -10.91819,5.30474c-0.4638,0.37981 0.74847,0.9536 1.22664,1.31515c0.96332,0.72839 1.98189,1.38748 2.89849,2.17386c2.06509,1.77173 3.9493,3.58619 5.66062,5.5847zM261.78839,59.62825l0.45634,0.03713c4.06254,-0.81251 8.51796,-1.33334 12.46972,-2.4843c3.89224,-1.13363 8.20396,-4.24809 12.53092,-4.63685c-0.97517,-0.52236 -1.89524,-1.1623 -2.78997,-1.80896c-1.46831,-1.06122 -2.21595,-3.25597 -4.32658,-2.81157c-2.21605,0.46661 -3.94727,2.22179 -5.94355,3.29111c-4.34584,2.32789 -9.10935,4.65334 -12.39687,8.41342zM149.0812,81.64588c-2.59026,-3.88963 -5.90221,-6.96352 -8.48116,-10.80761c0,24.60437 0,49.20873 0,73.8131c-0.00239,11.72155 -0.72462,23.42441 -0.72462,35.14416c0,8.77031 0.77308,18.01779 -0.01787,26.74704c-0.19579,2.16083 -0.97903,4.25247 -1.07217,6.42015c-0.34866,8.11443 -0.68904,16.23232 -0.7304,24.36087c-1.26573,7.66157 -0.57843,15.08984 -1.08288,22.77036c-0.66626,10.14429 -0.71586,20.26841 -0.7195,30.44199c0.21001,0.37022 0.28738,0.67969 0.28738,0.67969l0.01708,0.66884c3.72182,5.58273 9.05861,9.71066 13.81777,14.47373c2.87007,2.87243 5.10712,6.20911 7.97084,9.05777c0,0 0.11384,0.11384 0.25485,0.31263c-0.50946,-2.99435 -1.38167,-5.83101 -1.61706,-8.93644c-0.869,-11.46409 -0.00706,-23.38891 -0.00706,-34.89729c0,-20.83122 -0.53214,-41.81542 0.87076,-62.5931c0.7329,-10.85454 2.29805,-21.61352 3.34981,-32.43566c2.44621,-25.1013 1.95829,-50.72866 1.93928,-75.99371c-6.03579,-5.55756 -9.5483,-12.45904 -14.05504,-19.22653zM294.24731,156.25638c-6.42852,0.9033 -13.17949,0.14042 -19.5716,1.0879c-5.6875,0.84303 -11.54793,1.46858 -17.37537,1.47341c0,0 -0.41521,0 -0.9072,-0.16921l-0.21591,0.06851c0,0.494 0,0.92662 0,1.22381c0,4.10619 0,8.21239 0,12.31858c0,0.84475 0.08626,6.35959 -0.29581,6.97662c-2.23525,3.60985 -6.04482,2.7696 -9.45041,2.7696c-9.66163,0 -19.32325,0 -28.98488,0c0,0 -2.5,0 -2.5,-2.5c0,-0.82009 0.26902,-1.37116 0.63056,-1.74146c-0.26825,-0.59252 -0.26824,-1.15703 -0.26824,-1.15703c0,-6.03851 0,-12.07703 0,-18.11555c0,-0.14778 -0.00113,-0.32328 -0.00249,-0.5207c-0.42406,0.12222 -0.75831,0.12222 -0.75831,0.12222c-15.06978,0 -31.88835,0 -47.01926,0c-0.3009,6.44277 -0.73431,12.86654 -1.35493,19.25721c-0.45686,4.69135 -1.00938,9.37057 -1.5483,14.05085c1.66467,-0.21017 3.30696,-0.70808 4.97038,-0.95976c3.39177,-0.51317 6.83673,-0.60584 10.26447,-0.74004c6.57869,-0.25755 13.15905,-0.09198 19.73745,-0.37535c4.22035,-0.18179 8.67574,0.51827 12.86585,0.0131c5.90294,-0.71168 11.67557,-0.73954 17.66371,-0.73954c22.76014,0 45.57689,-0.36921 68.29955,-0.35603c4.83991,-0.69142 9.77941,-0.7624 14.69961,-0.75067c-3.02772,-4.98188 -5.83807,-9.95838 -8.72959,-15.09316c-2.27315,-4.03668 -4.74268,-7.78595 -5.96067,-12.26107c-0.75091,-0.32985 -1.18764,-0.98493 -1.18764,-0.98493c-0.48308,-0.72462 -0.96616,-1.44925 -1.44924,-2.17387l-0.36239,-0.70701zM214.00151,148.11949c0.45695,-2.21929 0.99541,-4.42422 1.33447,-6.66422c0.37168,-2.45546 -0.03089,-4.43431 0.51771,-6.30328c-2.43688,1.56383 -5.05835,2.92577 -7.19266,4.86261c-0.94001,0.85304 -2.44981,1.59175 -2.51499,2.85943c-0.01804,0.35085 0.70633,0.14248 0.99834,0.33782c1.07621,0.71989 2.02303,1.61783 3.06807,2.38226c1.23943,0.90661 2.49986,1.74203 3.78905,2.52538zM265.19178,148.67177c2.22192,-1.16828 4.41225,-2.40559 6.5197,-3.76959c0.30577,-0.1979 1.204,-0.28048 0.94939,-0.54092c-0.38946,-0.39839 -1.19509,0.11866 -1.66093,-0.18694c-2.92813,-1.92091 -3.23619,-4.1766 -6.83212,-4.92148c-1.22828,-0.25443 -2.5827,4.3608 -2.87542,4.88224c-1.74557,3.10942 -3.72837,6.12868 -5.62618,9.15288c0.08635,0.12048 0.15812,0.24537 0.21775,0.36974c2.96422,-1.91352 6.17979,-3.34123 9.30781,-4.98594zM250.77875,155.55688c-7.85007,0 -16.78708,0 -24.63715,0c-1.69079,0 -3.40882,0.30231 -5.07235,0c-0.52219,-0.0949 -0.96301,-0.91514 -1.43057,-0.75897c-0.04952,0.05802 -0.10008,0.11204 -0.15151,0.16229c0.03215,0.24314 0.74901,0.63323 0.82128,0.99516c0.16555,0.82903 0,1.69079 0,2.53618c0,6.03851 0,12.07703 0,18.11555c0,0 0,0.15975 -0.04039,0.39849c7.75482,0 15.50964,0 23.26446,0c1.81155,0 3.62366,-0.04468 5.43466,0c0.83614,0.02063 2.30292,0.68251 2.50585,-0.12888c0.37419,-1.49618 -0.29581,-3.07507 -0.29581,-4.61733c0,-4.10619 0,-8.21239 0,-12.31858c0,-1.08694 0,-2.17386 0,-3.2608v-1.16349c-0.23873,0.04038 -0.39849,0.04038 -0.39849,0.04038zM210.82241,224.19383c-0.01302,0.00558 -0.026,0.01107 -0.03894,0.01644c0.05908,0.04199 0.11816,0.08401 0.17726,0.12609v-0.20524c-0.04472,0.02144 -0.09082,0.04236 -0.13831,0.06271zM208.38452,228.64034c-4.64427,-3.31807 -10.18622,-5.46498 -14.37565,-9.2578c-0.72659,-0.6578 -4.24974,-4.23338 -4.33377,-4.79009c-0.26522,-1.757 0.26934,-3.69229 1.23059,-5.18675c0.63419,-0.98596 2.14623,-0.96487 3.13316,-1.59756c2.3692,-1.51882 5.78507,-5.73026 9.16281,-4.64055c5.63467,1.81782 5.62337,10.80264 7.81696,15.14032l0.95695,2.23053c0.35576,-0.24943 0.83624,-0.41787 1.48515,-0.41787c1.67894,0 2.23034,1.12754 2.41144,1.86816c0.28696,-0.0566 0.48705,-0.0566 0.48705,-0.0566c11.47318,0 22.94636,0 34.41954,0c0.45033,0 0.90068,0 1.35101,0c3.45495,-3.95215 8.12312,-6.05237 11.06328,-10.48365c0.70795,-1.06699 3.68108,-6.21034 4.61449,-6.43769c1.70509,-0.41532 3.42888,0.89724 4.97033,1.73613c3.94993,2.14965 8.63015,5.72522 6.33307,10.81275c-2.31985,5.13797 -8.63027,5.48817 -13.15312,6.74015c-4.11284,1.13849 -7.75447,2.54892 -12.08474,2.615c-0.18463,0.05034 -0.38359,0.079 -0.59486,0.07475c-0.00109,0.76362 -0.00219,1.52724 -0.00328,2.29086c-0.22806,2.05249 -0.27025,4.09775 -0.26755,6.14188c3.32189,-0.14848 6.64066,-0.29119 9.9517,-0.44315c2.22624,-0.10217 4.35064,-0.97046 6.53636,-1.40542c4.70832,-0.93695 9.5487,-1.47594 14.33484,-1.4963c1.33805,-0.95657 2.82112,0.10276 2.82112,0.10276c0.13434,0.09696 0.26815,0.1945 0.40144,0.29262c0.10301,-13.15671 1.37953,-26.39416 4.12971,-39.22589c-20.32695,0.07147 -40.71168,0.3526 -61.05551,0.3526c-5.80939,0 -11.39682,0.05186 -17.11813,0.70969c-4.32907,0.49775 -8.86666,-0.17685 -13.22055,0.0131c-6.57708,0.28696 -13.15556,0.117 -19.73248,0.37516c-5.40464,0.21214 -10.6899,1.59428 -16.00468,1.78048c-0.48137,4.37858 -0.9163,8.76227 -1.21549,13.16183c-0.66295,9.74879 -0.89161,19.54511 -0.94821,29.34977c1.78213,-0.27 3.55913,-0.58354 5.35354,-0.74491c9.94347,-0.89422 20.13326,0.9166 30.07181,0c4.51739,-0.41662 9.07798,-0.69096 13.64788,-0.8606c0,-2.82945 0,-5.6589 0,-8.48835c-1.26773,0.67926 -2.57621,-0.25536 -2.57621,-0.25536zM206.99315,221.60394l-0.51042,-1.19228c-1.19654,-2.41736 -1.98938,-5.02788 -2.67884,-7.63556c-0.43428,-1.6425 -0.23351,-4.15916 -1.82276,-4.75976c-0.4526,-0.17104 -0.75451,0.60675 -1.14847,0.88763c-1.42364,1.01505 -2.67188,2.28459 -4.18117,3.16728c-0.70857,0.4144 -2.63746,0.52039 -2.15784,1.18653c1.64544,2.2853 5.02346,4.06356 7.44102,5.336c1.7589,0.92577 3.427,1.93923 5.05847,3.01015zM247.92405,227.28684c-0.11841,-0.11841 -0.22096,-0.23682 -0.30924,-0.3547c-10.35386,0 -21.0628,0 -31.25561,0c0,0 -0.15975,0 -0.39849,-0.04038c0,6.9512 0,14.53543 0,21.48908c7.86213,0 15.72426,0 23.58639,0c1.81155,0 3.62474,-0.07692 5.43466,0c0.71382,0.03034 2.14584,0.76187 2.47397,-0.42959c1.62561,-5.9024 0.15318,-12.8845 0.82683,-18.94732c-0.00075,-0.46889 -0.00149,-0.93779 -0.00224,-1.40668c-0.1184,-0.08855 -0.23735,-0.19148 -0.35629,-0.31042zM260.88201,220.58232c1.20574,-0.35487 2.42444,-0.73677 3.70256,-1.09022c1.45357,-0.40196 3.01377,-0.34311 4.45584,-0.78457c1.35186,-0.41385 2.64605,-1.03379 3.85864,-1.76074c0.90833,-0.54455 2.60122,-1.59244 2.00292,-2.46631c-1.12397,-1.64166 -3.35691,-2.17243 -4.81887,-3.52187c-0.34936,-0.32247 -0.37238,-1.30268 -0.82664,-1.16235c-0.45436,0.14037 0.16,0.98955 -0.02798,1.42637c-0.46702,1.08524 -1.22186,2.0235 -1.87913,3.00527c-1.7901,2.67392 -4.13666,4.49904 -6.46733,6.35442zM217.55697,289.52983l-0.70988,-2.84229c-0.38327,-1.30753 -0.96447,-2.57272 -1.14982,-3.92261c-0.15481,-1.12746 0.74717,-3.25608 -0.38265,-3.39261c-1.48133,-0.17901 -2.57679,1.51019 -3.80732,2.35408c-0.55329,0.37944 -1.50135,0.429 -1.70604,1.06791c-0.13262,0.41397 0.88197,0.21228 1.20147,0.50702c1.16649,1.07608 2.09517,2.38521 3.18469,3.53916c0.99476,1.05359 1.99444,2.10952 2.94365,3.2061h0.62691c-0.14528,-0.29381 -0.20102,-0.51677 -0.20102,-0.51677zM226.02333,311.85991l2.70973,0.6851c2.14959,0.19256 4.30812,0.32918 6.46632,0.32719c3.03288,0 6.42059,-0.4009 9.42009,0c0.77161,0.10313 1.48151,0.98542 2.21766,0.73223c0.4546,-0.15636 -0.69598,-0.76445 -0.72967,-1.24401c-0.14992,-2.13421 0.36085,-4.26884 0.35974,-6.40831c-0.00026,-0.48791 -0.00364,-5.56504 0.01483,-5.70238c0.17729,-1.31849 1.76202,-5.69996 0.91349,-7.57051c-0.15329,-0.33792 -0.59612,0.51121 -0.96449,0.55584c-1.19894,0.14526 -2.4154,0 -3.62311,0c-6.03851,0 -12.07703,0 -18.11555,0c0,0 -0.15975,0 -0.39848,-0.04039c0,5.21864 0,10.43729 0,15.65593v2.89849c0,0 0,0.10095 -0.02029,0.26228c0.84318,-0.37809 1.74973,-0.15145 1.74973,-0.15145z"/><path d="M229.43858,76.24696c0,-2.5 2.5,-2.5 2.5,-2.5h1.44924c0.91438,0.00161 1.82884,-0.0071 2.74314,0.00483c0.69331,0.00905 2.14435,0.1336 2.00715,-0.54606c-0.35008,-1.73416 -3.23659,-2.7164 -2.89039,-4.45133c0.21497,-1.07728 1.10689,-1.84152 2.08889,-2.50022c-1.29381,-0.02464 -2.59559,-0.1881 -3.22417,-0.1881c0,0 -2.5,0 -2.5,-2.5c0,-2.5 2.5,-2.5 2.5,-2.5c1.9213,0 9.03341,-0.75686 10.22179,1.22431c1.03615,1.72738 0.93117,4.20389 0.10724,6.04198c-0.40988,0.91438 -1.58593,1.14626 -2.67061,1.33682c0.85719,0.91818 1.49264,2.72973 1.35911,3.82203c-0.71627,5.85913 -5.54647,5.24911 -9.74214,5.25575h-1.44924c0,0 -2.5,0 -2.5,-2.5z"/></g></g></svg>