<svg version="1.1" xmlns="http://www.w3.org/2000/svg" xmlns:xlink="http://www.w3.org/1999/xlink" width="441.01558" height="124.58052" viewBox="0,0,441.01558,124.58052"><g transform="translate(-34.98442,-116)"><g data-paper-data="{&quot;isPaintingLayer&quot;:true}" fill="#9966ff" fill-rule="nonzero" stroke="none" stroke-width="0.5" stroke-linecap="butt" stroke-linejoin="miter" stroke-miterlimit="10" stroke-dasharray="" stroke-dashoffset="0" style="mix-blend-mode: normal"><path d="M297.73223,184.26777c-3.24332,-3.41134 -2.49981,-9.98782 1.81106,-12.07747c1.13881,-0.55203 2.51777,-0.16242 3.79163,-0.18494c0.05457,-0.00356 0.10961,-0.00536 0.16508,-0.00536c0.31597,0 0.61826,0.05862 0.89657,0.16558c0.49291,0.16747 1.06572,0.50434 1.37574,1.18194c0.73493,0.43535 1.22769,1.23637 1.22769,2.15249c0,0.29282 -0.05034,0.57389 -0.14285,0.83501c0.30157,0.17981 0.52356,0.41547 0.68697,0.66499c5.16993,0 10.33987,0 15.5098,0c0,-12.85434 0,-25.70868 0,-38.56302c-2.38106,2.33409 -4.91028,4.60651 -7.55803,6.2044c-2.19349,1.32375 -4.97338,1.67337 -6.92632,3.33161c-3.0835,2.6182 -5.64613,5.81123 -8.7276,8.43183c-5.73871,4.88041 -11.75505,8.77007 -18.24342,12.49545c0.05938,1.6118 -0.19462,3.34207 -0.08793,4.91107c0.22106,3.25079 0,6.5166 0,9.77489c0,14.81898 0,29.63796 0,44.45694c6.19904,-5.33287 12.85165,-10.22309 19.13505,-15.42319c2.37686,-1.96707 5.24573,-3.34443 7.41873,-5.53462c1.03428,-1.04247 1.40534,-2.6272 2.44372,-3.66558c1.89528,-1.89528 4.27579,-3.39068 5.72765,-5.64376l3.61926,-2.25961c0,0 1.79184,-0.89592 3.19888,0.21442c0,-4.57694 0,-9.15388 0,-13.73082c-4.82568,0 -9.65136,0 -14.47704,0c0.41014,1.13795 0.705,2.23517 -0.04878,2.96178c-1.91063,1.84175 -4.73987,1.8906 -7.0037,0.83918c-1.29259,-0.46909 -2.85252,-0.54486 -3.79218,-1.53319zM363.92536,175.89366c0.60634,2.42536 -1.81902,3.0317 -1.81902,3.0317l-4.26021,1.05057c-1.39692,0.03798 -2.82683,-0.19026 -4.19076,0.11393c-1.63983,0.36572 -3.03144,1.55447 -4.6826,1.86504c-4.43848,0.83484 -9.92914,0.04511 -14.47277,0.04511c-1.77892,0 -3.55785,0 -5.33677,0c0,5.41619 0,10.83238 0,16.24856l-4.27651,3.05465c0,0 -1.01919,0 -1.88015,-0.58871c-0.24187,0.17748 -0.41936,0.26623 -0.41936,0.26623l-1.26818,0.18411c-0.94179,1.37704 -1.65331,2.94392 -2.82538,4.13113c-1.0317,1.04503 -2.6272,1.40534 -3.66558,2.44372c-1.03838,1.03838 -1.40165,2.6309 -2.44372,3.66558c-2.32411,2.30764 -5.32021,3.82994 -7.84188,5.91988c-7.78216,6.44979 -16.22825,12.38716 -23.52748,19.37238c-0.20811,0.30351 -0.46421,0.534 -0.73316,0.70904c-0.29801,0.2913 -0.59397,0.58448 -0.88773,0.87965c0,0 -2.15996,2.15996 -4.31993,0c-0.09546,-0.09546 -0.1825,-0.19093 -0.26164,-0.28621c-2.30208,0.17028 -4.57067,0.82157 -6.86398,1.14146c-3.79199,0.52894 -7.65734,0.03944 -11.48605,0.03944c-8.14574,0 -16.29149,0 -24.43723,0c-12.60026,0 -25.25953,-0.3407 -37.85313,0.06105c-5.78455,0.18453 -11.34499,1.1521 -17.13063,1.16081c-4.87983,0 -9.78299,0.1167 -14.66234,0c-2.01971,-0.04831 -4.19802,0.55991 -6.05641,-0.23252c-6.60324,-2.81565 -4.305,-11.94182 -4.32938,-17.47269c-0.02549,-5.78086 -0.74325,-11.15219 -1.21148,-16.86589c-0.63143,-7.70514 0.56856,-15.53327 -0.21261,-23.24509c-0.48504,-4.78841 -1.01966,-8.86346 -1.01966,-13.6627c0,0 0,-1.78333 1.3626,-2.6248c-0.08939,-0.30002 -0.14074,-0.64472 -0.14074,-1.04078c0,-3.05465 3.05465,-3.05465 3.05465,-3.05465c6.12487,0.37868 11.31518,-7.56014 15.8658,-11.07451c3.18655,-2.46092 7.23839,-3.69146 10.30586,-6.29931c3.0033,-2.5533 4.99887,-6.10001 7.63216,-9.03343c2.4339,-2.71131 5.5546,-5.0615 7.8209,-7.90868c1.68659,-2.11888 3.18239,-4.41012 5.08977,-6.33266l3.2376,-1.79407c0,0 1.38361,-0.69181 2.67391,-0.10618c0.61306,-0.21631 1.1359,-0.21631 1.1359,-0.21631c15.50634,0 30.87794,1.16544 46.38986,1.21437c6.10615,0.01926 12.21272,0.00621 18.31891,0.00747c3.43805,0.00071 6.92005,-0.50904 10.31406,0.03946c8.53612,1.37951 16.46489,3.24135 25.23657,3.62688c4.05061,-0.00082 8.10122,-0.00073 12.15183,-0.00073h3.66558c0,0 2.65832,0 3.01521,2.47988c0.78933,-0.21698 1.79983,-0.15197 2.81034,0.85853c2.15996,2.15996 0,4.31993 0,4.31993l-0.32717,0.32718c0,14.89618 0,29.79235 0,44.68853c1.77892,0 3.55785,0 5.33677,0c4.20304,0 9.43119,0.85439 13.52723,0.04511c1.62187,-0.32044 2.98805,-1.49143 4.60217,-1.84887c1.47355,-0.32631 3.01631,-0.11478 4.52447,-0.17217l3.73979,-0.94943c0,0 2.42536,-0.60634 3.0317,1.81902zM278.16232,163.82799c6.32355,-3.61346 12.14331,-7.3383 17.72307,-12.07817c3.12499,-2.6546 5.68717,-5.93498 8.85556,-8.53762c2.17179,-1.784 5.12852,-2.32924 7.54309,-3.76769c0.8751,-0.52133 1.31954,-1.56887 2.11304,-2.20757c2.89855,-2.33309 5.36693,-4.21501 7.99961,-6.80167h-2.39741c-4.09514,0 -8.19026,0.00007 -12.28539,-0.00073c-9.05848,-0.39468 -17.26929,-2.20344 -26.08161,-3.70429c-3.06809,-0.52254 -6.22445,0.04006 -9.33672,0.03942c-6.11219,-0.00126 -12.22477,0.01178 -18.33692,-0.0075c-15.50601,-0.04891 -30.87149,-1.21434 -46.3706,-1.21434c0,0 -0.58604,0 -1.24473,-0.25669l-1.48275,0.58386c-1.78151,1.7648 -3.11415,3.93138 -4.68512,5.88596c-2.35423,2.92912 -5.50786,5.33883 -8.02023,8.13981c-0.54033,0.6024 -7.83113,9.26946 -8.19898,9.58251c-0.41244,0.35101 -9.75253,5.87779 -10.52483,6.47704c-3.14132,2.43742 -6.16849,5.91206 -9.49596,8.68707c28.80592,0 57.61183,0 86.41775,0c8.03445,0 16.42658,-0.66901 24.43723,0c0.76251,0.06368 1.63851,-0.02685 2.49257,-0.06753c0.42509,-0.49229 0.87935,-0.75187 0.87935,-0.75187zM275.40133,187.25181c0,-4.40024 -0.44242,-9.07069 0,-13.44047c0.13597,-1.34294 1.15941,-2.62575 0.89469,-3.94934c-0.11449,-0.57246 -0.92746,0.81378 -1.50562,0.89469c-1.61343,0.22579 -3.25829,0 -4.88745,0c-6.5166,0 -13.03319,0 -19.54978,0c-31.55585,0 -63.11171,0 -94.66756,0c0.16744,5.91062 1.06989,11.62194 1.19163,17.57555c0.11485,5.61669 -0.47456,11.40229 -0.00687,16.99555c0.34402,4.11426 1.10916,8.20048 1.19339,12.32824c0.09174,4.49589 0.18043,9.08753 0.03888,13.58279c-0.00583,0.185 -0.94001,3.10177 0.55804,3.28717c5.75659,0.71243 12.57617,-0.23252 18.38081,-0.23252c5.71666,0.00941 11.22131,-0.97024 16.94439,-1.15797c12.65426,-0.4151 25.37803,-0.06389 38.03937,-0.06389c8.14574,0 16.29149,0 24.43723,0c3.50251,0 7.042,0.5476 10.50745,0.03944c2.80936,-0.41195 5.59864,-1.13372 8.4314,-1.24672c0,-14.12285 0,-30.55579 0,-44.61252z"/><path d="M36.38197,120.26393c2.23607,-1.11803 3.3541,1.11803 3.3541,1.11803l1.26393,3.11803c-0.00003,7.41975 -0.65629,15.4451 0.59157,22.77656c0.52185,3.06602 1.39114,6.11337 1.40843,9.22344c0,0 0,2.5 -2.5,2.5c-2.5,0 -2.5,-2.5 -2.5,-2.5c0.01874,-2.83258 -0.87162,-5.59795 -1.33878,-8.3918c-1.27517,-7.62612 -0.66119,-15.89514 -0.66122,-23.6082l-0.73607,-0.88197c0,0 -1.11803,-2.23607 1.11803,-3.3541z"/><path d="M84.5,116c2.5,0 2.5,2.5 2.5,2.5v4c0,6.96512 -0.09574,13.38228 -2.2568,20.10315c-1.54582,4.8075 -3.92481,10.19107 -10.19991,8.20655c-1.13317,-0.35837 -1.71439,-1.65173 -2.64537,-2.39049c-1.04552,-0.82965 -2.35944,-1.33339 -3.2733,-2.30617c-3.29518,-3.50766 -5.00002,-8.93711 -8.53436,-12.20493c-0.05778,-0.05342 -0.11662,-0.1054 -0.17646,-0.15604c-0.17565,7.13739 -0.55653,14.18044 -1.96236,21.23823c0,0 -0.49029,2.45145 -2.94174,1.96116c-2.45145,-0.49029 -1.96116,-2.94174 -1.96116,-2.94174c1.59976,-7.96459 1.79736,-15.92602 1.94239,-24.02278c-0.09268,-0.43257 -0.05714,-0.94215 0.2268,-1.51949c0.17338,-0.43483 0.48486,-0.91138 1.04424,-1.19995c0.54103,-0.32166 1.11023,-0.33347 1.57089,-0.25025c0.63247,0.06414 1.08038,0.29896 1.39757,0.60139c1.45144,0.82867 3.0314,1.48762 4.25421,2.61822c3.64566,3.37074 5.31414,8.77673 8.69035,12.35556c0.21865,0.23178 4.51104,4.06526 5.36828,3.59788c2.40558,-1.31154 3.00141,-7.62729 3.49294,-9.7646c0.32267,-1.40307 0.82504,-2.77515 0.9796,-4.20653c0.3478,-3.22101 -0.01582,-6.47945 -0.01582,-9.71918v-4c0,0 0,-2.5 2.5,-2.5z"/><path d="M130,186.5c0,2.5 -2.5,2.5 -2.5,2.5l-1.79057,-0.12829c-1.843,-0.63836 -3.90346,-0.39035 -5.7758,-0.93671c-3.27705,-0.95626 -6.21315,-2.83526 -9.37611,-4.11946c-5.65181,-2.29471 -11.4383,-4.28274 -16.97615,-6.81687c-8.84858,-4.04913 -15.96589,-10.06967 -26.08137,-9.99868c0,0 -2.5,0 -2.5,-2.5c0,-2.5 2.5,-2.5 2.5,-2.5c5.34085,0.03193 10.13438,0.93684 15.04464,3.22872c0.77514,0.3618 7.76642,4.71505 8.69531,5.20429c5.64168,2.97144 11.71213,4.82281 17.57953,7.2512c3.94426,1.63245 8.20987,4.2075 12.24689,5.38079c0.90722,0.26367 1.90282,-0.19181 2.83409,-0.03272c1.17067,0.19999 2.26008,0.73067 3.39011,1.09601l0.20943,-0.12829c0,0 2.5,0 2.5,2.5z"/><path d="M110.26393,197.61803c-1.11803,-2.23607 1.11803,-3.3541 1.11803,-3.3541l4.28159,-2.11985c0.84401,-0.19123 9.09625,-2.07172 9.56366,-2.12915c2.62768,-0.32289 5.3693,-0.48489 7.78681,-1.56406c1.365,-0.60933 2.70507,-1.27584 4.0242,-1.97898c0.68232,-0.3637 1.80682,-0.46332 1.97394,-1.21824c0.13393,-0.60497 -0.98733,-0.75157 -1.44552,-1.16868c-0.63647,-0.57941 -1.22443,-1.20997 -1.83441,-1.81721c-4.38281,-4.36315 -7.65129,-8.86066 -13.83857,-10.34241c0,0 -2.42536,-0.60634 -1.81902,-3.0317c0.60634,-2.42536 3.0317,-1.81902 3.0317,-1.81902c1.46835,0.37969 3.01565,0.53097 4.40504,1.13907c4.68478,2.05038 8.2102,6.95769 11.75638,10.51852c1.54269,1.54906 5.07406,4.70164 4.72007,7.01411c-0.31529,2.05966 -2.40946,3.46715 -4.02606,4.78176c-1.26469,1.02843 -8.39795,4.08945 -10.00008,4.42889c-1.36601,0.28942 -2.80274,-0.14017 -4.1889,0.02807c-2.85945,0.34706 -5.62155,1.25946 -8.43634,1.87085l-3.71841,1.88015c0,0 -2.23607,1.11803 -3.3541,-1.11803z"/><path d="M368.38197,197.73607c-2.23607,-1.11803 -1.11803,-3.3541 -1.11803,-3.3541l1.40467,-2.58372c4.78566,-5.14596 8.1957,-10.47469 11.66079,-16.53859c1.11768,-1.95594 2.87617,-3.56614 3.67209,-5.6736c0.37032,-0.98053 -2.06643,-0.37075 -3.07586,-0.65293c-1.56329,-0.43701 -2.88742,-1.49088 -4.38233,-2.12342c-5.76701,-2.44022 -11.17261,-4.73385 -16.43004,-8.22957c0,0 -2.08013,-1.38675 -0.69338,-3.46688c1.38675,-2.08013 3.46688,-0.69338 3.46688,-0.69338c4.9829,3.33135 10.12758,5.40516 15.56996,7.77043c1.2459,0.54147 2.31348,1.4964 3.61767,1.87658c1.15606,0.337 2.65219,-0.50706 3.60526,0.22894c1.60933,1.24279 3.22278,3.08707 3.31887,5.11813c0.03819,0.80717 -3.36014,6.63281 -4.32791,8.3264c-3.65059,6.38854 -7.3015,12.03562 -12.33921,17.46141l-0.59533,1.41628c0,0 -1.11803,2.23607 -3.3541,1.11803z"/><path d="M391.74144,149.01087c0.03688,0.0041 0.07425,0.00885 0.11211,0.01426c2.47487,0.35355 2.12132,2.82843 2.12132,2.82843c-0.41562,2.90004 -1.63908,5.83149 -1.1283,8.71629c0.09753,0.55083 0.86917,0.70446 1.30583,1.05411c1.04468,0.83651 1.91514,1.96093 3.13817,2.50434c0.67417,0.29955 1.47186,-0.11357 2.20943,-0.12829c4.01477,-0.08015 5.80956,-0.8004 7.75421,-4.59838c1.97752,-3.86218 1.06751,-10.43683 -2.98596,-12.72612c-3.08541,-1.74255 -8.58255,-1.11491 -11.18328,0.75786c-0.60363,0.57161 -1.03546,1.07797 -1.34353,1.57751zM388.11424,157.97866c-2.11424,-0.24295 -2.11424,-2.47866 -2.11424,-2.47866v-2c0.04284,-4.51318 0.75765,-6.67986 3.91503,-9.93336c1.28684,-0.81979 2.39866,-2.02233 3.86051,-2.45937c2.95685,-0.88401 10.30697,-0.30729 12.95621,1.21723c6.38497,3.67427 8.10434,12.99204 5.01404,19.27388c-2.62325,5.33244 -6.45338,7.47896 -12.24579,7.40162c-1.26413,-0.01688 -2.62447,0.36011 -3.79057,-0.12829c-1.84106,-0.77111 -3.35506,-2.18656 -4.86183,-3.49566c-1.02537,-0.89085 -2.3247,-1.75418 -2.68737,-3.06317c-0.25148,-0.90765 -0.20809,-2.54901 -0.04599,-4.33422z"/><path d="M436.5,142c2.5,0 2.5,2.5 2.5,2.5v4c0,5.25451 1.7267,15.21797 -3.09843,19.07017c-1.41154,1.12692 -3.59627,0.37232 -5.40157,0.42983c-5.16124,0.16441 -9.17132,-1.62634 -12.12663,-6.18567c-1.66639,-2.57084 -1.36264,-4.52015 -1.37337,-7.31433c-0.01537,-3.99983 0,-8.00012 0,-12c0,0 0,-2.5 2.5,-2.5c2.5,0 2.5,2.5 2.5,2.5c0,3.99985 0.01699,8.00021 0,12c-0.00631,1.48446 -0.32276,3.32517 0.62663,4.68567c2.36112,3.38354 4.21686,3.61353 7.87337,3.81433c0.87659,0.04814 1.90574,0.9692 2.59843,0.42983c0.83903,-0.65333 0.67527,-2.03059 0.81172,-3.0852c0.49884,-3.85552 0.08985,-7.95961 0.08985,-11.84463v-4c0,0 0,-2.5 2.5,-2.5z"/><path d="M476,134.5c0,2.5 -2.5,2.5 -2.5,2.5h-1c-5.01598,0 -10.03147,-0.03327 -15.02427,0.1558c1.52427,0.54662 1.52427,2.3442 1.52427,2.3442c0,6.43373 -0.55976,12.0835 -2.01892,18.36815l0.01708,0.72777c0,0 -0.09591,2.49816 -2.59407,2.40225c-2.49816,-0.09591 -2.40225,-2.59407 -2.40225,-2.59407l0.10907,-1.66795c1.37808,-5.92197 1.88909,-11.17578 1.88909,-17.23613c0,0 0,-1.61093 1.29314,-2.24651c-4.79821,0.24959 -9.57242,0.73964 -14.30285,1.69796c0,0 -2.45145,0.49029 -2.94174,-1.96116c-0.49029,-2.45145 1.96116,-2.94174 1.96116,-2.94174c10.71225,-2.11732 21.57035,-2.04855 32.49029,-2.04855h1c0,0 2.5,0 2.5,2.5z"/></g></g></svg>