<svg version="1.1" xmlns="http://www.w3.org/2000/svg" xmlns:xlink="http://www.w3.org/1999/xlink" width="474.77333" height="204.80008" viewBox="0,0,474.77333,204.80008"><g transform="translate(-9.35345,-71.04856)"><g data-paper-data="{&quot;isPaintingLayer&quot;:true}" fill-rule="nonzero" stroke-linecap="butt" stroke-linejoin="miter" stroke-miterlimit="10" stroke-dasharray="" stroke-dashoffset="0" style="mix-blend-mode: normal"><path d="M12.90356,273.09864v-45.37384h217.62924v45.37384z" fill="none" stroke="#9966ff" stroke-width="5.5"/><path d="M12.67406,119.17241v-45.37384h217.62925v45.37385z" fill="none" stroke="#9966ff" stroke-width="5.5"/><path d="M12.10345,195.45725v-45.37385h217.62925v45.37385z" fill="none" stroke="#9966ff" stroke-width="5.5"/><path d="M85.48659,104.82493c-0.26812,-2.07189 1.34062,-2.41721 1.34062,-2.41721l1.70274,-0.36473c0.89279,-0.2543 1.77394,-0.58974 2.67836,-0.76291c1.0063,-0.19267 2.04749,-0.05103 3.04116,-0.33215c0.70677,-0.19995 1.35606,-0.66325 1.99797,-1.09346c0.31682,-0.21233 0.96386,-0.382 0.86043,-0.82225c-0.14156,-0.60255 -0.88608,-0.55246 -1.27356,-0.93624c-0.6256,-0.61962 -1.39744,-2.15611 -2.22885,-2.47258c-2.13775,-0.81373 -5.92007,1.64129 -7.75458,-1.02736c-0.39742,-0.57813 -0.5163,-6.4704 -0.33186,-7.14275c0.40704,-1.48387 0.92055,-3.22032 2.00074,-3.95608c1.05166,-0.71634 2.38046,0.04916 3.56682,0.16379c1.6739,0.16173 3.34955,0.3604 5.02814,0.3574c0,0 1.63094,0 1.63094,2.10048c0,2.10048 -1.63094,2.10048 -1.63094,2.10048c-1.12702,-0.00187 -2.25579,0.07538 -3.38105,-0.00562c-1.26825,-0.09129 -2.51006,-1.40404 -3.7352,-0.97204c-0.93981,0.33139 -0.14885,2.50357 -0.2722,3.74839c-0.03342,0.33734 -0.52338,0.59974 -0.3865,0.89056c0.12005,0.25508 0.40484,-0.33832 0.63577,-0.36091c1.03946,-0.10167 2.08498,-0.02267 3.12736,-0.00716c2.70376,0.04023 4.23843,0.94094 6.03791,3.61289c0.77407,1.14937 2.18567,2.03936 2.21782,3.56027c0.03628,1.71637 -1.07236,3.25496 -2.04904,4.42367c-2.28665,2.73626 -6.32021,2.24135 -9.1575,3.05741l-1.78864,0.38469c0,0 -1.60875,0.34531 -1.87687,-1.72658z" fill="#9966ff" stroke="none" stroke-width="0.5"/><path d="M121.60343,94.73718c0,2.10048 -1.63094,2.10048 -1.63094,2.10048c-1.16101,0 -2.50237,0 -3.89708,0c0,1.4232 0,2.84638 0,4.26958v0.3747c0,0 0,2.10048 -1.63094,2.10048c-1.63094,0 -1.63094,-2.10048 -1.63094,-2.10048c0,-1.51354 0,-3.07201 0,-4.64428c-1.49871,0 -2.94648,0 -4.18802,0c0,0 -1.63094,0 -1.63094,-2.10048c0,-2.10048 1.63094,-2.10047 1.63094,-2.10047c1.39601,0 2.79201,0 4.18802,0c0,-1.57228 0,-3.13075 0,-4.64429c0,0 0,-2.10047 1.63094,-2.10047c1.63094,0 1.63094,2.10047 1.63094,2.10047c0,1.5481 0,3.09619 0,4.64429c0.81411,0 1.62822,0 2.44233,0h1.45475c0,0 1.63094,-0.00001 1.63094,2.10047z" fill="#9966ff" stroke="none" stroke-width="0.5"/><path d="M124.16051,102.60607c0,-2.10048 1.63094,-2.10048 1.63094,-2.10048l0.47106,0.01284c2.82144,0.40735 5.61674,0.45812 8.45815,0.36508c0.66865,-0.0219 1.33732,-0.07693 2.00222,-0.17061c0.18475,-0.02603 0.61319,0.03168 0.53824,-0.18736c-0.15446,-0.4514 -0.68105,-0.50744 -0.91097,-0.90196c-0.42866,-0.73553 -0.45601,-1.86813 -1.02613,-2.4219c-0.48838,-0.47438 -1.21369,-0.195 -1.81329,-0.36403c-0.57504,0 -2.77316,0 -2.77316,0c-0.90075,0 -1.63094,-0.94042 -1.63094,-2.10048c0,-0.83852 0.38151,-1.56227 0.93317,-1.89907l1.71408,-1.10378l0.00079,0.00202c0.50001,-0.29533 1.10449,-0.40608 1.48179,-0.9182c0.6643,-0.90168 0.01127,-3.97163 -0.6234,-4.57372c-0.96006,-0.91078 -4.21858,-1.11991 -5.28895,-0.45289c-0.66425,0.41393 -1.09003,1.28142 -1.63504,1.92213c0,0 -1.2383,1.36697 -2.29971,-0.22782c-1.0614,-1.5948 0.1769,-2.96176 0.1769,-2.96176c0.81275,-0.85813 1.48189,-2.01313 2.43824,-2.57437c2.19878,-1.29036 6.79715,-0.85511 8.67656,1.04595c1.99704,2.02004 2.69719,7.0036 1.38646,9.90516c1.44189,0.62859 2.01173,2.24752 3.023,4.44414c0.53211,1.15579 1.59332,2.27026 1.41661,3.59454c-0.20559,1.54081 -1.31806,2.78226 -2.37123,3.55974c-0.94448,0.69724 -2.14881,0.48194 -3.23485,0.5788c-2.97725,0.26555 -6.04081,0.03541 -8.99875,-0.38434l-0.11084,0.01284c0,0 -1.63094,0.00001 -1.63094,-2.10047z" fill="#9966ff" stroke="none" stroke-width="0.5"/><path d="M118.51774,138.43034c-1.63094,0 -1.63094,-2.10047 -1.63094,-2.10047c0,-4.62141 0,-10.74166 0,-15.36307c0,0 0,-2.10047 1.63094,-2.10047c1.63094,0 1.63094,2.10047 1.63094,2.10047c0,4.62141 0,9.24282 0,13.86423v1.49883c0,0 0,2.10047 -1.63094,2.10047z" fill="#9966ff" stroke="none" stroke-width="0.5"/><path d="M127.5266,135.21932c1.15325,1.48525 0,2.97052 0,2.97052l-1.4596,1.80034c-3.57865,1.637 -7.59368,5.06153 -11.58048,3.56768c-3.0464,-1.14148 -4.50889,-7.20308 -5.61439,-10.52237c0,0 -0.64246,-1.93064 0.85662,-2.75806c1.49908,-0.82742 2.14154,1.10322 2.14154,1.10322c0.83383,2.50797 1.65161,5.08394 2.9196,7.29976c0.20794,0.36338 0.4339,0.81713 0.77635,0.91333c2.96769,0.83363 6.08385,-2.12068 8.7859,-3.17709l0.86798,-1.19733c0,0 1.15325,-1.48525 2.3065,0z" fill="#9966ff" stroke="none" stroke-width="0.5"/><path d="M115.01583,180.90666c-1.15325,1.48525 -2.3065,0 -2.3065,0l-0.92772,-1.40726c-0.33443,-1.12103 -0.97168,-2.16285 -1.00331,-3.36309c-0.14226,-5.39946 5.45613,-6.29009 5.81784,-10.99273c0.06817,-0.88634 -1.41137,-2.77378 -1.57303,-2.99037c-1.44631,-1.93774 -3.37045,-3.54969 -3.9775,-0.05361c0,0 -0.51575,1.99268 -2.063,1.32845c-1.54725,-0.66423 -1.0315,-2.65691 -1.0315,-2.65691c0.29901,-0.98675 0.33104,-2.19174 0.89704,-2.96026c3.49244,-4.74201 8.35722,-0.37477 10.22154,4.10114c1.75177,4.2057 -0.07556,7.08229 -2.30817,10.00162c-0.35762,0.46762 -2.88121,2.90153 -2.72415,4.04808c0.09495,0.69319 0.49493,1.25523 0.74239,1.88284l0.23607,0.09158c0,0 1.15325,1.48526 0,2.97051z" fill="#9966ff" stroke="none" stroke-width="0.5"/><path d="M113.68637,185.79146c0,-1.16006 0.7302,-2.10048 1.63094,-2.10048c0.90075,0 1.63094,0.94042 1.63094,2.10048c0,1.16006 -0.7302,2.10047 -1.63094,2.10047c-0.90075,0 -1.63094,-0.94042 -1.63094,-2.10047z" fill="#9966ff" stroke="none" stroke-width="0.5"/><path d="M36.06563,243.41604c-0.46175,0.22894 -0.92187,0.46022 -1.19582,0.95897c-3.00766,5.47581 3.14809,14.46144 7.62967,11.65657c0.83145,-0.52038 0.68349,-2.24117 0.78965,-3.42387c0.08396,-0.93524 0.07747,-1.88776 0.00355,-2.8244c-0.33508,-4.2457 -4.3345,-4.42821 -6.67886,-5.90679zM36.17265,239.13967c0.6412,-0.12083 1.20239,0.36101 1.20239,0.36101l0.69754,0.6184c2.03014,1.34215 3.87129,1.31801 5.7886,3.20713c3.12113,3.07524 3.46819,8.87865 1.97156,13.33963c-0.3415,1.01792 -0.69626,2.18524 -1.42601,2.77373c-0.99889,0.80554 -2.25464,0.94433 -3.42364,1.13717c-3.35601,0.55361 -7.86606,-3.76595 -9.46288,-7.52244c-1.13715,-2.67513 -0.44368,-8.9701 0.73173,-11.18546c0.6283,-1.1842 1.84808,-1.6011 2.77211,-2.40166c0,0 0.53565,-0.43116 1.14858,-0.32751z" fill="#9966ff" stroke="none" stroke-width="0.5"/><path d="M58.01107,256.59787c-0.84271,-1.08533 -0.45384,-2.17065 -0.18331,-2.67645c0.03283,-4.35223 0.28751,-8.67683 0.28751,-13.04775c0,0 0,-2.10048 1.63094,-2.10048c1.63094,0 1.63095,2.10048 1.63095,2.10048c0,4.64186 -0.29467,9.23975 -0.29095,13.86423l-0.76864,1.85997c0,0 -1.15325,1.48525 -2.3065,0z" fill="#9966ff" stroke="none" stroke-width="0.5"/><path d="M70.80224,257.9625c-1.63094,0 -1.63094,-2.10047 -1.63094,-2.10047v-1.12413c0,-4.55839 0.20255,-8.82449 0.59187,-13.34677c0,0 0.18011,-2.08763 1.80107,-1.85567c1.62096,0.23196 1.44086,2.31959 1.44086,2.31959c-0.37841,4.3771 -0.57192,8.46992 -0.57192,12.88285v1.12413c0,0 0,2.10047 -1.63094,2.10047z" fill="#9966ff" stroke="none" stroke-width="0.5"/><path d="M84.8825,245.37018c0,-2.10047 1.63095,-2.10048 1.63095,-2.10048l1.72286,0.02858c0.74129,0.19297 1.55624,0.12134 2.22386,0.57893c1.8729,1.2837 1.68329,2.45586 2.66415,4.4827c1.31854,2.72465 2.81128,3.10208 1.17735,7.48227c-0.42359,1.13556 -1.62078,1.43242 -2.50892,1.96043c-2.7994,1.66427 -7.79681,3.41075 -10.62209,0.86392c-3.51833,-3.17157 -1.50345,-8.8728 -0.18926,-12.36217c0,0 0.72939,-1.87872 2.18815,-0.93936c1.45876,0.93936 0.72938,2.81808 0.72938,2.81808c-0.41108,1.01991 -2.65749,5.67633 -0.77114,7.12269c2.03539,1.56064 5.48301,-0.6308 7.41669,-1.38433c0.32146,-0.12527 0.81503,0.08713 0.98246,-0.28782c0.55745,-1.24841 -0.81558,-2.34995 -1.15023,-3.00959c-0.04717,-0.09298 -0.8443,-2.69782 -1.40913,-3.01147c-0.39009,-0.21662 -0.84502,-0.11366 -1.26753,-0.17049l-1.18661,0.02858c0,0 -1.63095,0 -1.63095,-2.10047z" fill="#9966ff" stroke="none" stroke-width="0.5"/><path d="M105.07383,257.94139c-1.61455,0.29706 -1.8452,-1.78231 -1.8452,-1.78231l-0.28816,-2.59881c-0.53176,-4.18354 -0.31012,-8.45351 -0.31012,-12.6866c0,0 -0.00001,-2.10048 1.63094,-2.10048c1.63094,0 1.63094,2.10048 1.63094,2.10048c0,4.00629 -0.25043,8.08925 0.27177,12.04419l0.29373,2.64712c0,0 0.23065,2.07936 -1.3839,2.37641z" fill="#9966ff" stroke="none" stroke-width="0.5"/><path d="M117.34341,258.09671c-1.15325,1.48525 -2.3065,0 -2.3065,0l-0.6648,-1.12244c-1.04542,-3.69594 -0.97669,-6.184 -0.97669,-10.10525c0,0 -0.00001,-2.10047 1.63094,-2.10047c1.63094,0 1.63094,2.10047 1.63094,2.10047c0,3.45593 -0.18883,5.45627 0.769,8.6302l-0.0829,-0.37302c0,0 1.15325,1.48526 0,2.97051z" fill="#9966ff" stroke="none" stroke-width="0.5"/><path d="M124.91861,258.33722c-1.63094,0 -1.63094,-2.10048 -1.63094,-2.10048l0.02219,-0.77882c-0.38584,-3.12453 -1.20023,-5.49237 -1.46883,-8.75461c0,0 -0.16228,-2.09006 1.46057,-2.29906c1.62285,-0.209 1.78513,1.88105 1.78513,1.88105c0.22567,3.13016 1.03257,5.44048 1.44065,8.48199l0.02219,1.46945c0,0 0,2.10048 -1.63094,2.10048z" fill="#9966ff" stroke="none" stroke-width="0.5"/><path d="M140.32507,243.83651c-0.2186,0.15946 -0.49911,0.26177 -0.85905,0.26177c-1.63094,0 -1.63094,-2.10047 -1.63094,-2.10047l1.63094,-2.47519c0.76185,0.03947 1.56896,-0.21708 2.28555,0.11841c0.76454,0.35795 1.33338,1.20433 1.96155,1.87002c0.87489,0.92715 1.82512,1.77552 2.54338,2.90402c0.64127,1.00752 1.22992,2.15057 1.47763,3.41366c1.40991,7.18893 -4.82968,11.45194 -9.4319,11.25791c-3.0564,-0.12887 -4.45195,0.5267 -5.38675,-4.72085c-0.27873,-1.56467 0.29528,-3.20061 0.62877,-4.74741c0.68258,-3.16593 1.0798,-3.17744 2.73189,-5.35874c0,0 1.15324,-1.48525 2.3065,0c1.15325,1.48525 0,2.97052 0,2.97052c-0.81834,1.01906 -1.57519,2.23847 -1.92329,3.63428c-0.22414,0.89874 -0.55835,1.8033 -0.53503,2.74678c0.05829,2.35798 1.13945,1.34712 2.17791,1.27448c2.15208,-0.15053 7.28884,-1.57175 6.2793,-5.97871c-0.43105,-1.88165 -1.9369,-3.01206 -2.96175,-4.17417c-0.35987,-0.40806 -0.81633,-0.73093 -1.29471,-0.8963z" fill="#9966ff" stroke="none" stroke-width="0.5"/><path d="M155.17722,258.33722c-1.63094,0 -1.63094,-2.10048 -1.63094,-2.10048v-0.37471c0.0002,-3.91728 -0.07424,-6.91769 -0.82415,-10.73183c0,0 -0.39557,-2.03775 1.18668,-2.54719c1.58225,-0.50944 1.97781,1.52831 1.97781,1.52831c0.79405,4.1384 0.92132,7.51204 0.92154,11.75071v0.37471c0,0 0.00001,2.10048 -1.63094,2.10048z" fill="#9966ff" stroke="none" stroke-width="0.5"/><path d="M168.26989,255.33954c-1.63094,0 -1.63094,-2.10047 -1.63094,-2.10047c0,-2.49806 0,-7.24437 0,-9.74243c0,0 0,-2.10047 1.63094,-2.10047c1.63094,0 1.63094,2.10047 1.63094,2.10047c0,2.49806 0,4.99612 0,7.49418v2.24826c0,0 0,2.10047 -1.63094,2.10047z" fill="#9966ff" stroke="none" stroke-width="0.5"/><path d="M181.36256,256.46367c-1.63094,0 -1.63094,-2.10047 -1.63094,-2.10047v-0.37471c0,-4.2275 0.06556,-8.14166 0.60409,-12.336c0,0 0.26812,-2.0719 1.87687,-1.72658c1.60876,0.34531 1.34063,2.41721 1.34063,2.41721c-0.5173,3.96383 -0.55971,7.64715 -0.55971,11.64537v0.37471c0,0 0,2.10047 -1.63094,2.10047z" fill="#9966ff" stroke="none" stroke-width="0.5"/><path d="M194.92481,245.80766c-0.15814,1.0335 -0.99092,1.49316 -0.99092,1.49316c-0.52007,0.24058 -1.18845,0.19519 -1.56021,0.72174c-0.69852,0.98933 -2.25447,4.9568 -0.90051,6.27841c0.48549,0.47389 1.16935,0.44181 1.74714,0.69039c0.46329,0.19932 0.88666,0.67044 1.37493,0.65276c2.37321,-0.08589 1.71202,-4.73781 1.72042,-6.52685c0.00472,-1.00473 0.49185,-2.363 -0.1042,-3.01125c-0.28626,-0.31132 -0.73879,-0.16134 -1.10819,-0.242zM192.81995,243.36528c0.00998,-0.11977 0.02733,-0.2457 0.05302,-0.37808c0.39556,-2.03776 1.97781,-1.52832 1.97781,-1.52832l1.28398,0.41978c0.7944,0.41895 1.79297,0.45408 2.38319,1.25684c1.25095,1.70142 1.05175,3.94831 1.05958,5.98176c0.01694,4.39604 -0.1604,10.13642 -4.68044,10.70977c-0.92126,0.11686 -1.82003,-0.46946 -2.69834,-0.84607c-0.9961,-0.42712 -2.16517,-0.60243 -2.90803,-1.55787c-2.73462,-3.51719 -1.51508,-9.19375 0.84519,-12.45703c0.63129,-0.87282 1.67537,-1.01768 2.51305,-1.52652c0,0 0.06391,-0.03527 0.17098,-0.07426z" fill="#9966ff" stroke="none" stroke-width="0.5"/><path d="M202.3068,241.05844c0.72938,-1.87872 2.18814,-0.93936 2.18814,-0.93936l0.75427,0.56846c3.58066,0.96139 7.67278,3.20586 9.317,7.95118c1.73267,5.00059 -0.69458,12.23771 -5.35813,12.31857c-0.92604,0.01605 -1.74286,-0.84348 -2.5392,-1.4524c-3.90438,-2.98549 -5.17559,-8.78248 -2.78641,-13.83727c0.16872,-0.35697 0.40336,-0.64141 0.66252,-0.89885l-1.50881,-0.89223c0,0 -1.45876,-0.93937 -0.72938,-2.81808zM208.22895,246.07403c-0.18654,0.57727 -0.53506,0.93635 -0.53506,0.93635c-1.13027,1.05491 -2.42303,3.22513 -1.78546,5.2453c0.56314,1.78432 2.9603,5.76369 4.71968,3.81369c2.87503,-3.18653 0.22126,-7.98513 -2.39915,-9.99534z" fill="#9966ff" stroke="none" stroke-width="0.5"/><path d="M220.64056,259.08663c-1.63094,0 -1.63094,-2.10048 -1.63094,-2.10048v-0.37471c0.00609,-4.09389 -1.04411,-7.70413 -1.44215,-11.73015c0,0 -0.20229,-2.08426 1.41606,-2.34479c1.61835,-0.26053 1.82064,1.82372 1.82064,1.82372c0.39959,4.20488 1.46165,7.95691 1.46733,12.25122v0.37471c0,0 0,2.10048 -1.63094,2.10048z" fill="#9966ff" stroke="none" stroke-width="0.5"/><path d="M24.54148,262.0843c-1.63095,0 -1.63095,-2.10047 -1.63095,-2.10047v-1.12412c0.00739,-6.67782 -1.73814,-12.77081 -1.74569,-19.48487c0,0 0,-2.10047 1.63095,-2.10047c1.63095,0 1.63095,2.10047 1.63095,2.10047c-0.00813,6.69949 1.73882,12.78546 1.74568,19.48487v1.12412c0,0 0.00001,2.10047 -1.63094,2.10047z" fill="#9966ff" stroke="none" stroke-width="0.5"/><path d="M52.21703,259.08614c-1.63056,0.04568 -1.66602,-2.0543 -1.66602,-2.0543l-0.02935,-1.99578c-0.67191,-5.11383 -0.55294,-10.11324 -0.55294,-15.28651c0,0 0,-2.10048 1.63094,-2.10048c1.63094,0 1.63094,2.10048 1.63094,2.10048c0,5.04509 -0.12016,9.90321 0.53825,14.88843l0.04326,2.30249c0,0 0.03548,2.09998 -1.59508,2.14567z" fill="#9966ff" stroke="none" stroke-width="0.5"/><path d="M117.35395,219.36748c-1.63094,0 -1.63094,-2.10047 -1.63094,-2.10047l0.00202,-2.14362c-0.4093,-5.28802 -0.87487,-10.1238 -0.87487,-15.4677c0,0 0,-2.10047 1.63094,-2.10047c1.63094,0 1.63094,2.10047 1.63094,2.10047c0,5.28817 0.46291,10.01962 0.87082,15.25843l0.00202,2.35289c0,0 0,2.10047 -1.63094,2.10047z" fill="#9966ff" stroke="none" stroke-width="0.5"/><path d="M127.50296,214.89602c0.17839,-0.5772 0.58088,-1.22832 1.48893,-1.22832c1.63094,0 1.63094,2.10047 1.63094,2.10047l-1.23538,2.78718c-3.10222,0.96903 -5.80971,3.26424 -8.79716,4.7774c-1.05735,0.53555 -2.02325,1.57186 -3.15769,1.65292c-1.00244,0.07163 -2.06624,-0.42855 -2.85833,-1.22306c-0.76591,-0.76826 -1.02947,-2.12019 -1.53717,-3.18588c-1.35904,-2.85273 -2.644,-5.26101 -3.11086,-8.58504c0,0 -0.26813,-2.0719 1.34063,-2.41721c1.60876,-0.34531 1.87687,1.72658 1.87687,1.72658c0.31807,2.7932 1.66995,4.69859 2.7081,7.15274c0.00628,0.01483 0.55772,2.67701 1.42347,2.33581c3.59425,-1.41651 6.67771,-4.36853 10.22764,-5.8936z" fill="#9966ff" stroke="none" stroke-width="0.5"/><path d="M133.11607,181.36052c-1.15325,1.48525 -2.3065,0 -2.3065,0l-0.92772,-1.40725c-0.33444,-1.12103 -0.97169,-2.16285 -1.00331,-3.36309c-0.14226,-5.39946 5.45613,-6.29009 5.81784,-10.99273c0.06817,-0.88634 -1.41136,-2.77377 -1.57303,-2.99036c-1.44631,-1.93774 -3.37045,-3.54969 -3.9775,-0.05362c0,0 -0.51575,1.99269 -2.063,1.32846c-1.54725,-0.66423 -1.0315,-2.65691 -1.0315,-2.65691c0.29901,-0.98675 0.33104,-2.19174 0.89704,-2.96026c3.49244,-4.74201 8.35723,-0.37477 10.22155,4.10114c1.75178,4.2057 -0.07556,7.08229 -2.30818,10.00162c-0.35763,0.46762 -2.88121,2.90152 -2.72415,4.04808c0.09495,0.69319 0.49493,1.25523 0.74239,1.88284l0.23607,0.09157c0,0 1.15325,1.48526 0,2.97052z" fill="#9966ff" stroke="none" stroke-width="0.5"/><path d="M131.78662,186.24531c0,-1.16006 0.7302,-2.10047 1.63094,-2.10047c0.90075,0 1.63094,0.94042 1.63094,2.10047c0,1.16006 -0.73019,2.10048 -1.63094,2.10048c-0.90075,0 -1.63094,-0.94042 -1.63094,-2.10048z" fill="#9966ff" stroke="none" stroke-width="0.5"/><path d="M97.9728,181.06496c-1.15325,1.48525 -2.3065,0 -2.3065,0l-0.92772,-1.40725c-0.33443,-1.12103 -0.97168,-2.16285 -1.00331,-3.36309c-0.14226,-5.39946 5.45613,-6.29009 5.81784,-10.99273c0.06817,-0.88634 -1.41137,-2.77377 -1.57303,-2.99036c-1.44631,-1.93774 -3.37045,-3.5497 -3.9775,-0.05362c0,0 -0.51575,1.99269 -2.063,1.32846c-1.54725,-0.66423 -1.0315,-2.65691 -1.0315,-2.65691c0.29901,-0.98675 0.33104,-2.19174 0.89704,-2.96026c3.49244,-4.74201 8.35723,-0.37477 10.22155,4.10114c1.75177,4.2057 -0.07556,7.08229 -2.30818,10.00162c-0.35762,0.46762 -2.8812,2.90152 -2.72415,4.04808c0.09495,0.69319 0.49492,1.25523 0.74238,1.88284l0.23607,0.09157c0,0 1.15325,1.48526 0,2.97052z" fill="#9966ff" stroke="none" stroke-width="0.5"/><path d="M96.64334,185.94975c0,-1.16006 0.7302,-2.10047 1.63095,-2.10047c0.90075,0 1.63094,0.94042 1.63094,2.10047c0,1.16006 -0.7302,2.10048 -1.63094,2.10048c-0.90075,0 -1.63095,-0.94042 -1.63095,-2.10048z" fill="#9966ff" stroke="none" stroke-width="0.5"/><path d="M273.7831,259.98929c-2.5,0 -2.5,-2.5 -2.5,-2.5v-2.67589c0.02859,-1.38946 0.20771,-2.83203 0.57594,-4.21993c-1.10661,0.72767 -2.42096,1.22848 -4.14246,1.36186c-0.96608,0.07485 -1.75164,0.05075 -2.39134,-0.05884c-0.38426,1.72882 -0.73624,3.47937 -1.14766,5.26299c0,0 -0.56215,2.43598 -2.99813,1.87383c-2.43598,-0.56215 -1.87383,-2.99813 -1.87383,-2.99813c0.91995,-3.98465 1.54969,-7.84697 2.88189,-11.64124c-0.05152,-0.55514 -0.03785,-1.09731 0.20825,-1.57651c0.06218,-0.12107 0.12775,-0.23988 0.19637,-0.35666l-0.10036,-0.03346l0.87373,-2.6212c0.31417,-1.02156 1.26534,-1.76412 2.38994,-1.76412c1.38071,0 2.5,1.11929 2.5,2.5c0,0.15625 -0.01433,0.30915 -0.04176,0.45746l-0.43824,2.62943l-0.13603,-0.02267l0.07154,0.30655c-0.0252,0.06003 -0.05017,0.12008 -0.07493,0.18013c0.70907,1.37225 -0.74288,1.76328 -0.74443,3.015c-0.0002,0.16364 0.32522,-0.06477 0.47056,-0.13997c1.04727,-0.54187 2.19321,-0.95118 3.09851,-1.70671c0.97918,-0.81719 1.63932,-1.95423 2.45897,-2.93135l0.19527,-0.09222l-0.04028,-0.04834l2.66328,-2.2194c0.43538,-0.36806 0.99831,-0.58995 1.61307,-0.58995c1.38071,0 2.5,1.11929 2.5,2.5c0,0.10572 -0.00656,0.20991 -0.0193,0.31218l-0.44197,3.97773l-0.05151,-0.00572c-0.00808,0.14589 -0.0198,0.29179 -0.03556,0.4377c-0.38448,3.5587 -3.13447,4.59907 -3.01951,8.21158v2.67589c0,0 0,2.5 -2.5,2.5z" fill="#9966ff" stroke="none" stroke-width="0.5"/><path d="M287.33843,256.15135c0,-1.29034 0.97755,-2.35235 2.23247,-2.48586c-0.14354,-1.28466 -0.22941,-2.57071 -0.21329,-3.85299c-1.9592,3.55786 -3.48147,7.36178 -5.31078,11.02473c0,0 -1.11803,2.23607 -3.3541,1.11804c-2.23607,-1.11804 -1.11804,-3.35411 -1.11804,-3.35411c2.28255,-4.55995 4.1157,-9.24314 6.79001,-13.5609l1.30642,-2.17736c0.43183,-0.74893 1.2407,-1.25305 2.1673,-1.25305c1.0731,0 1.98829,0.67611 2.34282,1.62559l1.7623,4.40574l-0.03156,0.01262c0.04651,0.10195 0.09167,0.20462 0.13535,0.30805c1.21988,2.88818 0.81875,7.53199 1.33924,10.70873l0.83739,2.48795c0,0 0.79057,2.37171 -1.58114,3.16228c-2.37171,0.79057 -3.16228,-1.58114 -3.16228,-1.58114l-0.94654,-2.86383c-0.07138,-0.42239 -0.14434,-0.84585 -0.21722,-1.27022c-0.15483,0.03001 -0.31477,0.04572 -0.47837,0.04572c-1.38071,0 -2.5,-1.11929 -2.5,-2.5z" fill="#9966ff" stroke="none" stroke-width="0.5"/><path d="M319.72536,260.38509c1.11804,2.23607 -1.11804,3.3541 -1.11804,3.3541l-2.01,0.70992c-3.54906,-0.00846 -6.46546,0.24976 -9.95566,-1.11674c-8.30374,-3.25112 -6.78118,-14.50241 0.47063,-17.94095c1.84714,-0.87585 7.16286,-0.65773 9.03905,-0.65969c0,0 2.5,0 2.5,2.5c0,2.5 -2.5,2.5 -2.5,2.5c-2.34004,-0.00263 -4.88542,-0.7348 -7.01628,0.23227c-3.56741,1.61903 -4.72019,7.3161 -0.42133,8.81793c2.55004,0.89087 5.25893,0.67419 7.8836,0.66719l-0.22607,-0.18205c0,0 2.23607,-1.11803 3.35411,1.11804z" fill="#9966ff" stroke="none" stroke-width="0.5"/><path d="M340.50444,248.12368c0,2.5 -2.5,2.5 -2.5,2.5l-0.03498,-0.03402c-1.70568,0.28428 -3.41137,0.56856 -5.11705,0.85284c-0.31867,0.23045 -0.61161,0.48538 -0.83719,0.80438c-0.56395,0.7975 -0.71056,1.82405 -0.96168,2.76797c-0.33179,1.24712 -1.03562,2.65571 -0.51598,3.83698c1.36482,3.10259 7.32161,3.76614 10.14277,3.71915h1.33794c0,0 2.5,0 2.5,2.5c0,2.5 -2.5,2.5 -2.5,2.5h-1.33794c-2.55706,-0.03208 -5.12347,-0.60966 -7.5272,-1.48239c-1.1936,-0.43336 -2.61965,-0.37912 -3.63397,-1.14308c-6.42286,-4.83761 -4.09292,-12.75803 0.69567,-17.5181c0.08727,-0.10069 0.18115,-0.19041 0.27808,-0.27024c0.18325,-0.17409 0.36979,-0.34355 0.55929,-0.50806c0,0 1.28105,-1.06754 2.62253,-0.41262c1.15758,-0.19293 2.31516,-0.38586 3.47274,-0.57879l0.85698,-0.03402c0,0 2.5,0 2.5,2.5z" fill="#9966ff" stroke="none" stroke-width="0.5"/><path d="M354.05977,252.75938c0,0 0.56592,0.00001 1.15925,0.26926c-0.31754,-1.88419 -0.53467,-3.80038 -0.53738,-5.79693c0,0 0,-2.5 2.5,-2.5c2.5,0 2.5,2.5 2.5,2.5c-0.0085,5.63934 1.85411,10.63999 2.65076,16.14776l0.02513,0.79953c0,0 0,2.5 -2.5,2.5c-2.5,0 -2.5,-2.5 -2.5,-2.5l0.02513,-0.09243c-0.34526,-2.45091 -0.88555,-4.80227 -1.39246,-7.15094c-0.73778,0.82374 -1.93042,0.82374 -1.93042,0.82374c-1.04062,0 -2.08125,0 -3.12187,0h-0.37887c0.19811,1.53811 0.41798,3.1047 0.62965,4.7716l0.73246,1.61151c0,0 0.92847,2.32119 -1.39272,3.24967c-2.32119,0.92847 -3.24967,-1.39272 -3.24967,-1.39272l-1.05147,-2.8483c-0.62203,-5.06568 -1.35725,-9.40687 -1.35725,-14.58149c0,0 0,-2.5 2.5,-2.5c2.5,0 2.5,2.5 2.5,2.5c0,1.46391 0.05937,2.84518 0.15898,4.18972c1.16456,0 3.11533,0 4.03075,0z" fill="#9966ff" stroke="none" stroke-width="0.5"/><path d="M369.3835,265.26643c-2.42536,0.60634 -3.0317,-1.81902 -3.0317,-1.81902l-0.4611,-1.84794c-1.06581,-4.87442 -0.9515,-9.3898 -0.9515,-14.36775c0,0 0,-2.5 2.5,-2.5c2.5,0 2.5,2.5 2.5,2.5c0,4.59193 -0.18164,8.80212 0.83243,13.2831l0.43087,1.71991c0,0 0.60634,2.42536 -1.81901,3.0317z" fill="#9966ff" stroke="none" stroke-width="0.5"/><path d="M392.19427,249.45546c2.23607,1.11804 1.11804,3.3541 1.11804,3.3541l-0.22487,0.23463c-0.53533,2.8231 -1.26955,8.61629 -3.40591,10.71237c-4.78538,4.69517 -8.9188,-1.03746 -10.86482,-5.90708c-0.28704,1.94013 -0.58069,3.87928 -0.8789,5.81771c0,0 -0.38014,2.47093 -2.85107,2.09078c-2.47093,-0.38015 -2.09078,-2.85107 -2.09078,-2.85107c0.44471,-2.89051 0.88354,-5.78197 1.30887,-8.6754v-2.53998v0c0,-1.38071 1.11929,-2.5 2.5,-2.5c0.74167,0 1.4079,0.32296 1.86574,0.83592l3.33732,3.70813l-0.02335,0.02102c0.06133,0.05773 0.12219,0.11602 0.18254,0.17491c1.35888,1.32596 2.14828,5.21954 3.68579,6.47643c1.05527,0.86268 1.16977,-2.48288 1.49119,-3.80746c0.35796,-1.47512 0.55268,-2.98512 0.82902,-4.47769l0.6671,-1.5493c0,0 1.11804,-2.23607 3.35411,-1.11804z" fill="#9966ff" stroke="none" stroke-width="0.5"/><path d="M406.23961,263.11116c-1.62758,0 -5.11133,0 -7.06427,0c-0.10866,0.46335 -0.22357,0.92185 -0.36104,1.36729c-0.60463,1.95909 -1.65614,3.76577 -2.21238,5.73914c0,0 -0.6868,2.40382 -3.09061,1.71701c-2.40381,-0.6868 -1.71701,-3.09062 -1.71701,-3.09062c0.58062,-2.00871 1.63429,-3.85736 2.24743,-5.85638c0.31493,-1.02675 0.09481,-2.18059 0.46758,-3.18779c1.53564,-4.14918 4.06471,-6.62963 8.00977,-8.14966c1.26007,-0.4855 2.499,-2.01565 3.75513,-1.52004c1.9814,0.78177 3.04109,3.00496 4.32193,4.70689c0.69103,0.91823 1.12682,2.01204 1.54126,3.08391c1.04105,2.69249 1.08059,4.0152 1.48288,6.7965l0.18486,-0.52225c0,0 1.76776,1.76777 0,3.53554c-1.76776,1.76776 -3.53553,0 -3.53553,0l-1.59907,-2.30618c-0.15571,-1.10539 -0.34071,-2.1028 -0.57502,-3.05818c-0.74073,0.74481 -1.85591,0.74481 -1.85591,0.74481zM404.0097,258.11116h2.22991c0,0 0.16586,0 0.41213,0.04272c-0.09863,-0.22611 -0.20149,-0.45524 -0.30885,-0.68821c-0.36806,-0.79865 -0.3209,-1.90852 -1.02985,-2.42881c-0.36379,-0.26698 -0.31955,0.9207 -0.70468,1.15585c-0.68584,0.41875 -1.65244,0.22536 -2.31118,0.68557c-0.52403,0.36609 -0.94509,0.7815 -1.28973,1.23287c1.00075,0 2.00151,0 3.00225,0z" fill="#9966ff" stroke="none" stroke-width="0.5"/><path d="M253.55547,100.74299c-0.19509,3.92139 -0.01743,7.93217 -0.01743,11.8023c0,0 0,2.5 -2.5,2.5c-2.5,0 -2.5,-2.5 -2.5,-2.5c0,-6.82699 0.44911,-13.29652 1.36211,-19.96994c0.3004,-2.19569 -0.29368,-4.45111 -0.00544,-6.64843c0.07273,-0.55442 1.84911,-7.59354 2.20328,-7.84583c4.27034,-3.04184 12.13298,1.34517 13.77821,5.5163c0.54077,1.37102 0.13347,2.94519 0.14932,4.41891c0.06183,5.75192 -2.87479,8.29928 -7.54072,11.11114c-0.9203,0.46084 -1.84058,0.92167 -2.76087,1.3825zM254.05705,95.75368c0.6739,-0.33642 1.34781,-0.67284 2.02172,-1.00925c3.57007,-2.1303 6.41813,-4.79172 5.09609,-9.4449c-0.50992,-1.79475 -3.78659,-2.42301 -4.81181,-2.85599c-0.35902,-0.15163 -0.77458,-0.83892 -1.03317,-0.54734c-0.29513,0.33278 0.43076,0.8349 0.3857,1.27741c-0.21061,2.06844 -0.83791,4.10152 -0.83959,6.18065c-0.00173,2.15066 -0.47866,4.27224 -0.81894,6.39943z" fill="#9966ff" stroke="none" stroke-width="0.5"/><path d="M281.85957,110.16561c-2.08013,1.38675 -3.46688,-0.69338 -3.46688,-0.69338l-0.57961,-0.95693c-1.33794,-1.33795 -2.67588,-2.67588 -4.01383,-4.01383c-0.18545,-0.18545 -0.42199,-0.41831 -0.69589,-0.68807c0.02381,2.31977 0.05786,4.63765 0.05786,6.94797c0,0 0,2.5 -2.5,2.5c-2.5,0 -2.5,-2.5 -2.5,-2.5c0,-3.94792 -0.32222,-8.2965 -0.40431,-12.63927c-0.77892,-0.98474 -1.31892,-1.84538 -1.36088,-2.38358c-0.06662,-0.85438 0.56989,-1.46876 1.38128,-1.9913c0.1122,-3.35088 0.48624,-6.61472 1.3896,-9.5982c0.26488,-0.87478 3.5458,-6.90371 3.72394,-6.94171c5.25309,-1.12041 10.88708,7.74772 9.49507,12.0825c-0.74054,2.30607 -4.16353,4.73566 -6.02432,5.8028c-1.04194,0.59754 -2.11705,1.18036 -3.25126,1.57588c-0.00416,0.21948 -0.00781,0.43898 -0.01101,0.65852c1.54706,1.02113 2.92676,2.33022 4.23547,3.63893c1.33794,1.33795 2.67589,2.67589 4.01384,4.01384l1.20432,1.71896c0,0 1.38675,2.08012 -0.69338,3.46688zM273.36163,90.88753c1.74304,-0.73436 3.46795,-1.59439 4.30614,-3.25275c0.6004,-1.18789 -1.9957,-3.46399 -2.51166,-4.52172c-0.03549,-0.07276 -0.08278,-0.17236 -0.13476,-0.28433c0.16778,1.64099 -1.25997,3.85752 -1.43102,5.47763c-0.09069,0.85898 -0.16616,1.71946 -0.2287,2.58117z" fill="#9966ff" stroke="none" stroke-width="0.5"/><path d="M297.88043,83.76034c-0.2199,0.4154 -0.47647,0.67197 -0.47647,0.67197c-4.26306,4.21564 -4.06408,6.87056 -4.17356,12.50364c-0.02382,1.22575 -0.24461,4.69408 2.13704,4.64199c2.36963,-0.05182 3.41493,-2.42955 4.21906,-4.2991c1.8152,-4.22025 0.97623,-9.77658 -1.70606,-13.5185zM294.92479,80.25054c0.1196,-2.31592 2.49533,-2.31592 2.49533,-2.31592l2.65973,0.73224c5.92212,6.05438 7.14912,15.89822 2.60587,23.12318c-2.05557,3.2689 -2.52106,4.81479 -7.67273,4.77532c-7.04918,-0.05401 -6.78915,-8.12676 -6.7826,-12.75128c0.00269,-1.89612 -0.14959,-4.44538 0.60789,-6.23685c1.4546,-3.44016 2.65668,-4.28472 5.03014,-6.68046c0,0 0.42048,-0.42048 1.05636,-0.64623z" fill="#9966ff" stroke="none" stroke-width="0.5"/><path d="M325.16226,93.40461c-0.92847,2.32119 -3.24967,1.39271 -3.24967,1.39271l-1.27401,-0.69813c0.12571,0.13223 0.21591,0.28165 0.23867,0.46548c0.73627,5.9471 -5.30893,8.77797 -10.41747,6.77668c-1.83469,-0.71874 -3.29915,-5.69693 -3.48358,-7.25767c-0.55293,-4.67901 2.20779,-8.12058 5.09918,-11.32107c0.9944,-1.10071 3.29624,-4.27196 4.71594,-4.99689c1.03246,-0.52719 2.27256,-0.45937 3.40884,-0.68905c0,0 2.46599,-0.411 2.87698,2.05499c0.411,2.46599 -2.05499,2.87699 -2.05499,2.87699c-3.92221,0.40963 -7.80244,6.28324 -8.97394,9.8265c-0.29057,0.87887 0.08243,4.87043 0.87506,5.1552c5.09935,1.83201 1.71049,-5.86333 2.57014,-6.91168c1.10192,-1.3438 3.41183,-0.663 5.11774,-0.99451l3.15839,1.07077c0,0 2.32119,0.92848 1.39272,3.24967zM320.43022,93.9138c-0.43973,-0.43004 -1.15496,-1.20317 -0.94506,-0.82415c0.19348,0.34938 0.61517,0.56658 0.94506,0.82415z" fill="#9966ff" stroke="none" stroke-width="0.5"/><path d="M355.22183,97.38193c0,0.69952 -0.19573,1.20331 -0.47766,1.56613c0.07412,0.70787 0.16215,1.41418 0.2754,2.11738l1.24791,2.27914c0,0 1.17305,2.2077 -1.03465,3.38075c-2.2077,1.17305 -3.38075,-1.03465 -3.38075,-1.03465l-1.56792,-3.02029c-0.15828,-0.9252 -0.27995,-1.85552 -0.38291,-2.78847c-1.35874,0 -2.76067,0 -3.86914,0c0,0 -0.42928,0 -0.93207,-0.17789c-0.3633,1.65501 -0.71713,3.30496 -1.09177,4.92976c0,0 -0.56215,2.43598 -2.99813,1.87383c-1.8942,-0.43712 -1.97557,-2.00725 -1.91808,-2.68405c-1.68637,1.40094 -3.30137,-0.21407 -3.30137,-0.21407l-1.45162,-1.45945c-0.44754,-0.51161 -2.12771,-2.28709 -3.51712,-4.06103c-0.22741,1.65089 -0.59192,3.29147 -1.14936,4.98927c0,0 -0.79057,2.37171 -3.16228,1.58114c-2.37171,-0.79057 -1.58114,-3.16228 -1.58114,-3.16228c1.1486,-3.3843 1.15642,-6.35552 1.20965,-9.91299c0.05053,-3.37698 -0.87109,-7.08907 3.20096,-8.94298c5.16094,-2.34967 10.72896,4.66134 9.22723,9.35952c-0.46751,1.4626 -2.24486,2.12532 -3.54675,2.93946c-0.34524,0.2159 -1.21632,-0.3652 -1.22083,0.04196c-0.00468,0.42187 0.90301,0.06708 1.21649,0.34944c1.16054,1.04533 2.05736,2.35066 3.08604,3.52598l1.22427,1.21644c0,0 0.23213,0.23213 0.44404,0.61228c1.16435,-5.28416 2.29539,-10.69199 4.31545,-15.63814l0.84629,-3.38516c0.25264,-1.1133 1.24829,-1.94439 2.43804,-1.94439c0.998,0 1.85943,0.5848 2.26029,1.43041l2.20569,4.41137c0.62734,0.96029 1.14895,1.95776 1.46656,2.98258c0.70439,2.27278 0.94792,4.61207 1.14281,6.96163c0.43262,0.36698 0.77643,0.95028 0.77643,1.87738zM349.34203,94.06042c-0.24577,-2.24087 -0.8871,-3.72673 -1.32061,-5.31933c-0.7058,1.99654 -1.28772,4.05709 -1.80725,6.14084c1.0712,0 2.1424,0 3.2136,0c-0.02729,-0.27402 -0.05572,-0.54787 -0.08573,-0.82151zM331.13926,91.60874c0.32319,-0.2364 0.64252,-0.46813 0.92973,-0.70468c0.49177,-0.40503 1.49408,-0.07233 1.80502,-0.62839c0.23083,-0.41278 -0.55175,-0.76941 -0.79737,-1.17357c-0.39468,-0.64945 -0.64585,-1.39239 -1.12196,-1.98473c-0.26513,-0.32985 -0.92191,0.41275 -0.95679,0.8345c-0.09987,1.20755 0.11959,2.42081 0.14093,3.6323c0.00014,0.0082 0.00029,0.01638 0.00043,0.02457z" fill="#9966ff" stroke="none" stroke-width="0.5"/><path d="M371.89904,106.57165c-2.5,0 -2.5,-2.5 -2.5,-2.5l0.12829,-0.54738c-0.9841,-3.00592 -2.19312,-7.07989 -1.60078,-10.41163c-1.46046,1.01247 -2.72342,1.3916 -5.21549,0.51611c-0.15078,4.15103 -0.46709,8.32391 -0.80813,12.43443c0,0 -0.20762,2.49137 -2.69898,2.28375c-2.49136,-0.20762 -2.28375,-2.69898 -2.28375,-2.69898c0.41462,-4.95297 0.80045,-10.01185 0.87169,-14.99804c-0.11026,-0.25852 -0.09514,-0.49052 0.00792,-0.70139c0.00286,-0.34717 0.00414,-0.69394 0.00371,-1.04026v-3.12187c0,-1.38071 1.11929,-2.5 2.5,-2.5c1.25484,0 2.29374,0.9245 2.47274,2.12954l0.4313,2.58777c0.9864,0.93188 2.15693,1.15313 3.71449,-0.33252l1.67244,-2.09055c0.45772,-0.5823 1.16848,-0.95629 1.9666,-0.95629c1.38071,0 2.5,1.11929 2.5,2.5v4.01383c0.60264,3.70752 -0.04473,7.12277 1.20965,10.80495l0.1283,2.12852c0,0 0,2.5 -2.5,2.5z" fill="#9966ff" stroke="none" stroke-width="0.5"/><path d="M391.07624,108.35557c-2.5,0 -2.5,-2.5 -2.5,-2.5v-1.78392c0,-2.34932 -0.64927,-6.41934 -0.26038,-9.58891c-0.21052,0.17647 -0.43557,0.33248 -0.67603,0.46197c-2.01907,1.08729 -4.31218,2.5288 -6.5583,2.15849c-0.03994,3.25386 -0.21815,6.41979 -0.94427,9.74068c0,0 -0.54233,2.44047 -2.9828,1.89814c-2.44047,-0.54233 -1.89814,-2.98279 -1.89814,-2.98279c1.01303,-4.47635 0.83243,-8.70087 0.83243,-13.28311v-3.12187c0,-1.38071 1.11929,-2.5 2.5,-2.5c0.92661,0 1.73548,0.50411 2.1673,1.25305l1.31437,2.19062l-0.00399,0.00239c0.00586,0.00682 0.01171,0.01364 0.01755,0.02048c0.449,0.52571 -0.22513,1.8754 0.44991,2.02468c0.84794,0.18751 1.5353,-0.85021 2.16715,-1.44597c1.26495,-1.19271 4.09464,-6.55583 7.0611,-4.22031c1.8992,1.49524 1.4233,4.6358 1.81151,7.02159c0.50569,3.10776 0.00257,7.19824 0.00257,10.37086v1.78392c0,0 0,2.5 -2.5,2.5z" fill="#9966ff" stroke="none" stroke-width="0.5"/><path d="M400.88783,94.88193h1.66621c-0.03021,-0.20063 -0.06569,-0.39909 -0.10727,-0.59508c-0.20079,-0.9466 -0.73575,-1.78929 -1.1298,-2.67721c-0.3914,0.69222 -0.89844,1.34267 -1.17356,2.08559c-0.13921,0.37592 -0.24931,0.77313 -0.33532,1.1867c0.35991,0 0.71982,0 1.07973,0zM405.34765,106.12567c-2.5,0 -2.5,-2.5 -2.5,-2.5l0.03402,-0.48096c-0.17206,-1.0513 -0.19779,-2.1531 -0.19025,-3.26278c-0.77016,0 -2.06519,0 -3.10399,0c0.08207,1.64177 0.23256,3.25905 0.23256,4.63571c0,0 0,2.5 -2.5,2.5c-2.5,0 -2.5,-2.5 -2.5,-2.5c0,-5.63804 -0.76754,-11.3034 2.49384,-16.28141c0.95144,-1.45222 1.55001,-4.00577 3.28579,-4.04118c2.02204,-0.04125 3.46371,2.25229 4.66545,3.87899c3.1875,4.31463 1.72619,9.41576 2.54857,14.24868l0.03402,1.30296c0,0 0,2.5 -2.5,2.5z" fill="#9966ff" stroke="none" stroke-width="0.5"/><path d="M423.61673,96.4738c-1.76776,1.76776 -3.53554,0 -3.53554,0l0.26947,-0.23437c-0.95286,-0.24504 -1.82828,-0.54391 -2.67255,-0.8529c-0.03864,0.16079 -0.07853,0.32042 -0.12234,0.47729c-0.72174,2.58438 -2.32566,6.09201 1.13635,6.18782l1.37293,-0.03401c0,0 2.5,0 2.5,2.5c0,2.5 -2.5,2.5 -2.5,2.5l-2.19492,-0.03401c-1.22396,-0.28182 -2.66432,-0.09559 -3.67188,-0.84547c-3.35769,-2.49898 -3.00707,-8.12256 -1.52179,-12.36543c-0.32245,-0.06364 -0.65263,-0.11752 -0.99263,-0.15966c0,0 -2.47487,-0.35355 -2.12132,-2.82842c0.35355,-2.47487 2.82843,-2.12132 2.82843,-2.12132c1.01686,0.15936 1.93213,0.388 2.80285,0.65226c0.8091,-0.74064 1.81069,-1.3082 2.58115,-2.09525c0.64677,-0.6607 1.13904,-1.45685 1.6933,-2.19687c0.17442,-0.23288 0.77067,-0.63694 0.4921,-0.72092c-0.52155,-0.15724 -1.04208,0.39694 -1.58679,0.39089c-2.23489,-0.02483 -4.42849,-0.60898 -6.64625,-0.88614c0,0 -2.4807,-0.31009 -2.17061,-2.79078c0.31009,-2.48069 2.79078,-2.1706 2.79078,-2.1706c0.6056,0.07572 5.93721,0.72106 6.73319,0.89778c1.57187,0.34898 3.68547,-0.00119 4.65695,1.28285c3.2888,4.34691 -0.50181,7.39324 -3.34934,10.04729c0.37852,0.11116 0.7689,0.2169 1.17508,0.3149l2.05339,1.54955c0,0 1.76776,1.76777 0,3.53553z" fill="#9966ff" stroke="none" stroke-width="0.5"/><path d="M438.73332,91.69938c-0.12192,0.07809 -0.23841,0.16464 -0.34803,0.26192c-1.11065,0.98561 -1.00535,5.64834 -0.98138,6.86477c0.01315,0.66709 2.00678,-0.63563 2.13765,-1.328c0.31675,-1.67575 0.315,-3.67381 -0.65913,-5.07364zM442.67514,88.73777c0.58098,0.50218 0.76533,1.22957 0.82383,1.64064c0.53307,0.77872 1.19031,1.51728 1.30219,2.43221c0.58301,4.76736 -1.12517,11.93003 -7.66956,11.0637c-2.92342,-0.38699 -4.36394,-2.86871 -4.75498,-5.7904c0,1.25261 0,2.50522 0,3.75783v2.22991c0,0 0,2.5 -2.5,2.5c-2.5,0 -2.5,-2.5 -2.5,-2.5c0,-3.86517 0,-9.96025 0,-13.82543c0,0 0,-2.5 2.5,-2.5c2.5,0 2.5,2.5 2.5,2.5c0,1.42692 0,2.85385 0,4.28078c0.2966,-2.42322 1.16214,-4.7092 2.3708,-5.99586c1.10717,-1.17862 2.84583,-1.53661 4.26874,-2.30491c0,0 2.23607,-1.11803 3.35411,1.11804c0.26324,0.52648 0.34054,0.99098 0.30487,1.39351z" fill="#9966ff" stroke="none" stroke-width="0.5"/><path d="M427.37663,77.31276c0,-1.38071 1.11929,-2.5 2.5,-2.5c1.38071,0 2.5,1.11929 2.5,2.5c0,1.38071 -1.11929,2.5 -2.5,2.5c-1.38071,0 -2.5,-1.11929 -2.5,-2.5z" fill="#9966ff" stroke="none" stroke-width="0.5"/><path d="M459.7574,87.74622c2.5,0 2.5,2.5 2.5,2.5v0.44598c-0.02292,3.64702 -0.26389,11.53779 -4.66517,13.01326c-1.59283,0.53397 -3.71076,0.79529 -5.03417,-0.23953c-0.16388,-0.12814 -0.59495,-0.84804 -1.09683,-1.84686c-0.22292,1.39073 -0.36152,2.79673 -0.35337,4.23651c0,0 0,2.5 -2.5,2.5c-2.5,0 -2.5,-2.5 -2.5,-2.5c0.02178,-4.61866 1.25165,-8.84195 2.25929,-13.33697l0.44428,-2.64566c0.1802,-1.20365 1.21847,-2.12672 2.47232,-2.12672c1.28703,0 2.3469,0.97254 2.4848,2.22282l0.4392,3.51358c0.70659,1.85523 0.43352,3.99287 1.15346,5.84297c0.14472,0.37192 0.72847,-0.4732 0.83533,-0.85771c0.18323,-0.65933 0.08724,-1.36994 0.22128,-2.04101c0.22668,-1.13492 0.69067,-2.21912 0.85832,-3.36424c0.11446,-0.78184 -0.01249,-1.58029 -0.01873,-2.37043v-0.44598c0,0 0,-2.5 2.5,-2.5z" fill="#9966ff" stroke="none" stroke-width="0.5"/><path d="M484.06194,106.79185c-0.49029,2.45145 -2.94174,1.96116 -2.94174,1.96116l-1.73962,-0.39743c-4.26831,-0.01093 -6.39172,-0.45412 -10.15998,-2.5593c0,0 -0.3408,-0.19474 -0.67516,-0.56493c-2.36843,-0.08614 -2.36842,-2.49764 -2.36842,-2.49764c0,-4.01383 0,-10.25757 0,-14.27141c0,0 0,-1.04393 0.67458,-1.78262c-0.38351,-0.37022 -0.67458,-0.93219 -0.67458,-1.78523c0,-2.5 2.5,-2.5 2.5,-2.5c2.45324,0.01341 4.91327,0.38281 7.29606,0.96661l2.11386,0.41988c0,0 2.45145,0.49029 1.96116,2.94174c-0.49029,2.45145 -2.94174,1.96117 -2.94174,1.96117l-2.34596,-0.47208c-1.23386,-0.31575 -2.49606,-0.56038 -3.76671,-0.69679c0.18333,0.50933 0.18333,0.94733 0.18333,0.94733c0,1.70161 0,3.40321 0,5.10481c0.25351,0.02644 0.41671,0.07306 0.41671,0.07306c1.04062,0.29732 2.08125,0.59464 3.12187,0.89196l0.65114,-0.09619c0,0 2.5,0 2.5,2.5c0,2.5 -2.5,2.5 -2.5,2.5l-2.02474,-0.09619c-0.72166,-0.20619 -1.44331,-0.41237 -2.16497,-0.61856c0,0.5942 0,1.1884 0,1.7826v0.73506c0.31959,0.09924 0.52427,0.2162 0.52427,0.2162c3.07626,1.80873 4.1539,1.91082 7.67928,1.90052l2.72019,0.49453c0,0 2.45146,0.49029 1.96116,2.94174z" fill="#9966ff" stroke="none" stroke-width="0.5"/><path d="M270.93132,184.34832c0,2.5 -2.5,2.5 -2.5,2.5l-1.24552,-0.02513c-4.74305,-0.78994 -10.76754,-4.55913 -13.10569,-9.09985c-0.55509,-1.078 -0.18617,-2.42008 -0.1903,-3.6326c-0.00607,-1.7805 -0.49569,-3.68366 0.15975,-5.33913c1.82327,-4.60512 6.35079,-6.64878 10.59736,-7.77504c1.77931,-0.4719 3.50016,-1.5343 5.33732,-1.41807c1.63465,0.10342 2.98061,1.35906 4.47091,2.0386c0,0 2.23607,1.11803 1.11804,3.3541c-1.11804,2.23607 -3.3541,1.11804 -3.3541,1.11804c-0.88826,-0.50975 -1.64162,-1.4848 -2.66479,-1.52926c-1.26438,-0.05494 -2.36856,0.89939 -3.58231,1.25781c-2.59699,0.7669 -6.07792,1.63125 -7.24191,4.71245c-2.07289,5.48718 4.39344,10.85302 9.16283,11.3632l0.53841,-0.02513c0,0 2.5,0 2.5,2.5z" fill="#9966ff" stroke="none" stroke-width="0.5"/><path d="M289.63212,163.50301c-0.14146,0.19964 -0.25582,0.31401 -0.25582,0.31401c-1.36192,1.36193 -3.06788,2.43591 -4.12565,4.04551c-0.69452,1.05685 -1.29606,3.73647 -1.39438,5.09647c-0.12549,1.73573 -0.51498,4.40442 0.93045,5.93283c0.47153,0.49859 3.88281,0.29603 3.88696,0.29553c4.95979,-0.59544 7.40097,-4.73895 5.54478,-9.49169c-0.62833,-1.60881 -1.81626,-2.4549 -3.02592,-3.64875l-1.20432,-1.71896c0,0 -0.22309,-0.33463 -0.3561,-0.82495zM290.07357,161.38611c0.15825,-0.18181 0.35811,-0.35843 0.60802,-0.52503c2.08013,-1.38675 3.46688,0.69338 3.46688,0.69338l0.5796,0.95693c1.79254,1.81206 3.17425,2.81566 4.10978,5.27088c1.96143,5.14756 0.82883,12.68126 -4.79756,15.25289c-5.85266,2.67506 -13.28644,1.74552 -15.10863,-5.24815c-0.426,-1.63503 -0.13264,-6.32729 0.46439,-8.35753c1.2608,-4.28742 3.42794,-6.13124 6.4447,-9.148c0,0 1.76777,-1.76776 3.53554,0c0.37378,0.37378 0.58949,0.74757 0.69727,1.10464z" fill="#9966ff" stroke="none" stroke-width="0.5"/><path d="M317.48929,184.17243c-2.5,0 -2.5,-2.5 -2.5,-2.5v-0.44598c0,-2.14862 -0.39743,-5.52567 0.13589,-8.2381c-1.20607,0.37373 -2.43471,0.63211 -3.62513,0.44938c-0.068,2.92603 -0.35888,5.85699 -0.92492,8.725c0,0 -0.4903,2.45145 -2.94175,1.96116c-2.45145,-0.49029 -1.96116,-2.94174 -1.96116,-2.94174c0.59727,-2.94304 0.8511,-5.96651 0.84341,-8.96953v-4.36561c0,-1.38071 1.11929,-2.5 2.5,-2.5c0.92661,0 1.73548,0.50412 2.1673,1.25305l0.92915,1.54859c0.62892,0.21676 1.35985,0.24879 2.49848,0.10625l0.96337,-2.56899c0.34031,-0.9763 1.269,-1.67684 2.36131,-1.67684c1.16178,0 2.13846,0.79246 2.41899,1.86633l0.87678,3.06873l-0.10889,0.03111c0.07979,0.21389 0.14883,0.43218 0.20508,0.65569c0.30858,1.22622 -0.67647,2.43785 -0.95316,3.67165c-0.58829,2.62322 -0.38478,5.25698 -0.38478,7.92387v0.44598c0,0 0,2.5 -2.5,2.5z" fill="#9966ff" stroke="none" stroke-width="0.5"/><path d="M329.69613,179.72434c-0.42837,2.21592 -0.79172,4.42051 -0.78721,6.85389c0,0 0,2.5 -2.5,2.5c-2.5,0 -2.5,-2.5 -2.5,-2.5c0.00636,-3.78739 0.55273,-6.71181 1.39914,-10.36137c0.15616,-0.67334 0.93014,-5.97876 0.97484,-6.08443c0.56313,-1.33106 1.15427,-2.95385 2.46212,-3.56896c4.66247,-2.19288 13.08481,2.2517 11.2026,8.26341c-1.36322,4.35405 -5.55956,3.99089 -8.80281,4.42447l-0.05001,0.19734c0,0 -0.6357,0.31785 -1.39868,0.27565zM330.68396,174.27561c1.55252,-0.09302 3.86173,0.47214 4.48533,-0.92099c0.50241,-1.12239 -3.01792,-2.80191 -3.96077,-2.44016c-1.06023,0.40679 -0.44589,2.16714 -0.52456,3.36114z" fill="#9966ff" stroke="none" stroke-width="0.5"/><path d="M345.80604,185.24645c-2.23607,-1.11803 -1.11804,-3.35411 -1.11804,-3.35411l0.62803,-0.66589c0.00849,-4.20592 0.44599,-8.27298 0.44599,-12.48748c0,0 0,-2.5 2.5,-2.5c2.5,0 2.5,2.5 2.5,2.5c0,4.21046 -0.45537,8.29337 -0.44599,12.48748l-1.15589,2.90196c0,0 -1.11803,2.23607 -3.3541,1.11803z" fill="#9966ff" stroke="none" stroke-width="0.5"/><path d="M370.83118,185.68627c0,2.5 -2.5,2.5 -2.5,2.5h-1.78393c-1.21604,0 -7.02506,0.01605 -7.33139,-0.08375c-9.09544,-2.96312 -3.75579,-13.0341 -1.21022,-19.0104c0,0 0.9848,-2.29787 3.28267,-1.31306c2.29787,0.9848 1.31306,3.28266 1.31306,3.28266c-0.91465,2.11953 -1.40153,4.40015 -2.18306,6.57229c-0.52317,1.45409 -2.27394,3.17093 -1.52038,5.01352c0.21677,0.53006 1.03193,0.56082 1.60127,0.6225c2.00448,0.21714 4.03184,-0.08375 6.04805,-0.08375h1.78393c0,0 2.5,0 2.5,2.5z" fill="#9966ff" stroke="none" stroke-width="0.5"/><path d="M380.37269,180.1586c0,0 -0.31459,0.00001 -0.72057,-0.11159c-0.02925,2.50682 0.09368,5.00761 0.51067,7.45817c0,0 0.411,2.46598 -2.05499,2.87698c-2.46598,0.411 -2.87698,-2.05499 -2.87698,-2.05499c-1.14047,-6.96812 -0.8786,-15.04277 0.35206,-21.98946c0.25792,-1.45588 1.90326,-7.87347 4.48436,-7.6617c2.42912,0.1993 4.09113,2.71587 5.79555,4.45807c5.12276,5.2363 2.52844,11.59931 4.5593,17.69192l0.03229,3.52232c0,0 0,2.5 -2.5,2.5c-2.5,0 -2.5,-2.5 -2.5,-2.5l0.03228,-2.72142c-0.16731,-0.50195 -0.2977,-0.99001 -0.39922,-1.46831c-1.53129,0 -3.91441,0 -4.71474,0zM380.37269,175.1586c1.04062,0 2.08125,0 3.12187,0h1.24068c0.00349,-1.20326 0.0043,-2.44195 -0.14055,-3.78927c-0.26151,-2.43237 -2.18841,-4.3041 -3.34679,-6.44673c-0.18242,0.78833 -0.62063,1.53193 -0.75056,2.33596c-0.25178,1.55808 -0.27543,3.1446 -0.39809,4.71812c-0.08377,1.07461 -0.16768,2.15712 -0.24002,3.24385c0.30102,-0.06193 0.51346,-0.06193 0.51346,-0.06193z" fill="#9966ff" stroke="none" stroke-width="0.5"/><path d="M405.17176,178.55056c0,2.5 -2.5,2.5 -2.5,2.5l-1.23655,-0.12829c-0.18957,-0.06381 -0.37748,-0.12473 -0.564,-0.18297c-0.38071,0.2962 -0.94827,0.41138 -1.17952,0.83174c-0.62508,1.13623 1.54215,2.26574 2.7405,2.7614c1.3958,0.57734 2.92215,0.76631 4.38323,1.14947l0.37352,-0.06508c0,0 2.49934,0.05738 2.44197,2.55671c-0.05737,2.49934 -2.55671,2.44197 -2.55671,2.44197l-1.57436,-0.10979c-1.7548,-0.49391 -3.64632,-0.64203 -5.26441,-1.48171c-1.74181,-0.90387 -3.61289,-1.96411 -4.62066,-3.64794c-1.90506,-3.18309 -1.46085,-4.30679 -0.33595,-5.58797c-0.99354,-0.12343 -2.01855,-0.22473 -3.1134,-0.33388c0,0 -2.4876,-0.24875 -2.23884,-2.73635c0.24876,-2.48759 2.73636,-2.23883 2.73636,-2.23883c2.1989,0.22054 4.18654,0.43751 6.17272,0.81902c1.44433,-2.01657 2.87723,-4.04649 4.30403,-6.07717c-1.3827,0.21148 -2.83393,-0.4161 -4.20329,-0.1191c-0.8124,0.1762 -1.3424,0.98088 -2.0136,1.47132c0,0 -2.08012,1.38675 -3.46687,-0.69338c-1.38675,-2.08013 0.69338,-3.46687 0.69338,-3.46687c1.11273,-0.69885 2.06141,-1.78605 3.33818,-2.09653c1.85444,-0.45095 3.82253,-0.26536 5.72446,-0.10727c1.54555,0.12847 3.94346,-0.46494 4.5522,0.96147c0.98867,2.31667 -0.08257,5.12989 -0.94224,7.49746c-0.5556,1.53016 -1.97328,2.57256 -3.01119,3.84272c0.65973,0.29294 1.36104,0.91574 1.36104,2.23985z" fill="#9966ff" stroke="none" stroke-width="0.5"/><path d="M415.60523,189.97019c-2.5,0 -2.5,-2.5 -2.5,-2.5l0.00483,-3.27722c0.51857,-4.14862 0.44115,-8.14724 0.44115,-12.33214c0,0 0,-2.5 2.5,-2.5c2.5,0 2.5,2.5 2.5,2.5c0,4.27917 0.07973,8.39847 -0.45081,12.64283l0.00484,2.96652c0,0 0,2.5 -2.5,2.5z" fill="#9966ff" stroke="none" stroke-width="0.5"/><path d="M432.73814,174.15615c0.3032,0.97926 -0.17946,1.94459 -0.17946,1.94459c-0.71599,1.42504 -1.53934,2.80103 -2.14797,4.27513c-0.49976,1.21042 -0.85578,2.4793 -1.16609,3.75153c-0.16303,0.66836 -0.65104,1.49079 -0.24871,2.04883c0.29925,0.41508 0.99299,-0.27992 1.50393,-0.30778c1.6159,-0.08812 3.59114,-0.4212 4.20941,-2.49263c0.19295,-0.64647 0.72634,-7.73879 0.69632,-8.40396c-0.03242,-0.71837 0.16901,-2.04012 -0.5486,-2.08638c-0.83273,-0.05367 -1.46521,0.6484 -2.11883,1.27067zM428.084,173.86979c-0.02372,-0.05009 -0.04676,-0.10189 -0.06908,-0.15545c-0.96154,-2.30769 1.34616,-3.26923 1.34616,-3.26923l0.73639,-0.30684c2.13145,-0.65932 4.29582,-2.73559 6.39434,-1.97797c2.13081,0.76927 3.09106,3.49101 3.77698,5.65009c0.58383,1.83774 0.01434,3.86126 -0.14482,5.78293c-0.37068,4.47534 -1.39146,9.33035 -6.29795,11.1279c-1.48265,0.54318 -7.57035,-0.02736 -8.42044,-1.06511c-1.2857,-1.56951 -1.20572,-3.95099 -1.14067,-5.97883c0.09691,-3.02082 2.53522,-7.22916 3.81909,-9.80749z" fill="#9966ff" stroke="none" stroke-width="0.5"/><path d="M460.64936,176.94253c2.5,0 2.5,2.5 2.5,2.5v1.78393c-0.02458,3.23158 -0.27346,10.58859 -4.12778,12.08128c-3.77427,1.46168 -5.8871,-1.00583 -7.584,-3.55276c-0.46022,-0.69075 -0.87106,-1.35444 -1.22649,-2.00019c-0.29255,1.05267 -0.63422,2.12565 -1.03768,3.24566c0,0 -0.85435,2.34949 -3.20384,1.49513c-2.34949,-0.85436 -1.49512,-3.20385 -1.49512,-3.20385c1.63375,-4.44601 2.07646,-8.1955 2.65668,-12.87865l0.41425,-0.37312l-0.18929,-0.11357l1.31437,-2.19062c0.43183,-0.74893 1.2407,-1.25305 2.1673,-1.25305c1.3278,0 2.41384,1.03515 2.49512,2.34247l0.35476,4.96671l-0.00921,0.00065c0.00435,0.0209 0.00866,0.04182 0.01294,0.06275c0.25645,1.25445 -0.32422,2.60406 0.0059,3.84116c0.32491,1.2176 1.24044,2.19446 1.89246,3.27289c0.38642,0.63914 0.89758,2.40394 1.33563,1.79902c0.96655,-1.33473 0.97248,-3.15875 1.2505,-4.78307c0.15515,-0.90648 -0.01767,-1.83922 -0.0265,-2.75884v-1.78393c0,0 0,-2.5 2.5,-2.5z" fill="#9966ff" stroke="none" stroke-width="0.5"/><path d="M478.75871,195.49786c0,2.5 -2.5,2.5 -2.5,2.5c-1.78393,0 -5.79776,0 -7.58169,0c0,0 -1.66654,0 -2.27827,-1.36067c-0.12496,0.01486 -0.25735,0.02272 -0.39762,0.02272c-2.5,0 -2.5,-2.5 -2.5,-2.5c0,-5.6491 0,-13.52811 0,-19.17721c0,0 0,-2.32586 2.24339,-2.49079c0.00182,-0.01631 0.00376,-0.03271 0.00582,-0.0492c0.31009,-2.48069 2.79078,-2.17061 2.79078,-2.17061c1.18928,0.14866 2.37857,0.29732 3.56785,0.44598l0.58188,-0.01931c0,0 2.5,0 2.5,2.5c0,2.5 -2.5,2.5 -2.5,2.5l-1.20205,-0.01931c-0.99589,-0.12449 -1.99178,-0.24897 -2.98767,-0.37346c0,2.47809 0,4.95618 0,7.43427c0.95059,0 1.90118,0 2.85178,0h0.44598c0,0 2.5,0 2.5,2.5c0,2.5 -2.5,2.5 -2.5,2.5c-0.95354,0 -2.28155,0 -3.29776,0c0,1.39657 0,2.79315 0,4.18972v1.07851c0.11015,-0.01066 0.17589,-0.01066 0.17589,-0.01066c1.78393,0 3.56785,0 5.35178,0h2.22991c0,0 2.5,0 2.5,2.5z" fill="#9966ff" stroke="none" stroke-width="0.5"/></g></g></svg>