<svg version="1.1" xmlns="http://www.w3.org/2000/svg" xmlns:xlink="http://www.w3.org/1999/xlink" width="356.62452" height="206.96542" viewBox="0,0,356.62452,206.96542"><g transform="translate(-68.6183,-68.04364)"><g data-paper-data="{&quot;isPaintingLayer&quot;:true}" fill="#9966ff" fill-rule="nonzero" stroke="none" stroke-width="0.5" stroke-linecap="butt" stroke-linejoin="miter" stroke-miterlimit="10" stroke-dasharray="" stroke-dashoffset="0" style="mix-blend-mode: normal"><path d="M74.01632,270.04901c3.49165,0 7.16394,0.32372 10.63904,0.00779c1.45511,-0.13228 3.54689,0.94919 4.37598,-0.25391c0.41831,-0.60701 0.56453,-5.55724 1.34735,-7.15236c0,0 0.22742,-0.45484 0.68225,-0.82818c-1.21944,-3.04314 -2.44035,-6.07996 -3.67011,-9.11267l-0.47451,0.21147c-2.22413,0.42582 -12.28191,2.693 -13.03302,4.75968c-1.21602,3.34584 -0.60896,8.36545 -0.36984,12.36819zM92.5668,272.70129c-3.1124,3.59049 -14.26371,1.9194 -18.55048,1.9194h-0.54138c0,0 -0.5085,0 -1.04583,-0.23983c-0.29328,0.14753 -0.66032,0.23983 -1.11968,0.23983c-2.28584,0 -2.28583,-2.28584 -2.28583,-2.28584c0,-4.70258 -1.316,-12.37758 0.79471,-16.74594c1.89388,-3.9196 11.55098,-6.17689 15.86173,-7.07995c-0.90582,-2.21379 -1.8182,-4.42592 -2.74002,-6.63726c-1.21547,-2.91577 -3.118,-5.6576 -3.08855,-9.02065c0.05126,-5.85382 4.50378,-12.08911 6.77219,-17.36696c3.71045,-5.50385 9.19654,-9.54624 13.14861,-14.86504c8.3974,-11.30142 19.53269,-24.80019 24.84949,-37.81829c4.62937,-4.62937 12.09613,-4.82261 18.30513,-5.8671c15.659,-2.63419 33.19382,-1.65695 49.11002,-1.65695c11.00804,0 22.01607,0 33.02411,0c6.77237,0 12.79798,-0.34637 18.28043,4.34864c5.05187,4.32629 5.83258,10.81983 8.66751,16.40457c2.21808,4.43616 3.59567,8.37923 4.01985,13.24873c0.10832,1.24355 0.29809,4.3362 2.04012,4.4971c13.81338,1.27589 23.84688,-8.68196 36.72084,-8.68196c7.50856,2.90452 10.84802,8.23681 15.49796,14.44251c8.12946,10.84936 18.26252,20.08438 26.89788,30.5872c-2.07692,8.1347 -6.6636,15.05941 -9.26602,22.92217c-1.02434,3.09486 -1.54703,10.11384 -4.75003,12.03019c-2.57932,1.54321 -8.38522,-0.00908 -11.10859,-0.20574c-7.4334,-0.53679 -15.11543,0.00575 -22.57587,0.00575c-21.09438,0 -42.19664,0.54138 -63.34132,0.54138c-4.49641,0 -10.92024,1.17751 -15.2274,-0.08294c-0.7888,-0.23084 -1.54747,-0.57437 -2.28505,-0.99651l-0.32751,1.61047c-4.83954,10.7211 -17.80074,4.68284 -24.47559,-1.34644c-2.35472,1.56888 -5.33822,1.85451 -8.03268,1.89818c-8.27388,0 -18.03183,-1.44997 -26.16142,-0.02952c-6.48105,1.1324 -10.24676,7.10752 -17.67407,5.38216c-5.7999,-1.34731 -9.23172,-6.26744 -15.40004,-7.52928c-6.85101,0.03071 -12.05242,1.66352 -18.12651,3.71242c0.13999,0.63445 0.22451,1.99326 -1.37172,2.63175c-2.12234,0.84893 -2.97128,-1.2734 -2.97128,-1.2734c-0.03183,-0.07958 -0.06368,-0.15918 -0.09551,-0.23874l-0.54495,0.02725c-0.26515,1.6157 -0.5234,3.10351 -0.88326,3.51865zM203.92169,264.64559l0.49101,-2.50384c0,0 0.06879,-0.34395 0.28721,-0.73543c-3.5891,-3.09875 -7.06145,-6.61866 -11.68935,-5.77514c-2.91817,0.53189 -4.49708,3.21471 -6.08997,5.57924c4.0108,3.45668 14.95737,10.44282 17.00111,3.43516zM272.16097,246.76972c2.28584,0 2.28583,2.28583 2.28583,2.28583l-0.45716,-0.28874c2.6766,3.61804 4.09412,7.90638 7.36697,11.12412c0,0 0.16246,0.16246 0.33286,0.43587c2.59868,-0.0144 5.1972,-0.02262 7.79562,-0.02262c7.57229,0 15.35327,-0.52763 22.89995,0.00575c1.40864,0.09956 6.98516,1.54538 8.38105,0.87702c1.42725,-0.68338 2.32135,-8.11032 2.82928,-9.62496c2.25685,-6.72983 5.86965,-14.10433 9.14085,-20.38815c-3.3908,-1.77917 -5.71439,-5.90821 -8.16421,-8.77231c-5.83435,-6.82097 -12.57257,-12.97074 -17.99303,-20.19215c-3.79068,-5.05014 -6.61232,-10.09385 -12.65376,-12.62643c-4.84541,0 -9.95394,3.31153 -14.33131,5.25442c-6.25101,2.7745 -15.69662,5.15284 -22.57536,3.38773c-0.71116,-0.18249 -1.34273,-0.50202 -1.90728,-0.93359c-0.10868,0.08416 -0.18113,0.12761 -0.18113,0.12761c-6.54053,3.73102 -14.68035,2.47528 -21.80895,6.03958l-1.92355,0.66541c0,0 -2.16853,0.72285 -2.89138,-1.44569c-0.72285,-2.16853 1.44569,-2.89138 1.44569,-2.89138l1.32473,-0.41736c3.37688,-1.68845 6.69989,-3.64355 10.54183,-4.01986c3.78257,-0.37049 7.5694,0.24941 10.82171,-1.76379c-0.67152,-1.50276 -1.18604,-3.23766 -1.63401,-5.02419c-4.32062,0.09214 -9.13248,0.54857 -12.81262,2.44515l-1.37845,0.94017c0,0 -1.90193,1.26796 -3.16988,-0.63397c-1.26795,-1.90193 0.63397,-3.16988 0.63397,-3.16988l1.86984,-1.22535c4.13213,-2.01874 9.08613,-2.68908 13.81092,-2.88071c-0.52734,-2.30049 -1.07164,-4.42596 -1.84008,-5.96285c-2.43888,-4.94108 -3.17235,-11.2182 -7.57385,-14.99541c-4.53708,-3.89355 -9.69392,-3.23066 -15.28507,-3.23066c-11.00804,0 -22.01607,0 -33.02411,0c-8.8209,0 -18.13475,-0.30247 -27.34329,-0.11322c1.2968,2.63329 1.91734,5.54715 4.05619,7.58001l2.16552,2.16552c0,0 1.61632,1.61633 0,3.23265c-1.61632,1.61632 -3.23266,0 -3.23266,0l-2.1655,-2.16551c-2.90462,-3.00469 -3.15083,-6.77452 -5.62614,-9.98966c0,0 -0.19595,-0.26128 -0.34097,-0.66038c-1.8716,0.08196 -3.73414,0.19071 -5.58246,0.33303c3.10621,6.22692 6.11568,12.26664 9.25524,18.50599l0.1132,-0.0527c0,0 1.61632,1.61634 0,3.23266c-1.61632,1.61632 -3.23266,0 -3.23266,0l-0.96956,-1.13546c-3.37455,-6.78683 -6.63876,-13.29337 -10.04358,-20.08818c-1.81758,0.20704 -3.61645,0.45362 -5.39149,0.74655c-4.20846,0.69449 -12.13144,0.74881 -15.26036,3.87772c-1.9822,5.07102 -6.11572,10.20844 -9.235,14.66385c-5.35913,7.65465 -10.13654,15.92337 -15.72237,23.31089c-3.87238,5.12141 -9.3283,9.02459 -12.83756,14.36943c-1.86028,4.35344 -6.28768,10.35191 -6.22089,15.11577c0.03787,2.70104 1.70797,4.86967 2.68211,7.20864c3.29708,7.91649 6.47705,15.83051 9.666,23.79927c6.77107,-2.2474 12.64699,-4.04012 20.23983,-4.01132c2.99918,0.58823 5.89478,0.86264 8.55579,2.49579c2.44227,1.4989 4.53688,4.46941 7.44412,5.13355c5.87213,1.34143 10.5207,-4.44138 15.89141,-5.44543c8.31848,-1.55514 18.41749,-0.02951 26.89372,-0.02951c7.94908,0.1785 8.71834,-9.1828 16.35047,-10.78634c9.11658,-1.91542 12.55829,7.47421 19.99069,9.78652c3.7506,1.16685 10.02821,-0.08294 14.00707,-0.08294c12.77678,0 25.53775,-0.19767 38.29096,-0.35412c-2.79386,-3.79856 -4.0802,-8.29143 -6.22861,-12.57915l-1.08276,-2.16551c0,0 -1.02224,-2.04451 1.02226,-3.06677c2.04451,-1.02226 3.06677,1.02226 3.06677,1.02226l1.08275,2.16552c2.27572,4.56037 3.43215,9.82541 7.15112,13.48177c0,0 0.43358,0.43358 0.62705,1.07616c1.93005,-0.02105 3.85993,-0.04036 5.7897,-0.05709c-1.99631,-2.86999 -3.38371,-6.0445 -5.53072,-8.85881l-0.45716,-2.45426c0,0 0,-2.28583 2.28584,-2.28583z"/><path d="M241.72276,118.52276c-1.02226,2.04451 -3.06677,1.02225 -3.06677,1.02225l-0.90944,-0.46355c-5.01311,-2.03414 -10.45076,-2.67249 -15.61584,-4.29927c-11.86632,-3.7374 -29.27184,-18.56541 -17.09291,-31.38075c20.08802,-19.95254 50.39704,-14.74536 76.14608,-14.74536c30.95396,0 61.94045,-0.41252 92.8902,0.10652c16.41373,3.60971 30.99669,6.96576 42.71414,20.14449c4.32536,4.86477 12.00718,16.73027 6.58947,23.51067c-2.32855,2.91424 -10.16543,3.565 -13.64773,4.26209c-7.58642,1.51631 -15.42031,3.17312 -23.08434,4.17511c-4.7631,0.62273 -9.50644,-0.03939 -14.19293,1.53539c-13.29266,4.46671 -26.33622,8.74884 -40.09739,11.9881c-19.21751,4.51591 -40.24842,6.8991 -58.88727,13.42752c-5.74974,2.0139 -10.38198,5.55216 -15.71507,8.00948l0.27166,0.54331l-3.20715,1.60358c-0.31765,0.16725 -0.67946,0.26189 -1.06338,0.26189c-1.26243,0 -2.28584,-1.02341 -2.28584,-2.28584c0,-0.16981 0.01851,-0.33532 0.05365,-0.49457l0.53212,-2.66062l0.06128,0.01227l-0.01091,-0.21532c4.32292,-10.44914 -3.08186,-19.87551 -9.33868,-27.69654c0,0 -1.42795,-1.78494 0.35699,-3.21289c1.78494,-1.42795 3.21289,0.35699 3.21289,0.35699c6.7159,8.39489 13.64404,18.10995 11.03982,29.01667c4.67244,-4.45594 14.3109,-7.49339 19.26754,-8.64747c18.21571,-4.24129 36.49255,-8.1873 54.66526,-12.46859c13.67012,-3.21514 26.56865,-7.52915 39.78845,-11.9039c4.9814,-1.64847 9.98924,-1.03992 15.04153,-1.71287c7.53742,-1.00396 15.23185,-2.62093 22.6952,-4.11458c2.19878,-0.43935 9.53329,-0.86574 10.95198,-2.60681c1.13178,-1.38898 0.31191,-3.60005 0.06536,-5.3747c-0.83614,-6.01851 -4.39498,-10.18047 -8.54758,-14.33307c-10.86354,-10.86354 -23.38766,-13.3498 -37.76038,-16.57909c-30.77998,-0.35558 -61.57695,-0.07554 -92.35888,-0.07554c-24.09814,0 -54.13088,-5.52404 -72.91341,13.40635c-4.70935,4.32622 -2.36946,10.67971 1.16967,14.72469c7.95896,9.09653 19.57346,9.35626 30.00428,13.47799l1.25608,0.61921c0,0 2.04452,1.02226 1.02226,3.06677z"/><path d="M232.95686,81.61736c1.04721,1.47966 -0.32435,2.85122 -0.32435,2.85122c-10.25585,9.42999 9.13168,15.5553 12.51321,7.25374c2.51315,-6.16973 -6.78107,-13.39142 -12.18886,-10.10496zM226.59253,83.95456c-0.16583,-0.82427 0.21362,-1.58318 0.21362,-1.58318l1.2729,-2.47981c2.95756,-2.88034 3.44077,-4.30063 8.46154,-4.19487c7.38822,0.15563 15.94475,10.38471 12.82879,17.77513c-5.28366,12.53177 -29.76469,6.33533 -23.12033,-8.90287c0.09494,-0.21773 0.21108,-0.42144 0.34347,-0.6144z"/><path d="M261.3334,101.92084c-2.28584,0 -2.28584,-2.28583 -2.28584,-2.28583l0.04189,-1.51838c1.03805,-5.3418 2.1393,-10.26852 3.86507,-15.44584c0,0 0.72284,-2.16854 2.89137,-1.44569c2.16854,0.72285 1.44569,2.89137 1.44569,2.89137c-1.6639,4.99167 -2.71517,9.71992 -3.71424,14.87139l0.04189,0.64715c0,0 0,2.28583 -2.28584,2.28583z"/><path d="M275.95062,104.08635c-2.28584,0 -2.28584,-2.28583 -2.28584,-2.28583l0.03915,-0.96253c1.02751,-5.4111 1.04638,-11.08943 1.59634,-16.58904c0,0 0.22745,-2.27449 2.50194,-2.04704c2.27449,0.22745 2.04703,2.50194 2.04703,2.50194c-0.56407,5.64068 -0.62223,11.41919 -1.65193,16.97646l0.03913,0.12021c0,0 0.00001,2.28583 -2.28583,2.28583z"/><path d="M294.35751,102.46222c-2.28584,0 -2.28584,-2.28584 -2.28584,-2.28584c0,-4.33102 0,-9.74482 0,-14.07584c0,0 0,-2.28583 2.28584,-2.28583c2.28584,0 2.28584,2.28583 2.28584,2.28583c0,4.33102 0,8.66207 0,12.99309v1.08275c0,0 0,2.28584 -2.28584,2.28584z"/><path d="M317.76696,86.717c-2.33472,1.7855 -5.10706,4.12455 -3.62865,7.33933c0.55213,1.2006 5.89194,1.24918 6.78083,0.68823c1.58693,-1.00145 -1.25855,-6.96202 -2.56515,-8.47414c-0.05669,0.04312 -0.11391,0.08659 -0.1716,0.13041l-0.00422,0.3614c0,0 -0.16722,0 -0.41121,-0.04523zM319.36266,82.43529l2.05598,0.42478c2.2042,2.28991 2.54282,2.11503 3.35171,5.75059c0.40929,1.83956 1.31536,7.58626 -0.67109,9.41826c-7.03894,6.49161 -18.74718,-2.35516 -13.24319,-11.02119c0.97417,-1.53382 3.97541,-3.75355 5.35277,-4.85764c0,0 1.73621,-1.38897 3.15381,0.28521z"/><path d="M333.33679,100.2967c-2.28584,0 -2.28584,-2.28584 -2.28584,-2.28584v-1.62413c0.00696,-3.47512 0.5469,-6.80136 0.54138,-10.2862c0,0 0,-2.28583 2.28583,-2.28583c2.28584,0 2.28584,2.28583 2.28584,2.28583c-0.00507,3.48717 -0.54922,6.81638 -0.54138,10.2862v1.62413c0,0 0,2.28584 -2.28583,2.28584z"/><path d="M349.57814,103.00359c-2.28584,0 -2.28584,-2.28583 -2.28584,-2.28583l0.24133,-1.56364c2.08397,-4.04375 1.38281,-8.61677 1.38281,-13.05359c0,0 0,-2.28583 2.28583,-2.28583c2.28584,0 2.28584,2.28583 2.28584,2.28583c0,5.30546 0.51251,10.23071 -1.86545,15.09811l0.24131,-0.48088c0,0 0,2.28583 -2.28583,2.28583z"/><path d="M371.83455,87.72411c-0.1438,0.49344 -0.39673,0.83069 -0.39673,0.83069c-0.53681,0.71401 -2.60599,3.34448 -2.91116,4.23196c-2.52567,7.34505 8.22689,3.60526 6.97849,-1.28863c-0.26808,-1.05093 -2.35323,-2.96204 -3.18129,-3.78126zM370.12208,84.91594c0.00804,-0.02632 0.01653,-0.05287 0.02544,-0.07963c0.72285,-2.16854 2.89139,-1.44569 2.89139,-1.44569l2.51762,1.09358c1.58026,1.59426 3.96925,3.74398 4.39802,5.96357c2.37656,12.30259 -19.70946,15.81454 -15.75943,0.87688c0.36896,-1.39526 2.64158,-4.25165 3.58538,-5.51287c0,0 0.95863,-1.27815 2.34159,-0.89585z"/><path d="M276.96817,128.98884c-2.28491,-0.0652 -2.2197,-2.35011 -2.2197,-2.35011l0.09025,-3.11153c0.3372,-3.36148 0.4502,-6.46059 0.4502,-9.81635c0,0 0,-2.28583 2.28584,-2.28583c2.28584,0 2.28583,2.28583 2.28583,2.28583c0,3.4463 -0.11579,6.66062 -0.45959,10.1092l-0.08272,2.94911c0,0 -0.0652,2.2849 -2.35011,2.21969z"/><path d="M293.98157,115.69727c0.06398,1.01682 -0.71463,1.79543 -0.71463,1.79543c-0.96681,0.9377 -4.04787,4.65277 -2.46884,6.25056c0.96747,0.97895 7.84097,2.66066 8.66128,0.66272c1.20795,-2.94206 -1.93683,-11.64648 -5.4778,-8.70871zM289.40256,114.94846c0.07473,-0.37809 0.20354,-0.63572 0.20354,-0.63572l1.15793,-1.84544c1.26965,-0.88102 2.27862,-2.42773 3.80892,-2.64306c6.92928,-0.97504 11.36606,12.2197 8.75853,17.01216c-2.79023,5.12824 -13.36575,2.9579 -16.24213,-0.42005c-2.92368,-3.4335 -0.16122,-8.60501 2.31321,-11.46789z"/><path d="M314.9299,129.53116c-2.28584,0 -2.28583,-2.28584 -2.28583,-2.28584l0.00063,-0.59503c0.09604,-3.98126 0.54354,-7.86407 0.54075,-11.85669c0,0 0,-2.28584 2.28583,-2.28584c2.28584,0 2.28584,2.28584 2.28584,2.28584c-0.00266,4.03036 -0.45048,7.9471 -0.54201,11.96399l0.00063,0.48773c0,0 0,2.28584 -2.28583,2.28584z"/><path d="M133.21063,192.86532c-1.53136,2.45249 -3.23213,4.85581 -4.97311,7.12218c-0.55674,0.72476 -1.02297,1.53703 -1.69955,2.15141c-0.2919,0.26506 -1.43813,0.17981 -1.11244,0.40204c0.89448,0.61035 6.03509,-0.3197 7.10592,-0.33317l0.00493,0.00098l-0.00001,-0.00102l2.88401,-0.0162c0.00315,-0.00002 0.00631,-0.00002 0.00947,-0.00002c0.79678,0 1.4427,0.64592 1.4427,1.4427c0,0.37429 -0.14253,0.71531 -0.37628,0.9717l-1.93204,2.13599l-0.30878,-0.2793c-0.99075,1.18422 -2.05256,2.34905 -3.04611,3.5233c0.73024,-0.4647 1.45372,-0.92129 2.09106,-1.41031c3.44618,-2.64422 6.47854,-5.64009 9.74858,-8.39285c-1.92701,0.52555 -4.0201,0.8267 -5.73988,1.10628c-0.79919,0.12992 -1.67682,0.65252 -2.40946,0.30781c-0.95329,-0.44852 -1.90849,-1.36186 -2.04971,-2.40589c-0.16773,-1.24006 1.74791,-2.01659 2.32247,-2.8937c1.15269,-1.75966 2.16176,-3.17275 3.45015,-4.82798c0.20773,-0.26687 0.4621,-0.71396 0.72381,-1.10866c-0.52884,0.06808 -1.1117,0.12375 -1.45549,0.26586c-0.66497,0.27487 -1.28483,0.64823 -1.92797,0.97091c-0.68291,0.34265 -1.36676,0.68338 -2.05014,1.02507zM134.42533,189.06741c2.84734,-1.54159 7.06885,-3.53598 8.7616,-0.21569c0.43412,0.85152 -0.76313,1.75439 -1.20493,2.60196c-1.15304,2.21198 -3.06085,4.44926 -4.46883,6.53069c-0.03206,0.04739 -0.16289,0.24912 -0.35005,0.47899c1.06121,-0.45532 2.35872,-0.96277 2.57726,-1.01091c2.17297,-0.47864 3.786,-0.57245 5.46982,-0.32243l0.04166,-0.37498l2.85046,0.31671c0.73013,0.07134 1.3007,0.68695 1.3007,1.43581c0,0.57593 -0.33748,1.07304 -0.82547,1.30436l-1.25097,0.62548c-6.40378,4.84587 -11.3795,11.09499 -18.66018,14.3636l0.19159,0.33527l-2.36984,1.3542c-0.21587,0.12871 -0.4682,0.20266 -0.73779,0.20266c-0.79678,0 -1.4427,-0.64591 -1.4427,-1.4427c0,-0.33004 0.11082,-0.6342 0.29728,-0.87729l0.96034,-1.28046c1.27253,-2.41209 4.22862,-6.16698 6.90763,-7.99813c-2.48324,0.05692 -8.41029,1.26942 -9.81463,-1.73642c-0.48297,-1.03376 1.0048,-2.05459 1.62108,-3.01486c2.04989,-3.19403 4.53561,-6.07294 6.60567,-9.24697c0.05473,-0.12269 0.12699,-0.22899 0.20682,-0.32032c0.31968,-0.50031 0.62847,-1.00836 0.9231,-1.5265c0,0 0.71579,-1.25263 1.9684,-0.53684c0.18912,0.10807 0.33337,0.22837 0.44199,0.35476z"/><path d="M120.36455,229.1725c-1.22372,1.9598 -2.58282,3.88031 -3.97405,5.6914c-0.44489,0.57916 -0.81745,1.22826 -1.35813,1.71921c-0.23326,0.21182 -1.14924,0.14369 -0.88898,0.32128c0.71479,0.48774 4.82271,-0.25548 5.67843,-0.26624l0.00394,0.00079l-0.00001,-0.00081l2.30463,-0.01294c0.00252,-0.00002 0.00504,-0.00002 0.00756,-0.00002c0.63672,0 1.15288,0.51616 1.15288,1.15288c0,0.2991 -0.11389,0.57161 -0.30069,0.77649l-1.54391,1.70688l-0.24675,-0.22319c-0.79172,0.94631 -1.64022,1.87714 -2.43417,2.81549c0.58354,-0.37134 1.16168,-0.73621 1.67098,-1.127c2.75388,-2.11302 5.17707,-4.50705 7.79019,-6.70681c-1.53988,0.41997 -3.2125,0.66062 -4.58679,0.88404c-0.63864,0.10383 -1.33998,0.52144 -1.92544,0.24598c-0.76179,-0.35842 -1.52509,-1.08827 -1.63794,-1.92256c-0.13404,-0.99096 1.39677,-1.61149 1.85592,-2.3124c0.92113,-1.40616 1.72748,-2.53538 2.75705,-3.85809c0.16599,-0.21326 0.36928,-0.57053 0.57841,-0.88593c-0.42261,0.05441 -0.88837,0.09888 -1.1631,0.21245c-0.53139,0.21965 -1.02671,0.518 -1.54065,0.77586c-0.54572,0.27381 -1.0922,0.54611 -1.63829,0.81915zM121.33524,226.13755c2.27533,-1.2319 5.64879,-2.82563 7.00147,-0.17235c0.34691,0.68046 -0.60983,1.40194 -0.96287,2.07923c-0.92141,1.76762 -2.44595,3.55545 -3.57109,5.21874c-0.02562,0.03788 -0.13016,0.19908 -0.27973,0.38278c0.84802,-0.36385 1.88487,-0.76936 2.05951,-0.80783c1.73644,-0.38249 3.02544,-0.45747 4.37098,-0.25767l0.0333,-0.29964l2.27783,0.25309c0.58345,0.05701 1.03939,0.54894 1.03939,1.14736c0,0.46023 -0.26969,0.85748 -0.65964,1.04234l-0.99965,0.49983c-5.11733,3.87239 -9.09348,8.8661 -14.91154,11.47808l0.1531,0.26793l-1.89377,1.08215c-0.1725,0.10285 -0.37413,0.16195 -0.58956,0.16195c-0.63672,0 -1.15288,-0.51617 -1.15288,-1.15288c0,-0.26374 0.08857,-0.50679 0.23757,-0.70104l0.76741,-1.02322c1.01689,-1.92752 3.37912,-4.9281 5.51994,-6.39139c-1.98438,0.04549 -6.72074,1.0144 -7.84296,-1.38759c-0.38595,-0.82609 0.80294,-1.64185 1.29543,-2.40922c1.63809,-2.55238 3.62443,-4.85292 5.27864,-7.38932c0.04374,-0.09805 0.10148,-0.18299 0.16528,-0.25598c0.25547,-0.3998 0.50222,-0.8058 0.73766,-1.21985c0,0 0.572,-1.00098 1.57297,-0.42899c0.15113,0.08636 0.26639,0.1825 0.35319,0.28349z"/><path d="M154.11069,220.69109c-1.22372,1.9598 -2.58283,3.88031 -3.97405,5.6914c-0.44489,0.57916 -0.81746,1.22826 -1.35813,1.71921c-0.23326,0.21182 -1.14924,0.14369 -0.88897,0.32127c0.71479,0.48774 4.8227,-0.25547 5.67842,-0.26624l0.00394,0.00078l-0.00001,-0.00081l2.30462,-0.01293c0.00251,-0.00002 0.00504,-0.00002 0.00757,-0.00002c0.63672,0 1.15288,0.51617 1.15288,1.15288c0,0.2991 -0.11389,0.57161 -0.30069,0.77649l-1.54391,1.70689l-0.24676,-0.22319c-0.79172,0.94631 -1.64021,1.87714 -2.43416,2.81549c0.58354,-0.37134 1.16168,-0.73621 1.67098,-1.12699c2.75388,-2.11302 5.17707,-4.50705 7.79019,-6.70681c-1.53988,0.41997 -3.2125,0.66062 -4.58679,0.88404c-0.63864,0.10383 -1.33997,0.52144 -1.92543,0.24598c-0.76179,-0.35842 -1.52509,-1.08827 -1.63794,-1.92256c-0.13404,-0.99096 1.39677,-1.61149 1.85592,-2.3124c0.92112,-1.40616 1.72748,-2.53537 2.75705,-3.85808c0.166,-0.21326 0.36928,-0.57053 0.57841,-0.88593c-0.42261,0.05441 -0.88837,0.09888 -1.1631,0.21245c-0.53139,0.21965 -1.02672,0.518 -1.54066,0.77586c-0.54572,0.27381 -1.09219,0.54611 -1.63829,0.81915zM155.08138,217.65615c2.27533,-1.2319 5.64879,-2.82564 7.00147,-0.17236c0.34691,0.68046 -0.60983,1.40194 -0.96287,2.07923c-0.92141,1.76762 -2.44595,3.55546 -3.57109,5.21875c-0.02561,0.03788 -0.13016,0.19907 -0.27973,0.38277c0.84802,-0.36385 1.88487,-0.76936 2.05952,-0.80783c1.73644,-0.38249 3.02544,-0.45747 4.37098,-0.25767l0.0333,-0.29963l2.27783,0.25308c0.58345,0.05701 1.0394,0.54895 1.0394,1.14737c0,0.46023 -0.2697,0.85748 -0.65965,1.04234l-0.99965,0.49983c-5.11733,3.87239 -9.09348,8.8661 -14.91154,11.47809l0.15311,0.26792l-1.89377,1.08215c-0.1725,0.10285 -0.37413,0.16195 -0.58956,0.16195c-0.63672,0 -1.15288,-0.51616 -1.15288,-1.15288c0,-0.26374 0.08856,-0.50679 0.23756,-0.70104l0.76741,-1.02322c1.01689,-1.92752 3.37913,-4.92809 5.51995,-6.39138c-1.98438,0.04549 -6.72074,1.0144 -7.84296,-1.3876c-0.38595,-0.82609 0.80294,-1.64184 1.29542,-2.40921c1.63808,-2.55238 3.62443,-4.85292 5.27865,-7.38932c0.04374,-0.09805 0.10147,-0.183 0.16527,-0.25598c0.25546,-0.3998 0.50223,-0.80579 0.73767,-1.21984c0,0 0.57199,-1.00098 1.57297,-0.42899c0.15113,0.08636 0.26639,0.1825 0.35319,0.28349z"/></g></g></svg>