<svg version="1.1" xmlns="http://www.w3.org/2000/svg" xmlns:xlink="http://www.w3.org/1999/xlink" width="462.92017" height="318.69995" viewBox="0,0,462.92017,318.69995"><g transform="translate(-8.09561,-9.87018)"><g data-paper-data="{&quot;isPaintingLayer&quot;:true}" fill="#9966ff" fill-rule="nonzero" stroke="none" stroke-width="0.5" stroke-linecap="butt" stroke-linejoin="miter" stroke-miterlimit="10" stroke-dasharray="" stroke-dashoffset="0" style="mix-blend-mode: normal"><path d="M88.21358,79.31474c2.02215,0 2.02215,2.02215 2.02215,2.02215c0,0.95785 0,4.31035 0,5.2682c0,19.91997 -0.47894,39.78452 -0.47894,59.65312c0,18.54519 0.58166,38.45151 -2.35937,56.67341c0.03799,0.53585 -0.17177,0.95602 -0.42244,1.26051c-0.21647,0.32786 -0.5546,0.6507 -1.0745,0.77305l-1.57184,0.78592c-14.25607,7.08841 -32.26012,9.6166 -45.07757,19.35502c-1.26331,1.25146 -6.10392,5.54949 -8.13517,4.02393c-2.12525,-1.59616 -0.73613,-9.63336 -0.95103,-12.07674c-0.9925,-11.28495 -0.48693,-22.82127 -0.48693,-34.18371c0,0 0,-2.02215 2.02215,-2.02215c2.02215,0 2.02215,2.02215 2.02215,2.02215c0,11.24608 -0.48096,22.65419 0.47091,33.82405c0.06963,0.81716 0.5251,5.34068 -0.02248,7.64779c0.94821,-0.94817 2.2247,-2.08259 2.43055,-2.2906c13.33503,-9.90963 31.26194,-12.54197 45.91874,-19.91707l0.99241,-0.4962c2.85589,-17.79254 2.20012,-37.29597 2.20012,-55.37937c0,-19.86911 0.47894,-39.73287 0.47894,-59.65311c0,-0.95785 0,-1.91572 0,-2.87357v-2.39463c0,0 0,-2.02215 2.02215,-2.02215z"/><path d="M33.13419,67.28745c0.63947,-1.91839 2.55784,-1.27893 2.55784,-1.27893c0.02425,0.00829 0.04851,0.0166 0.07276,0.02491c0.54971,-0.24065 1.35209,-0.33876 2.15445,0.4636c0.13992,0.13992 0.25244,0.27983 0.34161,0.4184c13.98393,5.08058 26.83964,11.92038 42.28989,11.92038l2.40615,0.53931c0,0 1.23289,0.30822 1.49957,1.41335c0.45028,0.10605 0.91641,0.40281 1.25544,1.08087c0.90434,1.80867 -0.90434,2.713 -0.90434,2.713l-0.8218,0.40424c-1.80108,1.07937 -3.6557,2.07074 -5.53475,3.00781c-14.9522,4.98407 -29.5631,11.47255 -43.70711,18.508c-0.09881,6.94953 -0.05513,13.85043 -0.07364,20.5319c-1.27466,6.37326 -0.46909,13.4177 -0.46909,19.91572c0,10.58968 -0.47892,21.04992 -0.47892,31.60923c0,0 0,2.02215 -2.02215,2.02215c-2.02215,0 -2.02215,-2.02215 -2.02215,-2.02215c0,-10.56106 0.47893,-21.01885 0.47893,-31.60923c0,-6.62739 -0.81133,-13.81377 0.48877,-20.31424c-0.02115,-6.77748 -0.07182,-13.78973 0.03993,-20.85317c-0.13998,-0.45767 -0.10219,-0.84727 0.02,-1.1688c0.21906,-11.88929 0.92753,-23.89476 3.03877,-35.1427c-0.48123,-0.3745 -0.98485,-1.05948 -0.61013,-2.18365zM34.83102,101.94901c13.64047,-6.70903 27.69801,-12.89964 42.07229,-17.69107c0.88986,-0.44627 1.77252,-0.90792 2.64553,-1.38706c-15.39919,-0.28347 -27.96645,-7.03906 -41.95935,-11.95369c-1.81609,9.97796 -2.50066,20.51788 -2.75846,31.03182z"/><path d="M32.179,56.06014c-2.02215,0 -2.02215,-2.02215 -2.02215,-2.02215l0.10376,-1.27625c-0.31929,-0.95786 -0.8119,-1.8745 -0.95785,-2.87357c-0.07849,-0.5373 0.8465,-1.57154 0.30426,-1.60032c-1.36493,-0.07247 -4.90115,7.06406 -7.48552,6.81444c-5.3287,-0.51467 -1.78262,-5.87703 -4.0742,-6.35924c-0.63324,-0.13325 -3.97592,1.38453 -5.87685,2.26951c0,1.96633 0,3.93267 0,5.899v1.91571c0,0 0,2.02215 -2.02215,2.02215c-2.02215,0 -2.02215,-2.02215 -2.02215,-2.02215c0,-2.52925 0,-5.76983 0,-8.85485c-0.04309,-0.24876 -0.03833,-0.47284 0,-0.67373c0,-1.73667 0,-3.40271 0,-4.83926c0,0 0,-2.02215 2.02215,-2.02215c2.02215,0 2.02215,2.02215 2.02215,2.02215c0,0.72933 0,1.45868 0,2.18801c2.4959,-1.0932 5.69915,-2.34971 7.32027,-1.68234c1.22061,0.5025 1.96511,1.83809 2.57417,3.00917c0.19966,0.38392 0.31871,1.15584 0.35703,1.85173c1.62963,-2.26399 8.09874,-5.47032 8.49762,-5.36355c1.11721,0.29904 2.74119,5.71044 3.17783,7.02037l0.10377,2.55517c0,0 0,2.02215 -2.02215,2.02215z"/><path d="M9.56296,37.27552c0,-1.1168 0.90535,-2.02215 2.02215,-2.02215c1.1168,0 2.02215,0.90535 2.02215,2.02215c0,1.1168 -0.90535,2.02215 -2.02215,2.02215c-1.1168,0 -2.02215,-0.90534 -2.02215,-2.02215z"/><path d="M60.5422,43.98051c0,2.02215 -2.02215,2.02215 -2.02215,2.02215h-2.87357c-4.03712,-0.01532 -8.13404,-0.82232 -12.22665,-1.66864c-1.54384,5.10381 -2.48825,10.6378 2.44883,10.56523l2.19732,-0.4495c0,0 1.98288,-0.39657 2.37946,1.58631c0.39657,1.98288 -1.58631,2.37946 -1.58631,2.37946l-2.59195,0.50836c-9.83723,-0.08807 -8.5115,-8.05112 -6.50896,-15.33814c-1.97012,-0.38722 -3.93478,-0.73135 -5.8868,-0.94794c0,0 -2.00978,-0.2233 -1.78647,-2.23309c0.22331,-2.00979 2.23309,-1.78648 2.23309,-1.78648c2.15548,0.23983 4.34157,0.65081 6.53857,1.10415c0.33559,-1.19273 0.63274,-2.31587 0.83379,-3.32236c0,0 0.39659,-1.98287 2.37947,-1.58629c1.98288,0.39657 1.58631,2.37946 1.58631,2.37946c-0.16331,0.81558 -0.54377,1.98113 -0.9957,3.33018c3.69427,0.77035 7.38726,1.45114 10.98602,1.435h2.87357c0,0 2.02215,0.00001 2.02215,2.02216z"/><path d="M167.82205,64.09549c0,2.02215 -2.02215,2.02215 -2.02215,2.02215h-0.47893c-0.98301,0 -5.60434,0.03366 -6.04205,-0.15393c-0.31578,-0.13533 -0.61381,-0.28815 -0.89482,-0.45717c-2.74033,2.1264 -6.13372,3.18692 -10.14953,2.50069c-0.87065,-0.14878 -1.68202,-0.37699 -2.44321,-0.67194c0,2.75148 0,5.50298 0,8.25446v0.95786c0,0 0,2.02215 -2.02215,2.02215c-2.02215,0 -2.02215,-2.02215 -2.02215,-2.02215c0,-3.48831 0,-7.93448 0,-11.42279c-0.59948,0.13559 -1.47908,0.09884 -2.10646,-0.9468c-0.39745,-0.6624 -0.39002,-1.2236 -0.22904,-1.66424c-1.7284,-1.9806 -3.24834,-4.21637 -4.88422,-6.25471c0,0 -1.26323,-1.57903 0.31581,-2.84226c1.57904,-1.26323 2.84225,0.31581 2.84225,0.31581c1.32688,1.66344 2.61465,3.68883 4.09945,5.5084c0.07982,-4.863 0.3127,-9.65134 0.93617,-14.55734c0.25253,-1.98717 0.63292,-7.02482 2.97824,-7.93944c3.46232,-1.35023 6.63515,7.42942 6.78726,9.43164c0.44462,5.85261 -2.44779,11.89384 -6.68825,16.01227c-0.00145,0.2341 -0.00265,0.46849 -0.00361,0.70318c0.93231,0.54608 1.95288,0.94156 3.08775,1.12383c2.62507,0.42161 4.85499,-0.23109 6.71757,-1.57469c-2.80291,-5.53471 -0.48621,-15.01744 1.68627,-19.3643c0.81222,-1.62514 2.09484,-4.53771 3.80626,-5.22858c1.38884,-0.56064 2.99222,0.13879 4.48834,0.20819c2.47154,6.64627 0.9649,17.59833 -4.13558,24.31581c1.25,0.17051 2.59144,-0.29825 3.87571,-0.29825h0.47893c0,0 2.02215,0.00001 2.02215,2.02215zM158.82996,58.96618c3.41994,-5.15566 4.71971,-12.96381 4.31542,-17.68164c-3.80989,2.6357 -4.39159,10.15446 -4.42296,14.19025c-0.00606,0.77862 -0.08103,2.16507 0.10754,3.49139zM145.92306,55.79215c1.30018,-1.96966 2.27138,-4.11092 2.56548,-5.96797c0.34271,-2.16399 0.0261,-4.8118 -1.17126,-6.69626c-0.03538,-0.05568 -0.07397,-0.11989 -0.11471,-0.1908c-0.13774,0.77257 -0.38759,1.59532 -0.46945,2.25593c-0.44305,3.57522 -0.68335,7.0797 -0.81006,10.5991z"/><path d="M198.47343,64.57441c0,2.02215 -2.02215,2.02215 -2.02215,2.02215h-1.43678c-3.0022,-0.14585 -4.41067,-0.71341 -5.3133,-2.45587c-0.15057,0.15677 -0.31158,0.31289 -0.48336,0.46819c-0.73185,0.66165 -1.46837,1.14061 -2.19697,1.46093c5.96474,1.91816 13.51087,5.67343 15.60899,10.66181c0.84277,2.00373 0.79693,4.01395 0.15462,5.91884c0.02908,17.47724 0.95717,34.85025 0.95717,52.32636c0,17.08149 0.47893,34.14201 0.47893,51.24529v1.43678c0,0 0,1.16367 -0.88275,1.72552c0.1395,6.22072 0.42207,12.40242 0.39398,18.66913l0.4495,2.19732c0,0 0.39657,1.98288 -1.58631,2.37945c-0.70548,0.1411 -1.21015,-0.01901 -1.56761,-0.28384c0.19161,0.28497 0.31962,0.66575 0.31962,1.17453c0,1.31119 -0.8502,1.77219 -1.44803,1.93427c-6.56863,8.06187 -15.67681,8.23012 -25.51847,6.24621c-3.79488,-1.26099 -12.71227,-4.27131 -14.69963,-8.23399c-1.10297,-2.19926 0.26901,-6.17023 0.26544,-8.56718c-0.01308,-8.7803 0,-17.56073 0,-26.34104c0,0 0,-1.81083 1.71361,-2.00528c-0.11859,-4.44775 0.20211,-8.99614 0.20211,-13.3204c0,-8.74317 -0.47893,-17.43415 -0.47893,-26.12816c0,-17.61103 -0.75299,-35.41357 1.04579,-52.90793c-3.26851,-7.8134 8.81079,-14.98773 15.5282,-17.18093c0.19502,-0.06368 0.83023,-0.10186 1.62626,-0.12452c0.02791,-1.07088 0.6377,-1.55219 1.18022,-1.76852c-0.9993,-0.79547 -1.84453,-1.86107 -2.46219,-3.0563c-1.40535,4.91621 -11.30169,5.27828 -11.16607,-2.42542c0.0234,-1.32964 1.09679,-2.42303 1.64518,-3.63455c0,0 0.90434,-1.80868 2.713,-0.90434c0.0019,0.00095 0.0038,0.0019 0.0057,0.00285c0.7663,-0.40552 1.64514,-0.11256 1.64514,-0.11256l2.01062,0.77959c0.66854,0.54753 1.5477,0.92019 2.11234,1.55398c0.15436,-0.59897 0.60822,-1.47948 1.94258,-1.47948c2.02215,0 2.02215,2.02215 2.02215,2.02215c-0.36587,9.24885 11.73415,-0.05248 1.4127,-1.84854l-0.56128,0.03926c0,0 -2.02215,0 -2.02215,-2.02215c0,-2.02215 2.02215,-2.02215 2.02215,-2.02215l1.35444,0.03927c3.20263,0.69847 7.0178,3.45323 7.88205,6.71864c1.11381,0.30626 1.3671,1.57265 1.3671,1.57265c0.16046,1.05678 1.26337,2.30691 2.32747,2.20585h1.43678c0,0 2.02215,0 2.02215,2.02215zM171.88904,58.83483c-1.7909,4.4006 4.85923,2.71647 0.83934,0.17339zM200.21554,211.044l-0.50836,-2.59196c-0.03194,-8.41827 -0.48876,-16.69478 -0.48876,-25.10351c0,0 -0.00001,-1.21931 0.94681,-1.76431c-0.07164,-15.55042 -0.46788,-31.07004 -0.46788,-46.60741c0,-15.52222 -0.7322,-30.96362 -0.91627,-46.46913c-2.90081,2.74683 -6.67031,4.74732 -9.61023,5.35127c-2.41706,0.49654 -5.73174,0.03555 -8.1886,0.03141c-4.78331,-0.69536 -10.91537,-2.10874 -14.91392,-5.23067c-1.31764,16.04385 -0.64091,32.3389 -0.64091,48.44571c0,9.63886 0.47893,19.30748 0.47893,29.00173c0,5.50988 -0.6636,11.45169 0.43965,16.84483l0.03927,1.83335c0,0 0,2.02215 -2.02215,2.02215c-0.13268,0 -0.25665,-0.00871 -0.37249,-0.02498c0,5.24105 0,10.4821 0,15.72315c0,1.8993 -1.37605,7.77355 -0.69241,9.15316c0.51302,1.03529 2.1062,0.96622 3.08586,1.57882c3.09321,1.93429 5.52627,3.38145 9.03447,4.55501c8.48931,1.68297 16.29859,1.89784 21.80966,-5.48494l2.09665,-0.80886c0,0 0.70776,0.00001 1.28584,0.41873c-0.30584,-0.42693 -0.39516,-0.87357 -0.39516,-0.87357zM166.84858,81.10877c-0.07502,0.59509 -0.14667,1.19062 -0.21511,1.78658c1.14928,2.23196 3.72139,3.7814 6.12557,4.69871c2.74113,1.04587 5.61811,1.85818 8.50991,2.26217c5.86677,-0.01093 12.99891,-0.24383 16.29307,-6.15756c0.51901,-0.93175 1.88916,-4.29774 1.33141,-5.41938c-1.89926,-3.81939 -8.16642,-6.81086 -13.09873,-8.37593c-0.528,1.00355 -1.79553,1.00353 -1.79553,1.00353c-5.29002,0 -8.06324,2.3996 -13.06053,4.61182c-1.32572,0.58688 -4.14304,1.35162 -4.65714,3.10513c-0.06148,0.20968 -0.1117,0.41588 -0.15121,0.6186c0.86926,0.65863 0.7183,1.86632 0.7183,1.86632z"/><path d="M213.3202,47.33301c0,2.02215 -2.02215,2.02215 -2.02215,2.02215h-0.47893c-2.09403,0 -4.18242,-0.07604 -6.26827,-0.16752c-0.38676,3.98218 -0.80921,7.97207 -0.80921,12.03428v0.47892c0,0 0,2.02215 -2.02215,2.02215c-2.02215,0 -2.02215,-2.02215 -2.02215,-2.02215v-0.47892c0,-4.11518 0.44412,-8.16939 0.83854,-12.21354c-1.84023,-0.07625 -3.67999,-0.13422 -5.52138,-0.13215c0,0 -2.02215,0 -2.02215,-2.02215c0,-2.02215 2.02215,-2.02215 2.02215,-2.02215c1.96199,0.00203 3.92066,0.06895 5.87955,0.15215c0.1464,-1.92755 0.24426,-3.85666 0.24007,-5.79284c0,0 0,-2.02215 2.02215,-2.02215c2.02215,0 2.02215,2.02215 2.02215,2.02215c-0.00392,1.99906 -0.11151,3.98665 -0.26624,5.97075c1.96517,0.08294 3.93298,0.14887 5.90695,0.14887h0.47893c0,0 2.02215,0.00001 2.02215,2.02215z"/><path d="M309.9572,200.00457c2.02215,0 2.02215,2.02215 2.02215,2.02215l-0.21348,1.86219c-2.24007,4.36399 -5.72996,7.3377 -9.18491,10.74702c-8.97375,5.41744 -24.2106,3.56236 -33.60471,-0.19528c-5.84755,-2.33902 -10.71642,-4.41059 -10.84971,-11.45607c0,0 0.00001,-0.2023 0.06399,-0.47893c-0.06399,-0.27663 -0.06399,-0.47894 -0.06399,-0.47894v-0.47893c0.00657,-2.91018 -0.474,-5.70129 -0.47893,-8.62071c0,-20.48612 -0.47893,-40.82013 -0.47893,-61.30276c0,-18.86921 -0.95785,-37.65474 -0.95785,-56.51349c0,0 0,-1.95717 1.92546,-2.02059c-0.00004,-0.03141 -0.00001,-0.06287 0.00009,-0.09439c2.64605,-13.26376 16.41116,-17.649 28.35334,-17.62751c4.26259,0.00767 9.29012,0.51316 12.44522,3.46584c0,0 1.10357,1.10357 0.40219,2.3412c0.16755,-0.03847 0.35435,-0.05991 0.56258,-0.05991c0.04491,0 0.08882,0.00099 0.13175,0.00294c0.5093,-0.11642 1.14317,-0.04455 1.77705,0.58933c1.15376,1.15376 0.44558,2.30753 0.12906,2.7101c0.08335,3.52101 0.4693,6.94384 0.45338,10.49372l0.44949,2.19732c0,0 0.39657,1.98288 -1.58631,2.37945c-1.98288,0.39657 -2.37946,-1.58629 -2.37946,-1.58629l-0.50836,-2.59197c-0.01185,-3.12449 -0.2883,-6.15859 -0.42008,-9.24063c-0.01486,0.00298 -0.02974,0.00594 -0.0446,0.00892c-2.3437,0.44871 -4.12669,1.40786 -6.35055,2.28927c-2.41397,0.95676 -9.14014,6.15783 -3.94818,8.88644c5.24442,2.75617 10.87784,2.53959 16.60715,2.53959c1.11635,0 5.49132,-0.09875 6.07131,0.45833c0.02725,0.02617 0.05405,0.05232 0.08041,0.0784c0.16516,-0.03714 0.34889,-0.05781 0.55328,-0.05781c2.02215,0 2.02215,2.02216 2.02215,2.02216c0,7.18391 0,14.36784 0,21.55175v0.47893c0,0 0,1.40289 -1.1685,1.87167c0.21168,13.16564 0.34114,26.36234 -0.55025,39.39205c-1.23127,17.81392 -1.63376,35.68663 -1.63376,53.56401v0.87639c0.11584,-0.01627 0.23981,-0.02498 0.37249,-0.02498zM262.17084,202.98459c-0.14177,5.05791 4.2908,6.09438 8.30743,7.70103c7.91673,3.16669 21.96022,5.31685 29.61377,0.76258c2.81894,-2.86721 5.91226,-5.30046 7.79694,-8.85506c-0.10249,0.01238 -0.21117,0.01896 -0.32643,0.01896c-2.02215,0 -2.02215,-2.02215 -2.02215,-2.02215v-1.43679c0,-17.9711 0.42005,-35.93323 1.64327,-53.8412c1.27001,-18.40517 0.46711,-37.15579 0.30068,-55.67001c-10.69392,8.09925 -26.18257,6.67283 -37.33529,0.14892c-4.26628,-2.49559 -7.76244,-5.00662 -9.86173,-8.46106c0.16688,16.77206 0.92565,33.50026 0.92565,50.29452c0,20.48238 0.47893,40.81652 0.47893,61.30276c-0.00544,2.91675 0.47308,5.70659 0.47893,8.62071v0.47893c0,0 0,0.20229 -0.06398,0.47892c0.06399,0.27663 0.06398,0.47895 0.06398,0.47895zM307.45612,83.73152c0,0 0,-0.15359 0.04233,-0.37613c-6.6762,-0.6813 -20.00795,3.08131 -24.22839,-4.89576c-5.03296,-9.51279 6.06535,-14.66608 13.54878,-16.28573c-0.45182,-0.18814 -0.74365,-0.47997 -0.74365,-0.47997c-1.93795,-2.18538 -6.74127,-2.28681 -9.58547,-2.28129c-9.60459,0.01864 -22.11502,2.95148 -24.32872,13.98172c0.0242,6.57441 4.38768,9.62407 10.01801,12.89854c7.65922,4.45443 13.95322,6.22954 22.27159,3.66893c4.54834,-1.40009 8.83723,-1.42592 12.42935,-5.01804c0.11744,-0.19804 0.35935,-0.46829 0.57637,-0.72867c-0.00014,-0.16121 -0.00021,-0.32242 -0.00021,-0.4836z"/><path d="M259.77621,50.20657c0,2.02215 -2.02215,2.02215 -2.02215,2.02215l-1.83336,-0.03927c-5.07881,-1.01877 -11.93313,-1.69216 -14.4027,-7.4351c-3.49337,-8.12377 5.46263,-13.90458 12.00824,-10.17067c0,0 1.73397,1.04039 0.69359,2.77437c-1.04038,1.73398 -2.77436,0.69358 -2.77436,0.69358c-3.29304,-2.12459 -8.29407,0.74557 -6.19102,5.15502c2.01015,4.21468 7.74045,4.27531 11.4594,5.01703l1.04021,-0.03927c0,0 2.02215,0 2.02215,2.02215z"/><path d="M274.04912,47.858c-1.96178,0.49044 -2.45222,-1.47133 -2.45222,-1.47133l-0.51179,-2.07371c-1.17561,-7.05761 -1.14702,-7.66205 -8.30487,-5.61789c-0.07903,2.5596 -0.13045,5.12004 -0.13045,7.68009c0,0 0,2.02215 -2.02215,2.02215c-2.02215,0 -2.02215,-2.02215 -2.02215,-2.02215c0,-10.86544 0.9912,-21.78596 0.95785,-32.5671v-1.91572c0,0 0,-2.02215 2.02215,-2.02215c2.02215,0 2.02215,2.02215 2.02215,2.02215v1.91572c-0.01841,6.84459 -0.39813,13.72338 -0.67385,20.613c2.97087,-0.91633 7.13657,-2.13996 9.5439,-0.11966c1.88521,1.58212 2.21185,7.03882 2.5967,9.34668l0.44606,1.75771c0,0 0.49045,1.96178 -1.47132,2.45222z"/><path d="M312.64231,50.14498c0,2.25 -2.25,2.25 -2.25,2.25h-2.41717c-2.16716,-0.01727 -5.62678,0.29482 -7.12501,-1.83153c-1.91727,-2.72106 0.76665,-4.16158 0.56532,-6.5369c-0.06348,-0.74892 -3.69329,-0.94599 -3.83937,-0.8526c-0.3385,0.21642 0.5466,0.66633 0.55888,1.06792c0.028,0.9157 -0.63565,4.69074 -0.83199,5.87014c0,0 -0.15148,0.90887 -0.84218,1.46645c-0.37379,1.62224 -2.18292,1.62224 -2.18292,1.62224l-1.17562,-0.03061c-2.51232,-0.46311 -4.59771,-0.43963 -6.2849,-2.92185c-3.02247,1.67068 -7.68227,0.15944 -9.25438,-2.84761c-1.4558,-2.78458 -1.21713,-4.0293 -1.23717,-6.77262c0,0 -0.00001,-0.08138 0.01632,-0.2115c-0.03907,-0.42541 0.04405,-0.75787 0.04405,-0.75787l1.53637,-3.23394c0.53728,-0.26864 1.07456,-0.53728 1.61185,-0.80593c0.25353,-0.1649 0.5243,-0.25538 0.74509,-0.30503c0.25394,-0.0628 0.59197,-0.10667 0.94453,-0.0388l0.39408,0.01769c4.52828,0.93678 8.50201,4.63478 8.23481,9.27435c1.0349,0.61157 1.0349,1.95225 1.0349,1.95225c-0.37648,1.91682 0.57488,1.97022 2.09567,2.11533c0.24375,-1.55378 0.44436,-3.11433 0.66017,-4.67231c0.17415,-1.25721 -0.37313,-2.90486 0.55888,-3.76641c3.05287,-2.82207 9.96395,-1.47571 11.46935,2.37029c0.51787,1.32305 -0.03776,2.85555 -0.30098,4.25175c-0.09238,0.49002 -0.95137,0.84317 -0.74514,1.29718c0.1737,0.3824 0.82519,-0.1708 1.24429,-0.19834c0.70022,-0.04601 1.40339,-0.0145 2.10509,-0.02175h2.41717c0,0 2.25,0 2.25,2.25zM280.37011,40.62802c-0.00651,0.70472 -0.11981,1.41659 -0.01956,2.11417c0.05825,0.40532 4.05435,7.07497 4.80944,3.68648c0.95085,-4.26702 -0.21871,-6.2804 -3.99874,-7.10164c-0.31997,0.15998 -0.63995,0.31998 -0.95992,0.47996c0.16877,0.43485 0.16878,0.82103 0.16878,0.82103z"/><path d="M380.46604,194.36388c-0.00124,0.82874 -0.1239,5.81437 0.21772,6.09903c1.63824,1.36506 4.24841,-0.45834 6.38083,-0.45834c20.56913,0 41.12099,0.46282 61.67527,0.47852v-2.76672c0,-6.57062 -0.7006,-13.71176 0.00014,-20.36785c0.0092,-8.51872 0.47878,-16.96612 0.47878,-25.44952c0,-21.60335 0.34418,-43.19288 -2.3478,-64.59772c-2.84886,0.17669 -6.17542,-0.1495 -8.06148,-0.11093c-18.8859,0.0005 -37.65693,0.95797 -56.53419,0.95797h-1.43679c0,0 -0.74725,0 -1.33326,-0.45426c-0.03992,20.88088 -0.476,41.73944 -0.476,62.60845c0,11.22213 -0.85331,23.0825 2.31683,33.92728l0.07781,1.03446c0,0 0,1.35191 -1.10539,1.84495c0.10386,2.38969 0.15119,4.79791 0.14753,7.25468zM451.8263,202.50565c0,2.02215 -2.02215,2.02216 -2.02215,2.02216c-20.9092,0 -41.81538,-0.47893 -62.73955,-0.47893c-1.75474,0 -7.5985,0.66366 -8.94486,-0.45833c-1.82241,-1.5187 -1.69499,-7.0645 -1.69799,-9.22666c-0.00987,-7.10067 -0.41146,-13.75385 -1.41646,-20.78686l-0.02032,-0.76491c0,0 0,-0.51032 0.25637,-1.01824c-0.51302,-7.13532 -0.25637,-14.38646 -0.25637,-21.49137c0,-21.87003 0.47893,-43.72833 0.47893,-65.61313c0,0 0,-1.27975 1.01808,-1.8031c-0.46761,-1.29708 0.74864,-2.20927 0.74864,-2.20927c5.62145,-4.21001 9.44208,-8.66507 13.44196,-14.38346c1.23164,-1.76082 3.98136,-7.8094 5.86534,-8.7075c0.77064,-0.36736 5.92728,-0.30201 7.28918,-0.30201c6.54535,0 13.09069,0 19.63603,0c8.63574,0 17.56345,0.62355 26.17425,0.0069c1.4975,-0.10724 8.82391,-1.54591 9.70898,-0.40134c0.55132,0.71295 0.66499,1.60641 0.60181,2.55061c0.97777,0.53595 0.97777,1.7817 0.97777,1.7817c0,20.0095 2.41262,39.95996 2.39026,59.94591c1.16242,8.7826 0.33819,17.80755 0.95914,26.62821c0.5199,7.38527 1.95537,14.86312 1.88232,22.23903l0.84593,2.01703l0.33997,-0.45328c0,0 1.21329,-1.61772 2.83101,-0.40443c1.61772,1.21329 0.40443,2.83101 0.40443,2.83101l-1.43679,1.91572c-5.5359,7.36321 -9.00484,16.52628 -15.29674,23.18837l0.41129,0.32904l-1.90404,2.38005c-0.14781,0.18804 -0.32824,0.34922 -0.53276,0.47502c0.00419,0.0619 0.00635,0.12588 0.00635,0.19204zM453.22382,174.64548c-0.18241,0.89165 -0.32672,1.7996 -0.43953,2.72012c-0.00008,0.07859 -0.00012,0.1572 -0.00012,0.2358v2.39464c0,0 0,0.5645 -0.29826,1.097c-0.17863,4.15199 0.07937,8.45051 0.21885,12.58259c0.82537,-1.19066 1.85372,-2.31609 2.6656,-3.39861c3.65997,-4.87996 6.10556,-10.41124 9.566,-15.41271c-1.18956,-0.06499 -1.68403,-1.30117 -1.68403,-1.30117l-1.066,-2.76325c-0.0888,-10.18628 -1.55763,-20.69746 -2.42424,-30.867c-0.52641,-6.17746 0.33576,-12.32478 -0.48144,-18.49915c-0.01797,-17.16667 -1.75919,-34.30286 -2.26356,-51.47542c-1.35161,2.95194 -2.92403,5.86741 -3.8796,8.72765c-0.15553,0.46553 -1.72654,7.31208 -1.96327,7.4907c-0.10602,0.07999 -0.22029,0.15485 -0.34214,0.22486c2.7578,21.70551 2.43101,43.58922 2.43101,65.49747c0,7.01296 -0.32074,13.99769 -0.43726,21.02018c0.59884,0.72207 0.39799,1.7263 0.39799,1.7263zM446.36554,83.53858c0,0 -0.28597,-2.00184 1.71586,-2.28781c0.08656,-0.01237 0.1699,-0.02045 0.25015,-0.02461c0.21931,-1.33913 0.58453,-2.65586 1.01285,-3.94335c1.34048,-4.0293 3.2682,-8.07291 4.81691,-12.04661c0.71774,-1.84159 2.96909,-3.54112 2.38419,-5.42911c-0.16443,-0.53077 -0.77126,0.88575 -1.30636,1.03545c-0.7687,0.21507 -1.5997,-0.07227 -2.39464,0c-2.30448,0.20949 -4.61096,0.48384 -6.92495,0.48581c-7.48547,0.00637 -14.97098,0 -22.45645,0c-6.54535,0 -13.09069,0 -19.63603,0c-1.72393,0 -3.5458,-0.89929 -5.16296,-0.30201c-0.8324,0.30744 -3.93757,6.52894 -4.67106,7.57604c-4.2305,6.03924 -8.39861,10.85103 -14.33587,15.31008c0,0 -0.09288,0.06967 -0.25082,0.15334c0.0596,0.20359 0.08432,0.38248 0.09457,0.49584c0.58664,-0.45763 1.3376,-0.45763 1.3376,-0.45763h1.43679c18.86327,0 37.62066,-0.95825 56.49279,-0.95776c1.52199,-0.03123 5.15133,0.52963 7.6062,0.45368c-0.00292,-0.02045 -0.00585,-0.04091 -0.00877,-0.06136z"/><path d="M401.38225,71.33362c-0.23883,0.92483 -0.62317,1.86113 -0.19105,2.64353c0.45016,0.81508 7.79062,0.06938 8.86194,0.06938c2.03487,0 5.30055,2.13286 6.09903,0.2612c1.79662,-4.21132 -9.99493,-3.23368 -14.76992,-2.97411zM397.49063,71.10339c-0.48578,-0.26193 -0.95391,-0.76675 -0.95391,-1.73969c0,-2.02215 2.02215,-2.02216 2.02215,-2.02216h1.43679c3.51211,0 7.02429,-0.00632 10.53641,0c4.48343,0.00807 9.20607,-0.18985 9.20607,5.37465c0,1.3936 0.40295,3.06001 -0.45834,4.15559c-0.81351,1.03481 -2.46648,0.96118 -3.75919,1.20923c-3.38916,0.65032 -10.69068,0.8512 -13.99164,-0.02665c-1.32301,-0.35184 -2.86129,-0.71767 -3.68671,-1.80985c-0.35335,-0.46754 -0.35971,-3.52141 -0.35161,-5.1411z"/><path d="M444.57925,77.72328l0.32858,-0.16429l0.93966,1.87933c0.14795,0.28101 0.23168,0.60108 0.23168,0.94071c0,1.1168 -0.90535,2.02215 -2.02215,2.02215c-0.5584,0 -1.06393,-0.22633 -1.42987,-0.59227l-1.43679,-1.43679c-2.82664,-2.82663 -5.79425,-1.92842 -9.17997,-1.02195c-0.20578,0.25805 -0.42574,0.50959 -0.6599,0.7536l-0.09128,-0.11004l0.13884,0.3471l-2.35207,0.94083c-0.24365,0.10406 -0.51189,0.16166 -0.79359,0.16166c-1.1168,0 -2.02215,-0.90534 -2.02215,-2.02215c0,-0.80725 0.47302,-1.50401 1.157,-1.82825l1.66829,-0.83415c2.52873,-2.37601 1.19263,-7.12498 -1.70748,-8.45998c0,0 -1.68266,-0.84134 -0.9905,-2.52401c-0.23966,-0.54963 -0.33588,-1.35047 0.46496,-2.15132c1.42987,-1.42988 2.85975,0 2.85975,0l0.26234,0.29107c2.50026,1.87978 4.58867,3.2922 7.90067,2.52323c2.4253,-0.5631 4.83808,-2.59511 6.89396,-2.62182c0.26644,-0.19235 0.51068,-0.36863 0.72171,-0.52546l0.2834,-0.00542l-0.0437,-0.10925l2.35206,-0.94083c0.24365,-0.10406 0.51189,-0.16166 0.79358,-0.16166c1.1168,0 2.02215,0.90535 2.02215,2.02215c0,0.86799 -0.54688,1.60824 -1.31487,1.895l-2.16305,0.86522c-4.60171,3.52402 -3.70559,6.57815 -2.81128,10.86757zM434.15024,74.50702c1.73526,-0.57831 3.70905,-0.79871 5.24185,-0.58006c-0.12547,-1.38231 -0.08632,-2.80711 0.07083,-3.91765c-1.86684,0.37442 -3.77743,0.40297 -5.6837,0.02034c0.47724,1.4295 0.60216,2.9645 0.37102,4.47737z"/><path d="M435.48238,50.69702c-0.49044,1.96178 -2.45221,1.47133 -2.45221,1.47133l-2.63856,-0.82298c-3.21105,-2.41835 -5.2852,-5.51514 -6.42319,-8.93297c-0.07792,0.03107 -0.15566,0.06211 -0.23321,0.09314c0,0 -0.06219,0.02488 -0.16848,0.05427c0.63332,3.41614 -0.34485,7.3478 -3.82796,8.62431c-3.65677,1.34016 -8.66093,-2.04564 -9.66676,-5.81066c-2.08625,5.18704 -9.21653,4.20043 -10.90304,-1.02701c-0.71445,1.56848 -2.01362,2.86712 -3.90174,3.49856c-3.52064,1.17742 -8.93617,-0.22599 -12.43062,-0.92375c0,0 -1.98288,-0.39659 -1.58631,-2.37947c0.08515,-0.42574 0.24341,-0.74179 0.43949,-0.97561c-0.00772,-10.04992 -0.27983,-21.20164 1.46893,-31.0742l3.50271,0.73082l0.47762,-0.01437c-0.00671,0.03659 -0.01339,0.07321 -0.02003,0.10984l0.05202,0.01086c0,0 -0.00002,0.45529 -0.21604,0.93379c-0.98278,5.92 -1.21429,12.30854 -1.2495,18.59589c3.74057,0.00321 8.04289,-0.10352 11.20434,2.32856c1.17032,0.90032 1.98934,2.09765 2.45503,3.40307c0.4998,-1.5746 1.22836,-2.55387 2.2493,-4.27101c0,0 0.89283,-1.48805 2.40279,-0.88007c0.94536,-0.39161 1.88966,0.23793 1.88966,0.23793l2.04908,1.59999c1.09543,1.84241 2.55032,3.85101 2.67297,6.10934c0.00399,0.07326 0.00732,0.14595 0.01004,0.21805c0.86318,-1.28543 2.32521,-2.20156 3.46936,-3.0733c0,0 0.51353,-0.38515 1.17893,-0.43211c-0.07328,-0.05396 -0.14699,-0.10857 -0.22108,-0.16387l-0.70243,0.40443c0,0 -2.02215,-0.00001 -2.02215,-2.02215c0,-2.02215 2.02215,-2.02215 2.02215,-2.02215l3.12901,0.40443c1.43192,1.07843 2.81423,2.2399 4.04801,3.54034c0.17649,0.18604 0.34402,0.38813 0.50197,0.60415c0.11497,-0.06363 0.19071,-0.09393 0.19071,-0.09393c0.27601,-0.11039 0.5546,-0.2206 0.83535,-0.3309c-0.92447,-7.26729 1.63858,-15.28864 6.05086,-21.14718c3.42012,-3.42011 12.66352,-9.8232 17.45929,-4.26745c2.67013,3.09327 -0.01975,12.61961 -1.68988,15.63341c-3.49982,6.31548 -10.55099,9.61439 -17.19037,12.29183c0.89069,2.76087 2.53654,5.25142 5.11974,7.17973l1.19287,0.13488c0,0 1.96177,0.49044 1.47133,2.45222zM426.92584,36.91184c4.67582,-1.86391 9.46322,-4.0626 12.76709,-7.70785c2.57671,-2.84295 3.32247,-6.4979 3.2998,-10.12773c-0.00736,-1.17901 1.11042,-2.52498 0.45833,-3.50726c-0.86087,-1.29678 -3.10595,0.28833 -4.66224,0.2612c-2.84672,-0.04964 -4.61074,2.08865 -6.61413,4.09205c-3.46112,4.63663 -5.69877,11.08164 -5.24885,16.98959zM417.29143,39.58062c0.44504,1.28482 -0.75679,2.18619 -0.75679,2.18619c-3.09053,2.27168 -2.78164,6.60012 2.03214,5.54652c0.98163,-0.21485 0.95016,-2.85228 0.96537,-3.02067c0.20821,-2.30605 -0.75486,-3.52674 -2.24072,-4.71203zM404.52669,37.42258c-1.38749,2.78699 -3.34426,8.39832 1.40011,7.56327c2.74185,-0.48259 -0.80814,-6.57822 -1.40011,-7.56327zM395.45058,43.32138c3.28226,-5.93579 -6.4863,-6.41557 -9.74605,-6.41837c0.00838,2.20638 0.02643,4.38454 0.02933,6.50906c3.2646,0.69038 8.75162,1.65465 9.71672,-0.09069z"/><path d="M36.48936,284.77482l0.3964,0.28818c10.49951,-6.24262 23.81781,-8.94644 35.42426,-12.65884c4.84055,-1.54828 10.17858,-4.77994 14.41442,-7.62354c1.33198,-0.89418 -2.86468,-1.48667 -4.12553,-2.47864c-5.83868,-1.05221 -11.02968,-4.28915 -16.59336,-6.15941c-3.8691,-1.30061 -7.99768,-1.89914 -12.08616,-2.65387c1.56509,1.85203 3.33539,7.75717 1.40525,9.64847c-0.71918,0.70471 -1.7064,0.97269 -2.73214,1.17789c2.61619,1.12052 4.70862,3.68877 3.51295,6.9021c-1.83314,4.92649 -10.97237,6.70391 -15.21856,7.94254l-1.52396,0.08085c0,0 -2.02215,0 -2.02215,-2.02215c0,-2.02215 2.02215,-2.02215 2.02215,-2.02215l0.39176,0.08085c3.71923,-1.08418 7.10498,-1.98806 10.42809,-4.03004c0.964,-0.59236 3.03323,-1.09161 1.82006,-2.55678c-0.65306,-0.78871 -1.67865,-1.61502 -2.7739,-2.43948l-0.45128,0.67694l-2.84747,-1.89832c-0.5575,-0.36005 -0.92656,-0.98689 -0.92656,-1.69993c0,-1.01499 0.7478,-1.85531 1.7225,-2.0001l2.84078,-0.47347l0.00125,0.00754c6.1878,-0.60418 -1.90323,-9.77607 -7.33857,-3.76695c0,0 -1.42988,1.42987 -2.85976,0c-1.42988,-1.42988 0,-2.85975 0,-2.85975c1.5292,-1.43727 3.5988,-2.51982 5.79246,-2.99536c-3.86498,-1.48016 -8.17015,-3.8483 -12.20341,-4.71729c2.3775,12.24256 1.72122,26.2916 1.72122,38.57001v0.71089c0.51937,-1.03021 1.80927,-1.03021 1.80927,-1.03021zM27.76222,244.17239c0,-0.86389 0.36906,-1.3587 0.79184,-1.64213c0.22294,-0.34098 0.59814,-0.64341 1.21879,-0.79857c1.00024,-0.25006 1.618,0.13736 1.98327,0.57722c5.52039,0.76346 11.08816,4.04443 16.36998,5.68631c6.26887,1.94871 13.01615,2.27797 19.19198,4.32196c5.72532,1.89488 10.98361,5.00763 16.9316,6.29272c1.86336,1.34776 7.60433,3.73066 6.41089,7.09992c-1.17867,3.32755 -9.89928,7.44492 -13.01936,8.99802c-12.22519,6.0854 -26.9612,6.72005 -38.67467,13.82313l-2.47717,0.28816c0,0 -1.29131,0 -1.81012,-1.0319c-0.01051,0.25944 -0.15075,1.98976 -2.0213,1.98976c-2.02215,0 -2.02215,-2.02215 -2.02215,-2.02215v-2.6607c0,-12.48452 0.75932,-26.90215 -1.93057,-39.18797c-0.48186,-0.26359 -0.943,-0.76811 -0.943,-1.73378z"/><path d="M157.1792,272.53557c-2.02215,0 -2.02215,-2.02215 -2.02215,-2.02215l0.00689,-2.56143c0.01798,-0.10899 0.03621,-0.2178 0.05467,-0.32642c-7.34973,-2.47192 -4.53663,-12.12685 1.00965,-17.69913c0,0 1.42988,-1.42988 2.85975,0c1.42988,1.42988 0,2.85974 0,2.85974c-2.81736,2.80222 -4.18334,4.60741 -4.19701,8.62761c-0.00161,0.47147 -0.50546,2.19599 0.46506,2.58244c0.11732,0.04671 0.31347,0.08301 0.55996,0.11111c0.47419,-2.08641 1.05008,-4.13519 1.73944,-6.20657c0,0 0.63945,-1.91838 2.55784,-1.27892c1.91839,0.63946 1.27892,2.55784 1.27892,2.55784c-0.56398,1.6891 -1.05209,3.36351 -1.46522,5.06087l2.33806,0.45856c0,0 1.98288,0.39657 1.58631,2.37946c-0.39658,1.98288 -2.37947,1.58631 -2.37947,1.58631l-2.19732,-0.4495c-0.05636,0.00007 -0.11241,-0.00011 -0.16814,-0.00053c-0.00401,0.02357 -0.008,0.04713 -0.01198,0.07072l0.0069,2.22785c0,0 0,2.02215 -2.02215,2.02215z"/><path d="M162.81989,276.26055c0,-1.1168 0.90535,-2.02215 2.02215,-2.02215c1.1168,0 2.02215,0.90535 2.02215,2.02215c0,1.1168 -0.90534,2.02215 -2.02215,2.02215c-1.1168,0 -2.02215,-0.90534 -2.02215,-2.02215z"/><path d="M187.45809,276.73948c0,2.02215 -2.02215,2.02215 -2.02215,2.02215l-1.35442,-0.03926c-5.7446,-1.14958 -14.39501,-3.81565 -10.5011,-12.00782c1.54307,-3.24637 6.73562,-3.86798 7.97498,-7.21561c1.3288,-3.5892 -6.4865,-2.43045 -7.43279,-0.70328c0,0 -1.21329,1.61772 -2.83101,0.40443c-1.61772,-1.21329 -0.40443,-2.83101 -0.40443,-2.83101c3.57937,-4.18018 17.0811,-5.06969 14.59789,4.08598c-1.19512,4.40643 -6.41788,4.69671 -8.30857,8.11009c-1.12064,2.02317 0.69173,4.85503 2.57827,5.26912c1.69378,0.37178 3.41944,0.58242 5.1199,0.92233l0.56128,-0.03927c0,0 2.02215,0 2.02215,2.02215z"/><path d="M178.7554,243.32278c-0.45299,1.71072 -2.27259,1.40745 -2.27259,1.40745c-8.11505,-1.3529 -14.59158,-1.50452 -22.57993,0.90769c-2.80545,0.84715 -8.40707,3.31755 -9.78757,6.19361c-1.03536,2.15703 -0.86165,6.21538 -0.72368,8.48105c0.16553,2.71808 1.01964,4.08972 2.18625,6.42294c7.70328,15.52763 35.13687,30.06434 48.69115,13.22447c5.54353,-11.23139 -1.57879,-20.3922 -8.07077,-29.32582c-2.12976,-2.93077 -4.13045,-5.65994 -7.44286,-7.31139zM163.32047,239.73103c-0.01413,-0.10875 -0.02165,-0.22458 -0.02165,-0.34792c0,-2.02215 2.02215,-2.02215 2.02215,-2.02215l1.83336,0.03927c4.33172,0.88405 8.72809,0.17798 12.90052,2.06145c4.18776,1.89039 6.79502,5.19526 9.40805,8.78534c7.60695,10.45132 14.75181,20.94106 8.21278,33.89267c-15.54958,19.5331 -46.43503,4.84039 -55.71514,-13.5955c-1.40761,-2.81521 -2.36767,-4.64625 -2.60304,-7.9449c-0.21281,-2.98256 -0.2336,-7.88487 1.19204,-10.67608c3.88606,-7.60842 13.55945,-9.95425 22.77092,-10.19218z"/><path d="M304.75617,276.65713c-0.39657,1.98288 -2.37946,1.5863 -2.37946,1.5863l-2.37124,-0.4822c-0.04214,1.95825 -2.02148,1.95826 -2.02148,1.95826h-0.47893c-12.54879,0 -20.01105,-2.89814 -28.7921,-11.67388c-10.96585,-13.28376 0.17622,-30.09006 15.47864,-33.04281c4.30475,-0.83064 9.77441,-0.14576 14.07835,0.46276c0,0 1.03116,0.14731 1.50761,0.97054c0.61016,0.08762 1.43461,0.43731 1.63784,1.65671c0.33244,1.99464 -1.6622,2.32707 -1.6622,2.32707c-14.98377,2.13454 -14.86703,22.03899 -4.53753,29.81018c2.1982,1.12077 3.44334,2.73861 5.73915,3.61324l2.21501,0.43437c0,0 1.98289,0.39657 1.58631,2.37946zM293.08948,273.67035c-11.71564,-8.76599 -12.48176,-27.6817 -0.53828,-34.83275c-2.61443,-0.23205 -5.29916,-0.28729 -7.59478,0.13653c-12.06626,2.22771 -22.28476,15.63561 -13.25704,26.34425c7.66595,7.67052 13.94239,10.17372 24.5725,10.34699c-0.97812,-0.6901 -1.94632,-1.39078 -3.18241,-1.99502z"/><path d="M276.91117,261.99915c-2.02215,0 -2.02215,-2.02215 -2.02215,-2.02215v-2.39464c0.00335,-2.16524 0.22808,-4.32809 0.49454,-6.47688c0,0 0.25081,-2.00654 2.25735,-1.75572c2.00654,0.25082 1.75572,2.25736 1.75572,2.25736c-0.24986,1.98204 -0.46676,3.97752 -0.46332,5.97524v2.39464c0,0 0,2.02215 -2.02215,2.02215z"/><path d="M276.32581,245.13024c0,-1.1168 0.90535,-2.02215 2.02215,-2.02215c1.1168,0 2.02215,0.90534 2.02215,2.02215c0,1.1168 -0.90535,2.02215 -2.02215,2.02215c-1.1168,0 -2.02215,-0.90535 -2.02215,-2.02215z"/><path d="M413.29859,245.55564c-0.90434,1.80866 -2.71299,0.90433 -2.71299,0.90433l-1.26682,-0.66987c-0.62491,-0.46878 -1.25341,-0.99767 -1.86169,-1.57629c-0.85732,0.90705 -1.89738,1.58929 -3.15195,1.9234c-1.446,0.3851 -3.5042,-0.08111 -4.64139,-1.10917l0.06696,0.31228c-1.5432,0.50335 -3.19328,2.26627 -4.62959,1.51006c-1.03064,-0.54262 -1.51221,-1.31323 -1.62117,-2.18811c-0.55457,0.15825 -1.06479,0.05621 -1.06479,0.05621l-2.57427,-0.52349c-0.45937,-0.18249 -0.90689,-0.36646 -1.34385,-0.55332c0.2808,1.09485 0.60935,2.17777 0.96487,3.24375l0.47893,1.43679c0,0 0.63946,1.91837 -1.27892,2.55784c-1.91839,0.63947 -2.55784,-1.27892 -2.55784,-1.27892l-0.47893,-1.43679c-0.4691,-1.40804 -0.89702,-2.8636 -1.24499,-4.34677c-0.46352,-0.04632 -0.96828,-0.28145 -1.39274,-0.91814c-0.62761,-0.9414 -0.37732,-1.70723 -0.03505,-2.19924c-1.54742,-1.03304 -3.01532,-2.23666 -4.50157,-3.71864c0,0 -1.42987,-1.42988 0,-2.85975c1.42987,-1.42988 2.85975,0 2.85975,0c0.73073,0.73302 1.45076,1.38448 2.17874,1.97343c0.05307,-2.18895 0.40902,-4.3648 1.18367,-6.46803c0.885,-2.40282 3.90136,-7.22566 7.11601,-7.07018c2.9654,0.14343 2.55883,4.74158 2.56598,6.28966c0.02238,4.84363 -1.46733,8.23938 -4.24367,11.10657c0.28791,0.12246 0.58172,0.24395 0.88201,0.36509l2.21501,0.43436c0,0 0.65184,0.13037 1.13331,0.61535c1.07074,-1.95277 2.84599,-3.73552 3.79184,-4.27256c0,0 1.80867,-0.90433 2.71301,0.90434c0.42487,0.84973 0.25091,1.49985 -0.05297,1.95037l0.81988,1.09318l-0.27094,0.2032c1.15957,0.79083 2.33819,1.07525 3.30671,-0.2612c0.01148,-0.01585 0.02295,-0.03172 0.03439,-0.04764c-2.23112,-3.37219 -3.12995,-7.46273 -0.21081,-11.19031c1.1143,-1.4229 1.9865,-3.76532 3.79034,-3.87685c3.28969,-0.20339 2.84224,4.81503 2.85436,6.3286c0.01956,2.44423 -0.38873,5.93305 -1.64522,8.83675c0.77433,0.54679 1.61225,1.02316 2.27314,1.51872l0.64889,0.28798c0,0 1.80867,0.90434 0.90434,2.713zM387.55171,236.95279c1.39441,-1.44582 2.39018,-3.16606 2.78504,-5.55644c0.13853,-0.83856 -0.03141,-1.69975 -0.0261,-2.54966c0.00195,-0.31187 0.12759,-0.84826 0.27016,-1.34365c-0.61228,1.17339 -1.65175,2.17703 -2.08244,3.43669c-0.68093,1.99155 -0.95683,4.00541 -0.94666,6.01306z"/><path d="M425.85085,251.82832c-1.42987,1.42988 -2.85976,0 -2.85976,0l-0.85771,-1.00447c-0.22476,-0.47385 -0.43643,-0.97916 -0.6245,-1.50555c-0.49799,0.25233 -1.53857,0.58378 -2.41211,-0.42496c-0.86263,3.20397 -1.87401,2.70843 -4.81563,3.48799l-0.8755,0.03927c0,0 -2.02215,0 -2.02215,-2.02215c0,-2.02215 2.02215,-2.02215 2.02215,-2.02215l0.08235,0.03927c5.54901,-0.36571 -4.93613,-10.59296 3.96286,-12.47394c1.16728,-0.24672 2.27385,0.72335 3.41078,1.08503c0,0 1.87752,0.75102 1.12652,2.62853c-0.75101,1.87751 -2.62853,1.12651 -2.62853,1.12651c-2.96625,-1.78747 -1.14675,2.52794 -0.3927,5.5438c0.20758,-0.26702 0.40935,-0.41834 0.40935,-0.41834c0.42156,-0.31408 0.87167,-0.58652 1.32931,-0.8479c0.00054,-0.73945 0.08694,-1.46999 0.28259,-2.16864c0.71522,-2.5541 2.54424,-8.30972 7.03106,-3.19242c2.24931,2.56537 -0.33515,5.21681 -2.91406,7.15047c0.06885,0.7102 0.24448,1.42512 0.64556,2.16652l0.10014,-0.04662c0,0 1.42987,1.42988 0,2.85975z"/><path d="M361.53779,255.54882c0.97271,0.89972 2.65004,0.01627 3.97505,0.0114c24.0586,0 47.78657,-2.39464 71.89236,-2.39464c1.60105,0 9.17214,1.09903 10.40406,0.20495c1.15247,-0.83642 -1.15096,-2.62956 -1.42755,-4.02645c-0.64949,-3.28035 -1.24199,-7.42439 -1.46819,-10.77548c-0.36563,-5.41673 1.99442,-14.40479 0.1945,-19.38235c-0.53265,-1.47298 -3.26864,-0.78102 -3.92457,-0.76953c-5.28121,0.09259 -10.32831,-0.01031 -15.54309,0.94088c-22.29116,1.7982 -44.36597,0.88513 -66.60919,3.35711c0,0 -0.03757,0.00417 -0.10302,0.00625c0.19438,7.51299 2.36987,14.42869 2.38079,21.93038l0.37516,0.79732c0,0 0.63947,1.91837 -1.27891,2.55784c-0.26186,0.08729 -0.49989,0.12691 -0.71571,0.13027c0.23833,2.83784 0.61558,6.27184 1.84832,7.41207zM358.58454,218.69513c22.22111,-2.46851 44.26335,-1.59652 66.53277,-3.34788c5.42509,-0.98326 20.28627,-3.89934 23.63585,2.08705c1.15463,2.06356 0.19958,8.0776 0.19958,10.45453c0,6.90023 0.03575,13.94089 1.40029,20.69043c0.49885,2.46753 3.18982,4.50952 0.48816,7.4678c-2.11054,2.31102 -10.58984,1.16281 -13.43599,1.16281c-24.10597,0 -47.83145,2.39464 -71.89236,2.39464c-9.15524,-0.02932 -8.86534,-6.5176 -10.13642,-14.14183l-0.02751,-1.29031c0,0 0,-1.90034 1.84223,-2.01659c-0.40255,-6.88215 -2.32116,-13.42117 -2.32116,-20.49302c0,0 0,-2.02215 2.02215,-2.02215c0.04761,0 0.09412,0.00111 0.13951,0.0033c0.49567,-0.83132 1.55289,-0.94879 1.55289,-0.94879z"/><path d="M373.65462,261.30735c1.34717,0 1.79684,0.89748 1.94694,1.49663c5.90642,1.08321 11.07666,5.31178 16.95389,7.24967c9.76876,3.22102 20.59869,6.11967 30.90766,6.10046c8.60654,0 18.01527,0.3514 26.16371,-2.76412c5.64173,-2.15709 10.37792,-6.45057 16.31675,-7.67885l2.22412,-0.88964c0.24365,-0.10406 0.51189,-0.16167 0.79359,-0.16167c1.1168,0 2.02215,0.90535 2.02215,2.02215c0,0.80725 -0.47302,1.50402 -1.15701,1.82826l-1.87652,0.93827l-0.07669,-0.15338l-0.55557,0.22224l-0.01078,-0.02695c-3.3754,2.9158 -7.21767,5.12725 -10.24881,8.59767c-7.96477,9.11906 -12.75061,24.995 -8.70763,36.74901c1.15713,2.91282 2.68334,5.68659 4.56859,8.1879l0.02322,0.10755l0.03268,-0.01961l1.41969,2.36614c0.19348,0.31011 0.30526,0.67645 0.30526,1.06889c0,1.1168 -0.90535,2.02215 -2.02215,2.02215c-0.48374,0 -0.9278,-0.16985 -1.2758,-0.45317l-2.38206,-1.90566l0.17127,-0.21407c-5.68336,-2.7387 -10.93825,-6.11004 -17.25052,-8.0616c-11.71735,-3.62264 -24.16186,-2.77548 -36.2553,-2.77548c-9.87714,0 -17.54652,0.06361 -26.52429,4.37334l-1.26043,1.26045c-0.36594,0.36594 -0.87149,0.59228 -1.42989,0.59228c-1.1168,0 -2.02215,-0.90535 -2.02215,-2.02215c0,-0.33963 0.08373,-0.65971 0.23168,-0.94072l0.93966,-1.87933l0.54073,0.27038l0.31698,-0.31698l0.00517,0.00516c1.87908,-4.09888 5.44422,-6.85986 7.75495,-11.44705c4.44192,-8.81797 6.00651,-24.54968 1.4757,-33.56903c-1.1976,-2.00384 -1.81639,-4.17986 -3.48868,-5.76926l-0.59227,-2.38774c0,0 0,-2.02215 2.02215,-2.02215zM378.17552,267.5852c0.33454,0.63783 0.68223,1.28971 1.08315,1.95514c2.36464,4.74732 3.32055,10.90568 3.16939,17.15663c0.60382,-1.12493 2.01379,-0.94867 2.01379,-0.94867c0.59777,0.07493 1.18996,0.16083 1.77905,0.24962c0.30861,-1.01362 0.59076,-2.00266 0.77654,-2.95002c0,0 0.39657,-1.98287 2.37946,-1.5863c1.98288,0.39657 1.58631,2.37946 1.58631,2.37946c-0.1578,0.77599 -0.46148,1.70212 -0.80388,2.70556c0.87621,0.09098 1.75765,0.14792 2.65242,0.14391h0.95785c0,0 2.02215,0 2.02215,2.02215c0,2.02215 -2.02215,2.02215 -2.02215,2.02215h-0.95785c-1.32376,-0.00502 -2.60985,-0.11995 -3.89002,-0.27911c-0.54168,2.12589 -0.72612,4.20504 0.25624,5.68698c0.83848,1.26486 4.1599,1.5999 5.49596,2.25558l0.05353,-0.21348c0,0 2.02215,0 2.02215,2.02215c0,2.02215 -2.02215,2.02215 -2.02215,2.02215l-1.86219,-0.21347c-2.4025,-1.23007 -5.21449,-1.00603 -6.95616,-3.49155c-1.84524,-2.63333 -1.59149,-5.63506 -0.84072,-8.61268c-0.37367,-0.0523 -0.74948,-0.10283 -1.12817,-0.15002c0,0 -1.145,-0.14313 -1.597,-1.07808c-0.40519,6.63317 -2.01918,13.21355 -4.48242,18.16938c-0.66632,1.34058 -2.18192,4.07913 -3.93887,6.49684c6.96218,-2.12983 13.73761,-2.23364 21.76337,-2.23364c14.96907,0 28.45098,0.10407 42.78512,4.89305c1.80033,0.60148 4.60358,1.44743 7.13685,2.63707c-0.37471,-0.79424 -0.72568,-1.6008 -1.05438,-2.4178c-4.1304,-12.70366 0.26403,-27.57662 7.41026,-38.23074c0.429,-0.63957 0.89695,-1.25453 1.39634,-1.84685c-0.7937,0.39257 -1.59846,0.75342 -2.42014,1.06482c-8.59181,3.25619 -18.40716,2.98302 -27.47624,2.98302c-10.76815,-0.01816 -22.11492,-2.92034 -32.31081,-6.35167c-4.30842,-1.44995 -8.65461,-4.69813 -12.97678,-6.26155z"/><path d="M423.46311,289.08517c2.02215,0 2.02216,2.02215 2.02216,2.02215v0.95786c-0.03983,2.81034 -0.55264,7.8863 -2.92873,9.98991c-2.92987,2.59388 -5.90217,2.34409 -8.00548,0.28954c-0.14116,0.09994 -0.24109,0.14992 -0.24109,0.14992l-2.35545,1.11725c-3.49443,0.01898 -8.46221,-1.52138 -8.74083,-5.35257c-0.05455,0.1205 -0.11277,0.22351 -0.17424,0.30159c-0.62622,0.7955 -1.74559,1.02605 -2.61839,1.53909c0,0 -1.80867,0.90433 -2.713,-0.90434c-0.90434,-1.80867 0.90434,-2.713 0.90434,-2.713c1.0602,-0.32916 0.86573,-2.15845 1.74435,-2.83699c1.298,-1.00241 3.07096,-1.92827 4.66789,-1.55484c4.78123,1.11804 0.18711,7.51879 6.0007,7.58494l1.41468,-0.76531c-0.00399,-0.01103 -0.00795,-0.02208 -0.01191,-0.03314c-0.11879,-0.33188 -0.08677,-7.18232 -0.08677,-7.29098c0,0 0,-2.02215 2.02215,-2.02215c2.02215,0 2.02215,2.02215 2.02215,2.02215c0,2.03987 -0.65695,4.16044 -0.08676,6.11901c2.00072,6.87222 5.18056,-3.5862 5.14209,-5.64007v-0.95786c0,0 0,-2.02215 2.02215,-2.02215z"/><path d="M437.9374,303.55944c0,2.02215 -2.02215,2.02215 -2.02215,2.02215l-0.87551,-0.03926c-3.00482,-0.65534 -4.90024,-1.41667 -5.83727,-3.73093c-1.03331,-0.00777 -2.02611,-0.06245 -2.86579,-0.06123c0,0 -2.02215,0 -2.02215,-2.02215c0,-2.02215 2.02215,-2.02215 2.02215,-2.02215c0.5702,0.0009 1.37604,0.02035 2.23332,0.0184c0.1107,-3.14757 1.39729,-7.36134 5.27451,-6.69728c4.05171,0.69394 3.42065,5.27362 2.44261,7.68965c-0.47106,1.16366 -1.29138,1.89885 -2.29299,2.35894c0.43795,0.19376 1.03524,0.36116 1.83875,0.50098l0.08235,-0.03927c0,0 2.02215,0 2.02215,2.02215z"/></g></g></svg>