<svg version="1.1" xmlns="http://www.w3.org/2000/svg" xmlns:xlink="http://www.w3.org/1999/xlink" width="177.20494" height="119.72835" viewBox="0,0,177.20494,119.72835"><g transform="translate(-195.05967,-116.32539)"><g data-paper-data="{&quot;isPaintingLayer&quot;:true}" fill="#9966ff" fill-rule="nonzero" stroke="none" stroke-width="0.5" stroke-linecap="butt" stroke-linejoin="miter" stroke-miterlimit="10" stroke-dasharray="" stroke-dashoffset="0" style="mix-blend-mode: normal"><path d="M323.62165,169.65907c-1.76777,-1.76777 0,-3.53553 0,-3.53553l0.68417,-0.61552c6.58233,-4.38309 12.63371,-9.50349 19.00982,-14.14609c5.05545,-3.68099 10.82788,-6.19898 15.63571,-10.24686c2.3282,-1.96019 4.85052,-3.72918 6.90184,-5.9775c0.49714,-0.54488 0.73886,-1.28024 1.03541,-1.95559c0.13343,-0.30387 0.5326,-0.79577 0.24685,-0.96455c-0.59147,-0.34935 -1.38182,0.01508 -2.05813,-0.10527c-3.76967,-0.67084 -7.64487,-1.95356 -11.33729,-2.91569c-8.08957,-2.10829 -16.3217,-3.71071 -24.32767,-6.13854c-1.49069,-0.45205 -2.94723,-1.00992 -4.4234,-1.50735c-0.40819,-0.13755 -0.92097,-0.69808 -1.22955,-0.39755c-0.45281,0.44099 -0.10039,1.27046 -0.28687,1.87439c-0.85987,2.78472 -1.81094,5.54073 -2.6709,8.32543c-1.48555,4.81046 -1.40064,8.73733 -1.40064,13.81003c0,6.66667 0,13.33333 0,20c0,0 0,0.97682 -0.61059,1.70927c0.0183,0.01405 0.03652,0.02822 0.05467,0.04252c2.03657,1.60516 1.7611,5.2614 1.76855,7.49663c0.0322,9.65071 0,19.30208 0,28.95285c-0.0179,6.63613 0.10996,13.29139 -0.17249,19.92308c-0.08411,1.97483 0.36498,4.0716 -0.33416,5.92045c-1.52638,4.03645 -5.46634,3.5961 -8.81637,4.11456c-2.77785,0.42991 -5.57354,0.75981 -8.37621,0.975c-19.44441,1.49295 -38.56239,1.95441 -58.06273,1.68281c-5.22196,-0.53304 -10.05862,-0.89783 -15.09652,-2.44962c-1.89697,-0.58431 -4.06262,-0.66644 -5.66329,-1.84023c-3.65487,-2.68015 -2.63689,-9.37178 -2.34254,-13.21809c1.03266,-13.49393 2.5382,-27.39968 1.37583,-40.98044c-0.59997,-0.22301 -1.19908,-0.7218 -1.43278,-1.79055c-0.49043,-2.2428 1.52912,-2.87637 1.86231,-2.96491c0.32982,-0.32624 0.81229,-0.58192 1.51654,-0.66017c0.43832,-0.0487 0.80791,-0.01149 1.11938,0.08284l0.4179,-0.09131c9.18456,-1.61728 18.54498,-2.12342 27.86596,-2.13304c16.39214,-0.01383 32.48619,-0.5352 48.75651,-2.70229c2.93446,-0.39085 7.42264,-1.87145 11.20263,-1.71918c-0.03258,-0.21175 -0.03258,-0.35021 -0.03258,-0.35021c0,-11.46159 -1.74497,-24.30042 1.63094,-35.31c0.88817,-2.89653 1.54747,-5.88648 2.78594,-8.65142c0.64084,-1.43071 0.82868,-3.32721 2.13839,-4.18877c2.80645,-1.84613 7.46731,0.53142 9.89704,1.25737c7.95763,2.37756 16.11589,3.9956 24.14748,6.08797c3.71614,0.96831 7.67503,1.7513 11.34075,2.91659c1.56276,0.49678 3.58528,0.43453 4.61134,1.71368c4.02502,5.01777 -2.21937,10.18612 -5.23796,12.85169c-6.07732,5.3666 -12.96507,8.82641 -19.45393,13.56236c-6.42771,4.69132 -12.5453,9.83676 -19.18166,14.26592l0.07786,-0.0092c0,0 -1.76777,1.76777 -3.53553,0zM228.08808,176.88375c1.06246,12.12767 0.39121,25.07127 -0.86098,37.04726c-0.36834,3.52284 -0.534,6.8299 -0.59246,10.34768c-0.00922,0.55462 -0.44296,2.98209 0.57437,3.50215c1.20281,0.61488 2.63537,0.59816 3.94017,0.94788c4.73304,1.26857 9.10954,1.75651 13.99144,2.2597c17.5835,0.22757 34.87081,0.04899 52.4064,-1.29458c4.40679,-0.33765 8.6559,-0.75743 13.03647,-1.32134c1.67309,-0.21538 4.69365,0.52949 4.93046,-1.14071c1.07841,-7.60615 0.07891,-16.1779 0.09967,-23.87438c0,-7.98204 0,-15.96407 0,-23.94611c0,-1.66667 -0.00612,-3.33334 0,-5c0.00456,-1.24158 0.99906,-3.06095 -0.05039,-3.72443c-1.94269,-1.22819 -4.58453,0.38777 -6.85425,0.7495c-3.26782,0.5208 -6.55148,0.94512 -9.84028,1.31074c-14.85433,1.6514 -29.4469,2.17483 -44.39005,2.18744c-8.81858,0.00573 -17.69398,0.45348 -26.39058,1.94919z"/><path d="M231.80819,170.43053c-2.23607,-1.11803 -1.11803,-3.3541 -1.11803,-3.3541l1.18782,-2.3742c3.31217,-7.45128 5.28854,-15.20282 7.51099,-23.00995c0.41167,-1.44615 0.96598,-2.85024 1.35162,-4.30355c0.18106,-0.68232 0.70448,-1.48211 0.34481,-2.08955c-0.23225,-0.39224 -0.67745,0.64769 -1.1051,0.80551c-0.81937,0.30239 -1.70797,0.36618 -2.56224,0.5479c-3.30426,0.70288 -6.62984,1.31145 -9.96802,1.8298c-5.02768,0.77799 -10.10184,1.38786 -15.19249,1.59112c-2.83361,0.11314 -5.74717,-0.94341 -8.50316,-0.27509c-0.43747,0.10609 -0.3393,0.8353 -0.5465,1.23493c-0.46359,0.89413 -0.94802,1.77818 -1.46417,2.64303c-1.90488,3.1918 -1.47946,4.38557 -1.48381,8.14755c-0.00104,0.90092 -0.20283,5.5931 0.38909,6.86283c0.08366,0.17947 3.84721,4.52339 4.05267,4.7289c3.92825,3.92919 8.06274,6.95022 13.30119,8.79076c0,0 2.35435,0.84084 1.51351,3.1952c-0.84084,2.35435 -3.1952,1.51351 -3.1952,1.51351c-6.90064,-2.49918 -12.7816,-6.85042 -17.44696,-12.57313c-0.96218,-1.18024 -2.16942,-2.22648 -2.79077,-3.61669c-1.58138,-3.53821 -0.8721,-8.47095 -0.82354,-12.23612c0.05229,-4.05431 1.39911,-6.79025 3.72149,-10.12732c0.74311,-1.06779 1.27802,-2.52413 2.48508,-3.00929c1.05809,-0.42528 9.17954,-0.21871 10.59158,-0.27509c4.90011,-0.19566 9.78679,-0.78385 14.62571,-1.53603c4.05925,-0.62873 8.44662,-2.16863 12.52735,-2.37725c1.65186,-0.08445 3.79588,-0.97771 4.95806,0.1992c3.41158,3.45481 0.98111,8.22606 0.03558,11.67359c-2.2205,8.09617 -4.3836,16.09995 -7.80501,23.79917l-1.23745,2.47633c0,0 -1.11803,2.23607 -3.3541,1.11803z"/></g></g></svg>