<svg version="1.1" xmlns="http://www.w3.org/2000/svg" xmlns:xlink="http://www.w3.org/1999/xlink" width="217.88074" height="171.2167" viewBox="0,0,217.88074,171.2167"><g transform="translate(-175.81664,-50.79693)"><g data-paper-data="{&quot;isPaintingLayer&quot;:true}" fill="#9966ff" fill-rule="nonzero" stroke="none" stroke-width="0.5" stroke-linecap="butt" stroke-linejoin="miter" stroke-miterlimit="10" stroke-dasharray="" stroke-dashoffset="0" style="mix-blend-mode: normal"><path d="M195.18196,153.36103c-3.89146,-5.10406 -7.01474,-10.67121 -10.92709,-15.78156c-1.67087,-2.18251 -3.51487,-4.24566 -4.98851,-6.56591c-1.96946,-3.10093 -4.66223,-8.00005 -2.8512,-11.81645c1.61601,-3.40542 8.04697,-4.81366 11.01476,-6.6782c0.70376,-0.14683 6.98775,-1.50295 8.40048,-1.66158c1.81607,-0.20392 3.88093,-1.28225 5.46935,-0.37857c3.74001,2.12775 3.62517,7.40443 4.10433,10.79917c1.9435,13.76926 1.81446,27.61477 5.96212,41.02763l0.09865,0.14338c4.18318,-0.67829 9.00661,-0.07803 13.23378,-0.08886c15.59185,-0.48805 31.12811,-1.21299 46.72868,-1.21299c0.86239,0 1.78581,-0.0276 2.74976,-0.06233c0.26189,-0.38076 0.53903,-0.60247 0.53903,-0.60247c7.75101,-6.20062 14.32326,-13.77346 20.90157,-21.21855c2.38368,-2.69777 4.256,-5.47642 6.79198,-8.01236c1.47476,-1.47474 3.00332,-4.06847 5.29685,-4.56251c0.85397,-0.18395 9.59547,0.34523 10.82944,0.4127c7.10924,0.38871 13.92631,0.76388 20.88314,2.32595c-0.77925,1.91604 -1.07322,4.11123 -2.33774,5.74814c-0.87652,1.13465 -2.518,1.37441 -3.74169,2.1216c-2.88151,1.75947 -5.41017,3.59617 -8.21731,5.47101c-5.4278,3.62514 -10.96188,7.01873 -16.74678,10.0472c-2.55118,1.33557 -6.24245,1.29994 -8.42866,3.10108c-2.2399,1.84538 -4.35782,4.38277 -6.44024,6.46673l-1.21263,1.21263c0,0 -0.30818,0.30818 -0.79586,0.53851c0.06386,0.05578 0.12705,0.11249 0.18955,0.17016c2.29508,2.11773 1.92352,4.26807 1.94486,6.92145c0.03436,4.26913 0.13687,8.51614 0.29031,12.78266c1.80813,10.76436 1.08704,21.35563 1.72274,32.15069c0.53902,0.34587 1.01853,0.96125 1.01853,2.05614c0,2.5 -2.5,2.5 -2.5,2.5l-0.63712,-0.0104c-0.08731,0.00684 -0.17806,0.0104 -0.27236,0.0104c-0.04845,0 -0.09596,-0.00095 -0.14255,-0.00278c-3.71774,0.39748 -7.42011,0.28569 -11.14926,0.59866c-10.50916,1.04075 -21.35415,0.61676 -31.91031,0.61676c-14.90456,0 -29.80914,0 -44.7137,0c0,0 -2.5,0 -2.5,-2.5c0,-0.01175 0.00006,-0.02346 0.00017,-0.0351c-0.09841,-0.17779 -0.14415,-0.29973 -0.14415,-0.29973c-1.7867,-4.96299 -0.83564,-9.62516 -0.45224,-14.74443c0.71085,-9.4914 -0.12936,-18.73041 1.18239,-28.24259c0.29265,-2.12214 0.47667,-4.25908 0.62646,-6.39606c0.10801,-1.54092 -0.50306,-3.4583 0.20578,-4.74042c-3.65957,-3.47529 -6.00178,-7.57754 -9.07531,-11.6088zM205.22501,158.70658c-2.45984,-10.52661 -2.79979,-21.11471 -4.04076,-31.89001c-0.36163,-3.13999 -0.6475,-6.29722 -1.25847,-9.39835c-0.16805,-0.85296 -0.07722,-2.07588 -0.8552,-2.46388c-0.7615,-0.37978 -1.58747,0.62665 -2.41276,0.83405c-2.42141,0.6085 -4.91065,0.90536 -7.36373,1.37c-2.08835,1.34739 -4.43273,2.25909 -6.72508,3.21918c-0.59903,0.25089 -1.38538,0.42884 -1.66227,1.0163c-0.29522,0.62635 0.02718,1.39864 0.2091,2.06675c0.83152,3.05383 3.11768,6.20813 4.97358,8.63672c4.54989,5.95388 8.51489,12.25197 13.0358,18.18948c2.16384,2.84187 3.909,5.76524 6.09981,8.41976zM288.75848,160.06038l1.21263,-1.21263c2.16546,-2.16394 4.49624,-5.04368 6.89871,-6.87223c2.75871,-2.09968 6.23937,-2.01887 9.22929,-3.61177c5.59857,-2.9827 10.97177,-6.23053 16.24617,-9.75337c1.99313,-1.33123 5.03551,-4.1579 8.00741,-5.758c-0.73149,-0.02041 -1.46089,-0.07983 -2.15284,-0.12949c-4.97161,-0.35676 -9.94802,-0.57018 -14.92064,-0.90125c-1.38831,-0.09243 -2.77899,-0.50128 -4.16056,-0.33634c-1.52418,0.18196 -2.10618,2.23418 -3.19158,3.3196c-2.45346,2.4535 -4.2325,5.12495 -6.54697,7.75185c-5.60915,6.36633 -11.24412,12.79959 -17.55795,18.4524c2.16217,0.11846 4.27828,0.42721 6.16305,1.11102c-0.12775,-1.15877 0.77327,-2.05979 0.77327,-2.05979zM288.94857,184.51497c-0.17431,-4.43391 -0.35697,-8.84961 -0.31601,-13.28893c0.00628,-0.68077 0.40515,-2.69997 -0.4804,-3.38592c-3.98246,-3.08479 -12.04543,-1.69303 -16.72487,-1.69303c-15.57224,0 -31.08026,0.7267 -46.64399,1.21228c-4.35019,0.01182 -8.70304,-0.02905 -13.05176,0.11038c-1.07754,0.03455 -2.40284,-0.52454 -3.22997,0.16693c-0.54862,0.45864 0.4729,1.36265 0.5499,2.07358c0.29332,2.70816 -0.29254,4.30193 -0.67461,7.0883c-1.2923,9.42471 -0.46439,18.58499 -1.15444,27.99938c-0.29949,4.08595 -1.38607,8.17994 0.00107,12.13023c14.27635,0 28.55271,0 42.82906,0c10.39781,0 21.10467,0.44977 31.45392,-0.59588c3.04913,-0.25241 6.0836,-0.21442 9.11894,-0.41974c-0.56896,-10.54006 0.06282,-20.8819 -1.67683,-31.39757z"/><path d="M244.49712,194.47269c-1.71082,-1.29112 -3.41649,-2.35092 -4.74116,-2.59728c-2.47288,-0.4599 -6.60924,1.75743 -8.3148,3.46621c-0.08338,0.08354 -1.67046,2.70412 -0.97843,3.23288c0.50833,0.3884 1.27662,-0.13707 1.91588,-0.11263c1.21097,0.04629 3.26249,0.61003 4.51755,0.13389c1.57271,-0.59664 2.80742,-1.8685 4.30993,-2.62472l1.99979,-1.14717c0,0 0.56922,-0.32527 1.29124,-0.35118zM245.68658,199.16508l-2.24442,1.27809c-3.27749,1.62629 -4.78166,3.22034 -8.71072,3.29547c-1.51089,0.02889 -7.18879,-0.90333 -7.83014,-1.65471c-2.68558,-3.14633 -1.32154,-7.431 0.84052,-10.10608c0.74139,-0.9173 1.95774,-1.31623 2.94994,-1.9539c5.75499,-3.69867 10.42658,-4.20103 15.92511,0.16989c0.35618,0.28313 0.75892,0.53286 1.1397,0.80161c0.01872,-2.77418 -0.19219,-5.51649 -1.92026,-7.89097c-1.17548,-1.61518 -6.6267,-2.18325 -8.31418,-0.8336c-0.61327,0.4905 -0.5627,1.46634 -0.84404,2.19951c0,0 -1.11803,2.23607 -3.3541,1.11803c-2.23607,-1.11803 -1.11803,-3.3541 -1.11803,-3.3541c0.72918,-1.28788 1.00284,-2.97662 2.18754,-3.86365c1.9692,-1.47442 9.37077,-2.31811 11.84153,-1.29962c1.39683,0.57579 2.50626,1.74511 3.49061,2.89129c3.44957,4.01668 2.9806,9.43437 2.9806,14.30371v3.33474c0,1.38071 -1.11929,2.5 -2.5,2.5c-0.77872,0 -1.47428,-0.35604 -1.93277,-0.91421l-1.33999,-1.60799c-0.26654,1.02629 -1.24689,1.58649 -1.24689,1.58649z"/><path d="M273.57559,112.22626c0.49029,2.45145 -1.96116,2.94174 -1.96116,2.94174l-1.07761,0.1729c-5.72736,2.25386 -10.00835,6.20588 -14.73598,10.13895c-1.46316,1.21725 -2.4973,3.12081 -4.28512,3.77364c-1.91819,0.70043 -4.32029,0.98146 -6.12615,0.02807c-1.28244,-0.67705 -1.04195,-2.70701 -1.53286,-4.07158c-1.78456,-4.96043 -3.69454,-9.61361 -3.72942,-14.91871c0,0 0,-2.5 2.5,-2.5c2.5,0 2.5,2.5 2.5,2.5c-0.0155,1.89225 0.21086,3.82125 0.79575,5.6209c0.86743,2.66899 2.28571,5.18961 2.75061,7.95725c0.07851,0.46738 -0.6599,1.05477 -0.32023,1.38527c0.30744,0.29914 0.82306,-0.30013 1.14964,-0.57824c1.18965,-1.0131 2.35279,-2.05754 3.52222,-3.09439c-0.3331,0.18543 -0.75892,0.30396 -1.30326,0.30396c-2.5,0 -2.5,-2.5 -2.5,-2.5l0.26393,-1.42119c2.33814,-4.61915 2.34735,-9.60145 3.44118,-14.60467c1.31321,-6.00666 3.84124,-12.50606 7.90854,-17.15723c4.88533,-11.01474 13.08451,-19.68198 22.92655,-26.54183c3.98708,-2.77897 8.74707,-6.72536 13.31003,-8.45147c1.0536,-0.39856 2.24747,-0.15935 3.37259,-0.21437c3.36131,-0.16434 6.72872,-0.19752 10.09405,-0.19768c10.13929,-0.00048 20.23008,-0.15449 29.46034,4.64018c16.95381,8.87391 27.24146,24.80861 35.22701,41.68567c4.05432,8.5686 7.86771,18.01968 7.22526,27.5944c0,0 -0.17812,2.49365 -2.67176,2.31553c-2.49365,-0.17812 -2.31553,-2.67176 -2.31553,-2.67176c0.65952,-8.62689 -3.10044,-17.38785 -6.75665,-25.09773c-7.51054,-15.83752 -17.04847,-31.08841 -33.02116,-39.39317c-8.42981,-4.41985 -17.88457,-4.07267 -27.14751,-4.07311c-3.30006,-0.00016 -6.59948,0.1028 -9.89828,0.19385c-0.70266,0.0194 -1.45817,-0.2657 -2.10878,0.00042c-4.08871,1.67245 -8.30171,5.26106 -11.91253,7.77256c-9.42847,6.55796 -16.80317,14.69994 -21.57724,25.14153c-3.6977,4.22337 -6.05383,10.03635 -7.22828,15.51286c-1.13497,5.29236 -1.33258,10.37067 -3.62052,15.29192c-0.04723,0.32397 -0.17201,0.83637 -0.5017,1.2825c0.94056,-0.82797 1.88917,-1.64633 2.86274,-2.43501c4.2357,-3.4313 7.02659,-5.79144 12.12556,-7.8597l1.95398,-0.43341c0,0 2.45145,-0.49029 2.94174,1.96116z"/><path d="M367.75891,170.63523c1.19713,-2.19474 3.39187,-0.9976 3.39187,-0.9976l2.75532,1.5912c2.62829,-0.07597 6.16731,0.67966 8.29798,-1.23428c1.66947,-1.49965 1.02292,-1.83901 1.01378,-3.92219c-0.01704,-3.88278 0.29029,-5.98025 -3.76186,-7.94053c-3.28285,-1.58812 -6.6854,3.39353 -10.78417,1.08231c-1.37939,-0.77782 -0.72044,-3.09021 -0.91503,-4.66178c-0.5947,-4.80302 0.42171,-9.5737 -0.55777,-14.36445c0,0 -0.3771,-1.88551 1.18374,-2.68005c0.2341,-2.1292 2.48034,-2.1292 2.48034,-2.1292c6.18172,0 12.49325,0.50812 18.55663,-0.84994l1.14862,-0.28805c0,0 2.42536,-0.60634 3.0317,1.81902c0.60634,2.42535 -1.81901,3.0317 -1.81901,3.0317l-1.27665,0.31827c-5.97924,1.31929 -12.09901,1.02553 -18.19601,0.97541c0.59062,3.80894 0.44841,7.54843 0.44841,11.43887c0,0.90947 0.2286,1.84814 0,2.72842c-0.10156,0.39109 -1.28894,0.94824 -0.91503,0.79507c2.75271,-1.12758 5.93426,-3.39575 9.22426,-1.94928c6.15467,2.70595 7.17004,6.72468 7.15183,12.67421c-0.01115,3.64146 0.40821,4.71884 -2.62412,7.59782c-3.4837,3.30753 -8.59787,2.48521 -12.92308,2.40362l-3.91415,-2.04669c0,0 -2.19474,-1.19713 -0.99761,-3.39187z"/><path d="M268.28967,170.52896c0,0.25426 -0.06049,0.4568 -0.15686,0.61815l1.00222,1.14995c2.15904,3.74189 1.28205,8.38997 1.28205,12.48033c0,7.77275 0.63554,15.75448 -0.36351,23.48121c0,0 -0.16145,1.24235 -1.61448,1.10432c-1.45303,-0.13804 -1.29159,-1.38039 -1.29159,-1.38039c0.00724,-0.0554 0.01439,-0.11082 0.02145,-0.16625c-0.11791,0.02564 -0.19579,0.0323 -0.19579,0.0323c-10.01964,0.85664 -19.44899,3.15418 -29.31944,4.53439c-6.46405,0.90389 -13.0513,0.6255 -19.57663,0.6255c-2.12358,-0.0068 -4.37525,1.16351 -6.3454,0.48587c-3.4227,-1.17726 -0.87259,-3.61001 -0.28406,-5.00266c0.59744,-1.41375 0.97076,-2.9356 1.92315,-4.19915c0.97091,-1.28812 3.05748,-2.59187 3.77373,-4.05406c0.23253,-0.47469 -1.21672,-0.10638 -1.7685,-0.31202c-1.02378,-0.38156 -2.74895,-0.60534 -2.81102,-1.55875c-0.12305,-1.89 4.95404,-4.7131 6.55714,-5.78201c0.94456,-0.62982 2.94152,-0.65321 3.01209,-1.67559c0.08462,-1.22595 -5.25021,-1.97419 -5.80559,-2.70796c-0.58354,-0.77098 -0.06902,-1.83572 -0.10354,-2.75358c0.54292,-0.23077 1.59455,-0.17475 1.62876,-0.69232c0.03152,-0.47698 -1.03428,-0.36207 -1.54646,-0.55303c-0.61683,-0.22997 -3.599,-1.31122 -3.90849,-1.80021c-1.61003,-2.54386 0.2678,-5.20458 2.57083,-6.55382c2.72608,-1.59709 5.78849,-1.61866 8.91365,-2.12074c5.31918,-0.85457 10.6835,-1.5855 16.08302,-1.9589c3.79218,-0.26225 7.66208,0.29455 11.39853,-0.35467c2.08903,-0.17907 4.94474,0.11804 6.97181,-0.28348c2.61083,-0.51715 5.17889,-1.43944 7.89604,-1.83538l0.59492,-0.01701c0,0 1.46198,0 1.46198,1.25zM259.00853,173.56447c-2.18868,0.40226 -4.966,0.13142 -7.21089,0.32283c-3.82304,0.64404 -7.72364,0.10365 -11.59438,0.37399c-5.29879,0.37007 -10.5596,1.08588 -15.78004,1.92414c-2.70798,0.43483 -7.72258,0.40665 -9.45673,2.75583c-2.03983,2.76328 5.26996,3.40155 5.8109,5.8573c0.17211,0.78134 -1.27795,1.15529 -1.91692,1.73294c-0.17337,0.46551 1.01736,0.44852 1.54861,0.62838c2.33893,0.79189 4.73621,1.37793 4.59757,4.21745c-0.03599,0.73714 -1.07705,1.16117 -1.71516,1.65782c-1.82785,1.42263 -4.45396,3.50908 -6.88455,4.49382c0.82677,0.03169 1.73178,0.0545 2.35898,0.49135c0.75022,0.52253 1.22791,1.39325 1.30255,2.21812c0.2199,2.43027 -4.42819,5.17897 -5.40537,7.39705c-0.2406,0.54613 -0.2041,1.16579 -0.46521,1.70499c-0.32345,0.66793 -2.10481,2.09803 -1.30698,1.8587c1.65092,-0.49523 3.43662,-0.68576 5.18619,-0.69073c6.35076,0 12.77503,0.28709 19.06632,-0.58713c9.94272,-1.38162 19.44573,-3.69734 29.5388,-4.56035c0,0 0.35877,-0.03068 0.73779,0.09078c0.58875,-6.83689 0.07312,-13.84305 0.07312,-20.67436c0,-3.46862 1.02913,-8.02651 -0.84536,-11.166l-0.98965,-1.1198c0,0 -0.17984,-0.20502 -0.26809,-0.49902c-2.16808,0.44728 -4.25268,1.18064 -6.3815,1.57189z" data-paper-data="{&quot;index&quot;:null}"/></g></g></svg>