<svg version="1.1" xmlns="http://www.w3.org/2000/svg" xmlns:xlink="http://www.w3.org/1999/xlink" width="342.20164" height="171.36296" viewBox="0,0,342.20164,171.36296"><g transform="translate(-41.02822,-94.48539)"><g data-paper-data="{&quot;isPaintingLayer&quot;:true}" fill="#9966ff" fill-rule="nonzero" stroke="none" stroke-width="0.5" stroke-linecap="butt" stroke-linejoin="miter" stroke-miterlimit="10" stroke-dasharray="" stroke-dashoffset="0" style="mix-blend-mode: normal"><path d="M150.25815,228.66527c-1.62996,-1.62996 -0.25413,-3.25991 -0.02972,-3.50414c1.05349,-3.89416 2.64727,-7.59333 4.30751,-11.27145c-10.40793,-1.43972 -20.6429,-3.59635 -30.83165,-6.80824c-3.34137,-1.07258 -8.74009,-2.14416 -10.48197,-5.89175c-0.7316,-1.57402 0.32032,-3.51701 1.01646,-5.10702c1.81199,-4.13865 6.39218,-8.49508 9.2659,-11.94404c11.73721,-14.08666 22.59683,-28.83976 34.24133,-42.9795c0,0 1.58927,-1.92983 3.51909,-0.34056c1.92982,1.58927 0.34056,3.51909 0.34056,3.51909c-11.65052,14.14705 -22.51447,28.90944 -34.25987,43.00189c-2.10773,2.52891 -4.14252,5.11894 -6.13752,7.73771c-0.82529,1.08333 -1.68424,2.14108 -2.49447,3.23572c-0.28303,0.38238 -1.07764,0.81898 -0.78353,1.19291c0.86394,1.09838 6.70772,2.63114 7.27729,2.80689c10.39675,3.27746 20.83906,5.42245 31.47299,6.82161c0.13001,-0.29459 0.25915,-0.58952 0.38718,-0.88487c3.20026,-7.38328 6.22435,-14.87052 9.82194,-22.06962c0,0 1.11803,-2.23607 3.35411,-1.11804c2.23607,1.11803 1.11803,3.3541 1.11803,3.3541c-3.48155,6.95917 -6.41148,14.19798 -9.4984,21.34124c3.24692,0.35434 6.51365,0.64577 9.80429,0.88509c9.64739,0.70163 19.4502,1.40813 29.05396,0.02338l1.35019,-0.19288c0,0 2.47487,-0.35356 2.82842,2.12132c0.35356,2.47487 -2.12132,2.82843 -2.12132,2.82843l-1.35018,0.19288c-9.97319,1.41238 -20.10691,0.7422 -30.12374,0.0137c-3.89408,-0.28321 -7.75591,-0.63852 -11.59169,-1.08256c-1.87133,4.07704 -3.73951,8.16821 -4.81206,12.5073l-1.10759,1.61142c0,0 -1.76777,1.76776 -3.53554,0z"/><path d="M205.32634,162.4775c0.07067,-2.499 2.56967,-2.42833 2.56967,-2.42833l4.64949,0.13172c3.20211,0.17654 6.65434,0.1129 10.01064,0.28982c0.06968,-0.06552 0.13941,-0.13098 0.20917,-0.19637c0,0 1.82384,-1.70986 3.53369,0.11399c0.14529,0.15497 0.26506,0.30912 0.36261,0.46147c0.40685,0.05811 0.80987,0.12327 1.20835,0.19643c0.18578,0.03411 9.47411,2.991 9.83582,3.10845c1.76166,0.57203 3.67991,0.80409 5.27574,1.74432c0.2789,0.16432 7.26056,6.75897 7.71776,7.20243c1.39728,1.35531 3.25975,2.37995 4.1451,4.11356c0.88535,1.73361 0.64325,3.84038 0.90223,5.76968c0.25415,1.89335 0.95232,3.81141 0.63677,5.69549c-0.9027,5.38976 -5.27501,10.35142 -9.19477,13.64632c-1.43251,1.15625 -2.66341,2.62105 -4.29755,3.46875c-1.63414,0.84769 -3.53814,1.01873 -5.31078,1.51548c-8.7282,2.4459 -16.90399,4.45908 -25.59104,0.81519c-1.86163,-0.78088 -4.14574,-0.9963 -5.53284,-2.46307c-0.42351,-0.44783 -3.78497,-10.36162 -3.83034,-11.10588c-0.0279,-0.45758 2.43121,-9.04262 2.46506,-9.16143c2.23379,-7.83993 7.01213,-14.28711 12.55229,-20.08215c-1.80649,-0.02486 -3.59533,-0.04232 -5.30633,-0.13681l-4.58241,-0.12937c0,0 -2.499,-0.07068 -2.42833,-2.56968zM224.40705,165.60843c-6.24139,6.00149 -12.15135,12.68119 -14.50308,21.14225c-0.7158,2.57531 -2.48416,5.02299 -2.2793,7.68807c0.10901,1.41819 1.0239,2.656 1.45355,4.01194c0.3943,1.24438 0.11829,2.83435 1.01605,3.78197c0.90667,0.95703 2.51703,0.78937 3.75193,1.25084c1.31787,0.49248 2.51854,1.35261 3.90181,1.60931c6.30531,1.1701 12.54156,-1.00262 18.50838,-2.60367c1.44162,-0.38682 3.00736,-0.445 4.33231,-1.13231c1.32495,-0.68731 2.28051,-1.92635 3.42076,-2.88953c1.16408,-0.9353 2.56263,-1.63727 3.49224,-2.8059c0.92962,-1.16862 1.27442,-2.70141 1.94861,-4.03383c0.64283,-1.27044 1.76656,-2.3691 2.00174,-3.77336c0.23519,-1.40426 -0.48395,-2.80716 -0.66304,-4.21967c-0.17461,-1.37715 0.2338,-2.9092 -0.39756,-4.14549c-0.63136,-1.23629 -2.10104,-1.81542 -3.1252,-2.7525c-2.32251,-2.12502 -4.11061,-4.9317 -6.82284,-6.52969c-1.27633,-0.75198 -2.83896,-0.8478 -4.25357,-1.28756c-3.08272,-0.95833 -6.04763,-2.37234 -9.22279,-2.9553c-0.83426,-0.15317 -1.69003,-0.26828 -2.56,-0.35559z"/><path d="M283.26101,225.30079c-0.11453,0.91036 -0.76867,1.5645 -0.76867,1.5645l-4.39017,-2.55496c2.19781,-3.85267 3.82583,-7.90544 5.46311,-11.98553c-4.3689,-0.38659 -8.71892,-0.82657 -13.03322,-1.25921c-0.60784,-0.10693 -9.28348,-1.63255 -9.94063,-1.7505c-1.77193,-0.31803 -3.67242,-0.22823 -5.31304,-0.96936c-2.21477,-1.00051 -5.37005,-1.79429 -6.00041,-4.14138c-0.60809,-2.26417 1.94454,-4.28405 3.20703,-6.25949c0.02188,-0.03424 6.43704,-7.64954 6.52334,-7.75239c10.95504,-13.05541 22.9358,-25.52901 31.72235,-40.18041c0,0 1.28625,-2.14373 3.42998,-0.8575c2.14373,1.28624 0.85749,3.42997 0.85749,3.42997c-8.51864,14.19102 -19.96173,26.16049 -30.52573,38.83726c-2.63989,3.16786 -5.17127,6.54006 -8.01063,9.52732c-0.71681,0.75415 -2.52002,1.02764 -2.35024,2.05416c0.15561,0.94087 1.85571,0.44367 2.7927,0.62112c4.74736,0.89905 9.53222,1.6475 14.29084,2.48808c4.737,0.47167 9.52208,0.95885 14.32957,1.37296c2.796,-6.63381 5.83115,-13.17077 8.62563,-19.80766c0,0 0.97014,-2.30409 3.27423,-1.33394c2.30409,0.97015 1.33395,3.27423 1.33395,3.27423c-2.58058,6.12886 -5.36687,12.17251 -7.9798,18.28602c10.52651,0.76262 21.11539,1.0231 31.49936,-0.1411l-1.14512,-0.69375c0,0 0.92847,-2.32119 3.24966,-1.39271c2.32119,0.92847 1.39272,3.24967 1.39272,3.24967l-2.9451,3.80621c-11.24354,1.23875 -22.69915,0.8925 -34.07251,0.02389c-1.72222,4.24889 -3.36648,8.48422 -5.5167,12.54452z"/><path d="M100.60472,241.40678c0.79057,-2.37171 3.16228,-1.58114 3.16228,-1.58114l1.24879,0.41863c5.69803,1.6346 11.31996,3.33801 17.13597,4.49862c16.04479,3.20896 32.0133,5.98637 48.20643,8.33383c6.50716,0.94332 13.09761,2.29282 19.64731,2.85256c11.50327,0.98307 23.29696,0.61419 34.84115,0.92068c34.6819,0.92076 69.40418,0.40186 104.09833,0.94074c7.71224,0.83414 15.42758,1.64601 23.13547,2.51956c2.08803,0.23664 8.05808,1.73967 9.6572,-1.23113c0.36501,-0.67811 -0.15251,-1.533 -0.25701,-2.29599c-0.17707,-1.29282 -0.39425,-2.57982 -0.58755,-3.87031c-0.43429,-2.8994 -0.75681,-5.8358 -0.70345,-8.76705c0.12151,-6.67408 -0.16201,-13.52675 0.39457,-20.177c0.66344,-7.92704 2.63558,-15.96247 3.93503,-23.81283c2.99875,-18.11637 7.59315,-35.93044 11.29741,-53.9144c0.906,-4.3986 1.97718,-9.04018 2.31389,-13.52997c0.11998,-1.59985 -0.13185,-3.21355 -0.007,-4.81304c0.03421,-0.43828 0.84421,-0.98483 0.4786,-1.22894c-2.16992,-1.44878 -5.17895,-0.65854 -7.78097,-0.85105c-4.95619,-0.36667 -9.82857,-0.36996 -14.79722,-0.36996c-33.9827,0 -68.24726,0.89919 -101.95603,-3.90741c-34.61278,-4.93551 -68.8924,-10.78362 -103.11615,-17.94673c-9.0014,-1.88401 -17.81292,-2.7924 -26.96826,-3.67794c-4.36909,-0.42259 -9.70938,-0.85984 -14.03614,0.24061c-3.52946,0.89767 -7.07376,3.46135 -9.50769,6.03422c-6.36507,6.72844 -11.63334,13.43278 -14.51373,22.40752c-1.41003,4.3934 -3.05231,7.8703 -2.73358,12.49001c0.37211,6.57402 0.44833,13.24826 1.11479,19.79794c0.90064,8.85104 3.33074,18.10105 5.24759,26.79411c4.03895,18.31701 9.13692,35.62067 8.53144,54.57314c-1.62381,1.41315 -2.74284,3.9187 -4.87142,4.23944c-1.76327,0.26569 -3.08977,-1.79075 -4.54557,-2.82047c-3.95197,-2.79533 -6.4581,-6.09221 -9.53184,-9.75706c-9.52239,-11.35362 -16.56835,-24.07256 -25.01044,-36.18723c-3.72816,-5.35002 -8.09548,-10.2066 -12.4184,-15.06985c0,0 -1.66091,-1.86852 0.20761,-3.52943c1.86852,-1.66091 3.52943,0.20761 3.52943,0.20761c4.45316,5.00984 8.94077,10.01891 12.78134,15.52983c7.34712,10.54255 13.24247,22.13358 21.52836,32.00505c2.69578,3.21165 5.24964,7.07434 8.31851,9.93731c1.15842,1.08069 2.57863,1.85961 3.71891,2.95942c0.49831,0.48063 0.49045,1.50864 1.1456,1.73247c0.40224,0.13742 0.35235,-0.77367 0.52852,-1.16051c-0.43177,-9.17364 -1.0339,-18.31419 -2.84446,-27.36656c-3.42249,-17.11168 -9.46684,-34.03575 -11.27623,-51.46451c-0.69144,-6.66022 -0.76728,-13.45198 -1.14574,-20.13814c-0.24913,-5.31918 1.33591,-9.27527 2.96704,-14.30759c2.47795,-7.64488 6.66864,-14.88997 12.20312,-20.70811c4.37864,-4.60306 8.77825,-9.34278 15.23481,-11.01515c4.9168,-1.27355 10.87626,-0.8732 15.85466,-0.40132c9.33848,0.88515 18.33502,1.83961 27.51609,3.76123c34.11825,7.14103 68.29156,12.97046 102.79765,17.89075c33.47175,4.7728 67.50623,3.85734 101.25021,3.85734c6.47503,0 14.12475,-0.79941 20.4536,0.80109c2.14789,0.54318 4.60112,0.91092 6.16739,2.47786c0.98935,0.98978 0.40816,2.77332 0.4786,4.171c0.2452,4.86563 -0.52484,9.61736 -1.38877,14.38852c-3.56278,19.67578 -9.01678,38.95533 -12.28265,58.68541c-1.27927,7.72849 -3.24118,15.65037 -3.88889,23.45383c-0.54227,6.53327 -0.24137,13.25924 -0.37452,19.81561c-0.08485,4.17818 1.10998,8.0377 1.27807,12.16935c0.06654,1.63554 0.57029,3.4915 -0.25701,4.90394c-2.1184,3.61673 -5.72616,4.50751 -9.41887,4.53187c-9.22747,0.06089 -18.98338,-2.0639 -28.15392,-3.06586c-34.6348,-0.50028 -69.30083,-0.01384 -103.92305,-0.93301c-11.64268,-0.3091 -23.53236,0.05442 -35.1342,-0.93708c-6.64768,-0.56811 -13.33457,-1.92871 -19.93889,-2.88612c-16.28068,-2.36015 -32.33814,-5.1529 -48.46967,-8.37921c-5.95038,-1.19262 -11.70377,-2.92282 -17.53413,-4.59538l-1.45118,-0.48136c0,0 -2.37171,-0.79057 -1.58114,-3.16228z"/></g></g></svg>