<svg version="1.1" xmlns="http://www.w3.org/2000/svg" xmlns:xlink="http://www.w3.org/1999/xlink" width="98.90109" height="86.9818" viewBox="0,0,98.90109,86.9818"><g transform="translate(-185.31946,-174.03966)"><g data-paper-data="{&quot;isPaintingLayer&quot;:true}" fill="#9966ff" fill-rule="nonzero" stroke="none" stroke-width="0.5" stroke-linecap="butt" stroke-linejoin="miter" stroke-miterlimit="10" stroke-dasharray="" stroke-dashoffset="0" style="mix-blend-mode: normal"><path d="M212.71763,180.11819c-2.27416,-0.65384 -4.60183,-1.03214 -7.09003,-0.84812c-3.39058,0.25077 -5.14832,0.97211 -7.78423,3.11595c-2.03156,1.65231 -3.99473,3.45674 -5.53666,5.5733c-0.72394,0.99373 -1.29782,2.10399 -1.74677,3.24856c-1.42794,3.64043 4.46261,4.80591 6.58964,5.42314c5.24077,1.52078 16.99171,3.06307 20.7583,-2.48637c0.54113,-0.79727 0.29199,-1.90489 0.43798,-2.85734c-1.14567,-4.40205 -2.3607,-8.39339 -5.62823,-11.16912zM220.1582,181.71941c1.45502,2.78103 2.3409,5.94528 3.18559,9.4242c-0.38916,1.86832 -0.14588,3.993 -1.16747,5.60495c-4.99512,7.88167 -18.88412,6.86589 -26.42545,4.68284c-5.45067,-1.57785 -12.23787,-4.56723 -9.98921,-11.6294c0.54846,-1.72251 1.48986,-3.31602 2.51636,-4.80403c1.73618,-2.51677 4.04277,-4.63648 6.44944,-6.52233c3.59529,-2.81724 5.93402,-3.80546 10.50292,-4.18977c1.4778,-0.1243 2.91276,-0.08202 4.31821,0.0855c0.81692,-0.4632 1.75993,-0.30603 1.75993,-0.30603l2.32029,0.57368c0.49526,0.31154 0.9627,0.63456 1.40447,0.96878c1.54491,0.48914 3.07441,1.07019 4.60846,1.68126c0,0 2.32119,0.92848 1.39272,3.24967c-0.22695,0.56738 -0.53711,0.9406 -0.87625,1.18067z"/><path d="M273.79926,181.99657c-0.6484,0.35053 -1.32314,0.35053 -1.32314,0.35053c-4.11367,-0.00738 -5.32151,-0.27591 -9.30569,0.74616c-1.4488,0.37166 -2.88968,0.83095 -4.23295,1.48882c-3.11282,1.5245 -5.62399,3.2425 -5.98876,6.71086c-0.04374,0.41591 -0.4025,0.94719 -0.11349,1.24946c1.73505,1.81467 4.94508,2.34142 7.20165,2.5873c5.2591,0.57304 10.62362,0.32266 15.21022,-2.64458c3.05637,-1.97728 5.35732,-5.85483 1.7689,-8.60062c-0.98739,-0.75553 -2.13979,-1.26562 -3.21675,-1.88793zM261.21709,178.49076c0.11204,-2.32786 2.49592,-2.32786 2.49592,-2.32786h2.13157c3.24348,0.00964 6.4948,0.43634 9.66624,1.11619c1.58038,0.93125 3.34101,1.60865 4.74114,2.79375c6.05388,5.12419 3.64602,12.57998 -2.20969,16.55801c-5.41003,3.67526 -12.27967,4.26462 -18.59459,3.46401c-4.10772,-0.52078 -8.16143,-1.39906 -10.90937,-4.99583c-2.83275,-3.70779 0.8625,-9.66934 3.46955,-11.92467c2.78089,-2.40572 5.90513,-3.84018 9.20924,-4.68359z"/><path d="M282.69771,260.77611c-2.29786,0.9848 -3.28266,-1.31306 -3.28266,-1.31306l-0.7693,-1.80827c-2.5274,-7.13956 -4.86633,-14.23799 -7.88473,-21.17893c-2.35944,-3.44888 -4.07088,-5.99334 -7.41204,-8.5668c-1.13477,-0.87403 -2.02422,-2.16619 -3.36338,-2.6744c-1.33916,-0.50821 -2.86174,-0.13453 -4.29088,-0.23036c-3.18121,-0.21331 -6.38761,-0.23174 -9.56499,0.0325c-9.54088,0.79345 -18.78109,4.93003 -27.19749,9.36337c-6.99706,3.6857 -13.28113,7.36804 -16.94821,14.57362c0,0 -1.15338,2.21804 -3.37142,1.06466c-2.21804,-1.15338 -1.06466,-3.37142 -1.06466,-3.37142c0.84914,-1.60413 1.43686,-3.37679 2.54742,-4.81238c5.16973,-6.68281 13.68629,-10.47375 21.02463,-14.13786c7.6227,-3.80609 16.0876,-6.93874 24.5903,-7.66236c4.57108,-0.38902 11.65743,-1.16117 16.04933,0.50553c6.01705,2.28344 10.0048,8.4925 13.37895,13.4999c3.16147,7.18671 5.59901,14.5239 8.22045,21.92609l0.65175,1.50751c0,0 0.9848,2.29786 -1.31306,3.28266z"/></g></g></svg>