<svg version="1.1" xmlns="http://www.w3.org/2000/svg" xmlns:xlink="http://www.w3.org/1999/xlink" width="431.6311" height="281.07755" viewBox="0,0,431.6311,281.07755"><g transform="translate(-32.67845,-7.59432)"><g data-paper-data="{&quot;isPaintingLayer&quot;:true}" fill="#9966ff" fill-rule="nonzero" stroke="none" stroke-width="0.5" stroke-linecap="butt" stroke-linejoin="miter" stroke-miterlimit="10" stroke-dasharray="" stroke-dashoffset="0" style="mix-blend-mode: normal"><path d="M259.02462,220.01928c-3.89146,-5.10406 -7.01474,-10.67121 -10.92709,-15.78156c-1.67087,-2.18251 -3.51487,-4.24566 -4.98851,-6.56591c-1.96946,-3.10093 -4.66223,-8.00005 -2.8512,-11.81645c1.61601,-3.40542 8.04697,-4.81366 11.01476,-6.6782c0.70376,-0.14683 6.98775,-1.50295 8.40048,-1.66158c1.81607,-0.20392 3.88093,-1.28225 5.46935,-0.37857c3.74001,2.12775 3.62517,7.40443 4.10433,10.79917c1.9435,13.76926 1.81446,27.61477 5.96212,41.02763l0.09865,0.14338c4.18318,-0.67829 9.00661,-0.07803 13.23378,-0.08886c15.59185,-0.48805 31.12811,-1.21299 46.72868,-1.21299c0.86239,0 1.78581,-0.0276 2.74976,-0.06233c0.26189,-0.38076 0.53903,-0.60247 0.53903,-0.60247c7.75101,-6.20062 14.32326,-13.77346 20.90157,-21.21855c2.38368,-2.69777 4.256,-5.47642 6.79198,-8.01236c1.47476,-1.47474 3.00332,-4.06847 5.29685,-4.56251c0.85397,-0.18395 9.59547,0.34523 10.82944,0.4127c7.10924,0.38871 13.92631,0.76388 20.88314,2.32595c-0.77925,1.91604 -1.07322,4.11123 -2.33774,5.74814c-0.87652,1.13465 -2.518,1.37441 -3.74169,2.1216c-2.88151,1.75947 -5.41017,3.59617 -8.21731,5.47101c-5.4278,3.62514 -10.96188,7.01873 -16.74678,10.0472c-2.55118,1.33557 -6.24245,1.29994 -8.42866,3.10108c-2.2399,1.84538 -4.35782,4.38277 -6.44024,6.46673l-1.21263,1.21263c0,0 -0.30818,0.30818 -0.79586,0.53851c0.06386,0.05578 0.12705,0.11249 0.18955,0.17016c2.29508,2.11773 1.92352,4.26807 1.94486,6.92145c0.03436,4.26913 0.13687,8.51614 0.29031,12.78266c1.80813,10.76436 1.08704,21.35563 1.72274,32.15069c0.53902,0.34587 1.01853,0.96125 1.01853,2.05614c0,2.5 -2.5,2.5 -2.5,2.5l-0.63712,-0.0104c-0.08731,0.00684 -0.17806,0.0104 -0.27236,0.0104c-0.04845,0 -0.09596,-0.00095 -0.14255,-0.00278c-3.71774,0.39748 -7.42011,0.28569 -11.14926,0.59866c-10.50916,1.04075 -21.35415,0.61676 -31.91031,0.61676c-14.90456,0 -29.80914,0 -44.7137,0c0,0 -2.5,0 -2.5,-2.5c0,-0.01175 0.00006,-0.02346 0.00017,-0.0351c-0.09841,-0.17779 -0.14415,-0.29973 -0.14415,-0.29973c-1.7867,-4.96299 -0.83564,-9.62516 -0.45224,-14.74443c0.71085,-9.4914 -0.12936,-18.73041 1.18239,-28.24259c0.29265,-2.12214 0.47667,-4.25908 0.62646,-6.39606c0.10801,-1.54092 -0.50306,-3.4583 0.20578,-4.74042c-3.65957,-3.47529 -6.00178,-7.57754 -9.07531,-11.6088zM269.06767,225.36483c-2.45984,-10.52661 -2.79979,-21.11471 -4.04076,-31.89001c-0.36163,-3.13999 -0.6475,-6.29722 -1.25847,-9.39835c-0.16805,-0.85296 -0.07722,-2.07588 -0.8552,-2.46388c-0.7615,-0.37978 -1.58747,0.62665 -2.41276,0.83405c-2.42141,0.6085 -4.91065,0.90536 -7.36373,1.37c-2.08835,1.34739 -4.43273,2.25909 -6.72508,3.21918c-0.59903,0.25089 -1.38538,0.42884 -1.66227,1.0163c-0.29522,0.62635 0.02718,1.39864 0.2091,2.06675c0.83152,3.05383 3.11768,6.20813 4.97358,8.63672c4.54989,5.95388 8.51489,12.25197 13.0358,18.18948c2.16384,2.84187 3.909,5.76524 6.09981,8.41976zM352.60114,226.71863l1.21263,-1.21263c2.16546,-2.16394 4.49624,-5.04368 6.89871,-6.87223c2.75871,-2.09968 6.23937,-2.01887 9.22929,-3.61177c5.59857,-2.9827 10.97177,-6.23053 16.24617,-9.75337c1.99313,-1.33123 5.03551,-4.1579 8.00741,-5.758c-0.73149,-0.02041 -1.46089,-0.07983 -2.15284,-0.12949c-4.97161,-0.35676 -9.94802,-0.57018 -14.92064,-0.90125c-1.38831,-0.09243 -2.77899,-0.50128 -4.16056,-0.33634c-1.52418,0.18196 -2.10618,2.23418 -3.19158,3.3196c-2.45346,2.4535 -4.2325,5.12495 -6.54697,7.75185c-5.60915,6.36633 -11.24412,12.79959 -17.55795,18.4524c2.16217,0.11846 4.27828,0.42721 6.16305,1.11102c-0.12775,-1.15877 0.77327,-2.05979 0.77327,-2.05979zM352.79123,251.17322c-0.17431,-4.43391 -0.35697,-8.84961 -0.31601,-13.28893c0.00628,-0.68077 0.40515,-2.69997 -0.4804,-3.38592c-3.98246,-3.08479 -12.04543,-1.69303 -16.72487,-1.69303c-15.57224,0 -31.08026,0.7267 -46.64399,1.21228c-4.35019,0.01182 -8.70304,-0.02905 -13.05176,0.11038c-1.07754,0.03455 -2.40284,-0.52454 -3.22997,0.16693c-0.54862,0.45864 0.4729,1.36265 0.5499,2.07358c0.29332,2.70816 -0.29254,4.30193 -0.67461,7.0883c-1.2923,9.42471 -0.46439,18.58499 -1.15444,27.99938c-0.29949,4.08595 -1.38607,8.17994 0.00107,12.13023c14.27635,0 28.55271,0 42.82906,0c10.39781,0 21.10467,0.44977 31.45392,-0.59588c3.04913,-0.25241 6.0836,-0.21442 9.11894,-0.41974c-0.56896,-10.54006 0.06282,-20.8819 -1.67683,-31.39757z"/><path d="M333.72617,237.18721c0,0.25426 -0.06049,0.4568 -0.15686,0.61815l1.00222,1.14995c2.15904,3.74189 1.28205,8.38997 1.28205,12.48033c0,7.77275 0.63554,15.75448 -0.36351,23.48121c0,0 -0.16145,1.24235 -1.61448,1.10432c-1.45303,-0.13804 -1.29159,-1.38039 -1.29159,-1.38039c0.00724,-0.0554 0.01439,-0.11082 0.02145,-0.16625c-0.11791,0.02564 -0.19579,0.0323 -0.19579,0.0323c-10.01964,0.85664 -19.44899,3.15418 -29.31944,4.53439c-6.46405,0.90389 -13.0513,0.6255 -19.57663,0.6255c-2.12358,-0.0068 -4.37525,1.16351 -6.3454,0.48587c-3.4227,-1.17726 -0.87259,-3.61001 -0.28406,-5.00266c0.59744,-1.41375 0.97076,-2.9356 1.92315,-4.19915c0.97091,-1.28812 3.05748,-2.59187 3.77373,-4.05406c0.23253,-0.47469 -1.21672,-0.10638 -1.7685,-0.31202c-1.02378,-0.38156 -2.74895,-0.60534 -2.81102,-1.55875c-0.12305,-1.89 4.95404,-4.7131 6.55714,-5.78201c0.94456,-0.62982 2.94152,-0.65321 3.01209,-1.67559c0.08462,-1.22595 -5.25021,-1.97419 -5.80559,-2.70796c-0.58354,-0.77098 -0.06902,-1.83572 -0.10354,-2.75358c0.54292,-0.23077 1.59455,-0.17475 1.62876,-0.69232c0.03152,-0.47698 -1.03428,-0.36207 -1.54646,-0.55303c-0.61683,-0.22997 -3.599,-1.31122 -3.90849,-1.80021c-1.61003,-2.54386 0.2678,-5.20458 2.57083,-6.55382c2.72608,-1.59709 5.78849,-1.61866 8.91365,-2.12074c5.31918,-0.85457 10.6835,-1.5855 16.08302,-1.9589c3.79218,-0.26225 7.66208,0.29455 11.39853,-0.35467c2.08903,-0.17907 4.94474,0.11804 6.97181,-0.28348c2.61083,-0.51715 5.17889,-1.43944 7.89604,-1.83538l0.59492,-0.01701c0,0 1.46198,0 1.46198,1.25zM324.44503,240.22272c-2.18868,0.40226 -4.966,0.13142 -7.21089,0.32283c-3.82304,0.64404 -7.72364,0.10365 -11.59438,0.37399c-5.29879,0.37007 -10.5596,1.08588 -15.78004,1.92414c-2.70798,0.43483 -7.72258,0.40665 -9.45673,2.75583c-2.03983,2.76328 5.26996,3.40155 5.8109,5.8573c0.17211,0.78134 -1.27795,1.15529 -1.91692,1.73294c-0.17337,0.46551 1.01736,0.44852 1.54861,0.62838c2.33893,0.79189 4.73621,1.37793 4.59757,4.21745c-0.03599,0.73714 -1.07705,1.16117 -1.71516,1.65782c-1.82785,1.42263 -4.45396,3.50908 -6.88455,4.49382c0.82677,0.03169 1.73178,0.0545 2.35898,0.49135c0.75022,0.52253 1.22791,1.39325 1.30255,2.21812c0.2199,2.43027 -4.42819,5.17897 -5.40537,7.39705c-0.2406,0.54613 -0.2041,1.16579 -0.46521,1.70499c-0.32345,0.66793 -2.10481,2.09803 -1.30698,1.8587c1.65092,-0.49523 3.43662,-0.68576 5.18619,-0.69073c6.35076,0 12.77503,0.28709 19.06632,-0.58713c9.94272,-1.38162 19.44573,-3.69734 29.5388,-4.56035c0,0 0.35877,-0.03068 0.73779,0.09078c0.58875,-6.83689 0.07312,-13.84305 0.07312,-20.67436c0,-3.46862 1.02913,-8.02651 -0.84536,-11.166l-0.98965,-1.1198c0,0 -0.17984,-0.20502 -0.26809,-0.49902c-2.16808,0.44728 -4.25268,1.18064 -6.3815,1.57189z" data-paper-data="{&quot;index&quot;:null}"/><path d="M313.12131,264.31862c-1.71082,-1.29112 -3.41649,-2.35092 -4.74116,-2.59728c-2.47288,-0.4599 -6.60924,1.75743 -8.3148,3.46621c-0.08338,0.08354 -1.67046,2.70412 -0.97843,3.23288c0.50833,0.3884 1.27662,-0.13707 1.91588,-0.11263c1.21097,0.04629 3.26249,0.61003 4.51755,0.13389c1.57271,-0.59664 2.80742,-1.8685 4.30993,-2.62472l1.99979,-1.14717c0,0 0.56922,-0.32527 1.29124,-0.35118zM314.31077,269.01101l-2.24442,1.27809c-3.27749,1.62629 -4.78166,3.22034 -8.71072,3.29547c-1.51089,0.02889 -7.18879,-0.90333 -7.83014,-1.65471c-2.68558,-3.14633 -1.32154,-7.431 0.84052,-10.10608c0.74139,-0.9173 1.95774,-1.31623 2.94994,-1.9539c5.75499,-3.69867 10.42658,-4.20103 15.92511,0.16989c0.35618,0.28313 0.75892,0.53286 1.1397,0.80161c0.01872,-2.77418 -0.19219,-5.51649 -1.92026,-7.89097c-1.17548,-1.61518 -6.6267,-2.18325 -8.31418,-0.8336c-0.61327,0.4905 -0.5627,1.46634 -0.84404,2.19951c0,0 -1.11803,2.23607 -3.3541,1.11803c-2.23607,-1.11803 -1.11803,-3.3541 -1.11803,-3.3541c0.72918,-1.28788 1.00284,-2.97662 2.18754,-3.86365c1.9692,-1.47442 9.37077,-2.31811 11.84153,-1.29962c1.39683,0.57579 2.50626,1.74511 3.49061,2.89129c3.44957,4.01668 2.9806,9.43437 2.9806,14.30371v3.33474c0,1.38071 -1.11929,2.5 -2.5,2.5c-0.77872,0 -1.47428,-0.35604 -1.93277,-0.91421l-1.33999,-1.60799c-0.26654,1.02629 -1.24689,1.58649 -1.24689,1.58649z"/><path d="M52.04376,209.08087c-3.89146,-5.10406 -7.01474,-10.67121 -10.92709,-15.78156c-1.67087,-2.18251 -3.51487,-4.24566 -4.98851,-6.56591c-1.96946,-3.10093 -4.66223,-8.00005 -2.8512,-11.81645c1.61601,-3.40542 8.04697,-4.81366 11.01476,-6.6782c0.70376,-0.14683 6.98775,-1.50295 8.40048,-1.66158c1.81607,-0.20392 3.88093,-1.28225 5.46935,-0.37857c3.74001,2.12775 3.62517,7.40443 4.10433,10.79917c1.9435,13.76926 1.81446,27.61477 5.96212,41.02763l0.09865,0.14338c4.18318,-0.67829 9.00661,-0.07803 13.23378,-0.08886c15.59185,-0.48805 31.12811,-1.21299 46.72868,-1.21299c0.86239,0 1.78581,-0.0276 2.74976,-0.06233c0.26189,-0.38076 0.53903,-0.60247 0.53903,-0.60247c7.75101,-6.20062 14.32326,-13.77346 20.90157,-21.21855c2.38368,-2.69777 4.256,-5.47642 6.79198,-8.01236c1.47476,-1.47474 3.00332,-4.06847 5.29685,-4.56251c0.85397,-0.18395 9.59547,0.34523 10.82944,0.4127c7.10924,0.38871 13.92631,0.76388 20.88314,2.32595c-0.77925,1.91604 -1.07322,4.11123 -2.33774,5.74814c-0.87652,1.13465 -2.518,1.37441 -3.74169,2.1216c-2.88151,1.75947 -5.41017,3.59617 -8.21731,5.47101c-5.4278,3.62514 -10.96188,7.01873 -16.74678,10.0472c-2.55118,1.33557 -6.24245,1.29994 -8.42866,3.10108c-2.2399,1.84538 -4.35782,4.38277 -6.44024,6.46673l-1.21263,1.21263c0,0 -0.30818,0.30818 -0.79586,0.53851c0.06386,0.05578 0.12705,0.11249 0.18955,0.17016c2.29508,2.11773 1.92352,4.26807 1.94486,6.92145c0.03436,4.26913 0.13687,8.51614 0.29031,12.78266c1.80813,10.76436 1.08704,21.35563 1.72274,32.15069c0.53902,0.34587 1.01853,0.96125 1.01853,2.05614c0,2.5 -2.5,2.5 -2.5,2.5l-0.63712,-0.0104c-0.08731,0.00684 -0.17806,0.0104 -0.27236,0.0104c-0.04845,0 -0.09596,-0.00095 -0.14255,-0.00278c-3.71774,0.39748 -7.42011,0.28569 -11.14926,0.59866c-10.50916,1.04075 -21.35415,0.61676 -31.91031,0.61676c-14.90456,0 -29.80914,0 -44.7137,0c0,0 -2.5,0 -2.5,-2.5c0,-0.01175 0.00006,-0.02346 0.00017,-0.0351c-0.09841,-0.17779 -0.14415,-0.29973 -0.14415,-0.29973c-1.7867,-4.96299 -0.83564,-9.62516 -0.45224,-14.74443c0.71085,-9.4914 -0.12936,-18.73041 1.18239,-28.24259c0.29265,-2.12214 0.47667,-4.25908 0.62646,-6.39606c0.10801,-1.54092 -0.50306,-3.4583 0.20578,-4.74042c-3.65957,-3.47529 -6.00178,-7.57754 -9.07531,-11.6088zM62.08681,214.42642c-2.45984,-10.52661 -2.79979,-21.11471 -4.04076,-31.89001c-0.36163,-3.13999 -0.6475,-6.29722 -1.25847,-9.39835c-0.16805,-0.85296 -0.07722,-2.07588 -0.8552,-2.46388c-0.7615,-0.37978 -1.58747,0.62665 -2.41276,0.83405c-2.42141,0.6085 -4.91065,0.90536 -7.36373,1.37c-2.08835,1.34739 -4.43273,2.25909 -6.72508,3.21918c-0.59903,0.25089 -1.38538,0.42884 -1.66227,1.0163c-0.29522,0.62635 0.02718,1.39864 0.2091,2.06675c0.83152,3.05383 3.11768,6.20813 4.97358,8.63672c4.54989,5.95388 8.51489,12.25197 13.0358,18.18948c2.16384,2.84187 3.909,5.76524 6.09981,8.41976zM145.62028,215.78022l1.21263,-1.21263c2.16546,-2.16394 4.49624,-5.04368 6.89871,-6.87223c2.75871,-2.09968 6.23937,-2.01887 9.22929,-3.61177c5.59857,-2.9827 10.97177,-6.23053 16.24617,-9.75337c1.99313,-1.33123 5.03551,-4.1579 8.00741,-5.758c-0.73149,-0.02041 -1.46089,-0.07983 -2.15284,-0.12949c-4.97161,-0.35676 -9.94802,-0.57018 -14.92064,-0.90125c-1.38831,-0.09243 -2.77899,-0.50128 -4.16056,-0.33634c-1.52418,0.18196 -2.10618,2.23418 -3.19158,3.3196c-2.45346,2.4535 -4.2325,5.12495 -6.54697,7.75185c-5.60915,6.36633 -11.24412,12.79959 -17.55795,18.4524c2.16217,0.11846 4.27828,0.42721 6.16305,1.11102c-0.12775,-1.15877 0.77327,-2.05979 0.77327,-2.05979zM145.81037,240.23481c-0.17431,-4.43391 -0.35697,-8.84961 -0.31601,-13.28893c0.00628,-0.68077 0.40515,-2.69997 -0.4804,-3.38592c-3.98246,-3.08479 -12.04543,-1.69303 -16.72487,-1.69303c-15.57224,0 -31.08026,0.7267 -46.64399,1.21228c-4.35019,0.01182 -8.70304,-0.02905 -13.05176,0.11038c-1.07754,0.03455 -2.40284,-0.52454 -3.22997,0.16693c-0.54862,0.45864 0.4729,1.36265 0.5499,2.07358c0.29332,2.70816 -0.29254,4.30193 -0.67461,7.0883c-1.2923,9.42471 -0.46439,18.58499 -1.15444,27.99938c-0.29949,4.08595 -1.38607,8.17994 0.00107,12.13023c14.27635,0 28.55271,0 42.82906,0c10.39781,0 21.10467,0.44977 31.45392,-0.59588c3.04913,-0.25241 6.0836,-0.21442 9.11894,-0.41974c-0.56896,-10.54006 0.06282,-20.8819 -1.67683,-31.39757z"/><path d="M125.15147,226.2488c0,0.25426 -0.06049,0.4568 -0.15686,0.61815l1.00222,1.14995c2.15904,3.74189 1.28205,8.38997 1.28205,12.48033c0,7.77275 0.63554,15.75448 -0.36351,23.48121c0,0 -0.16145,1.24235 -1.61448,1.10432c-1.45303,-0.13804 -1.29159,-1.38039 -1.29159,-1.38039c0.00724,-0.0554 0.01439,-0.11082 0.02145,-0.16625c-0.11791,0.02564 -0.19579,0.0323 -0.19579,0.0323c-10.01964,0.85664 -19.44899,3.15418 -29.31944,4.53439c-6.46405,0.90389 -13.0513,0.6255 -19.57663,0.6255c-2.12358,-0.0068 -4.37525,1.16351 -6.3454,0.48587c-3.4227,-1.17726 -0.87259,-3.61001 -0.28406,-5.00266c0.59744,-1.41375 0.97076,-2.9356 1.92315,-4.19915c0.97091,-1.28812 3.05748,-2.59187 3.77373,-4.05406c0.23253,-0.47469 -1.21672,-0.10638 -1.7685,-0.31202c-1.02378,-0.38156 -2.74895,-0.60534 -2.81102,-1.55875c-0.12305,-1.89 4.95404,-4.7131 6.55714,-5.78201c0.94456,-0.62982 2.94152,-0.65321 3.01209,-1.67559c0.08462,-1.22595 -5.25021,-1.97419 -5.80559,-2.70796c-0.58354,-0.77098 -0.06902,-1.83572 -0.10354,-2.75358c0.54292,-0.23077 1.59455,-0.17475 1.62876,-0.69232c0.03152,-0.47698 -1.03428,-0.36207 -1.54646,-0.55303c-0.61683,-0.22997 -3.599,-1.31122 -3.90849,-1.80021c-1.61003,-2.54386 0.2678,-5.20458 2.57083,-6.55382c2.72608,-1.59709 5.78849,-1.61866 8.91365,-2.12074c5.31918,-0.85457 10.6835,-1.5855 16.08302,-1.9589c3.79218,-0.26225 7.66208,0.29455 11.39853,-0.35467c2.08903,-0.17907 4.94474,0.11804 6.97181,-0.28348c2.61083,-0.51715 5.17889,-1.43944 7.89604,-1.83538l0.59492,-0.01701c0,0 1.46198,0 1.46198,1.25zM115.87033,229.28431c-2.18868,0.40226 -4.966,0.13142 -7.21089,0.32283c-3.82304,0.64404 -7.72364,0.10365 -11.59438,0.37399c-5.29879,0.37007 -10.5596,1.08588 -15.78004,1.92414c-2.70798,0.43483 -7.72258,0.40665 -9.45673,2.75583c-2.03983,2.76328 5.26996,3.40155 5.8109,5.8573c0.17211,0.78134 -1.27795,1.15529 -1.91692,1.73294c-0.17337,0.46551 1.01736,0.44852 1.54861,0.62838c2.33893,0.79189 4.73621,1.37793 4.59757,4.21745c-0.03599,0.73714 -1.07705,1.16117 -1.71516,1.65782c-1.82785,1.42263 -4.45396,3.50908 -6.88455,4.49382c0.82677,0.03169 1.73178,0.0545 2.35898,0.49135c0.75022,0.52253 1.22791,1.39325 1.30255,2.21812c0.2199,2.43027 -4.42819,5.17897 -5.40537,7.39705c-0.2406,0.54613 -0.2041,1.16579 -0.46521,1.70499c-0.32345,0.66793 -2.10481,2.09803 -1.30698,1.8587c1.65092,-0.49523 3.43662,-0.68576 5.18619,-0.69073c6.35076,0 12.77503,0.28709 19.06632,-0.58713c9.94272,-1.38162 19.44573,-3.69734 29.5388,-4.56035c0,0 0.35877,-0.03068 0.73779,0.09078c0.58875,-6.83689 0.07312,-13.84305 0.07312,-20.67436c0,-3.46862 1.02913,-8.02651 -0.84536,-11.166l-0.98965,-1.1198c0,0 -0.17984,-0.20502 -0.26809,-0.49902c-2.16808,0.44728 -4.25268,1.18064 -6.3815,1.57189z" data-paper-data="{&quot;index&quot;:null}"/><path d="M104.54661,253.38021c-1.71082,-1.29112 -3.41649,-2.35092 -4.74116,-2.59728c-2.47288,-0.4599 -6.60924,1.75743 -8.3148,3.46621c-0.08338,0.08354 -1.67046,2.70412 -0.97843,3.23288c0.50833,0.3884 1.27662,-0.13707 1.91588,-0.11263c1.21097,0.04629 3.26249,0.61003 4.51755,0.13389c1.57271,-0.59664 2.80742,-1.8685 4.30993,-2.62472l1.99979,-1.14717c0,0 0.56922,-0.32527 1.29124,-0.35118zM105.73607,258.0726l-2.24442,1.27809c-3.27749,1.62629 -4.78166,3.22034 -8.71072,3.29547c-1.51089,0.02889 -7.18879,-0.90333 -7.83014,-1.65471c-2.68558,-3.14633 -1.32154,-7.431 0.84052,-10.10608c0.74139,-0.9173 1.95774,-1.31623 2.94994,-1.9539c5.75499,-3.69867 10.42658,-4.20103 15.92511,0.16989c0.35618,0.28313 0.75892,0.53286 1.1397,0.80161c0.01872,-2.77418 -0.19219,-5.51649 -1.92026,-7.89097c-1.17548,-1.61518 -6.6267,-2.18325 -8.31418,-0.8336c-0.61327,0.4905 -0.5627,1.46634 -0.84404,2.19951c0,0 -1.11803,2.23607 -3.3541,1.11803c-2.23607,-1.11803 -1.11803,-3.3541 -1.11803,-3.3541c0.72918,-1.28788 1.00284,-2.97662 2.18754,-3.86365c1.9692,-1.47442 9.37077,-2.31811 11.84153,-1.29962c1.39683,0.57579 2.50626,1.74511 3.49061,2.89129c3.44957,4.01668 2.9806,9.43437 2.9806,14.30371v3.33474c0,1.38071 -1.11929,2.5 -2.5,2.5c-0.77872,0 -1.47428,-0.35604 -1.93277,-0.91421l-1.33999,-1.60799c-0.26654,1.02629 -1.24689,1.58649 -1.24689,1.58649z"/><path d="M308.26953,141.47698c2.5,0 2.5,2.5 2.5,2.5v0.53128c0,5.61064 0.32156,11.3022 -0.56288,16.86594c-0.94853,5.96689 -2.64778,11.70562 -3.31921,17.74002c-1.0981,9.869 -1.43071,19.76231 -1.43071,29.67898c0,0 0,2.5 -2.5,2.5c-2.5,0 -2.5,-2.5 -2.5,-2.5c0,-10.10078 0.34283,-20.18005 1.46138,-30.23193c0.68056,-6.11587 2.3791,-11.93499 3.35174,-17.97955c0.85111,-5.28931 0.49968,-10.73722 0.49968,-16.07345v-0.53128c0,0 0,-2.5 2.5,-2.5z"/><path d="M327.88191,149.61397c-1.38675,2.08013 -3.46688,0.69338 -3.46688,0.69338l-1.98341,-1.38351c-4.6338,-4.69385 -8.35074,-10.09218 -12.82047,-14.94918c-0.96783,-1.05168 -1.85307,-2.17702 -2.7468,-3.29235c-0.5817,-0.72593 -1.14556,-1.46711 -1.6782,-2.22978c-0.15121,-0.21651 -0.21581,-0.91647 -0.36874,-0.70118c-0.30274,0.42616 -0.02174,1.07317 -0.23467,1.55058c-1.24303,2.78704 -2.6673,5.50578 -4.31527,8.07422c-1.32741,2.06883 -3.01836,3.9209 -4.10644,6.12502c0,0 -1.11804,2.23607 -3.35411,1.11803c-2.23607,-1.11803 -1.11803,-3.35411 -1.11803,-3.35411c1.19541,-2.36517 2.95893,-4.3978 4.39405,-6.6257c1.60807,-2.49641 2.51968,-5.40575 4.18521,-7.8642c0.89418,-1.31987 1.42437,-3.30959 2.95301,-3.76221c3.79347,-1.12323 5.74692,2.38381 7.5161,4.50696c1.93279,2.31949 4.15468,4.38435 6.13871,6.66018c3.23245,3.70786 5.6232,7.71849 9.10828,11.22536l1.20428,0.74161c0,0 2.08013,1.38675 0.69338,3.46687z"/><path d="M289.29983,98.28687c0,-2.5 2.5,-2.5 2.5,-2.5l1.6615,0.04336c4.97441,-0.93494 9.77274,-1.10592 14.8082,-1.10592c2.32268,0.01454 4.62106,-0.53236 6.8956,-1.00303c1.73847,-0.35974 4.36899,0.10617 5.0899,-2.10601c0.17805,-0.54637 -0.57404,-3.77215 -0.60183,-3.89626c-0.2165,-0.96685 -0.20893,-2.02575 -0.69232,-2.89061c-0.27787,-0.49715 -0.95333,-0.62369 -1.43856,-0.92187c-4.33949,-2.6667 -7.63318,-1.50143 -12.57128,-1.21546c-1.54469,0.08946 -3.44919,0.98266 -4.64183,-0.00308c-1.20247,-0.99386 -0.75441,-3.03803 -0.91503,-4.58976c-0.50437,-4.8727 -0.08939,-10.07834 -0.01188,-15.03225c-0.04818,0 -0.09636,0 -0.14452,0c0,0 -2.5,0 -2.5,-2.5c0,-2.5 2.5,-2.5 2.5,-2.5c10.9798,0 21.95959,0 32.93938,0h0.53128c0,0 2.5,0 2.5,2.5c0,2.5 -2.5,2.5 -2.5,2.5c-9.27251,0 -18.92392,0 -28.31426,0c0,3.59401 0,7.18801 0,10.78201c0,1.27068 0.20623,2.56018 0.06378,3.81786c2.6843,-0.72906 8.85179,-1.15819 11.35989,-0.39003c0.89081,0.27283 6.41021,3.35089 7.2618,4.71784c2.57916,4.13999 3.58686,12.25961 -1.26828,15.22717c-3.23059,1.9746 -9.75447,2.48419 -13.54183,2.50349c-4.72753,0 -9.21125,0.13403 -13.88094,1.01919l-2.58875,0.04337c0,0 -2.5,0 -2.5,-2.5z"/><path d="M410.11791,70.05672c0.07229,2.49895 -2.42666,2.57125 -2.42666,2.57125l-0.11114,0.00321c-9.50059,0.27346 -19.03923,0.43887 -28.44511,1.51784c0.0414,0.29475 0.08659,0.5891 0.13588,0.883c0.80426,4.79518 2.24828,9.4931 3.17444,14.2716l0.52979,2.64888c0,0 0.49029,2.45145 -1.96116,2.94174c-2.45145,0.49029 -2.94174,-1.96116 -2.94174,-1.96116l-0.53278,-2.66392c-0.93366,-4.82676 -2.39801,-9.57202 -3.20092,-14.41754c-0.05751,-0.34706 -0.10987,-0.6945 -0.15752,-1.04229c-4.5991,0.70422 -9.15883,1.67276 -13.6589,3.02706c0,0 -2.39456,0.71837 -3.11293,-1.6762c-0.71837,-2.39456 1.6762,-3.11293 1.6762,-3.11293c4.84344,-1.44868 9.74656,-2.47366 14.68982,-3.21238c-0.11689,-3.26206 -0.00176,-6.53882 -0.00176,-9.80019c0,0 0,-2.5 2.5,-2.5c2.5,0 2.5,2.5 2.5,2.5c0,3.03645 -0.12274,6.10203 -0.03192,9.15062c9.48732,-1.07481 19.09731,-1.27305 28.69403,-1.55204l0.11114,-0.00321c0,0 2.49896,-0.07229 2.57125,2.42666z"/><path d="M434.18297,87.50486c-2.5,0 -2.5,-2.5 -2.5,-2.5v-1.06256c0,-5.87092 -0.68215,-12.47586 0.82828,-18.30276c-2.51743,3.20628 -5.07819,6.3371 -7.45084,9.66153c0,0 -1.45309,2.03434 -3.48743,0.58124c-2.03433,-1.4531 -0.58123,-3.48743 -0.58123,-3.48743c2.71236,-3.79433 5.655,-7.34909 8.52024,-11.02909l0.10143,-0.071l-0.02017,-0.0191l3.30165,-3.48692c0.45587,-0.48353 1.10236,-0.78536 1.81935,-0.78536c1.31881,0 2.39911,1.02117 2.49333,2.31595l0.41326,4.95916l-0.02391,0.00199c0.01155,0.08425 0.02227,0.16866 0.03209,0.25325c0.16741,1.44135 -0.86356,5.85166 -0.95065,7.87184c-0.16489,3.82515 0.00459,7.70519 0.00459,11.5367v1.06256c0,0 0,2.5 -2.5,2.5z"/><path d="M454.68736,70.27119c-1.52067,-2.33297 -3.07371,-4.60721 -4.78446,-6.89243c-12.68439,-16.94378 -32.67181,-24.92813 -52.59171,-29.9081c-13.00254,-3.25063 -26.60289,-3.31913 -39.9667,-3.34051c-8.47355,-0.01356 -17.47482,-0.77004 -25.88909,0.50436c-8.34413,1.26378 -16.69681,3.46618 -24.95603,5.20353c-10.43412,2.76243 -21.75371,4.1174 -31.69727,8.4035c-5.28965,2.28006 -10.0274,5.74961 -14.51871,9.27745c-3.49917,2.74853 -9.33755,7.35248 -10.61671,11.84181c-0.38918,1.36589 0.00455,2.8405 0.00549,4.26075c0.00179,2.70999 -0.34743,5.4393 -0.02405,8.12991c0.42241,3.5146 3.19731,6.56991 4.89046,9.54647c1.5464,1.88856 3.61402,3.31836 5.67031,4.63354c7.75302,4.95874 14.73549,8.81064 23.69834,11.17085c18.11181,4.76941 37.07222,8.63223 55.65289,10.81813c7.4325,0.87444 14.9233,2.35112 22.37287,2.94594c9.46414,0.75567 19.19451,0.17169 28.68499,0.17169c4.00495,0 8.51622,0.5676 12.48736,0.01391c3.98787,-0.55602 8.07817,-1.8548 11.9905,-2.75656c5.29413,-1.22025 10.54059,-2.02168 15.40659,-4.47588c5.92714,-2.37086 10.87145,-5.72627 16.06662,-9.33502c0.75476,-0.52429 1.73714,-0.72918 2.38779,-1.37817c6.49993,-6.48329 10.34674,-17.22389 7.29332,-26.06166l-0.60888,0.22699c0,0 -1.77308,-1.18206 -0.95391,-3.0005zM462.13373,82.17717c-0.68514,7.65671 -4.35188,15.15877 -9.78525,20.603c-0.80989,0.8115 -1.98794,1.14896 -2.92501,1.80952c-5.41627,3.81803 -10.67094,7.31033 -16.87276,9.79106c-5.19008,2.57444 -10.70494,3.48997 -16.33185,4.78693c-4.11667,0.94886 -8.39187,2.28963 -12.58677,2.85648c-5.47572,0.73993 -11.51479,0.01391 -17.04587,0.01391c-8.29038,0 -16.78302,0.47262 -25.05118,-0.18756c-7.51255,-0.59985 -15.06422,-2.08259 -22.55912,-2.96432c-13.06265,-1.53682 -25.63606,-4.49764 -38.51322,-7.07297c-9.31361,-1.86265 -18.83537,-3.42005 -27.69215,-6.97019c-5.55873,-2.22816 -10.278,-5.4842 -15.25853,-8.70125c-2.59718,-1.67758 -5.08623,-3.62924 -7.08041,-5.99207c-2.19616,-3.82687 -5.08877,-7.1979 -5.73515,-11.70475c-0.02414,-0.16831 -0.03119,-8.50673 -0.02405,-8.87105c0.03667,-1.87103 -0.34229,-3.8178 0.19361,-5.6108c1.67017,-5.58805 7.91721,-10.90611 12.32748,-14.37507c4.82958,-3.79879 9.94183,-7.48649 15.62944,-9.93809c10.22231,-4.40625 21.79601,-5.84086 32.52161,-8.6767c8.41307,-1.77259 16.92677,-4.01416 25.42922,-5.29204c8.65243,-1.30043 17.86501,-0.56498 26.57873,-0.55104c13.77572,0.02203 27.76738,0.13879 41.17138,3.48979c21.07772,5.26943 41.94898,13.88298 55.37904,31.75882c4.11683,5.47963 10.21681,12.35746 10.40665,19.31329c0,0 0,2.27892 -2.17582,2.48511z"/><path d="M255.51637,10.09433c0,2.5 -2.5,2.5 -2.5,2.5l-0.49239,-0.06588c-13.45674,3.1425 -25.28735,11.69522 -32.14995,23.57322c0.07499,-0.03936 0.14735,-0.07421 0.2168,-0.10417c7.28664,-3.14314 19.80707,-2.65678 22.10621,6.45461c0.49361,1.95615 0.52511,4.11225 -0.02829,6.05234c-1.15443,4.04716 -3.28686,5.32513 -6.13361,7.62169c-1.25315,1.01096 -2.29146,2.38721 -3.77451,3.01412c-4.3578,1.8421 -10.22186,0.8956 -13.80688,-2.0129c-4.88812,-3.96569 -6.11319,-11.00604 -6.11319,-16.69154c6.43388,-16.61975 21.28349,-28.72102 38.54306,-32.7756l1.63273,-0.06589c0,0 2.5,0 2.5,2.5zM218.03748,44.87464c0.52513,3.17247 1.81462,6.40809 4.2253,8.50433c5.06567,4.40492 13.8726,-0.64283 15.59974,-6.25294c2.71519,-8.81948 -10.01467,-8.78284 -15.1117,-6.61915c-0.7283,0.30917 -3.60107,3.22325 -4.71334,4.36776z"/><path d="M102.13275,186.85428c-2.5,0 -2.5,-2.5 -2.5,-2.5l0.00455,-2.27581c0.64143,-9.68574 5.27282,-18.91888 9.73751,-27.36007c3.83654,-7.25357 7.20675,-14.48455 11.60724,-21.44235c4.68546,-6.25197 8.92212,-12.87495 13.73642,-19.02449c5.57135,-7.11654 12.3208,-13.07937 18.77989,-19.33163c5.52145,-5.34465 10.63563,-11.33102 16.68639,-16.12849c1.48967,-1.18112 6.4203,-3.92909 8.27459,-4.98896c0,0 2.17061,-1.24035 3.41096,0.93026c1.24035,2.17061 -0.93026,3.41096 -0.93026,3.41096c-9.39675,5.36814 -16.22444,12.85954 -23.91681,20.32241c-6.31976,6.13122 -12.95651,11.94477 -18.40974,18.92055c-4.7342,6.056 -8.89847,12.57686 -13.51479,18.72721c-4.28912,6.79281 -7.56042,13.86069 -11.3038,20.94179c-4.08878,7.73448 -8.69236,16.41954 -9.16669,25.32418l0.00455,1.97444c0,0 0,2.5 -2.5,2.5z"/><path d="M133.2712,175.36751c2.08013,1.38675 0.69338,3.46688 0.69338,3.46688l-2.20763,2.52564c-1.42818,0.57577 -6.18164,2.45907 -7.05878,2.99584c-3.94544,2.41443 -7.54176,6.2198 -11.23092,9.04139c-4.93835,3.77439 -10.37693,8.25002 -16.106,10.7475c-1.82089,0.79378 -3.70477,2.0426 -5.67754,1.81033c-5.54711,-0.65311 -4.27041,-6.35557 -4.27041,-9.91263c0,-13.46091 1.06256,-26.89173 1.06256,-40.37731c0,0 0,-2.5 2.5,-2.5c2.5,0 2.5,2.5 2.5,2.5c0,9.56752 0.03561,19.28015 -0.53511,28.82739c-0.23825,3.98562 -0.52745,7.55053 -0.52745,11.54992c0,1.06256 0.05925,2.12677 0,3.18768c-0.033,0.59096 -0.57495,1.9818 -0.02017,1.77553c6.50838,-2.41978 12.57612,-7.40206 18.03686,-11.5802c3.82192,-2.92215 7.55073,-6.82413 11.63977,-9.32301c1.29888,-0.79377 5.90462,-2.60798 7.81707,-3.37953l-0.08251,-0.66204c0,0 1.38675,-2.08013 3.46688,-0.69338z"/></g></g></svg>