<svg version="1.1" xmlns="http://www.w3.org/2000/svg" xmlns:xlink="http://www.w3.org/1999/xlink" width="440.08669" height="219.78198" viewBox="0,0,440.08669,219.78198"><g transform="translate(-35.96046,-47.63868)"><g data-paper-data="{&quot;isPaintingLayer&quot;:true}" fill="#9966ff" fill-rule="nonzero" stroke="none" stroke-width="0.5" stroke-linecap="butt" stroke-linejoin="miter" stroke-miterlimit="10" stroke-dasharray="" stroke-dashoffset="0" style="mix-blend-mode: normal"><path d="M55.32577,195.36191c-3.89146,-5.10406 -7.01474,-10.67121 -10.92709,-15.78156c-1.67087,-2.18251 -3.51487,-4.24566 -4.98851,-6.56591c-1.96946,-3.10093 -4.66223,-8.00005 -2.8512,-11.81645c1.61601,-3.40542 8.04697,-4.81366 11.01476,-6.6782c0.70376,-0.14683 6.98775,-1.50295 8.40048,-1.66158c1.81607,-0.20392 3.88093,-1.28225 5.46935,-0.37857c3.74001,2.12775 3.62517,7.40443 4.10433,10.79917c1.9435,13.76926 1.81446,27.61477 5.96212,41.02763l0.09865,0.14338c4.18318,-0.67829 9.00661,-0.07803 13.23378,-0.08886c15.59185,-0.48805 31.12811,-1.21299 46.72868,-1.21299c0.86239,0 1.78581,-0.0276 2.74976,-0.06233c0.26189,-0.38076 0.53903,-0.60247 0.53903,-0.60247c7.75101,-6.20062 14.32326,-13.77346 20.90157,-21.21855c2.38368,-2.69777 4.256,-5.47642 6.79198,-8.01236c1.47476,-1.47474 3.00332,-4.06847 5.29685,-4.56251c0.85397,-0.18395 9.59547,0.34523 10.82944,0.4127c7.10924,0.38871 13.92631,0.76388 20.88314,2.32595c-0.77925,1.91604 -1.07322,4.11123 -2.33774,5.74814c-0.87652,1.13465 -2.518,1.37441 -3.74169,2.1216c-2.88151,1.75947 -5.41017,3.59617 -8.21731,5.47101c-5.4278,3.62514 -10.96188,7.01873 -16.74678,10.0472c-2.55118,1.33557 -6.24245,1.29994 -8.42866,3.10108c-2.2399,1.84538 -4.35782,4.38277 -6.44024,6.46673l-1.21263,1.21263c0,0 -0.30818,0.30818 -0.79586,0.53851c0.06386,0.05578 0.12705,0.11249 0.18955,0.17016c2.29508,2.11773 1.92352,4.26807 1.94486,6.92145c0.03436,4.26913 0.13687,8.51614 0.29031,12.78266c1.80813,10.76436 1.08704,21.35563 1.72274,32.15069c0.53902,0.34587 1.01853,0.96125 1.01853,2.05614c0,2.5 -2.5,2.5 -2.5,2.5l-0.63712,-0.0104c-0.08731,0.00684 -0.17806,0.0104 -0.27236,0.0104c-0.04845,0 -0.09596,-0.00095 -0.14255,-0.00278c-3.71774,0.39748 -7.42011,0.28569 -11.14926,0.59866c-10.50916,1.04075 -21.35415,0.61676 -31.91031,0.61676c-14.90456,0 -29.80914,0 -44.7137,0c0,0 -2.5,0 -2.5,-2.5c0,-0.01175 0.00006,-0.02346 0.00017,-0.0351c-0.09841,-0.17779 -0.14415,-0.29973 -0.14415,-0.29973c-1.7867,-4.96299 -0.83564,-9.62516 -0.45224,-14.74443c0.71085,-9.4914 -0.12936,-18.73041 1.18239,-28.24259c0.29265,-2.12214 0.47667,-4.25908 0.62646,-6.39606c0.10801,-1.54092 -0.50306,-3.4583 0.20578,-4.74042c-3.65957,-3.47529 -6.00178,-7.57754 -9.07531,-11.6088zM65.36882,200.70746c-2.45984,-10.52661 -2.79979,-21.11471 -4.04076,-31.89001c-0.36163,-3.13999 -0.6475,-6.29722 -1.25847,-9.39835c-0.16805,-0.85296 -0.07722,-2.07588 -0.8552,-2.46388c-0.7615,-0.37978 -1.58747,0.62665 -2.41276,0.83405c-2.42141,0.6085 -4.91065,0.90536 -7.36373,1.37c-2.08835,1.34739 -4.43273,2.25909 -6.72508,3.21918c-0.59903,0.25089 -1.38538,0.42884 -1.66227,1.0163c-0.29522,0.62635 0.02718,1.39864 0.2091,2.06675c0.83152,3.05383 3.11768,6.20813 4.97358,8.63672c4.54989,5.95388 8.51489,12.25197 13.0358,18.18948c2.16384,2.84187 3.909,5.76524 6.09981,8.41976zM148.90229,202.06126l1.21263,-1.21263c2.16546,-2.16394 4.49624,-5.04368 6.89871,-6.87223c2.75871,-2.09968 6.23937,-2.01887 9.22929,-3.61177c5.59857,-2.9827 10.97177,-6.23053 16.24617,-9.75337c1.99313,-1.33123 5.03551,-4.1579 8.00741,-5.758c-0.73149,-0.02041 -1.46089,-0.07983 -2.15284,-0.12949c-4.97161,-0.35676 -9.94802,-0.57018 -14.92064,-0.90125c-1.38831,-0.09243 -2.77899,-0.50128 -4.16056,-0.33634c-1.52418,0.18196 -2.10618,2.23418 -3.19158,3.3196c-2.45346,2.4535 -4.2325,5.12495 -6.54697,7.75185c-5.60915,6.36633 -11.24412,12.79959 -17.55795,18.4524c2.16217,0.11846 4.27828,0.42721 6.16305,1.11102c-0.12775,-1.15877 0.77327,-2.05979 0.77327,-2.05979zM149.09238,226.51585c-0.17431,-4.43391 -0.35697,-8.84961 -0.31601,-13.28893c0.00628,-0.68077 0.40515,-2.69997 -0.4804,-3.38592c-3.98246,-3.08479 -12.04543,-1.69303 -16.72487,-1.69303c-15.57224,0 -31.08026,0.7267 -46.64399,1.21228c-4.35019,0.01182 -8.70304,-0.02905 -13.05176,0.11038c-1.07754,0.03455 -2.40284,-0.52454 -3.22997,0.16693c-0.54862,0.45864 0.4729,1.36265 0.5499,2.07358c0.29332,2.70816 -0.29254,4.30193 -0.67461,7.0883c-1.2923,9.42471 -0.46439,18.58499 -1.15444,27.99938c-0.29949,4.08595 -1.38607,8.17994 0.00107,12.13023c14.27635,0 28.55271,0 42.82906,0c10.39781,0 21.10467,0.44977 31.45392,-0.59588c3.04913,-0.25241 6.0836,-0.21442 9.11894,-0.41974c-0.56896,-10.54006 0.06282,-20.8819 -1.67683,-31.39757z"/><path d="M128.43348,212.52984c0,0.25426 -0.06049,0.4568 -0.15686,0.61815l1.00222,1.14995c2.15904,3.74189 1.28205,8.38997 1.28205,12.48033c0,7.77275 0.63554,15.75448 -0.36351,23.48121c0,0 -0.16145,1.24235 -1.61448,1.10432c-1.45303,-0.13804 -1.29159,-1.38039 -1.29159,-1.38039c0.00724,-0.0554 0.01439,-0.11082 0.02145,-0.16625c-0.11791,0.02564 -0.19579,0.0323 -0.19579,0.0323c-10.01964,0.85664 -19.44899,3.15418 -29.31944,4.53439c-6.46405,0.90389 -13.0513,0.6255 -19.57663,0.6255c-2.12358,-0.0068 -4.37525,1.16351 -6.3454,0.48587c-3.4227,-1.17726 -0.87259,-3.61001 -0.28406,-5.00266c0.59744,-1.41375 0.97076,-2.9356 1.92315,-4.19915c0.97091,-1.28812 3.05748,-2.59187 3.77373,-4.05406c0.23253,-0.47469 -1.21672,-0.10638 -1.7685,-0.31202c-1.02378,-0.38156 -2.74895,-0.60534 -2.81102,-1.55875c-0.12305,-1.89 4.95404,-4.7131 6.55714,-5.78201c0.94456,-0.62982 2.94152,-0.65321 3.01209,-1.67559c0.08462,-1.22595 -5.25021,-1.97419 -5.80559,-2.70796c-0.58354,-0.77098 -0.06902,-1.83572 -0.10354,-2.75358c0.54292,-0.23077 1.59455,-0.17475 1.62876,-0.69232c0.03152,-0.47698 -1.03428,-0.36207 -1.54646,-0.55303c-0.61683,-0.22997 -3.599,-1.31122 -3.90849,-1.80021c-1.61003,-2.54386 0.2678,-5.20458 2.57083,-6.55382c2.72608,-1.59709 5.78849,-1.61866 8.91365,-2.12074c5.31918,-0.85457 10.6835,-1.5855 16.08302,-1.9589c3.79218,-0.26225 7.66208,0.29455 11.39853,-0.35467c2.08903,-0.17907 4.94474,0.11804 6.97181,-0.28348c2.61083,-0.51715 5.17889,-1.43944 7.89604,-1.83538l0.59492,-0.01701c0,0 1.46198,0 1.46198,1.25zM119.15234,215.56535c-2.18868,0.40226 -4.966,0.13142 -7.21089,0.32283c-3.82304,0.64404 -7.72364,0.10365 -11.59438,0.37399c-5.29879,0.37007 -10.5596,1.08588 -15.78004,1.92414c-2.70798,0.43483 -7.72258,0.40665 -9.45673,2.75583c-2.03983,2.76328 5.26996,3.40155 5.8109,5.8573c0.17211,0.78134 -1.27795,1.15529 -1.91692,1.73294c-0.17337,0.46551 1.01736,0.44852 1.54861,0.62838c2.33893,0.79189 4.73621,1.37793 4.59757,4.21745c-0.03599,0.73714 -1.07705,1.16117 -1.71516,1.65782c-1.82785,1.42263 -4.45396,3.50908 -6.88455,4.49382c0.82677,0.03169 1.73178,0.0545 2.35898,0.49135c0.75022,0.52253 1.22791,1.39325 1.30255,2.21812c0.2199,2.43027 -4.42819,5.17897 -5.40537,7.39705c-0.2406,0.54613 -0.2041,1.16579 -0.46521,1.70499c-0.32345,0.66793 -2.10481,2.09803 -1.30698,1.8587c1.65092,-0.49523 3.43662,-0.68576 5.18619,-0.69073c6.35076,0 12.77503,0.28709 19.06632,-0.58713c9.94272,-1.38162 19.44573,-3.69734 29.5388,-4.56035c0,0 0.35877,-0.03068 0.73779,0.09078c0.58875,-6.83689 0.07312,-13.84305 0.07312,-20.67436c0,-3.46862 1.02913,-8.02651 -0.84536,-11.166l-0.98965,-1.1198c0,0 -0.17984,-0.20502 -0.26809,-0.49902c-2.16808,0.44728 -4.25268,1.18064 -6.3815,1.57189z" data-paper-data="{&quot;index&quot;:null}"/><path d="M331.81003,198.76807c-3.89146,-5.10406 -7.01474,-10.67121 -10.92709,-15.78156c-1.67087,-2.18251 -3.51487,-4.24566 -4.98851,-6.56591c-1.96946,-3.10093 -4.66223,-8.00005 -2.8512,-11.81645c1.61601,-3.40542 8.04697,-4.81366 11.01476,-6.6782c0.70376,-0.14683 6.98775,-1.50295 8.40048,-1.66158c1.81607,-0.20392 3.88093,-1.28225 5.46935,-0.37857c3.74001,2.12775 3.62517,7.40443 4.10433,10.79917c1.9435,13.76926 1.81446,27.61477 5.96212,41.02763l0.09865,0.14338c4.18318,-0.67829 9.00661,-0.07803 13.23378,-0.08886c15.59185,-0.48805 31.12811,-1.21299 46.72868,-1.21299c0.86239,0 1.78581,-0.0276 2.74976,-0.06233c0.26189,-0.38076 0.53903,-0.60247 0.53903,-0.60247c7.75101,-6.20062 14.32326,-13.77346 20.90157,-21.21855c2.38368,-2.69777 4.256,-5.47642 6.79198,-8.01236c1.47476,-1.47474 3.00332,-4.06847 5.29685,-4.56251c0.85397,-0.18395 9.59547,0.34523 10.82944,0.4127c7.10924,0.38871 13.92631,0.76388 20.88314,2.32595c-0.77925,1.91604 -1.07322,4.11123 -2.33774,5.74814c-0.87652,1.13465 -2.518,1.37441 -3.74169,2.1216c-2.88151,1.75947 -5.41017,3.59617 -8.21731,5.47101c-5.4278,3.62514 -10.96188,7.01873 -16.74678,10.0472c-2.55118,1.33557 -6.24245,1.29994 -8.42866,3.10108c-2.2399,1.84538 -4.35782,4.38277 -6.44024,6.46673l-1.21263,1.21263c0,0 -0.30818,0.30818 -0.79586,0.53851c0.06386,0.05578 0.12705,0.11249 0.18955,0.17016c2.29508,2.11773 1.92352,4.26807 1.94486,6.92145c0.03436,4.26913 0.13687,8.51614 0.29031,12.78266c1.80813,10.76436 1.08704,21.35563 1.72274,32.15069c0.53902,0.34587 1.01853,0.96125 1.01853,2.05614c0,2.5 -2.5,2.5 -2.5,2.5l-0.63712,-0.0104c-0.08731,0.00684 -0.17806,0.0104 -0.27236,0.0104c-0.04845,0 -0.09596,-0.00095 -0.14255,-0.00278c-3.71774,0.39748 -7.42011,0.28569 -11.14926,0.59866c-10.50916,1.04075 -21.35415,0.61676 -31.91031,0.61676c-14.90456,0 -29.80914,0 -44.7137,0c0,0 -2.5,0 -2.5,-2.5c0,-0.01175 0.00006,-0.02346 0.00017,-0.0351c-0.09841,-0.17779 -0.14415,-0.29973 -0.14415,-0.29973c-1.7867,-4.96299 -0.83564,-9.62516 -0.45224,-14.74443c0.71085,-9.4914 -0.12936,-18.73041 1.18239,-28.24259c0.29265,-2.12214 0.47667,-4.25908 0.62646,-6.39606c0.10801,-1.54092 -0.50306,-3.4583 0.20578,-4.74042c-3.65957,-3.47529 -6.00178,-7.57754 -9.07531,-11.6088zM341.85308,204.11362c-2.45984,-10.52661 -2.79979,-21.11471 -4.04076,-31.89001c-0.36163,-3.13999 -0.6475,-6.29722 -1.25847,-9.39835c-0.16805,-0.85296 -0.07722,-2.07588 -0.8552,-2.46388c-0.7615,-0.37978 -1.58747,0.62665 -2.41276,0.83405c-2.42141,0.6085 -4.91065,0.90536 -7.36373,1.37c-2.08835,1.34739 -4.43273,2.25909 -6.72508,3.21918c-0.59903,0.25089 -1.38538,0.42884 -1.66227,1.0163c-0.29522,0.62635 0.02718,1.39864 0.2091,2.06675c0.83152,3.05383 3.11768,6.20813 4.97358,8.63672c4.54989,5.95388 8.51489,12.25197 13.0358,18.18948c2.16384,2.84187 3.909,5.76524 6.09981,8.41976zM425.38655,205.46742l1.21263,-1.21263c2.16546,-2.16394 4.49624,-5.04368 6.89871,-6.87223c2.75871,-2.09968 6.23937,-2.01887 9.22929,-3.61177c5.59857,-2.9827 10.97177,-6.23053 16.24617,-9.75337c1.99313,-1.33123 5.03551,-4.1579 8.00741,-5.758c-0.73149,-0.02041 -1.46089,-0.07983 -2.15284,-0.12949c-4.97161,-0.35676 -9.94802,-0.57018 -14.92064,-0.90125c-1.38831,-0.09243 -2.77899,-0.50128 -4.16056,-0.33634c-1.52418,0.18196 -2.10618,2.23418 -3.19158,3.3196c-2.45346,2.4535 -4.2325,5.12495 -6.54697,7.75185c-5.60915,6.36633 -11.24412,12.79959 -17.55795,18.4524c2.16217,0.11846 4.27828,0.42721 6.16305,1.11102c-0.12775,-1.15877 0.77327,-2.05979 0.77327,-2.05979zM425.57664,229.92201c-0.17431,-4.43391 -0.35697,-8.84961 -0.31601,-13.28893c0.00628,-0.68077 0.40515,-2.69997 -0.4804,-3.38592c-3.98246,-3.08479 -12.04543,-1.69303 -16.72487,-1.69303c-15.57224,0 -31.08026,0.7267 -46.64399,1.21228c-4.35019,0.01182 -8.70304,-0.02905 -13.05176,0.11038c-1.07754,0.03455 -2.40284,-0.52454 -3.22997,0.16693c-0.54862,0.45864 0.4729,1.36265 0.5499,2.07358c0.29332,2.70816 -0.29254,4.30193 -0.67461,7.0883c-1.2923,9.42471 -0.46439,18.58499 -1.15444,27.99938c-0.29949,4.08595 -1.38607,8.17994 0.00107,12.13023c14.27635,0 28.55271,0 42.82906,0c10.39781,0 21.10467,0.44977 31.45392,-0.59588c3.04913,-0.25241 6.0836,-0.21442 9.11894,-0.41974c-0.56896,-10.54006 0.06282,-20.8819 -1.67683,-31.39757z"/><path d="M404.91774,215.936c0,0.25426 -0.06049,0.4568 -0.15686,0.61815l1.00222,1.14995c2.15904,3.74189 1.28205,8.38997 1.28205,12.48033c0,7.77275 0.63554,15.75448 -0.36351,23.48121c0,0 -0.16145,1.24235 -1.61448,1.10432c-1.45303,-0.13804 -1.29159,-1.38039 -1.29159,-1.38039c0.00724,-0.0554 0.01439,-0.11082 0.02145,-0.16625c-0.11791,0.02564 -0.19579,0.0323 -0.19579,0.0323c-10.01964,0.85664 -19.44899,3.15418 -29.31944,4.53439c-6.46405,0.90389 -13.0513,0.6255 -19.57663,0.6255c-2.12358,-0.0068 -4.37525,1.16351 -6.3454,0.48587c-3.4227,-1.17726 -0.87259,-3.61001 -0.28406,-5.00266c0.59744,-1.41375 0.97076,-2.9356 1.92315,-4.19915c0.97091,-1.28812 3.05748,-2.59187 3.77373,-4.05406c0.23253,-0.47469 -1.21672,-0.10638 -1.7685,-0.31202c-1.02378,-0.38156 -2.74895,-0.60534 -2.81102,-1.55875c-0.12305,-1.89 4.95404,-4.7131 6.55714,-5.78201c0.94456,-0.62982 2.94152,-0.65321 3.01209,-1.67559c0.08462,-1.22595 -5.25021,-1.97419 -5.80559,-2.70796c-0.58354,-0.77098 -0.06902,-1.83572 -0.10354,-2.75358c0.54292,-0.23077 1.59455,-0.17475 1.62876,-0.69232c0.03152,-0.47698 -1.03428,-0.36207 -1.54646,-0.55303c-0.61683,-0.22997 -3.599,-1.31122 -3.90849,-1.80021c-1.61003,-2.54386 0.2678,-5.20458 2.57083,-6.55382c2.72608,-1.59709 5.78849,-1.61866 8.91365,-2.12074c5.31918,-0.85457 10.6835,-1.5855 16.08302,-1.9589c3.79218,-0.26225 7.66208,0.29455 11.39853,-0.35467c2.08903,-0.17907 4.94474,0.11804 6.97181,-0.28348c2.61083,-0.51715 5.17889,-1.43944 7.89604,-1.83538l0.59492,-0.01701c0,0 1.46198,0 1.46198,1.25zM395.6366,218.97151c-2.18868,0.40226 -4.966,0.13142 -7.21089,0.32283c-3.82304,0.64404 -7.72364,0.10365 -11.59438,0.37399c-5.29879,0.37007 -10.5596,1.08588 -15.78004,1.92414c-2.70798,0.43483 -7.72258,0.40665 -9.45673,2.75583c-2.03983,2.76328 5.26996,3.40155 5.8109,5.8573c0.17211,0.78134 -1.27795,1.15529 -1.91692,1.73294c-0.17337,0.46551 1.01736,0.44852 1.54861,0.62838c2.33893,0.79189 4.73621,1.37793 4.59757,4.21745c-0.03599,0.73714 -1.07705,1.16117 -1.71516,1.65782c-1.82785,1.42263 -4.45396,3.50908 -6.88455,4.49382c0.82677,0.03169 1.73178,0.0545 2.35898,0.49135c0.75022,0.52253 1.22791,1.39325 1.30255,2.21812c0.2199,2.43027 -4.42819,5.17897 -5.40537,7.39705c-0.2406,0.54613 -0.2041,1.16579 -0.46521,1.70499c-0.32345,0.66793 -2.10481,2.09803 -1.30698,1.8587c1.65092,-0.49523 3.43662,-0.68576 5.18619,-0.69073c6.35076,0 12.77503,0.28709 19.06632,-0.58713c9.94272,-1.38162 19.44573,-3.69734 29.5388,-4.56035c0,0 0.35877,-0.03068 0.73779,0.09078c0.58875,-6.83689 0.07312,-13.84305 0.07312,-20.67436c0,-3.46862 1.02913,-8.02651 -0.84536,-11.166l-0.98965,-1.1198c0,0 -0.17984,-0.20502 -0.26809,-0.49902c-2.16808,0.44728 -4.25268,1.18064 -6.3815,1.57189z" data-paper-data="{&quot;index&quot;:null}"/><path d="M109.65207,230.47788c5.83601,3.22884 4.70895,11.59953 -0.3755,14.98411c-3.00483,2.00024 -8.99004,0.8957 -12.45662,0.8957c0,0 -0.98381,0 -1.71712,-0.61716c-0.04475,-0.01298 -0.09009,-0.0271 -0.13602,-0.04241c-2.37171,-0.79057 -1.58114,-3.16228 -1.58114,-3.16228c2.29293,-6.84438 1.41521,-13.35217 2.56212,-20.34036l0.57191,-2.32047c0,0 0.60634,-2.42535 3.03169,-1.81901c2.42535,0.60634 1.81901,3.03169 1.81901,3.03169l-0.49065,1.92978c-0.33128,1.95375 -0.36717,3.88425 -0.36108,5.81456c2.9159,0.38946 6.84278,0.37855 9.13338,1.64586zM106.6771,241.19083c1.52971,-1.02342 3.25109,-5.26421 0.68706,-6.26711c-1.97761,-0.77353 -4.55806,-0.83905 -6.89881,-1.07953c-0.02312,0.40842 -0.054,0.8177 -0.09501,1.22807c-0.21618,2.16356 -0.76109,4.32394 -1.40135,6.42776c2.65751,0.24487 6.29817,0.63409 7.70811,-0.3092z"/><path d="M384.31288,243.06741c-1.71082,-1.29112 -3.41649,-2.35092 -4.74116,-2.59728c-2.47288,-0.4599 -6.60924,1.75743 -8.3148,3.46621c-0.08338,0.08354 -1.67046,2.70412 -0.97843,3.23288c0.50833,0.3884 1.27662,-0.13707 1.91588,-0.11263c1.21097,0.04629 3.26249,0.61003 4.51755,0.13389c1.57271,-0.59664 2.80742,-1.8685 4.30993,-2.62472l1.99979,-1.14717c0,0 0.56922,-0.32527 1.29124,-0.35118zM385.50234,247.7598l-2.24442,1.27809c-3.27749,1.62629 -4.78166,3.22034 -8.71072,3.29547c-1.51089,0.02889 -7.18879,-0.90333 -7.83014,-1.65471c-2.68558,-3.14633 -1.32154,-7.431 0.84052,-10.10608c0.74139,-0.9173 1.95774,-1.31623 2.94994,-1.9539c5.75499,-3.69867 10.42658,-4.20103 15.92511,0.16989c0.35618,0.28313 0.75892,0.53286 1.1397,0.80161c0.01872,-2.77418 -0.19219,-5.51649 -1.92026,-7.89097c-1.17548,-1.61518 -6.6267,-2.18325 -8.31418,-0.8336c-0.61327,0.4905 -0.5627,1.46634 -0.84404,2.19951c0,0 -1.11803,2.23607 -3.3541,1.11803c-2.23607,-1.11803 -1.11803,-3.3541 -1.11803,-3.3541c0.72918,-1.28788 1.00284,-2.97662 2.18754,-3.86365c1.9692,-1.47442 9.37077,-2.31811 11.84153,-1.29962c1.39683,0.57579 2.50626,1.74511 3.49061,2.89129c3.44957,4.01668 2.9806,9.43437 2.9806,14.30371v3.33474c0,1.38071 -1.11929,2.5 -2.5,2.5c-0.77872,0 -1.47428,-0.35604 -1.93277,-0.91421l-1.33999,-1.60799c-0.26654,1.02629 -1.24689,1.58649 -1.24689,1.58649z"/><path d="M373.08573,123.41344c2.5,0 2.5,2.5 2.5,2.5l-0.01247,2.90577c-4.04567,20.37153 -1.05009,40.80134 -1.05009,61.37916c0,0 0,2.5 -2.5,2.5c-2.5,0 -2.5,-2.5 -2.5,-2.5c0,-20.69471 -3.16917,-41.40449 1.07503,-61.87789l-0.01247,-2.40704c0,0 0,-2.5 2.5,-2.5z"/><path d="M389.87961,130.64997c-2.08013,1.38675 -3.46688,-0.69338 -3.46688,-0.69338l-1.12617,-1.69435c-3.08123,-5.13539 -6.25165,-10.23951 -9.09222,-15.51372c-0.57201,-1.06207 -1.82242,-5.40363 -3.6399,-5.58629c-1.50983,-0.15174 -1.10182,1.94641 -1.40926,2.70695c-2.15109,5.32122 -4.32473,10.467 -6.34424,15.85951c0,0 -0.87781,2.34082 -3.21863,1.46301c-2.34082,-0.87781 -1.46301,-3.21863 -1.46301,-3.21863c2.05593,-5.47488 4.00925,-10.6772 6.40649,-16.01731c1.55021,-3.45327 0.92516,-5.68378 6.02866,-5.79353c3.86498,-0.08312 4.8881,2.30998 6.44176,5.01594c3.53842,6.16277 6.91581,12.40823 10.57782,18.5116l0.99895,1.49333c0,0 1.38675,2.08013 -0.69338,3.46688z"/><path d="M373.77341,93.50534c0,-2.5 2.5,-2.5 2.5,-2.5h0.53128c5.87496,0 13.70035,1.27776 19.28716,-0.89437c2.47677,-0.96295 4.27662,-3.55376 5.98874,-5.4259c-0.13592,-2.12693 0.38071,-4.30476 -0.04205,-6.39368c-0.88061,-4.35117 -9.09929,-3.24632 -12.0721,-2.96422c-1.55479,0.14754 -3.1037,0.38561 -4.63073,0.71319c-2.4656,0.52893 -10.35525,3.90382 -12.7263,0.80301c-0.92757,-1.21306 0.53457,-3.01042 0.67784,-4.53074c0.48385,-5.13455 0.03413,-10.58697 -0.03619,-15.7952c-0.71963,-0.26002 -1.74105,-0.91911 -1.5925,-2.55318c0.22634,-2.48973 2.71607,-2.26339 2.71607,-2.26339c9.68063,0.88023 18.83464,0.53756 28.4628,0.52101h3.71896c0,0 2.5,0 2.5,2.5c0,2.5 -2.5,2.5 -2.5,2.5h-3.71896c-8.32641,-0.01608 -16.32821,0.25061 -24.59389,-0.22332c0.0066,4.3766 0.03271,8.75436 -0.00141,13.13046c-0.00011,0.01361 0.25208,1.37143 0.09978,2.49591c0.36226,-0.03682 0.73009,-0.06088 1.07608,-0.14751c1.63493,-0.40934 3.22945,-0.98071 4.87869,-1.32789c4.3716,-0.92025 4.94892,-0.82687 8.95976,-0.86404c5.44988,-0.05051 11.58398,0.07404 13.56755,6.557c0.34517,1.12812 0.01976,7.87287 -0.04205,9.54473c-2.56589,3.26515 -4.87072,6.75146 -8.88711,8.38739c-6.16208,2.5099 -14.57227,1.23076 -21.09015,1.23076h-0.53128c0,0 -2.5,0 -2.5,-2.5z"/><path d="M126.04036,145.41442c-2.5,0 -2.5,-2.5 -2.5,-2.5l0.01217,-2.90275c0.81734,-4.1757 1.43064,-8.29055 3.33428,-12.17193c2.92912,-5.97226 7.47413,-11.35569 10.97427,-17.00587c1.90631,-3.07729 3.12606,-5.82675 5.31482,-8.74672c9.75273,-13.01087 22.82557,-23.23468 36.06474,-32.37882c6.47971,-4.42454 12.49203,-9.56628 19.60549,-13.00863c5.55019,-2.68585 11.55254,-3.66333 17.51448,-4.95258c7.6939,-1.66377 15.34303,-3.22953 23.22456,-3.77105c11.15544,-0.76646 22.64045,0.00772 33.82366,0.04268c9.25569,0.02939 18.50914,0.42474 27.75742,0.78513c9.91997,0.38657 20.11992,0.66572 29.87897,2.68504c8.35442,1.72868 17.10203,6.07284 20.47598,14.58064c0.59697,1.50534 0.44592,3.20793 0.66888,4.81189c0,0 0.31009,2.48069 -2.17061,2.79078c-2.48069,0.31009 -2.79078,-2.17061 -2.79078,-2.17061c-0.96478,-9.0396 -8.95272,-13.42781 -17.19191,-15.11546c-9.49784,-1.94546 -19.41425,-2.21 -29.06523,-2.58608c-9.18854,-0.35806 -18.38246,-0.75307 -27.57836,-0.78136c-11.07578,-0.03463 -22.46253,-0.81764 -33.50966,-0.05157c-7.62737,0.52893 -15.02011,2.05683 -22.46555,3.66688c-5.60627,1.21233 -11.26726,2.08552 -16.48746,4.61047c-6.83538,3.30619 -12.63352,8.32997 -18.85883,12.58512c-12.80511,8.8444 -25.47382,18.7003 -34.91468,31.28254c-1.79005,2.38568 -3.49149,5.84685 -5.04554,8.35499c-3.41821,5.51673 -7.85294,10.76837 -10.74047,16.58437c-1.64186,3.30701 -2.11244,6.89276 -2.8428,10.45282l0.01217,2.41006c0,0 0,2.5 -2.5,2.5z"/><path d="M172.96696,141.14665c1.76777,1.76777 0,3.53553 0,3.53553l-1.36924,1.08417c-7.57953,3.03684 -15.13591,6.12352 -22.66401,9.28594c-6.14284,2.58048 -12.2323,5.2715 -18.35616,7.89446c-0.33946,0.1454 -7.60647,3.33398 -8.58395,3.16601c-4.47843,-0.76959 -5.05862,-5.7254 -6.26991,-9.05645c-1.80418,-4.9615 -2.85666,-9.57121 -3.82994,-14.75051c-0.77694,-4.1345 -1.6914,-5.45426 -2.15452,-9.77066c-0.44533,-4.15063 -0.01217,-8.82985 -0.01217,-12.99707c0,0 0,-2.5 2.5,-2.5c2.5,0 2.5,2.5 2.5,2.5c0,11.18835 0.75195,22.50942 4.62899,33.14205c0.71009,1.9474 1.45799,3.88155 2.12512,5.84408c0.30889,0.90869 0.21775,2.7664 1.16802,2.63172c2.1739,-0.3081 3.94139,-1.94071 5.95963,-2.80527c6.13446,-2.62785 12.23481,-5.32314 18.38841,-7.90814c7.55365,-3.17311 15.13564,-6.27034 22.74087,-9.31748l-0.30668,0.02161c0,0 1.76777,-1.76777 3.53553,0z"/><path d="M427.98153,164.52298c1.76777,1.76777 0,3.53553 0,3.53553l-0.78589,0.75358c-3.3655,2.55424 -6.39519,5.24334 -8.96254,8.63627c-1.09223,1.44345 -1.62781,3.38172 -3.06419,4.48324c-1.79602,1.37732 -4.01666,3.0367 -6.24811,2.65811c-1.88483,-0.31979 -2.88991,-5.6612 -3.57313,-7.16c-2.74969,-6.03209 -5.28303,-12.17821 -6.05751,-18.8321c0,0 -0.27608,-2.48471 2.20863,-2.76079c2.48471,-0.27608 2.76079,2.20863 2.76079,2.20863c0.45985,4.38103 1.85337,9.13612 3.52178,13.36616l0.04255,-1.36093c0.88453,-4.41984 0.94639,-8.72683 1.5747,-13.17402c1.44312,-8.59897 4.0819,-17.09189 4.75841,-25.82766c0.3738,-4.82697 -0.00629,-9.85713 -0.00629,-14.69863c0,-2.86251 0.65013,-7.25025 0.04511,-10.15284c-0.96999,-4.65354 -2.16077,-8.27233 -2.17023,-13.2235c0,0 0,-2.5 2.5,-2.5c2.5,0 2.5,2.5 2.5,2.5c-0.00986,4.6808 1.22873,7.87981 2.08001,12.27796c0.63944,3.30367 0.04511,7.79952 0.04511,11.09838c0,4.96232 0.37202,10.10485 -0.00629,15.05307c-0.67913,8.88301 -3.35886,17.49567 -4.80464,26.23782c-0.65204,4.50876 -0.71464,8.8955 -1.61299,13.39l0.04855,0.57227c0,0 0,2.5 -2.5,2.5c-0.67013,0 -1.16063,-0.17963 -1.51965,-0.44259c0.85738,1.65863 1.99994,3.22403 2.27327,5.0519c0.06135,0.41028 -0.81746,1.36899 -0.46163,1.15574c1.87418,-1.12317 2.36118,-3.68178 3.67263,-5.4294c2.82942,-3.77044 6.20622,-6.77147 9.92935,-9.60724l0.27667,-0.30898c0,0 1.76777,-1.76777 3.53553,0z"/></g></g></svg>